<svg width="167" height="152" viewBox="0 0 167 152" fill="none" xmlns="http://www.w3.org/2000/svg">
<g clip-path="url(#clip0_132_3202)">
<path d="M29.6398 72.5683L2.05646 79.9636L9.41129 107.699L36.9946 100.304L29.6398 72.5683Z" fill="#455A64"/>
<path d="M17.7379 93.7556L14.0426 94.7455C13.6559 93.2945 13.2918 91.9248 12.9097 90.4783L16.5376 89.5064C16.4657 89.1764 16.4207 88.9188 16.3578 88.6656C16.0836 87.5356 15.7419 86.4055 15.5486 85.2799C15.1305 82.7666 16.1645 80.6375 18.4887 79.6565C19.9363 79.0418 21.5367 78.7977 23.1057 78.3773C23.4608 79.7018 23.78 80.9087 24.1397 82.2603C23.5777 82.4095 23.0158 82.5496 22.4628 82.7123C21.9608 82.8318 21.4715 82.9998 21.0017 83.2141C20.6913 83.3487 20.4385 83.5899 20.2887 83.8947C20.1388 84.1994 20.1015 84.5478 20.1836 84.8776C20.4263 85.9805 20.75 87.0654 21.0827 88.2498L25.2995 87.1151C25.4884 88.5617 25.6817 89.8997 25.8255 91.2422C25.8255 91.3733 25.5603 91.6174 25.376 91.6943C24.3645 91.9971 23.344 92.2548 22.2291 92.5486C23.2001 96.2237 24.1577 99.8355 25.1332 103.506L20.6376 104.708C19.68 101.065 18.718 97.4532 17.7379 93.7556Z" fill="white"/>
<path d="M165.864 105.399L137.38 102.561L134.557 131.202L163.041 134.04L165.864 105.399Z" fill="#E5005B"/>
<path d="M161.273 113.523C161.543 110.657 159.925 108.623 157.12 108.316C153.223 107.885 149.312 107.494 145.386 107.145C142.617 106.901 140.643 108.564 140.328 111.335C140.108 113.297 139.937 115.263 139.744 117.212C139.551 119.16 139.353 121.054 139.178 122.975C138.912 125.909 140.526 127.948 143.39 128.278C147.256 128.703 151.125 129.088 154.998 129.435C157.83 129.683 159.83 127.993 160.123 125.163C160.527 121.285 160.911 117.405 161.273 113.523ZM158.248 125.023C158.05 126.831 156.98 127.735 155.177 127.572C151.305 127.211 147.436 126.825 143.57 126.415C141.772 126.225 140.872 125.127 141.043 123.323C141.412 119.406 141.799 115.48 142.203 111.548C142.387 109.74 143.489 108.836 145.278 108.985C149.15 109.343 153.02 109.728 156.886 110.137C158.684 110.332 159.583 111.457 159.408 113.252C159.237 115.214 159.03 117.176 158.837 119.128C158.644 121.081 158.464 123.052 158.248 125.014V125.023Z" fill="white"/>
<path d="M150.781 112.764C149.701 112.651 148.611 112.863 147.651 113.371C146.69 113.88 145.9 114.663 145.381 115.622C144.861 116.581 144.636 117.673 144.733 118.761C144.83 119.848 145.245 120.883 145.925 121.734C146.605 122.585 147.521 123.214 148.556 123.543C149.592 123.872 150.701 123.885 151.744 123.582C152.787 123.278 153.718 122.671 154.418 121.837C155.119 121.002 155.558 119.978 155.681 118.893C155.764 118.167 155.703 117.431 155.5 116.728C155.298 116.025 154.96 115.37 154.504 114.8C154.048 114.229 153.484 113.756 152.845 113.406C152.206 113.057 151.504 112.838 150.781 112.764ZM149.805 121.926C148.862 121.804 148.002 121.323 147.4 120.583C146.799 119.842 146.503 118.898 146.573 117.944C146.62 117.461 146.762 116.993 146.99 116.565C147.217 116.138 147.526 115.759 147.899 115.452C148.272 115.145 148.702 114.914 149.163 114.773C149.625 114.633 150.11 114.585 150.59 114.633C151.07 114.681 151.536 114.823 151.961 115.052C152.386 115.281 152.762 115.592 153.068 115.967C153.374 116.342 153.603 116.774 153.743 117.238C153.883 117.702 153.93 118.189 153.883 118.672C153.763 119.644 153.269 120.529 152.506 121.138C151.743 121.747 150.774 122.03 149.805 121.926Z" fill="white"/>
<path d="M157.897 113.338C157.882 113.503 157.831 113.664 157.749 113.808C157.666 113.952 157.554 114.077 157.419 114.173C157.284 114.269 157.13 114.335 156.967 114.365C156.804 114.396 156.637 114.391 156.477 114.35C156.301 114.343 156.13 114.295 155.976 114.21C155.821 114.126 155.688 114.007 155.587 113.864C155.485 113.72 155.417 113.555 155.388 113.38C155.359 113.206 155.37 113.028 155.42 112.859C155.555 112.095 156.09 111.787 156.859 111.819C157.623 112.027 158.037 112.52 157.897 113.338Z" fill="white"/>
<path d="M162.071 42.8336L142.016 35.6572L134.879 55.8221L154.934 62.9986L162.071 42.8336Z" fill="#455A64"/>
<path d="M139.079 51.5941C140.653 52.2395 142.401 52.3146 144.024 51.8066C142.378 50.5861 141.843 49.7543 141.947 48.6062L143.206 48.9859C141.951 47.9055 141.443 46.6172 141.897 44.9718L143.053 45.7629C142.316 43.5976 142.509 42.1918 143.736 41.2425C144.204 42.5013 144.925 43.65 145.853 44.6173C146.781 45.5846 147.897 46.3499 149.131 46.8658C149.194 46.6534 149.234 46.4906 149.284 46.3324C149.444 45.687 149.8 45.1075 150.301 44.6736C150.803 44.2397 151.426 43.9728 152.084 43.9095C152.742 43.8097 153.414 43.9159 154.009 44.2135C154.604 44.5111 155.094 44.9858 155.411 45.573C155.467 45.697 155.559 45.8012 155.674 45.8721C155.789 45.9431 155.923 45.9774 156.059 45.9708C156.625 45.9708 157.187 45.9708 157.803 45.9708C157.349 46.5272 156.73 46.9231 156.036 47.1009C156.038 47.1355 156.038 47.1702 156.036 47.2048L157.704 47.354L157.744 47.4399C157.209 47.6976 156.679 47.9778 156.13 48.2039C155.998 48.2467 155.876 48.32 155.776 48.4181C155.677 48.5161 155.601 48.6363 155.555 48.7689C154.772 51.0294 153.173 52.9115 151.074 54.0419C148.976 55.1723 146.532 55.4683 144.226 54.8714C142.321 54.4028 140.603 53.3603 139.303 51.8834C139.232 51.7795 139.155 51.68 139.079 51.5941Z" fill="white"/>
<path d="M152.196 1.7094L134.646 7.5932L140.498 25.2394L158.047 19.3556L152.196 1.7094Z" fill="#E5005B"/>
<path d="M141.969 22.2118C141.911 21.1043 141.848 20.0781 141.816 19.0475C141.816 18.8953 141.784 18.7449 141.723 18.6057C141.662 18.4665 141.573 18.3415 141.461 18.2384C140.752 17.4906 140.22 16.5919 139.904 15.6091C139.588 14.6262 139.496 13.5843 139.635 12.5607C139.773 11.5372 140.14 10.5582 140.707 9.69652C141.273 8.83482 142.026 8.11249 142.908 7.58314C143.79 7.0538 144.78 6.73102 145.803 6.63876C146.826 6.5465 147.857 6.68713 148.819 7.05022C149.781 7.41331 150.649 7.98953 151.359 8.73612C152.069 9.48271 152.603 10.3805 152.921 11.3629C153.391 13.0107 153.238 14.7754 152.491 16.3164C151.744 17.8575 150.456 19.0656 148.875 19.7075C147.786 20.1295 146.613 20.2844 145.453 20.1595C145.231 20.146 145.01 20.2012 144.82 20.3177C143.88 20.937 142.967 21.5427 141.969 22.2118ZM143.035 20.1459C143.619 19.7662 144.109 19.4272 144.622 19.1243C144.804 19.0249 145.013 18.9839 145.22 19.0068C146.168 19.1703 147.142 19.1052 148.061 18.817C151.424 17.7547 153.078 13.7315 151.356 10.6803C150.862 9.67922 150.069 8.8584 149.088 8.33244C148.107 7.80649 146.987 7.60167 145.885 7.74658C144.747 7.80667 143.656 8.22602 142.768 8.94501C141.881 9.66401 141.241 10.6461 140.94 11.7516C140.203 14.0706 140.832 16.0867 142.612 17.7456C142.775 17.9103 142.878 18.1253 142.904 18.3559C142.99 18.9209 142.999 19.4995 143.035 20.1279V20.1459Z" fill="white"/>
<path d="M142.644 11.7381C142.886 10.9922 143.52 10.9108 144.046 11.4668C144.253 11.6838 144.312 11.7607 144.527 12.0183C144.679 12.1505 144.779 12.333 144.809 12.5329C144.839 12.7327 144.796 12.9367 144.689 13.1077C144.523 13.3925 144.608 13.5598 144.846 13.7541C145.573 14.328 146.449 14.6795 147.369 14.7667C147.427 14.7822 147.487 14.7858 147.547 14.7773C147.607 14.7687 147.664 14.7483 147.715 14.7171C147.767 14.6859 147.812 14.6446 147.847 14.5956C147.883 14.5467 147.908 14.4911 147.921 14.4322C148.263 13.5598 148.277 13.5643 149.207 13.6728L149.526 13.7135C149.676 13.7098 149.823 13.7485 149.951 13.8251C150.08 13.9017 150.184 14.013 150.253 14.1465C150.321 14.2799 150.351 14.4301 150.339 14.5797C150.326 14.7294 150.272 14.8725 150.183 14.9927C150.026 15.304 149.788 15.5665 149.494 15.7521C149.2 15.9376 148.862 16.0392 148.515 16.046C146.711 16.1504 144.937 15.5439 143.57 14.3553C143.112 14.0343 142.767 13.5753 142.585 13.0444C142.48 12.6123 142.5 12.159 142.644 11.7381Z" fill="white"/>
<path d="M81.2339 83.6205C81.2339 83.6205 78.0556 93.7461 74.041 106.928C69.5814 121.578 64.0877 139.994 60.788 152.466H90.8186C91.3221 150.459 91.8705 148.289 92.4505 145.983L94.986 136.039C97.3866 126.641 100.03 116.366 102.336 107.429C105.793 94.0354 108.491 83.6341 108.491 83.6341L81.2339 83.6205Z" fill="#455A64"/>
<path d="M102.669 90.9706C102.022 93.2896 101.208 95.5678 100.493 97.8597C99.7783 100.151 99.0411 102.556 98.3218 104.907C96.8952 109.563 95.4805 114.22 94.0779 118.879C91.2637 128.194 88.4584 137.515 85.6621 146.842C85.1002 148.718 84.5113 150.59 83.9313 152.466H84.8305C85.9064 148.873 86.9824 145.278 88.0583 141.68C90.8815 132.214 93.6943 122.744 96.4965 113.27C97.8992 108.511 99.2943 103.748 100.682 98.9807C101.379 96.5714 102.031 94.1575 102.727 91.7481C103.083 90.5457 102.93 90.0168 102.669 90.9706Z" fill="#263238"/>
<path d="M84.3314 83.6205C86.2241 98.3433 89.8295 125.954 92.4595 146.002C98.6139 121.732 108.5 83.6205 108.5 83.6205H84.3314Z" fill="#263238"/>
<path d="M94.9905 136.025C95.1389 141.567 95.2872 147.367 95.4041 152.466H122.998C122.436 139.863 121.47 122.075 120.66 107.737C119.896 94.1168 119.267 83.6205 119.267 83.6205H82.1151C82.1151 83.6205 82.7445 96.7296 85.7116 107.126C85.9499 107.985 86.2106 108.831 86.4938 109.64C89.2307 110.753 91.861 112.115 94.3521 113.708C94.3521 113.708 94.6848 124.254 94.9905 136.025Z" fill="#455A64"/>
<path d="M118.642 152.466H119.091C118.909 149.127 118.741 145.789 118.588 142.453C117.788 124.417 117.158 106.367 116.565 88.3262C116.565 88.1816 116.34 88.168 116.345 88.3262C116.646 98.5287 116.911 108.736 117.244 118.938C117.63 130.094 118.096 141.27 118.642 152.466Z" fill="#263238"/>
<path d="M85.1721 108.858C88.3718 110.202 91.4494 111.824 94.3701 113.704C94.3907 113.719 94.4052 113.741 94.4109 113.766C94.4167 113.792 94.4133 113.818 94.4013 113.841C94.3894 113.864 94.3698 113.882 94.3459 113.891C94.3221 113.901 94.2956 113.902 94.2712 113.893C91.1693 112.375 87.9999 110.915 84.9833 109.233C84.9418 109.204 84.9122 109.16 84.8999 109.111C84.8875 109.061 84.8934 109.009 84.9163 108.963C84.9392 108.918 84.9777 108.882 85.0247 108.863C85.0717 108.843 85.124 108.841 85.1721 108.858Z" fill="#263238"/>
<path d="M83.248 94.3473C83.5043 95.7351 83.8369 97.1093 84.1471 98.488C84.4259 99.7808 84.6282 101.101 84.9698 102.375C85.2446 103.615 85.8689 104.748 86.7681 105.639C87.2716 106.091 87.829 106.543 88.3685 106.959C88.6562 107.19 88.9709 107.411 89.2676 107.651C89.2272 107.47 89.1957 107.28 89.1642 107.095C89.0698 106.566 88.9844 106.042 88.8945 105.517C88.7012 104.346 88.5124 103.176 88.337 102.005C87.9864 99.704 87.6627 97.3805 87.1862 95.1022C87.1862 95.0851 87.1919 95.0685 87.2023 95.0549C87.2128 95.0414 87.2275 95.0318 87.244 95.0277C87.2606 95.0235 87.278 95.025 87.2936 95.032C87.3092 95.039 87.322 95.051 87.33 95.0661C87.901 97.3263 88.5303 99.5593 89.0249 101.847C89.2676 102.963 90.1398 108.478 90.1757 108.867C90.2117 109.256 90.2477 109.671 90.2656 110.078C90.3174 110.489 90.3174 110.906 90.2656 111.317C90.2432 111.416 90.1218 111.398 90.0768 111.317C89.9115 110.933 89.7937 110.531 89.7262 110.119C89.6273 109.726 89.5374 109.328 89.4699 108.926C89.443 108.781 89.425 108.636 89.4025 108.473C88.863 108.143 88.3595 107.71 87.856 107.339C87.3525 106.968 86.7591 106.557 86.2421 106.123C85.2923 105.314 84.6063 104.237 84.273 103.031C83.9421 101.731 83.727 100.405 83.6301 99.0666C83.4548 97.5025 83.3289 95.9249 83.1087 94.3654C83.0907 94.2931 83.23 94.2524 83.248 94.3473Z" fill="#263238"/>
<path d="M88.1662 47.1819C86.323 61.9544 83.1041 86.7305 77.8937 88.7331C76.9946 89.0811 73.1554 89.8451 70.5344 86.8797C66.1153 81.8802 58.4727 65.0102 56.3283 59.5812C55.3798 57.1764 70.9795 49.329 72.3147 51.7474C74.1849 55.1332 76.1494 60.2322 76.5181 60.0604C77.143 59.7756 78.2039 53.4878 82.3624 44.655C87.5548 33.6795 88.854 41.6896 88.1662 47.1819Z" fill="#EB9481"/>
<path d="M51.8058 53.7499C53.3433 57.0679 59.1246 62.6144 61.0308 63.4145C62.9369 64.2146 72.6429 54.6495 72.3956 52.5294C72.1484 50.4094 66.1018 39.6509 62.7885 37.9919C59.4753 36.333 50.2188 50.3145 51.8058 53.7499Z" fill="#EB9481"/>
<path d="M71.6898 50.5179C71.6898 50.5179 71.3706 45.767 72.49 41.7303C73.4341 38.3355 75.2189 33.3993 73.4206 32.8207C69.7342 31.6318 65.2926 43.9408 65.2926 43.9408C65.2926 43.9408 64.1956 49.6862 67.7472 51.1734C68.4006 51.4401 69.1146 51.52 69.8104 51.4044C70.5061 51.2887 71.1566 50.9819 71.6898 50.5179Z" fill="#EB9481"/>
<path d="M61.8085 54.4416L56.3373 53.4742L59.1291 37.5399L66.0523 38.7649L61.8085 54.4416Z" fill="#E5005B"/>
<path d="M66.0523 38.7649L64.4339 44.7454L61.8085 54.4461L56.3328 53.4742L59.1291 37.5399L66.0523 38.7649Z" fill="#E5005B"/>
<path opacity="0.1" d="M66.0523 38.7649L64.4339 44.7454L58.0637 43.6153L59.1291 37.5399L66.0523 38.7649Z" fill="black"/>
<path d="M67.4308 34.6598L58.8153 33.1323L57.6615 39.7119L66.277 41.2394L67.4308 34.6598Z" fill="#E5005B"/>
<path d="M73.6319 33.2682L66.821 32.7529L68.6867 22.1029L75.2593 23.9653L73.6319 33.2682Z" fill="#E5005B"/>
<path d="M65.6118 19.3861L62.8605 35.1035L51.3922 34.4661L23.5869 39.4972L30.2044 1.7522L54.62 16.0456L65.6118 19.3861Z" fill="#E5005B"/>
<path d="M32.3483 21.6011C34.185 11.1274 32.9603 2.15576 29.6129 1.56228C26.2655 0.968792 22.063 8.97824 20.2263 19.4519C18.3897 29.9255 19.6143 38.8972 22.9617 39.4907C26.3091 40.0842 30.5116 32.0747 32.3483 21.6011Z" fill="#E5005B"/>
<path opacity="0.2" d="M30.9957 21.0246C32.6263 11.7262 31.7262 3.7944 28.9852 3.30842C26.2442 2.82245 22.7003 9.96636 21.0697 19.2648C19.4392 28.5632 20.3393 36.495 23.0803 36.981C25.8213 37.467 29.3652 30.3231 30.9957 21.0246Z" fill="black"/>
<path d="M30.1865 20.8553C29.9662 22.0938 29.7369 23.2917 29.4357 24.4399C28.8076 24.7906 28.0936 24.9553 27.3764 24.915C26.6591 24.8746 25.9678 24.6307 25.3827 24.2117C24.7975 23.7926 24.3424 23.2155 24.0699 22.5471C23.7974 21.8787 23.7188 21.1463 23.8432 20.4349L24.1534 18.6538C24.2763 17.9443 24.5962 17.2841 25.0763 16.7496C25.5563 16.215 26.1768 15.8278 26.8663 15.6326C27.5558 15.4374 28.2861 15.4422 28.973 15.6465C29.6599 15.8507 30.2754 16.2461 30.7484 16.7869C30.618 18.1159 30.4292 19.4992 30.1865 20.8553Z" fill="#E5005B"/>
<path d="M68.7632 37.0472L55.5911 36.0527L59.201 15.4579L71.9191 19.0516L68.7632 37.0472Z" fill="#E5005B"/>
<path opacity="0.2" d="M68.7632 37.0472L55.5911 36.0527L59.201 15.4579L71.9191 19.0516L68.7632 37.0472Z" fill="black"/>
<path opacity="0.2" d="M31.5081 4.64975C32.1997 5.9219 32.6567 7.30941 32.8568 8.7452C33.0837 10.1743 33.1964 11.6194 33.194 13.0667C33.194 13.7899 33.1715 14.5132 33.149 15.2319C33.1265 15.9507 33.0546 16.6739 32.9782 17.3927C32.9018 18.1114 32.8253 18.8301 32.7174 19.5444C32.6095 20.2586 32.5061 20.9728 32.3803 21.6825C31.8865 24.5317 31.134 27.3295 30.1325 30.0406C29.6253 31.3956 28.9995 32.7026 28.2623 33.9462C27.5465 35.2065 26.5736 36.3003 25.4076 37.1557C26.5222 36.2497 27.4402 35.1236 28.105 33.8468C28.8015 32.5963 29.3867 31.2863 29.8537 29.9321C30.7958 27.2238 31.5072 24.4397 31.9802 21.6102C32.5151 18.7923 32.8158 15.9346 32.8793 13.0667C32.9184 11.6331 32.8447 10.1987 32.659 8.77684C32.5153 7.34464 32.1259 5.94829 31.5081 4.64975Z" fill="black"/>
<path d="M17.8145 1.37247C18.5923 1.99176 19.343 2.65173 20.0623 3.3117C20.7816 3.97168 21.5279 4.66781 22.2472 5.33683C22.9665 6.00584 23.6723 6.72006 24.3646 7.4388L25.3941 8.51464C25.7268 8.88531 26.0729 9.24694 26.3966 9.62665C26.001 9.31927 25.6279 8.9938 25.2412 8.67737L24.1218 7.68742C23.3801 7.03196 22.6563 6.33131 21.937 5.66229C21.2177 4.99328 20.5119 4.27906 19.824 3.56032C19.1362 2.84158 18.4664 2.12737 17.8145 1.37247Z" fill="#263238"/>
<path d="M23.3441 30.5379C22.2607 30.8227 21.1637 31.0577 20.0713 31.2837C18.9789 31.5098 17.8774 31.7358 16.776 31.9121C15.6746 32.0884 14.5732 32.2873 13.4628 32.4409L11.7994 32.667C11.2464 32.7257 10.689 32.7981 10.1315 32.8433C10.671 32.6986 11.2195 32.5811 11.7634 32.4455L13.4043 32.0974C14.4968 31.8623 15.5982 31.6454 16.6996 31.4691C17.801 31.2928 18.9024 31.0939 20.0129 30.9447C21.1233 30.7955 22.2292 30.6373 23.3441 30.5379Z" fill="#263238"/>
<path d="M2.75427 26.6187C4.39517 26.4922 6.03606 26.4108 7.69943 26.3385C9.36281 26.2661 10.9812 26.2164 12.6221 26.1757C14.263 26.135 15.9084 26.1124 17.5673 26.117H20.0309C20.8536 26.117 21.6763 26.117 22.4989 26.1757C21.6763 26.2435 20.8581 26.2842 20.0354 26.3385L17.5718 26.4605C15.9309 26.5374 14.29 26.578 12.6266 26.6232C10.9632 26.6684 9.34033 26.682 7.68145 26.6775C6.02257 26.673 4.39966 26.6775 2.75427 26.6187Z" fill="#263238"/>
<path d="M8.63904 1.70245C10.0417 2.60653 11.4173 3.5558 12.7885 4.5096C14.1596 5.4634 15.5173 6.43528 16.8705 7.41168C18.2237 8.38808 19.5678 9.38256 20.8895 10.3996L22.8766 11.923C23.5285 12.4474 24.1893 12.9536 24.8367 13.487C24.1309 13.035 23.4431 12.583 22.7462 12.1038L20.6872 10.6799C19.3116 9.73062 17.9584 8.75423 16.6052 7.77783C15.2521 6.80143 13.9079 5.80243 12.5862 4.78986C11.2645 3.7773 9.93377 2.77378 8.63904 1.70245Z" fill="#263238"/>
<path d="M23.1238 19.8065C21.2177 19.5444 19.3161 19.2324 17.4189 18.9025C15.5218 18.5725 13.6291 18.2244 11.7365 17.8899C9.84384 17.5554 7.95569 17.1621 6.07203 16.7689L3.2443 16.1767C2.30921 15.9597 1.36514 15.7608 0.430054 15.5303C1.38312 15.6614 2.33619 15.8151 3.28476 15.9552L6.13497 16.4072C8.03211 16.7237 9.92476 17.0853 11.8174 17.4198C13.7101 17.7543 15.5982 18.1476 17.4819 18.5408C19.3655 18.9341 21.2627 19.359 23.1238 19.8065Z" fill="#263238"/>
<path d="M67.401 41.5766C67.1897 43.5023 65.0498 42.1552 65.0498 42.1552C65.0498 42.1552 67.6662 44.8403 66.6862 46.7479C65.7376 48.5786 63.2111 46.8564 63.0268 46.7479C63.1662 46.8925 65.5039 49.424 64.326 51.2366C63.1482 53.0493 60.8554 50.9518 60.7295 50.8117C60.815 50.988 61.9299 53.3386 60.7295 54.5094C58.6526 56.5209 55.645 50.5857 53.3972 49.9574C53.3972 49.9574 51.9002 53.6641 51.8327 53.7635C51.8327 53.7635 48.8567 48.1809 49.8727 45.1748C50.0129 44.736 50.2979 44.3584 50.6804 44.1045C51.0629 43.8505 51.5202 43.7353 51.9766 43.778C51.9766 43.778 50.8212 42.0874 51.7024 40.6138C52.1519 39.8679 53.7524 39.9357 53.7524 39.9357C53.7524 39.9357 52.8802 38.5389 53.7524 37.2958C54.4402 36.3013 55.9282 36.5228 55.9282 36.5228C55.9282 36.5228 55.708 34.796 56.7419 34.005C58.7874 32.4229 67.8416 37.4495 67.401 41.5766Z" fill="#EB9481"/>
<path d="M56.1395 36.5319C56.1347 36.5298 56.1306 36.5263 56.1278 36.5219C56.1249 36.5174 56.1234 36.5123 56.1234 36.507C56.1234 36.5017 56.1249 36.4966 56.1278 36.4921C56.1306 36.4877 56.1347 36.4843 56.1395 36.4821C59.5202 37.3862 62.9504 39.4565 65.1622 42.214C65.2341 42.3044 65.1173 42.4626 65.0184 42.3767C62.3546 40.008 59.364 38.0394 56.1395 36.5319Z" fill="#263238"/>
<path d="M53.6895 39.8995C53.6535 39.8995 53.6894 39.8227 53.7209 39.8363C57.196 40.8036 60.9948 43.2265 63.1617 46.7027C63.2336 46.8247 63.1842 47.0056 63.0853 46.8745C61.4803 44.673 56.742 41.2692 53.6895 39.8995Z" fill="#263238"/>
<path d="M60.779 51.092C58.5626 47.8373 55.5326 45.6223 52.098 43.8006C52.053 43.8006 52.098 43.7147 52.1339 43.7283C54.0535 44.1803 56.126 45.5364 57.6455 46.7705C59.079 47.8747 60.1983 49.3385 60.8913 51.0151C60.9183 51.0829 60.8239 51.1417 60.779 51.092Z" fill="#263238"/>
<path d="M65.1172 42.1507C65.2027 42.2592 64.9509 42.2682 65.0318 42.3767C65.387 42.8288 67.2571 45.8484 66.4389 46.8067C65.7826 47.5751 64.299 47.218 63.7865 46.8564L62.4873 45.9523L63.3864 47.2587C63.7877 47.8361 64.0914 48.476 64.2856 49.1527C64.3969 49.4604 64.442 49.7883 64.418 50.1148C64.394 50.4413 64.3013 50.7589 64.1462 51.0468C63.9997 51.3133 63.7666 51.5211 63.4859 51.6355C63.2052 51.7499 62.8939 51.7639 62.6042 51.6751C61.9608 51.4611 61.3811 51.0881 60.9184 50.5902L59.6011 49.2341L60.4059 50.9247C60.632 51.3945 60.7982 51.8912 60.9004 52.4029C61.0146 52.8838 60.9881 53.3878 60.8239 53.8539C60.7371 54.0593 60.5954 54.2365 60.4144 54.3658C60.2335 54.4951 60.0204 54.5714 59.7989 54.5862C59.3013 54.5442 58.8257 54.3608 58.4278 54.0573C57.5542 53.4098 56.732 52.6949 55.9687 51.9192C55.5731 51.5395 55.173 51.1598 54.7549 50.7982C54.3547 50.4132 53.8783 50.1175 53.3568 49.9302C53.8473 50.17 54.287 50.5032 54.6515 50.9112C55.0381 51.2999 55.4022 51.7067 55.7709 52.1136C56.4953 52.9592 57.2976 53.7342 58.167 54.428C58.6315 54.8149 59.1992 55.0555 59.7989 55.1196C60.1278 55.1174 60.449 55.0193 60.7235 54.8371C60.998 54.655 61.2141 54.3967 61.3454 54.0935C61.5756 53.5199 61.6289 52.8898 61.4983 52.2854C61.3964 51.7135 61.2211 51.1574 60.9768 50.6309L60.4643 50.9835C61.0007 51.5842 61.6842 52.033 62.4469 52.2854C62.8738 52.4126 63.3313 52.387 63.7416 52.213C64.137 52.0281 64.4687 51.7292 64.6947 51.3542C64.891 50.9893 65.0082 50.5867 65.0384 50.1729C65.0686 49.7592 65.0112 49.3437 64.87 48.9538C64.6402 48.2121 64.2892 47.5139 63.8315 46.888L63.4359 47.2858C64.1102 47.7379 65.7197 48.3029 66.8885 47.2406C68.2237 45.6585 65.6297 42.6615 65.1172 42.1507Z" fill="#263238"/>
<path d="M65.0498 42.1552C65.4215 42.2972 65.8127 42.381 66.2097 42.4038C66.3685 42.4171 66.5279 42.3876 66.6717 42.3185C66.8155 42.2494 66.9384 42.1431 67.0279 42.0106C67.1805 41.6918 67.2383 41.3355 67.1942 40.9844C67.1672 40.5957 67.1178 40.1889 67.0504 39.7685C67.3176 40.1078 67.5092 40.5009 67.6123 40.9212C67.6817 41.1483 67.706 41.387 67.6836 41.6236C67.6612 41.8601 67.5927 42.0899 67.4819 42.2999C67.338 42.5202 67.1288 42.6894 66.884 42.7835C66.651 42.8633 66.4007 42.8773 66.1602 42.8242C65.7288 42.7256 65.3398 42.4912 65.0498 42.1552Z" fill="#263238"/>
<path d="M55.1145 64.9062L72.1663 51.1417C72.1663 51.1417 76.2978 59.7304 76.5405 59.6942C76.7833 59.658 79.4896 48.2622 83.9763 41.1607C88.4629 34.0592 89.5418 41.7664 88.5887 47.6248C87.6357 53.4832 83.1491 85.953 79.1165 88.9274C75.084 91.9018 71.2942 88.177 69.6758 86.5994C67.4145 84.398 55.1145 64.9062 55.1145 64.9062Z" fill="#E5005B"/>
<path d="M58.3963 66.4567C58.9313 65.9052 64.29 61.7013 65.4724 60.8153L69.0329 58.1573C70.2557 57.2532 71.465 56.2542 72.7597 55.4451C72.7653 55.4406 72.7718 55.4373 72.7787 55.4354C72.7855 55.4334 72.7927 55.4329 72.7998 55.4337C72.8069 55.4345 72.8138 55.4368 72.82 55.4403C72.8262 55.4438 72.8317 55.4485 72.8362 55.4541C72.8406 55.4598 72.8439 55.4662 72.8458 55.4731C72.8478 55.4801 72.8483 55.4873 72.8475 55.4944C72.8467 55.5016 72.8444 55.5085 72.841 55.5147C72.8375 55.521 72.8328 55.5265 72.8272 55.531C71.7033 56.5707 70.4355 57.4747 69.2307 58.4195C68.0259 59.3642 66.8615 60.2909 65.6747 61.2176C64.4878 62.1443 59.0931 66.19 58.4457 66.5471C58.3918 66.5742 58.3603 66.5109 58.3963 66.4567Z" fill="#263238"/>
<path d="M76.5585 59.6716C77.0081 60.6842 77.4577 61.7239 77.8353 62.7636C78.2129 63.8032 78.5905 64.8655 78.9277 65.9278C79.2649 66.9901 79.5706 68.066 79.8268 69.1554C80.0952 70.2409 80.3008 71.3412 80.4427 72.4507C80.2764 71.9128 80.1415 71.3749 79.9932 70.846C79.8448 70.3171 79.6785 69.7792 79.5121 69.2458L78.5231 66.0815L77.5341 62.9173L77.0081 61.2809C76.8552 60.743 76.6889 60.2096 76.5585 59.6716Z" fill="#263238"/>
<path d="M76.6215 95.039C77.3587 95.7758 122.697 93.3619 122.926 93.0681C123.524 92.2635 107.308 43.7464 96.6808 36.0708C94.3971 34.4209 88.2561 36.6313 86.6781 38.2225C85.6891 39.2215 83.5312 45.5274 82.1286 50.7394C79.2963 61.1814 75.9786 94.3925 76.6215 95.039Z" fill="white"/>
<path d="M87.5997 36.1748C85.8015 37.5309 84.4258 44.4516 88.5348 45.3873C92.6438 46.323 96.456 39.8001 97.018 37.7026C97.5799 35.6052 91.4884 33.2727 87.5997 36.1748Z" fill="#E5005B"/>
<path d="M88.8315 44.438C91.3805 44.768 95.2512 40.4962 96.6134 37.2054C96.7078 36.9794 96.1639 34.778 95.5974 32.0657C95.2692 30.4203 94.9455 28.5806 94.7657 26.8764L84.4258 30.5876C84.4258 30.5876 85.842 34.0457 86.1342 37.0155C86.1567 37.2501 86.1567 37.4862 86.1342 37.7207C86.1342 37.7524 86.1342 37.7931 86.1342 37.8383C86.0488 39.1989 86.3679 44.1216 88.8315 44.438Z" fill="#EB9481"/>
<path d="M94.2757 27.0662C94.1678 29.227 93.3541 37.011 87.2221 37.7976C86.8584 37.8435 86.4917 37.8617 86.1252 37.8518C86.118 37.813 86.118 37.7731 86.1252 37.7343C86.1432 37.4996 86.1432 37.2638 86.1252 37.0291C85.8285 34.0637 84.4124 30.6057 84.4124 30.6057L94.2757 27.0662Z" fill="#263238"/>
<path d="M94.941 14.138C96.4471 17.8176 95.494 28.9467 93.0484 31.6454C89.4969 35.5555 83.1581 36.5002 79.7369 32.0974C76.4102 27.8257 77.9072 13.3379 80.69 10.8517C84.7855 7.14047 92.7112 8.70451 94.941 14.138Z" fill="#EB9481"/>
<path d="M85.1631 21.8271C85.1631 21.8 85.2216 21.8678 85.2171 21.8995C85.1317 22.6498 85.1631 23.5177 85.815 23.8206C85.815 23.8206 85.815 23.8703 85.815 23.8658C84.9923 23.6805 84.9653 22.5233 85.1631 21.8271Z" fill="#263238"/>
<path d="M85.8959 21.0993C87.1008 21.0993 87.0018 23.5313 85.8959 23.5268C84.79 23.5223 84.8844 21.0948 85.8959 21.0993Z" fill="#263238"/>
<path d="M80.9777 21.6734C80.9777 21.6463 80.9193 21.7096 80.9193 21.7367C80.9193 22.4916 80.7754 23.3505 80.0876 23.572V23.6172C80.9238 23.5358 81.0901 22.3876 80.9777 21.6734Z" fill="#263238"/>
<path d="M80.3439 20.8552C79.1435 20.7151 78.9502 23.1154 80.0606 23.2691C81.171 23.4228 81.3464 20.9818 80.3439 20.8552Z" fill="#263238"/>
<path d="M86.8985 20.028C86.5844 19.9225 86.2767 19.7988 85.9769 19.6574C85.6348 19.5728 85.3299 19.3774 85.1092 19.1014C85.0567 19.0006 85.0388 18.8853 85.0583 18.7733C85.0779 18.6612 85.1337 18.5589 85.2171 18.4821C85.4045 18.3558 85.6221 18.2821 85.8473 18.2686C86.0726 18.255 86.2973 18.3022 86.4984 18.4052C86.9377 18.551 87.3077 18.8554 87.5368 19.2596C87.5837 19.3547 87.6021 19.4614 87.5897 19.5668C87.5773 19.6723 87.5347 19.7718 87.467 19.8532C87.3993 19.9347 87.3095 19.9946 87.2086 20.0256C87.1076 20.0567 86.9999 20.0575 86.8985 20.028Z" fill="#263238"/>
<path d="M79.4627 19.5986C79.7953 19.5579 80.101 19.463 80.4292 19.3907C80.7818 19.3657 81.1158 19.2224 81.3778 18.9838C81.4463 18.8945 81.4835 18.7848 81.4835 18.6719C81.4835 18.5591 81.4463 18.4494 81.3778 18.36C81.2139 18.2028 81.0111 18.0927 80.7905 18.041C80.5699 17.9894 80.3396 17.998 80.1235 18.0662C79.6671 18.1356 79.2524 18.3723 78.9592 18.7307C78.8981 18.8171 78.8631 18.9194 78.8584 19.0254C78.8537 19.1313 78.8794 19.2363 78.9326 19.3279C78.9857 19.4195 79.064 19.4937 79.158 19.5417C79.252 19.5897 79.3578 19.6095 79.4627 19.5986Z" fill="#263238"/>
<path d="M86.1207 28.8699C85.9363 29.0371 85.7475 29.2722 85.4733 29.2812C85.1952 29.2663 84.9237 29.1907 84.6776 29.0597C84.6728 29.0586 84.6678 29.0587 84.6631 29.0602C84.6584 29.0617 84.6542 29.0645 84.651 29.0682C84.6477 29.072 84.6456 29.0765 84.6447 29.0814C84.6438 29.0863 84.6443 29.0913 84.6461 29.0959C84.7447 29.2502 84.8838 29.3741 85.048 29.4538C85.2122 29.5336 85.3952 29.5662 85.5767 29.5479C85.7308 29.5154 85.8717 29.4373 85.9814 29.3238C86.0911 29.2102 86.1646 29.0664 86.1926 28.9106C86.2061 28.8608 86.1476 28.8427 86.1207 28.8699Z" fill="#263238"/>
<path d="M85.4284 26.5826C85.2275 26.8726 84.9685 27.1173 84.6682 27.301C84.3678 27.4847 84.0327 27.6033 83.6841 27.6494C83.3859 27.6926 83.0831 27.6926 82.785 27.6494C82.7259 27.6454 82.6672 27.6364 82.6097 27.6222L82.4478 27.5906C82.4077 27.5815 82.3718 27.5593 82.3457 27.5273C82.3197 27.4954 82.305 27.4556 82.3039 27.4143C82.3018 27.3887 82.3018 27.363 82.3039 27.3375V27.2697C82.3039 26.691 82.4073 25.8141 82.4073 25.8141C82.1916 25.909 81.0991 26.352 81.1261 26.0492C81.3824 23.5494 81.6611 20.7739 82.4388 18.3645C82.4613 18.2832 82.5872 18.3058 82.5737 18.3645C82.4253 20.7784 81.8544 23.1426 81.6746 25.561C82.0623 25.3992 82.471 25.2942 82.8884 25.249C82.9693 25.2762 82.6816 26.9397 82.6996 27.2018C82.6986 27.2109 82.6986 27.22 82.6996 27.229C83.6616 27.3962 84.4034 27.1295 85.3654 26.5193C85.4194 26.4741 85.4778 26.5238 85.4284 26.5826Z" fill="#263238"/>
<path d="M83.194 27.5092C83.5251 27.9057 83.9525 28.2094 84.4348 28.3907C84.7024 28.4769 84.99 28.4769 85.2575 28.3907C85.8419 28.2054 85.8285 27.6584 85.7071 27.1973C85.6338 26.9515 85.5328 26.7149 85.4059 26.4922C84.7962 27.0611 84.0208 27.4177 83.194 27.5092Z" fill="#263238"/>
<path d="M84.4348 28.3907C84.7024 28.4769 84.99 28.4769 85.2575 28.3907C85.8419 28.2054 85.8285 27.6584 85.7071 27.1973C85.3918 27.2216 85.0942 27.353 84.863 27.5699C84.6318 27.7867 84.4808 28.0762 84.4348 28.3907Z" fill="#E5005B"/>
<path d="M95.1793 23.3686C95.449 22.3967 97.9441 11.9185 97.6699 10.7748C97.4181 9.73515 96.2852 10.1601 96.2717 10.1013C96.2583 10.0425 96.2178 9.09326 95.6334 8.74519C95.434 8.65823 95.219 8.61335 95.0017 8.61335C94.7844 8.61335 94.5694 8.65823 94.3701 8.74519C94.3701 8.74519 94.1948 7.74619 93.5699 7.47497C93.3606 7.40837 93.1377 7.39794 92.9232 7.44473C92.7087 7.49151 92.5101 7.59388 92.3471 7.74167C92.2896 7.47621 92.1687 7.22882 91.9948 7.02089C91.8209 6.81296 91.5993 6.65075 91.3491 6.54829C91.1259 6.48333 90.8879 6.49219 90.6702 6.57358C90.4524 6.65497 90.2665 6.80458 90.1397 7.00033C90.1397 7.00033 89.8745 6.04653 89.2406 5.8612C88.6067 5.67586 88.0268 6.38556 88.0268 6.38556C87.9331 6.14503 87.7769 5.93422 87.5744 5.77518C87.3719 5.61614 87.1307 5.51471 86.8759 5.48149C86.6283 5.49847 86.3912 5.58923 86.1951 5.7422C85.9989 5.89516 85.8525 6.1034 85.7745 6.34036C85.7745 6.34036 85.3249 5.49957 84.5607 5.47697C83.7964 5.45437 83.5627 6.38104 83.5627 6.38104C83.5627 6.38104 83.257 5.54929 82.5557 5.60354C81.8543 5.65778 81.6925 6.64322 81.6925 6.64322C81.6925 6.64322 81.3014 5.73915 80.4742 5.99681C79.2109 6.40816 79.0536 12.4835 78.7659 15.1234C78.7659 15.1234 79.1165 13.8622 79.665 13.817C80.2135 13.7718 80.6001 14.6262 81.6026 14.8522C83.0277 15.1686 85.4014 13.4961 87.3659 13.9074C89.3305 14.3188 90.6882 16.3349 91.376 19.3319C92.1268 22.808 94.5409 25.674 95.1793 23.3686Z" fill="#263238"/>
<path d="M85.6307 25.5474C84.8242 25.399 84.1094 24.9347 83.6433 24.2566C83.1771 23.5785 82.9977 22.7421 83.1446 21.9311C83.2478 21.3612 83.508 20.8319 83.8954 20.4033C84.2829 19.9747 84.7822 19.6639 85.3365 19.5063C85.8909 19.3488 86.4781 19.3507 87.0314 19.512C87.5847 19.6732 88.0819 19.9872 88.4666 20.4184C88.8512 20.8496 89.1079 21.3806 89.2074 21.9512C89.3069 22.5217 89.2453 23.1089 89.0295 23.6459C88.8137 24.183 88.4524 24.6484 87.9867 24.9894C87.521 25.3303 86.9695 25.533 86.3949 25.5745C86.14 25.5968 85.8834 25.5877 85.6307 25.5474ZM83.5492 22.0215C83.4553 22.5441 83.5177 23.083 83.7284 23.57C83.9392 24.057 84.2888 24.4702 84.7331 24.7574C85.1774 25.0446 85.6964 25.1928 86.2245 25.1834C86.7526 25.174 87.266 25.0073 87.6999 24.7044C88.1338 24.4016 88.4686 23.9761 88.662 23.4819C88.8554 22.9877 88.8987 22.447 88.7864 21.928C88.6742 21.4091 88.4114 20.9352 88.0313 20.5665C87.6512 20.1977 87.1709 19.9505 86.6512 19.8563C86.4334 19.8152 86.2112 19.8031 85.9903 19.8201C85.3976 19.8611 84.8356 20.1 84.3933 20.4988C83.9511 20.8976 83.654 21.4336 83.5492 22.0215Z" fill="#FFC727"/>
<path d="M79.13 25.2219C77.8668 25.1632 76.9047 23.7257 76.9811 22.0215C77.0037 21.2489 77.2663 20.5029 77.7319 19.8879C77.9158 19.6119 78.1674 19.3884 78.4625 19.2388C78.7575 19.0893 79.0859 19.0188 79.4159 19.0343C79.7459 19.0497 80.0664 19.1506 80.3463 19.327C80.6262 19.5035 80.8561 19.7496 81.0137 20.0416C81.4202 20.6966 81.612 21.4635 81.5621 22.234C81.4902 23.8523 80.5057 25.136 79.3143 25.2219H79.13ZM78.0511 20.1455C77.6408 20.6924 77.4113 21.3548 77.3947 22.0396C77.3273 23.5177 78.114 24.7518 79.148 24.8106C80.182 24.8693 81.0856 23.694 81.153 22.2159C81.1957 21.5322 81.0278 20.8518 80.672 20.2676C80.5399 20.0384 80.355 19.8445 80.1328 19.7021C79.9106 19.5597 79.6577 19.473 79.3953 19.4494H79.2559C79.0179 19.4746 78.7878 19.5496 78.5803 19.6695C78.3729 19.7894 78.1926 19.9515 78.0511 20.1455Z" fill="#FFC727"/>
<path d="M83.23 22.3108L83.5088 22.0034C83.0592 21.5876 82.0072 21.009 81.216 21.7819L81.5037 22.0758C82.2095 21.3841 83.1896 22.2701 83.23 22.3108Z" fill="#FFC727"/>
<path d="M96.9056 23.7438L97.2832 23.572C97.2023 23.3957 96.4695 21.8497 95.5614 21.6599C94.6533 21.47 89.1687 21.7412 88.9304 21.7548V22.1661C90.5174 22.0893 94.7747 21.9266 95.4535 22.0622C96.1324 22.1978 96.7123 23.3188 96.9056 23.7438Z" fill="#FFC727"/>
<path d="M92.7427 22.9843C92.7427 22.9843 94.9456 19.255 96.6089 20.019C98.2723 20.7829 96.8022 26.0582 94.977 26.9035C94.7504 27.0283 94.501 27.1056 94.2439 27.1308C93.9867 27.1559 93.7272 27.1284 93.4809 27.0498C93.2347 26.9712 93.0068 26.8432 92.8112 26.6735C92.6155 26.5039 92.4561 26.2961 92.3426 26.0627L92.7427 22.9843Z" fill="#EB9481"/>
<path d="M96.1324 21.5197C96.1372 21.5219 96.1413 21.5253 96.1441 21.5297C96.147 21.5342 96.1485 21.5393 96.1485 21.5446C96.1485 21.5499 96.147 21.5551 96.1441 21.5595C96.1413 21.5639 96.1372 21.5674 96.1324 21.5695C94.8556 22.2068 94.2532 23.4861 93.8621 24.797C94.2172 24.2772 94.7297 23.9653 95.4176 24.3857C95.4242 24.391 95.429 24.3984 95.4312 24.4066C95.4334 24.4149 95.433 24.4236 95.43 24.4316C95.4271 24.4396 95.4216 24.4465 95.4146 24.4512C95.4075 24.4559 95.3991 24.4583 95.3906 24.458C95.1533 24.4025 94.9049 24.4217 94.6789 24.5131C94.4529 24.6045 94.2603 24.7636 94.1273 24.9688C93.9084 25.3142 93.7275 25.6825 93.5878 26.0672C93.5339 26.1893 93.3181 26.1441 93.3496 26.0039C93.3515 25.9935 93.3515 25.9828 93.3496 25.9723C93.2147 24.2862 94.3431 21.8271 96.1324 21.5197Z" fill="#263238"/>
<path d="M103.083 39.2441C117.752 49.3878 128.339 65.2904 129.359 68.6265C131.827 76.7631 135.509 91.0927 136.076 97.5297C136.287 99.9119 118.044 99.4689 117.738 96.933C116.79 88.9862 113.391 71.7003 113.306 71.4065C112.699 69.3136 107.52 60.2593 102.197 50.4094C96.8742 40.5595 96.8966 34.9724 103.083 39.2441Z" fill="#EB9481"/>
<path d="M119.186 122.039C121.047 122.681 122.256 121.027 122.256 121.027C122.876 121.791 123.743 122.312 124.706 122.5C126.419 122.753 127.561 120.163 127.561 120.163C128.371 120.819 129.357 121.216 130.393 121.302C132.057 121.375 133.576 118.929 133.576 118.929C134.652 119.114 135.757 118.909 136.696 118.35C138.274 117.329 139.052 112.271 139.025 109.423C138.998 106.575 136.269 98.5287 135.905 96.9375H117.729C117.729 96.9375 114.236 109.735 114.744 113.08C115.167 115.914 117.095 121.32 119.186 122.039Z" fill="#EB9481"/>
<path d="M121.964 120.905C120.8 118.016 120.544 114.942 120.116 111.886C120.116 111.872 120.122 111.858 120.132 111.848C120.142 111.838 120.156 111.832 120.17 111.832C120.185 111.832 120.198 111.838 120.209 111.848C120.219 111.858 120.224 111.872 120.224 111.886C120.611 114.929 121.595 117.858 122.108 120.877C122.106 120.894 122.099 120.909 122.088 120.921C122.077 120.933 122.062 120.942 122.046 120.945C122.03 120.948 122.013 120.945 121.998 120.938C121.984 120.931 121.972 120.919 121.964 120.905Z" fill="#263238"/>
<path d="M127.323 120.104C127.122 119.423 127.01 118.718 126.99 118.007C126.921 117.257 126.867 116.503 126.828 115.747C126.743 114.241 126.689 112.736 126.684 111.226C126.684 111.159 126.783 111.141 126.788 111.226C126.878 112.727 126.986 114.223 127.134 115.715C127.21 116.466 127.291 117.211 127.377 117.975C127.505 118.674 127.554 119.385 127.525 120.095C127.518 120.117 127.505 120.135 127.488 120.149C127.47 120.162 127.449 120.17 127.427 120.171C127.405 120.172 127.383 120.166 127.365 120.154C127.346 120.142 127.331 120.125 127.323 120.104Z" fill="#263238"/>
<path d="M133.572 118.866C133.398 118.246 133.331 117.601 133.374 116.958C133.347 116.276 133.32 115.602 133.289 114.901C133.226 113.545 133.158 112.162 133.046 110.792C133.046 110.778 133.051 110.764 133.062 110.754C133.072 110.744 133.085 110.738 133.1 110.738C133.114 110.738 133.128 110.744 133.138 110.754C133.148 110.764 133.154 110.778 133.154 110.792C133.271 112.18 133.41 113.568 133.522 114.96L133.671 117.008C133.771 117.627 133.76 118.259 133.639 118.875C133.636 118.882 133.63 118.887 133.624 118.891C133.617 118.894 133.61 118.895 133.602 118.895C133.595 118.894 133.588 118.89 133.582 118.885C133.577 118.88 133.573 118.873 133.572 118.866Z" fill="#263238"/>
<path d="M116.862 97.1545L136.8 95.5362C136.8 95.5362 132.407 73.9424 130.025 68.1066C127.642 62.2708 115.778 47.8735 103.406 39.339C94.9905 33.5394 95.512 38.4847 99.4006 46.1693C103.289 53.8539 112.438 71.4426 112.887 72.8394C113.337 74.2362 116.862 97.1545 116.862 97.1545Z" fill="#E5005B"/>
<path d="M117.212 93.0184C117.959 92.8421 124.724 92.2183 126.203 92.1143L130.623 91.8069C132.147 91.703 133.693 91.5267 135.222 91.5447C135.23 91.5423 135.238 91.5418 135.247 91.5433C135.255 91.5448 135.263 91.5482 135.269 91.5532C135.276 91.5583 135.282 91.5648 135.285 91.5724C135.289 91.5799 135.291 91.5883 135.291 91.5967C135.291 91.6052 135.289 91.6135 135.285 91.6211C135.282 91.6286 135.276 91.6352 135.269 91.6402C135.263 91.6453 135.255 91.6487 135.247 91.6501C135.238 91.6516 135.23 91.6511 135.222 91.6487C133.72 91.9154 132.165 91.9923 130.65 92.1369L126.154 92.5618C124.653 92.6974 117.95 93.1675 117.208 93.1178C117.149 93.1133 117.163 93.032 117.212 93.0184Z" fill="#263238"/>
</g>
<defs>
<clipPath id="clip0_132_3202">
<rect width="167" height="152" fill="white"/>
</clipPath>
</defs>
</svg>
