<svg width="221" height="152" viewBox="0 0 221 152" fill="none" xmlns="http://www.w3.org/2000/svg">
<path d="M200.195 23.7163H115.695V25.8723H200.195V23.7163Z" fill="#E5005B"/>
<path d="M115.497 42.4068C120.913 42.302 126.324 42.2549 131.74 42.213L147.982 42.1553L164.231 42.213L172.352 42.2863L180.473 42.4068L172.352 42.5325L164.231 42.6006L147.982 42.6582L131.74 42.6006C126.318 42.5587 120.907 42.5115 115.497 42.4068Z" fill="#263238"/>
<path d="M115.497 47.5246C120.913 47.4198 126.324 47.3726 131.74 47.3307L147.982 47.2731L164.231 47.3307L172.352 47.3988L180.489 47.5246L172.368 47.645L164.246 47.7131L147.998 47.7708L131.755 47.7131C126.318 47.6712 120.907 47.6188 115.497 47.5246Z" fill="#263238"/>
<path d="M115.497 52.6265C120.913 52.5218 126.324 52.4746 131.74 52.4379L147.982 52.3751L164.231 52.4327L172.352 52.5061L180.473 52.6265L172.352 52.7523L164.231 52.8203L147.982 52.878L131.74 52.8203C126.318 52.7627 120.907 52.7313 115.497 52.6265Z" fill="#263238"/>
<path d="M115.497 62.8467C120.913 62.7471 126.324 62.6948 131.74 62.6581L147.982 62.6005L164.231 62.6581L172.352 62.7262L180.473 62.8467L172.352 62.9724L164.231 63.0405L147.982 63.0981L131.74 63.0405C126.318 62.9986 120.907 62.9514 115.497 62.8467Z" fill="#263238"/>
<path d="M115.497 67.9545C120.913 67.8498 126.324 67.8026 131.74 67.7607L147.982 67.7031L164.231 67.7607L172.352 67.8288L180.489 67.9545L172.368 68.075L164.246 68.1484L147.998 68.206L131.755 68.1484C126.318 68.1117 120.907 68.0645 115.497 67.9545Z" fill="#263238"/>
<path d="M115.497 73.0724C118.794 72.9676 122.086 72.9205 125.383 72.8785C128.68 72.8366 131.972 72.8419 135.269 72.8209C138.566 72.8 141.858 72.8209 145.156 72.8785L150.096 72.9466C151.745 72.9886 153.393 73.0147 155.036 73.0724C153.393 73.1247 151.745 73.1509 150.096 73.1929L145.156 73.261C141.858 73.3029 138.561 73.3029 135.269 73.3186C131.977 73.3343 128.675 73.3186 125.383 73.261C122.091 73.2033 118.789 73.1928 115.497 73.0724Z" fill="#263238"/>
<path d="M145.382 83.5959H115.491V91.7468H145.382V83.5959Z" fill="#E5005B"/>
<path d="M119.333 88.9078V86.4091H119.581V88.6877H121.034V88.9078H119.333Z" fill="white"/>
<path d="M123.095 88.6982V88.9078H121.399V86.4091H123.063V86.6291H121.647V87.5301H122.894V87.7344H121.663V88.6877L123.095 88.6982Z" fill="white"/>
<path d="M124.342 86.4193H124.553L125.61 88.918H125.346L125.018 88.1374H123.887L123.565 88.918H123.301L124.342 86.4193ZM124.949 87.9436L124.421 86.7074L123.893 87.9436H124.949Z" fill="white"/>
<path d="M125.959 88.9078V86.4091H127.015C127.12 86.4093 127.223 86.4326 127.317 86.4771C127.406 86.5246 127.486 86.5865 127.554 86.6605C127.619 86.7351 127.671 86.8201 127.708 86.9119C127.743 87.0021 127.761 87.0981 127.76 87.1948C127.761 87.2835 127.749 87.3718 127.723 87.4567C127.697 87.5372 127.657 87.6132 127.607 87.682C127.561 87.7492 127.502 87.8063 127.433 87.8496C127.363 87.8978 127.284 87.93 127.2 87.9439L127.819 88.9078H127.539L126.947 87.9858H126.202V88.9078H125.959ZM126.207 87.771H127.031C127.101 87.7697 127.17 87.7518 127.232 87.7187C127.291 87.6867 127.343 87.6441 127.385 87.5929C127.428 87.5372 127.462 87.4754 127.486 87.4096C127.507 87.34 127.518 87.2676 127.517 87.1948C127.518 87.1216 127.506 87.0488 127.48 86.98C127.455 86.9128 127.417 86.8506 127.369 86.7967C127.323 86.7464 127.268 86.7054 127.206 86.6762C127.145 86.6453 127.078 86.6292 127.01 86.6291H126.207V87.771Z" fill="white"/>
<path d="M128.521 86.8805V88.9078H128.273V86.4091H128.468L130.133 88.5044V86.4091H130.381V88.9078H130.165L128.521 86.8805Z" fill="white"/>
<path d="M134.149 88.9078V86.8596L133.229 88.4311H133.087L132.167 86.8596V88.9078H131.919V86.4091H132.172L133.155 88.122L134.149 86.4091H134.397V88.9078H134.149Z" fill="white"/>
<path d="M136.046 88.9336C135.88 88.9367 135.715 88.9008 135.565 88.8289C135.423 88.7587 135.296 88.6628 135.19 88.546C135.085 88.4253 135.003 88.2869 134.947 88.1374C134.891 87.9884 134.862 87.8304 134.863 87.6712C134.863 87.5065 134.893 87.3431 134.952 87.1892C135.012 87.0409 135.098 86.9043 135.206 86.7859C135.311 86.6691 135.438 86.5746 135.581 86.5083C135.726 86.4387 135.885 86.4028 136.046 86.4035C136.213 86.402 136.378 86.4397 136.527 86.5135C136.67 86.5856 136.798 86.6853 136.902 86.8068C137.005 86.9265 137.085 87.063 137.14 87.2102C137.197 87.3574 137.225 87.5137 137.224 87.6712C137.227 87.8361 137.196 87.9999 137.135 88.1531C137.077 88.3012 136.993 88.4378 136.886 88.5565C136.78 88.6716 136.653 88.7659 136.511 88.8341C136.366 88.9019 136.207 88.9359 136.046 88.9336ZM135.111 87.6712C135.11 87.8052 135.133 87.9383 135.18 88.0641C135.22 88.1858 135.284 88.2981 135.37 88.3941C135.451 88.4922 135.552 88.5725 135.666 88.6298C135.784 88.6881 135.914 88.7169 136.046 88.7136C136.18 88.7146 136.312 88.6841 136.432 88.6246C136.545 88.5636 136.645 88.4818 136.728 88.3836C136.809 88.2835 136.871 88.17 136.913 88.0483C136.954 87.9268 136.976 87.7995 136.976 87.6712C136.977 87.5372 136.954 87.404 136.907 87.2783C136.862 87.1574 136.798 87.0442 136.717 86.943C136.633 86.8493 136.533 86.7712 136.421 86.7125C136.305 86.6553 136.176 86.6266 136.046 86.6287C135.911 86.6277 135.777 86.6582 135.655 86.7178C135.544 86.7769 135.445 86.857 135.365 86.9535C135.285 87.0544 135.222 87.1677 135.18 87.2888C135.133 87.4109 135.11 87.5406 135.111 87.6712Z" fill="white"/>
<path d="M137.689 88.9078V86.4091H138.746C138.85 86.4093 138.953 86.4326 139.047 86.4771C139.136 86.5246 139.216 86.5865 139.285 86.6605C139.35 86.7351 139.402 86.8201 139.438 86.9119C139.473 87.0021 139.491 87.0981 139.491 87.1948C139.493 87.2839 139.478 87.3726 139.449 87.4567C139.423 87.537 139.386 87.613 139.338 87.682C139.292 87.7492 139.232 87.8063 139.163 87.8496C139.093 87.8969 139.014 87.929 138.931 87.9439L139.549 88.9078H139.274L138.682 87.9858H137.937V88.9078H137.689ZM137.937 87.771H138.746C138.816 87.7692 138.885 87.7512 138.947 87.7187C139.005 87.6867 139.057 87.6441 139.1 87.5929C139.142 87.5372 139.176 87.4754 139.2 87.4096C139.221 87.34 139.232 87.2676 139.232 87.1948C139.233 87.1216 139.22 87.0488 139.195 86.98C139.165 86.9148 139.128 86.8532 139.084 86.7967C139.038 86.7464 138.982 86.7054 138.92 86.6762C138.86 86.6453 138.793 86.6292 138.725 86.6291H137.921L137.937 87.771Z" fill="white"/>
<path d="M141.7 88.6982V88.9078H140.009V86.4091H141.668V86.6291H140.257V87.5301H141.488V87.7344H140.257V88.6877L141.7 88.6982Z" fill="white"/>
<path d="M83.1309 62.4312C99.7963 79.176 120.756 114.399 116.871 121.545C112.515 129.501 89.3165 106.026 89.3983 104.648C89.4699 103.634 81.3109 82.2168 75.0844 66.6579C68.8578 51.0991 79.0105 58.2856 83.1309 62.4312Z" fill="#EB9481"/>
<path d="M89.2248 104.678C88.5194 102.387 77.4056 74.1785 74.2361 65.2487C71.0666 56.3188 74.001 53.572 83.0699 61.7416C92.1388 69.9113 112.015 97.2178 116.554 111.702C120.92 125.639 113.671 125.639 104.142 119.223C96.2795 113.963 89.2248 104.678 89.2248 104.678Z" fill="#E5005B"/>
<path opacity="0.1" d="M81.4951 62.6637C81.2785 63.9155 80.7357 65.0896 79.9205 66.0694C80.0237 65.4453 80.2129 64.8382 80.4828 64.2652C80.7475 63.6894 81.0879 63.1509 81.4951 62.6637ZM108.978 101.464C108.7 102.035 108.511 102.643 108.415 103.269C108.832 102.786 109.176 102.247 109.438 101.667C109.708 101.094 109.897 100.487 110 99.863C109.58 100.343 109.236 100.883 108.978 101.464ZM99.1523 86.6354C98.8764 87.2097 98.6869 87.821 98.5899 88.4498C99.0043 87.9621 99.3484 87.4197 99.6124 86.8382C99.885 86.2662 100.074 85.6587 100.175 85.0339C99.7605 85.5181 99.4164 86.0571 99.1523 86.6354ZM88.928 82.9155C88.3529 82.6406 87.7395 82.4527 87.1081 82.358C88.0965 83.1662 89.2807 83.7043 90.5435 83.919C90.0624 83.5113 89.5254 83.1735 88.9485 82.9155H88.928ZM98.1298 97.9067C97.5506 97.6332 96.934 97.4454 96.2997 97.3492C96.7917 97.76 97.3388 98.1012 97.9254 98.3628C98.5023 98.6332 99.1151 98.8209 99.7453 98.9203C99.2632 98.5113 98.7265 98.1702 98.1503 97.9067H98.1298ZM90.6457 72.2321C90.0706 71.9572 89.4571 71.7693 88.8258 71.6746C89.3125 72.0875 89.8566 72.4288 90.4412 72.6882C91.0169 72.9617 91.6302 73.1496 92.2612 73.2457C91.7807 72.8345 91.2437 72.4932 90.6662 72.2321H90.6457ZM84.9406 92.2508C85.1571 92.8466 85.4565 93.4096 85.8301 93.9233C85.7054 92.6574 85.2508 91.4453 84.5112 90.4061C84.5771 91.0382 84.7284 91.6586 84.961 92.2508H84.9406ZM104.193 110.111C104.407 110.707 104.707 111.271 105.082 111.783C104.958 110.517 104.503 109.305 103.763 108.266C103.823 108.899 103.975 109.52 104.213 110.111H104.193ZM91.2285 107.07L91.5659 107.465C92.1236 107.261 92.65 106.981 93.1302 106.634C92.4835 106.697 91.8497 106.855 91.249 107.1L91.2285 107.07ZM114.039 117.733C114.641 117.52 115.209 117.223 115.726 116.851C115.088 116.904 114.461 117.047 113.865 117.277C113.261 117.485 112.692 117.782 112.178 118.159C112.82 118.113 113.453 117.98 114.059 117.763L114.039 117.733ZM79.8183 76.3879C79.4014 76.5407 78.9979 76.7271 78.6118 76.9454L78.7038 77.1988C79.1405 77.1224 79.5686 77.0035 79.9819 76.844C80.5888 76.6357 81.1609 76.3385 81.6791 75.9622C81.0475 76.0303 80.4283 76.1837 79.8387 76.4183L79.8183 76.3879Z" fill="black"/>
<path d="M87.231 125.407H23.8408C23.8408 125.407 33.9117 76.1453 58.2044 54.8191C61.2103 52.1837 67.9788 52.7919 72.4058 54.961C73.9804 55.7415 79.6446 63.5969 81.26 71.0266C82.8754 78.4564 87.415 125.184 87.231 125.407Z" fill="#E5005B"/>
<path d="M81.8531 74.0979C82.3541 75.7602 82.7631 77.4732 83.1005 79.1659C83.0954 79.0984 83.0954 79.0306 83.1005 78.9632C83.1005 77.9496 83.1004 77.0069 83.2334 76.0339C83.2334 76.0339 83.3254 75.973 83.3254 76.0339C83.4549 77.0116 83.4823 78.0001 83.4072 78.9834C83.4072 79.4396 83.3561 79.9058 83.3152 80.3721C83.4481 81.1424 83.5708 81.9229 83.6628 82.6932C83.857 84.1528 84.3478 89.6162 84.3887 90.7007C84.3887 90.9237 84.1331 90.9643 84.0718 90.7007C83.7752 89.606 82.988 83.9704 82.7324 82.5209C82.2381 79.7132 81.8968 76.8812 81.71 74.037C81.7406 74.037 81.8327 74.037 81.8531 74.0979Z" fill="#263238"/>
<path opacity="0.1" d="M62.2229 67.6812C62.1192 68.3065 61.9265 68.9139 61.6504 69.4854C61.3925 70.0671 61.0479 70.6069 60.628 71.0869C60.7333 70.462 60.926 69.8548 61.2005 69.2827C61.4608 68.7023 61.8052 68.1628 62.2229 67.6812ZM53.6346 92.697C53.3573 93.2672 53.1677 93.8753 53.0723 94.5012C53.8875 93.5214 54.4303 92.3473 54.6468 91.0955C54.234 91.5786 53.8931 92.118 53.6346 92.697ZM33.0533 101.647C32.7774 102.221 32.588 102.833 32.491 103.461C32.9052 102.977 33.2493 102.438 33.5134 101.86C33.7893 101.286 33.9787 100.674 34.0757 100.046C33.6615 100.53 33.3174 101.069 33.0533 101.647ZM48.1851 117.692C47.9078 118.263 47.7182 118.871 47.6228 119.497C48.0335 119.01 48.3773 118.472 48.6452 117.895C48.912 117.317 49.101 116.707 49.2075 116.081C48.7896 116.566 48.4451 117.109 48.1851 117.692ZM74.5942 86.6964C74.3229 87.2725 74.1337 87.8831 74.0319 88.5108C74.4498 88.0257 74.7943 87.4827 75.0543 86.8992C75.3316 86.329 75.5212 85.7208 75.6167 85.0949C75.2059 85.5816 74.8621 86.1201 74.5942 86.6964ZM82.9167 103.715C82.6409 104.289 82.4514 104.9 82.3544 105.529C82.7686 105.045 83.1127 104.506 83.3768 103.928C83.6527 103.353 83.8422 102.742 83.9392 102.113C83.5276 102.599 83.1838 103.138 82.9167 103.715ZM62.7751 115.98C62.5083 116.557 62.3192 117.167 62.2127 117.794C62.6307 117.309 62.9751 116.766 63.2351 116.182C63.5112 115.611 63.704 115.003 63.8077 114.378C63.3903 114.862 63.0428 115.401 62.7751 115.98ZM43.482 82.8042C43.2074 83.3763 43.0147 83.9835 42.9094 84.6084C43.3293 84.1284 43.674 83.5886 43.9318 83.0069C44.2079 82.4354 44.4007 81.8279 44.5044 81.2027C44.0867 81.6843 43.7423 82.2238 43.482 82.8042ZM67.4271 77.2091C66.8519 76.9342 66.2385 76.7462 65.6072 76.6516C66.0939 77.0644 66.6379 77.4058 67.2226 77.6652C67.8001 77.9342 68.4126 78.1218 69.0425 78.2227C68.5558 77.8099 68.0117 77.4685 67.4271 77.2091ZM71.4247 97.4204C70.8496 97.1455 70.2362 96.9575 69.6048 96.8629C70.0941 97.2723 70.6376 97.6133 71.2202 97.8765C71.7972 98.1468 72.4099 98.3345 73.0401 98.434C72.556 98.0177 72.0114 97.676 71.4247 97.4204ZM34.1677 118.838C33.5913 118.564 32.9785 118.373 32.3478 118.27C32.832 118.687 33.3765 119.028 33.9632 119.284C34.5408 119.555 35.1532 119.746 35.7832 119.851C35.299 119.435 34.7544 119.094 34.1677 118.838ZM72.0791 122.892C71.5016 122.623 70.889 122.436 70.2592 122.335C70.7459 122.748 71.2899 123.089 71.8746 123.348L72.2631 123.521C72.6005 123.521 72.9277 123.521 73.2855 123.582C72.9051 123.325 72.5011 123.104 72.0791 122.923V122.892ZM48.41 102.438C47.8331 102.167 47.2203 101.98 46.5901 101.88C47.0743 102.297 47.6189 102.638 48.2056 102.894C48.7818 103.166 49.3949 103.354 50.0255 103.451C49.5344 103.053 48.9909 102.722 48.41 102.468V102.438ZM67.4271 59.2885C66.8506 59.0148 66.2379 58.8237 65.6072 58.7209C66.0942 59.1333 66.6382 59.4746 67.2226 59.7345C67.8019 59.9989 68.4138 60.1863 69.0425 60.292C68.5557 59.8901 68.0112 59.5621 67.4271 59.319V59.2885ZM71.5168 68.6644C71.7291 69.262 72.0288 69.8255 72.4063 70.3368C72.3493 69.7053 72.2048 69.0845 71.9769 68.4921C71.7606 67.8961 71.4612 67.3332 71.0874 66.8196C71.1454 67.4629 71.2969 68.0945 71.5372 68.6948L71.5168 68.6644ZM81.6489 115.442C81.8591 116.041 82.159 116.605 82.5384 117.115C82.4137 115.849 81.9592 114.637 81.2195 113.598C81.2726 114.23 81.4172 114.851 81.6489 115.442ZM54.4628 80.4425C54.6812 81.0375 54.9805 81.6001 55.3523 82.1149C55.3026 81.4833 55.1614 80.862 54.9331 80.2702C54.7147 79.6752 54.4154 79.1125 54.0436 78.5977C54.0817 79.2263 54.2055 79.8469 54.4116 80.4425H54.4628ZM62.2945 101.019C62.5066 101.616 62.8064 102.18 63.184 102.691C63.1297 102.059 62.9851 101.438 62.7546 100.846C62.5381 100.251 62.2387 99.6876 61.8651 99.1739C61.894 99.8027 62.0146 100.424 62.2229 101.019H62.2945ZM25.9883 125.153C25.9833 125.237 25.9833 125.322 25.9883 125.406H26.1519L25.9883 125.153ZM43.8194 125.072C43.6052 124.472 43.3057 123.905 42.9299 123.389C42.9818 124.021 43.1265 124.643 43.3593 125.234L43.4206 125.406H43.9318C43.8194 125.295 43.8194 125.183 43.8194 125.072ZM40.1796 110.567C40.3961 111.163 40.6955 111.726 41.0691 112.239C41.0171 111.607 40.8725 110.986 40.6397 110.395C40.4275 109.797 40.1278 109.233 39.7501 108.722C39.788 109.352 39.9154 109.973 40.1284 110.567H40.1796ZM55.5159 62.1368C55.7238 62.7363 56.0239 63.3004 56.4054 63.8092C56.351 63.1772 56.2065 62.5561 55.976 61.9645C55.7595 61.3686 55.46 60.8057 55.0864 60.292C55.1253 60.9223 55.2561 61.5437 55.475 62.1368H55.5159ZM72.4472 109.604C73.0483 109.39 73.6161 109.093 74.1341 108.722C73.497 108.771 72.8703 108.911 72.2733 109.138C71.6732 109.354 71.1056 109.651 70.5863 110.019C71.2235 109.97 71.8502 109.83 72.4472 109.604ZM55.8431 124.727C56.445 124.514 57.0131 124.217 57.53 123.845C56.2531 123.969 55.0306 124.419 53.9822 125.153C54.6199 125.1 55.2466 124.957 55.8431 124.727ZM27.6345 111.033C27.6345 111.175 27.5424 111.317 27.5015 111.459C27.8071 111.31 28.098 111.134 28.3706 110.932C28.1232 110.949 27.8773 110.983 27.6345 111.033ZM42.0915 93.6092C42.6967 93.3969 43.2682 93.1 43.7887 92.7274C43.1509 92.7789 42.524 92.9223 41.9279 93.1531C41.3227 93.3654 40.7511 93.6623 40.2307 94.0349C40.8677 93.9784 41.4939 93.8352 42.0915 93.6092ZM55.383 110.253C55.9963 110.059 56.5782 109.78 57.1108 109.421C55.8339 109.545 54.6114 109.996 53.563 110.729C54.1928 110.657 54.8091 110.497 55.3932 110.253H55.383ZM63.2454 86.3822C63.8487 86.1657 64.4197 85.869 64.9426 85.5004C64.3052 85.5485 63.6784 85.6885 63.0818 85.916C62.4807 86.1304 61.9128 86.4272 61.3948 86.7978C62.0287 86.7486 62.652 86.6086 63.2454 86.3822ZM79.962 76.8746C80.5689 76.6663 81.141 76.3691 81.6592 75.9928C81.0213 76.0443 80.3945 76.1877 79.7984 76.4185C79.1954 76.6288 78.627 76.9259 78.1114 77.3003C78.7596 77.2515 79.3969 77.108 80.0029 76.8746H79.962ZM50.0766 71.32C50.6785 71.1075 51.2466 70.8105 51.7636 70.4382C50.4867 70.5619 49.2641 71.0125 48.2158 71.7458C48.8673 71.697 49.5081 71.5536 50.1175 71.32H50.0766Z" fill="black"/>
<path d="M3.38218 35.4279C3.24926 32.3871 3.86271 18.5311 4.90558 14.7098C5.94845 10.8885 9.75185 0.0936483 12.7884 0.590315C15.825 1.08698 14.9662 4.33052 14.9662 4.33052C14.9662 4.33052 17.2973 0.0227005 20.3135 0.79304C23.3296 1.56338 21.8164 6.58072 21.8164 6.58072C21.8164 6.58072 24.5361 2.33372 27.4909 3.31692C30.4457 4.30011 28.0737 9.08433 28.0737 9.08433C28.0737 9.08433 30.3741 5.09073 32.4599 6.91522C34.9648 9.1046 29.8731 16.0377 29.0449 20.3049C28.8507 21.3185 26.632 40.4047 26.632 40.4047L3.38218 35.4279Z" fill="#EB9481"/>
<path d="M28.2678 8.69947C24.5257 13.7675 23.7794 16.6461 23.3704 22.819C23.3704 22.9406 23.1761 22.9508 23.1761 22.819C23.0228 16.7374 23.4419 13.0073 28.0224 8.49675C28.2473 8.29403 28.4825 8.46634 28.2678 8.69947Z" fill="#263238"/>
<path d="M22.1234 6.21625C18.7085 11.8215 17.8701 14.9231 16.95 21.3494C16.95 21.4406 16.7864 21.4305 16.7864 21.3494C17.1544 14.9637 17.6554 11.2133 21.8065 6.1453C22.0007 5.85135 22.2768 5.95271 22.1234 6.21625Z" fill="#263238"/>
<path d="M14.9255 4.68597C12.0218 10.352 10.9585 13.7172 10.8358 20.0725C10.8283 20.0976 10.8128 20.1196 10.7916 20.1353C10.7704 20.1509 10.7447 20.1594 10.7183 20.1594C10.6918 20.1594 10.6661 20.1509 10.6449 20.1353C10.6237 20.1196 10.6082 20.0976 10.6007 20.0725C10.0486 13.5854 11.3471 9.37896 14.6904 4.60488C14.9766 4.29066 15.1095 4.33121 14.9255 4.68597Z" fill="#263238"/>
<path d="M26.4377 44.3896C26.4377 44.3896 32.2144 38.9871 34.2285 36.0679C36.2427 33.1487 39.6985 19.4954 36.7642 18.5832C32.9812 17.4175 29.4232 24.8979 28.1656 28.7902C28.1656 28.7902 19.4137 26.0737 15.692 30.8985C11.9704 35.7232 26.4377 44.3896 26.4377 44.3896Z" fill="#EB9481"/>
<path d="M35.6399 18.6028C31.4173 20.0015 30.0984 25.2115 28.5852 28.901C28.5659 28.9568 28.5331 29.0071 28.4898 29.0475C28.4465 29.088 28.394 29.1175 28.3367 29.1335C28.2794 29.1494 28.2191 29.1513 28.1609 29.1391C28.1027 29.1269 28.0483 29.1008 28.0025 29.0632C24.2604 28.1611 18.7189 27.9786 15.7334 30.6545C15.7171 30.6733 15.694 30.685 15.6691 30.6869C15.6441 30.6888 15.6195 30.6808 15.6005 30.6647C15.5815 30.6485 15.5698 30.6256 15.5678 30.6009C15.5659 30.5762 15.574 30.5517 15.5903 30.5329C18.4633 27.2184 23.923 26.965 27.9616 28.2016C29.4441 24.4006 31.0288 19.2211 35.6809 18.5622C35.64 18.5521 35.6399 18.5926 35.6399 18.6028Z" fill="#263238"/>
<path d="M61.7421 62.1672C57.9386 68.6948 35.9566 88.8148 16.7555 92.3017C14.1586 92.7679 4.26152 90.7002 2.186 84.1928C-1.50494 72.5972 1.44986 48.6558 3.33111 34.2423C3.69918 31.4347 30.0572 37.2122 29.3722 41.5099C28.6156 46.2738 25.7937 63.7585 26.2333 63.9612C27.8079 64.6809 44.637 57.464 55.7098 55.1023C63.5824 53.4198 64.6764 57.1397 61.7421 62.1672Z" fill="#EB9481"/>
<path d="M-0.359742 41.358L29.679 47.8046C29.679 47.8046 26.9491 63.0086 27.4808 62.9377C28.0124 62.8667 49.0948 55.2242 57.223 54.4234C65.3513 53.6227 65.341 57.1703 61.2207 63.8195C57.1003 70.4688 30.1084 92.7275 16.8067 92.7275C10.0383 92.7275 3.74015 88.4299 2.49279 86.3722C-1.30039 80.0271 -0.359742 41.358 -0.359742 41.358Z" fill="#455A64"/>
<path d="M-0.359742 41.358L29.679 47.8046C29.679 47.8046 26.9491 63.0086 27.4808 62.9377C28.0124 62.8667 49.0948 55.2242 57.223 54.4234C65.3513 53.6227 65.341 57.1703 61.2207 63.8195C57.1003 70.4688 30.1084 92.7275 16.8067 92.7275C10.0383 92.7275 3.74015 88.4299 2.49279 86.3722C-1.30039 80.0271 -0.359742 41.358 -0.359742 41.358Z" fill="#E5005B"/>
<path opacity="0.1" d="M42.6848 62.5629C42.4121 63.1348 42.2227 63.7423 42.1224 64.3671C42.5423 63.8871 42.8869 63.3472 43.1448 62.7656C43.4207 62.1949 43.6102 61.5869 43.7072 60.9614C43.2942 61.4464 42.9502 61.9853 42.6848 62.5629ZM18.8214 89.1497C18.5441 89.7199 18.3546 90.328 18.2591 90.9539C19.0743 89.9741 19.6171 88.8001 19.8336 87.5482C19.423 88.033 19.0823 88.572 18.8214 89.1497ZM1.13353 70.9048C0.852968 71.4746 0.659982 72.0827 0.560974 72.709C0.976944 72.2262 1.32123 71.6869 1.5834 71.1075C1.85109 70.5337 2.0402 69.9269 2.14571 69.3033C1.73162 69.7856 1.39065 70.3251 1.13353 70.9048ZM27.2769 70.9758C27.0055 71.5518 26.8163 72.1624 26.7145 72.7901C27.1346 72.3066 27.4793 71.7633 27.7369 71.1785C28.013 70.607 28.2058 69.9995 28.3095 69.3743C27.89 69.8603 27.5423 70.4029 27.2769 70.9859V70.9758ZM14.1694 78.4967C13.8995 79.0698 13.7103 79.6768 13.6071 80.3009C14.027 79.821 14.3716 79.2811 14.6295 78.6994C14.9056 78.128 15.0984 77.5205 15.2021 76.8952C14.7825 77.3775 14.4347 77.9168 14.1694 78.4967ZM15.335 60.191C15.0606 60.7623 14.8712 61.3701 14.7726 61.9952C15.5879 61.0154 16.1306 59.8414 16.3472 58.5895C15.9163 59.0695 15.5581 59.6089 15.2838 60.191H15.335ZM1.90034 46.5783C1.62427 47.1498 1.43149 47.7573 1.32779 48.3825C1.75093 47.9049 2.09592 47.3645 2.35021 46.781C2.62477 46.2089 2.81748 45.6017 2.92277 44.9768C2.50634 45.4593 2.16202 45.9987 1.90034 46.5783ZM55.9149 61.9547C55.7005 61.3579 55.4009 60.7947 55.0254 60.2822C55.0773 60.9146 55.222 61.536 55.4548 62.127C55.6633 62.7243 55.9596 63.2879 56.3341 63.7995C56.29 63.1722 56.1557 62.5544 55.9353 61.9648L55.9149 61.9547ZM38.1247 74.118C37.9085 73.522 37.6091 72.9591 37.2352 72.4455C37.2883 73.0777 37.433 73.699 37.6647 74.2903C37.8748 74.8888 38.1747 75.4527 38.5542 75.9627C38.5019 75.339 38.3643 74.7252 38.1452 74.1382L38.1247 74.118ZM24.7617 60.4039C24.5473 59.8071 24.2478 59.2439 23.8722 58.7314C23.9969 59.9973 24.4514 61.2094 25.1911 62.2486C25.1427 61.6243 25.005 61.01 24.7821 60.4242L24.7617 60.4039ZM23.0338 80.2503C22.8194 79.6535 22.5199 79.0903 22.1443 78.5778C22.1974 79.21 22.342 79.8313 22.5737 80.4226C22.7858 81.0203 23.0855 81.5838 23.4632 82.095C23.4148 81.4707 23.2771 80.8564 23.0542 80.2705L23.0338 80.2503ZM5.89802 78.1116C5.6859 77.5138 5.38619 76.9503 5.00851 76.4391C5.06788 77.0703 5.21229 77.6907 5.43791 78.2839C5.65229 78.8806 5.95183 79.4438 6.32741 79.9563C6.28008 79.3318 6.14235 78.7174 5.91845 78.1318L5.89802 78.1116ZM11.3066 50.055C11.0925 49.455 10.7929 48.8884 10.4171 48.3724C10.4668 49.0074 10.608 49.632 10.8363 50.2273C11.057 50.8213 11.3561 51.3836 11.7258 51.8997C11.6819 51.2757 11.5476 50.6613 11.3271 50.0752L11.3066 50.055ZM9.26179 65.9686C9.04552 65.3726 8.74609 64.8097 8.37226 64.2961C8.42535 64.9283 8.56998 65.5496 8.80169 66.1409C9.01381 66.7386 9.31352 67.3021 9.69119 67.8133C9.65042 67.1899 9.51958 66.5754 9.30267 65.9888L9.26179 65.9686ZM49.9542 70.9048C49.3522 71.1173 48.7841 71.4143 48.2672 71.7867C48.9046 71.7328 49.5312 71.5895 50.128 71.3609C50.7299 71.1484 51.298 70.8515 51.815 70.4791C51.1773 70.5317 50.5506 70.6751 49.9542 70.9048ZM18.1773 70.175C17.5782 70.3938 17.0109 70.6903 16.4903 71.0569C17.1281 71.0054 17.755 70.8619 18.3511 70.6311C18.954 70.4209 19.5225 70.1237 20.0381 69.7493C19.399 69.788 18.7689 69.9177 18.1671 70.1345L18.1773 70.175ZM21.1832 51.4639C20.5821 51.6783 20.0142 51.9751 19.4962 52.3457C20.1305 52.293 20.7538 52.1496 21.3468 51.92C21.9515 51.7138 22.5206 51.4164 23.0338 51.0382C22.3981 51.0769 21.7713 51.2067 21.173 51.4233L21.1832 51.4639ZM4.12922 57.3327C3.5281 57.5471 2.96026 57.8439 2.44223 58.2145C3.71968 58.1003 4.94381 57.6527 5.99003 56.9171C5.35193 56.9562 4.72233 57.0824 4.11901 57.2921L4.12922 57.3327ZM32.481 82.6728C31.8808 82.8893 31.3133 83.186 30.794 83.5546C32.0714 83.4405 33.2956 82.9928 34.3418 82.2572C33.7011 82.3055 33.0709 82.4455 32.4707 82.6728H32.481ZM9.65028 87.6293C9.04834 87.8418 8.48024 88.1388 7.9633 88.5111C8.60114 88.4596 9.22801 88.3162 9.82411 88.0854C10.427 87.8751 10.9955 87.578 11.5111 87.2036C10.87 87.2553 10.2398 87.3987 9.64008 87.6293H9.65028ZM34.26 62.4311C33.6589 62.6455 33.091 62.9423 32.573 63.3129C33.2092 63.2573 33.835 63.1176 34.4338 62.8974C35.033 62.6786 35.6002 62.382 36.1208 62.0155C35.48 62.0626 34.8496 62.2027 34.2498 62.4311H34.26Z" fill="black"/>
<path d="M27.7164 63.0694C27.488 65.3393 27.0881 67.5891 26.5202 69.7997C26.0192 72.0499 25.3035 74.2291 24.6389 76.4287H24.5571C25.1399 74.219 25.5795 71.9587 26.0499 69.7186C26.5202 67.4785 26.878 65.2385 27.4608 63.0288C27.4608 62.8666 27.7266 62.9173 27.7164 63.0694Z" fill="#263238"/>
<path d="M27.91 53.4201C24.4338 52.5686 20.9166 51.8895 17.3893 51.2307C13.8619 50.5718 10.3346 49.8927 6.79699 49.315C4.75215 48.9906 2.78908 48.6561 0.774912 48.3926C0.774912 48.3926 0.703342 48.4737 0.774912 48.4838C4.24092 49.3454 7.76827 50.0346 11.2854 50.7239C14.8025 51.4131 18.3401 52.0618 21.8675 52.6801C23.9123 53.0248 25.8754 53.339 27.8896 53.5924C27.9611 53.6126 28.0122 53.4505 27.91 53.4201Z" fill="#263238"/>
<path d="M37.8274 83.8384C38.3795 83.3519 38.9929 82.9363 39.5757 82.4903C40.1585 82.0443 40.7004 81.6085 41.273 81.1827L44.7492 78.5372C47.0599 76.7634 49.3296 74.9288 51.6199 73.1246C52.9285 72.111 54.2168 71.0974 55.505 70.0027C55.5104 69.998 55.5167 69.9945 55.5234 69.9922C55.5302 69.9899 55.5373 69.989 55.5444 69.9895C55.5516 69.9899 55.5585 69.9918 55.5649 69.9949C55.5713 69.9981 55.577 70.0024 55.5817 70.0077C55.5864 70.0131 55.59 70.0193 55.5923 70.026C55.5946 70.0327 55.5955 70.0397 55.5951 70.0468C55.5946 70.0539 55.5927 70.0608 55.5895 70.0671C55.5864 70.0735 55.582 70.0791 55.5766 70.0838C54.0021 71.5535 52.4071 73.0029 50.7712 74.4017L51.3847 74.1078C52.0186 73.7936 52.632 73.4591 53.2455 73.0942C53.2455 73.0942 53.3375 73.1449 53.2455 73.1753C52.6701 73.5782 52.069 73.9439 51.446 74.27C51.1393 74.4321 50.8326 74.5943 50.5156 74.7362L50.0555 74.9288C49.6875 75.243 49.3194 75.5572 48.9411 75.8613C46.6713 77.6993 44.3538 79.4664 41.9886 81.1625C41.307 81.6287 40.6425 82.0849 39.9949 82.5308C39.2895 82.987 38.6044 83.4938 37.8581 83.9093C37.8455 83.9029 37.8355 83.8922 37.8299 83.8793C37.8243 83.8664 37.8234 83.8519 37.8274 83.8384Z" fill="#263238"/>
<path d="M67.6415 69.8603L71.1484 64.5693L74.4508 69.019L73.1012 72.9518L69.3592 73.0329L67.6415 69.8603Z" fill="#263238"/>
<path d="M69.3587 73.0336L63.1424 114.014L69.4507 128.458L75.1456 113.568L73.1008 72.9525L69.3587 73.0336Z" fill="#263238"/>
<path d="M72.447 64.1941C68.797 65.0658 62.4886 59.5721 59.9837 55.0717C59.8099 54.7676 60.27 51.5241 60.6278 47.5507C60.8426 45.1383 61.0164 42.4827 61.0061 39.9791L76.6287 43.6382C75.7573 46.7266 75.2731 49.9096 75.1871 53.1154C75.1864 53.4564 75.2241 53.7964 75.2996 54.129C75.2996 54.1797 75.2996 54.2304 75.2996 54.3013C75.6063 56.2373 75.9335 63.3326 72.447 64.1941Z" fill="#EB9481"/>
<path d="M62.0588 40.2633C62.5393 43.5271 64.7682 54.2713 73.6735 54.4538C74.2102 54.4668 74.747 54.4363 75.2787 54.3625C75.2748 54.3052 75.2748 54.2476 75.2787 54.1902C75.2046 53.8571 75.1635 53.5176 75.156 53.1766C75.2498 49.9708 75.7373 46.7883 76.6078 43.6994L62.0588 40.2633Z" fill="#263238"/>
<path d="M57.3669 22.7174C56.1706 28.3227 60.4955 43.8511 64.7283 47.044C70.8628 51.6457 80.2078 51.3113 83.9703 44.1552C87.6203 37.2221 81.6289 17.0919 76.9667 14.2842C70.096 10.0879 59.1561 14.4261 57.3669 22.7174Z" fill="#EB9481"/>
<path d="M71.3116 31.9215C71.3116 31.9215 71.24 31.9925 71.2502 32.033C71.5672 33.0466 71.7614 34.3136 70.9026 34.9218C70.9026 34.9218 70.9026 34.9927 70.9026 34.9725C72.0477 34.4961 71.7819 32.854 71.3116 31.9215Z" fill="#263238"/>
<path d="M70.0642 31.0802C68.3363 31.4046 69.1236 34.8204 70.7288 34.5164C72.334 34.2123 71.5161 30.8066 70.0642 31.0802Z" fill="#263238"/>
<path d="M77.6717 30.3604C77.6717 30.3097 77.7637 30.3604 77.7739 30.4314C77.9784 31.4957 78.4079 32.6816 79.4507 32.8133V32.8742C78.2443 32.9654 77.6921 31.374 77.6717 30.3604Z" fill="#263238"/>
<path d="M78.3667 29.0224C80.0537 28.5055 80.9739 31.8909 79.3892 32.3673C77.8044 32.8437 76.9558 29.4583 78.3667 29.0224Z" fill="#263238"/>
<path d="M68.3571 29.8333C68.7967 29.6103 69.1648 29.3265 69.584 29.063C70.0032 28.7995 70.453 28.5663 70.678 28.0494C70.7273 27.8942 70.7229 27.7271 70.6655 27.5747C70.6081 27.4223 70.5009 27.2932 70.361 27.2081C70.0594 27.0755 69.7272 27.0263 69.3996 27.0655C69.0721 27.1048 68.7613 27.2311 68.5002 27.4311C67.9062 27.7552 67.4545 28.286 67.2324 28.9211C67.1929 29.068 67.1969 29.2231 67.244 29.3677C67.2911 29.5124 67.3792 29.6406 67.4979 29.7369C67.6166 29.8331 67.7608 29.8934 67.9132 29.9105C68.0655 29.9277 68.2197 29.9008 68.3571 29.8333Z" fill="#263238"/>
<path d="M79.2972 27.0052C78.8136 27.0304 78.3289 27.0304 77.8453 27.0052C77.335 27.0643 76.8195 26.9499 76.3833 26.6809C76.2601 26.5712 76.1772 26.4241 76.1475 26.2626C76.1179 26.1012 76.1433 25.9345 76.2197 25.7889C76.4137 25.5253 76.6752 25.3177 76.9771 25.1876C77.2791 25.0576 77.6105 25.0097 77.9373 25.049C78.613 25.0255 79.273 25.2533 79.7879 25.6875C79.8865 25.7946 79.9536 25.9266 79.9817 26.0689C80.0097 26.2112 79.9978 26.3585 79.9471 26.4945C79.8964 26.6305 79.809 26.7501 79.6944 26.8402C79.5797 26.9303 79.4423 26.9874 79.2972 27.0052Z" fill="#263238"/>
<path d="M73.3166 38.2559C73.6874 38.6077 74.1279 38.8795 74.6101 39.054C75.0923 39.2284 75.6057 39.3018 76.118 39.2695C76.5668 39.2569 77.0113 39.1784 77.4369 39.0364L77.6721 38.9553L77.9072 38.8641C77.9598 38.8389 78.0029 38.7979 78.0305 38.7469C78.058 38.6959 78.0686 38.6376 78.0606 38.5803C78.0648 38.5432 78.0648 38.5058 78.0606 38.4688V38.3776C77.897 37.5565 77.5289 36.3504 77.5289 36.3504C77.8663 36.4314 79.5738 36.7659 79.4306 36.3504C78.4847 32.7042 77.1693 29.1622 75.5045 25.7784C75.495 25.7529 75.4757 25.7322 75.4508 25.7208C75.4259 25.7093 75.3974 25.7082 75.3716 25.7176C75.3459 25.727 75.3249 25.7462 75.3134 25.7709C75.3019 25.7956 75.3008 25.8239 75.3103 25.8494C76.1691 29.2247 77.6107 32.4277 78.5207 35.803C77.9198 35.675 77.3033 35.634 76.6905 35.6814C76.5781 35.7422 77.4369 38.0228 77.488 38.3978C76.831 38.6211 76.1349 38.7093 75.4423 38.657C74.7497 38.6047 74.0751 38.4131 73.4597 38.0938C73.3063 38.0938 73.2348 38.185 73.3166 38.2559Z" fill="#263238"/>
<path d="M76.8642 38.895C76.5142 39.5669 75.9969 40.1391 75.3613 40.5573C75.0101 40.7653 74.6041 40.8642 74.1957 40.8411C73.2857 40.7701 73.1733 39.9897 73.1733 39.3004C73.191 38.9288 73.2563 38.561 73.3675 38.2057C74.4299 38.7972 75.6544 39.0386 76.8642 38.895Z" fill="#263238"/>
<path d="M75.3613 40.5575C75.0101 40.7656 74.6041 40.8644 74.1957 40.8413C73.2857 40.7704 73.1733 39.9899 73.1733 39.3006C73.6273 39.2365 74.0899 39.3256 74.4868 39.5536C74.8836 39.7815 75.1916 40.1351 75.3613 40.5575Z" fill="#FF9CBD"/>
<g opacity="0.2">
<path opacity="0.2" d="M72.9576 24.6438C73.5248 24.5948 74.0883 24.5102 74.6446 24.3904C75.2069 24.2485 75.7284 23.9951 76.2907 23.8633C77.3697 23.6756 78.4733 23.6756 79.5522 23.8633C79.6443 23.8633 79.6443 23.9343 79.5522 23.9241C78.4107 23.7708 77.2493 23.8642 76.1476 24.1978C75.2696 24.5429 74.3474 24.7647 73.4075 24.8566C71.2512 24.8693 69.1541 25.5576 67.4161 26.823C67.4161 26.823 67.4161 26.823 67.4161 26.823C69.002 25.5638 70.9322 24.8047 72.9576 24.6438Z" fill="black"/>
<path opacity="0.2" d="M72.59 23.1643C73.1302 23.1271 73.6668 23.0492 74.1951 22.9312C74.7268 22.7994 75.2176 22.5561 75.7594 22.4345C76.7742 22.2593 77.8119 22.2593 78.8267 22.4345C78.9187 22.4345 78.9187 22.5055 78.8267 22.4953C77.743 22.3585 76.6424 22.4483 75.5958 22.7589C74.7641 23.0858 73.8897 23.294 72.9989 23.3772C70.9553 23.3935 68.9692 24.0498 67.3245 25.2523C67.3245 25.2523 67.3245 25.2523 67.3245 25.2523C68.8313 24.0531 70.6645 23.3261 72.59 23.1643Z" fill="black"/>
</g>
<path d="M58.9201 36.0975C58.9201 36.0975 53.4399 27.1473 53.9511 21.9678C54.1761 19.6264 57.3865 18.0553 57.3865 18.0553C57.1398 17.1005 57.1671 16.0965 57.4652 15.1563C57.7632 14.2161 58.3203 13.3771 59.0735 12.7339C61.8647 10.1289 68.6229 10.7066 68.6229 10.7066C68.6229 10.7066 72.9989 4.43243 79.1947 6.91576C85.3906 9.39909 81.3623 16.3626 81.3623 16.3626C81.3623 16.3626 83.6321 19.5656 78.0803 22.0692C72.5286 24.5728 61.6193 22.1198 61.6193 22.1198C62.1376 25.8908 62.0825 29.7175 61.4557 33.4722C61.3174 34.0986 61.0076 34.6751 60.5603 35.1383C60.1129 35.6014 59.5454 35.9333 58.9201 36.0975Z" fill="#263238"/>
<path d="M69.6861 10.7875C68.3046 10.2308 66.8214 9.96502 65.3306 10.007C63.9965 9.98525 62.6684 10.191 61.4045 10.6152C60.2668 10.935 59.2384 11.5559 58.4297 12.4113C57.6209 13.2666 57.0623 14.3241 56.8139 15.4704C56.7235 16.0652 56.7539 16.6719 56.9031 17.255C57.0523 17.8381 57.3175 18.3857 57.6829 18.8659C57.6829 18.8659 57.7749 18.8659 57.7443 18.8659C56.3129 17.1023 57.0592 14.3655 58.5417 12.8958C60.3528 11.3347 62.6752 10.4808 65.075 10.4936C66.612 10.4742 68.1459 10.6341 69.6453 10.9699C69.7373 10.9395 69.7679 10.828 69.6861 10.7875Z" fill="#263238"/>
<path d="M61.9161 35.2769C61.9161 35.2769 57.765 30.5738 55.5668 32.0942C53.3686 33.6146 56.896 40.7098 59.7383 41.4194C60.0972 41.5374 60.4765 41.5819 60.8533 41.5502C61.2301 41.5185 61.5964 41.4113 61.9301 41.235C62.2638 41.0587 62.5578 40.817 62.7945 40.5246C63.0311 40.2322 63.2053 39.8952 63.3066 39.534L61.9161 35.2769Z" fill="#EB9481"/>
<path d="M56.6298 34.1005V34.1715C58.6747 34.7391 59.8402 36.3912 60.7195 38.1448C60.5855 37.9676 60.4147 37.8209 60.2188 37.7146C60.0228 37.6083 59.8061 37.5449 59.5833 37.5285C59.3605 37.5122 59.1367 37.5434 58.9271 37.6199C58.7174 37.6965 58.5268 37.8167 58.368 37.9725C58.3544 37.9819 58.3451 37.9963 58.3423 38.0124C58.3394 38.0286 58.3431 38.0452 58.3526 38.0586C58.3621 38.0721 58.3766 38.0812 58.3929 38.0841C58.4092 38.0869 58.4259 38.0832 58.4395 38.0738C58.7635 37.9298 59.1248 37.8895 59.4729 37.9586C59.8211 38.0276 60.1389 38.2025 60.3821 38.459C60.7734 38.8942 61.1162 39.37 61.4045 39.8781C61.5068 40.0402 61.8135 39.8781 61.7215 39.726C61.5579 37.2528 59.2779 34.06 56.6298 34.1005Z" fill="#263238"/>
<path d="M71.005 37.4555C70.1097 37.5748 69.1987 37.4426 68.3754 37.0739C67.5522 36.7052 66.8498 36.1148 66.3483 35.3699C65.8468 34.6251 65.5663 33.7556 65.5386 32.8604C65.511 31.9653 65.7373 31.0804 66.1919 30.3065C66.6464 29.5326 67.311 28.9007 68.1099 28.4827C68.9089 28.0648 69.8101 27.8775 70.7111 27.9422C71.6121 28.007 72.4766 28.3211 73.2064 28.849C73.9362 29.3768 74.5019 30.0971 74.8391 30.9279C75.0755 31.5109 75.1937 32.1344 75.187 32.7627C75.1803 33.391 75.0488 34.0118 74.8001 34.5897C74.5513 35.1677 74.1902 35.6913 73.7372 36.1309C73.2843 36.5704 72.7485 36.9172 72.1604 37.1514C71.7883 37.2964 71.4006 37.3984 71.005 37.4555ZM69.819 28.5966C69.4692 28.6455 69.1262 28.7339 68.7966 28.8602C67.8123 29.2514 67.0152 29.9997 66.5675 30.9528C66.1198 31.906 66.0551 32.9923 66.3866 33.9911C66.718 34.9898 67.4207 35.8259 68.3518 36.3293C69.2828 36.8327 70.3723 36.9656 71.3988 36.701C72.4252 36.4365 73.3114 35.7943 73.8772 34.905C74.443 34.0158 74.646 32.9463 74.4448 31.914C74.2436 30.8817 73.6533 29.9641 72.794 29.3479C71.9348 28.7317 70.871 28.463 69.819 28.5966Z" fill="#FFC727"/>
<path d="M81.7203 34.6779C79.8901 34.9211 77.9782 33.2791 77.3545 30.8667C77.0409 29.7126 77.0981 28.4902 77.5181 27.3698C77.6678 26.8792 77.9429 26.4354 78.3169 26.0815C78.6908 25.7275 79.1507 25.4756 79.652 25.3501C80.1532 25.2246 80.6787 25.2298 81.1773 25.3652C81.6759 25.5007 82.1306 25.7618 82.4973 26.1231C83.4218 26.9131 84.0609 27.9808 84.3172 29.1639C84.9715 31.7182 83.9491 34.2319 82.027 34.6677C81.9253 34.6807 81.8226 34.6841 81.7203 34.6779ZM80.0537 25.9305H79.8083C79.4143 26.0509 79.0548 26.2627 78.7596 26.5482C78.4645 26.8338 78.2422 27.1849 78.1111 27.5725C77.7468 28.5649 77.7004 29.6445 77.9782 30.664C78.5508 32.8838 80.2889 34.3637 81.8634 33.9582C83.4379 33.5528 84.2661 31.4445 83.6935 29.2247C83.451 28.1952 82.8897 27.2666 82.0883 26.569C81.8135 26.3269 81.4902 26.1449 81.1397 26.0348C80.7891 25.9248 80.4191 25.8893 80.0537 25.9305Z" fill="#FFC727"/>
<path d="M74.8295 31.4955L74.2979 31.1204C74.8602 30.3501 76.2916 29.1439 77.7434 30.1068L77.3958 30.644C76.0973 29.7825 74.8806 31.4245 74.8295 31.4955Z" fill="#FFC727"/>
<path d="M54.2995 37.932L53.6758 37.7901C53.7372 37.4962 54.3711 34.9419 55.7207 34.3641C57.0703 33.7864 65.5564 32.489 65.9449 32.4383L66.0471 33.0667C63.5831 33.4519 56.9783 34.5263 56.007 34.952C55.0357 35.3777 54.4631 37.2326 54.2995 37.932Z" fill="#FFC727"/>
<path d="M75.269 53.9878L70.9032 62.8669L60.3007 50.6327L56.8143 54.1094C56.8143 54.1094 66.7011 73.1449 66.8238 72.3543L71.1486 64.7725L76.2608 70.6007L76.7617 56.8765L75.269 53.9878Z" fill="#EBEBEB"/>
<path d="M76.864 63.7491C76.864 61.4787 76.9458 59.1981 76.864 56.9276C76.864 56.8566 76.7311 56.8059 76.7107 56.9276C76.1074 59.0764 76.1176 67.7529 75.9643 69.8206C75.7598 69.5774 71.2407 64.6816 71.1896 64.7526C70.2796 65.9385 67.0999 71.4627 66.8852 71.9695C65.3311 68.9287 59.2988 57.931 57.4073 55.0423C57.3957 55.0277 57.3793 55.0176 57.361 55.0136C57.3427 55.0096 57.3235 55.0119 57.3068 55.0202C57.29 55.0286 57.2766 55.0423 57.2689 55.0593C57.2611 55.0762 57.2594 55.0952 57.2642 55.1132C58.6035 58.2858 66.5682 73.1047 66.7011 73.0743C68.3503 70.4815 69.8621 67.8054 71.2305 65.0567C71.9768 66.0703 76.4959 71.5843 76.5368 71.2498C76.7756 68.7568 76.8848 66.2533 76.864 63.7491Z" fill="#263238"/>
<path d="M116.851 121.585C113.098 126.896 102.884 127.92 77.4261 132.856C73.8987 133.545 62.3351 110.192 66.0568 109.269C70.7497 108.104 89.2146 104.607 90.5949 104.516C102.261 103.745 119.396 117.936 116.851 121.585Z" fill="#EB9481"/>
<path d="M71.1588 108.073C71.1588 108.073 60.362 109.695 54.9637 112.28C49.4163 115.113 44.645 119.238 41.0587 124.301C37.1735 129.754 31.5707 145.587 35.8955 147.999C39.8114 150.168 44.7088 133.687 44.7088 133.687C44.7088 133.687 36.9179 149.672 42.1118 151.425C47.3057 153.179 51.8964 133.748 51.8964 133.748C51.8964 133.748 44.2589 150.361 49.9027 151.324C54.1764 152.054 59.3294 134.66 59.3294 134.66C59.3294 134.66 52.8677 148.982 57.2232 149.925C62.0388 150.939 67.8155 135.197 67.8155 135.197C79.2871 135.735 84.9717 131.336 88.6422 127.727C89.5317 126.825 71.1588 108.073 71.1588 108.073Z" fill="#EB9481"/>
<path d="M47.0397 127.98C46.0173 129.825 45.046 131.69 44.2383 133.616C43.4306 135.542 42.674 137.498 42.0401 139.485C41.1687 142.075 40.5959 144.754 40.3326 147.472C41.1506 142.688 43.9622 135.745 44.7802 133.819C45.5981 131.893 46.3036 129.927 47.1215 128.011C47.142 127.96 47.0704 127.94 47.0397 127.98Z" fill="#263238"/>
<path d="M54.115 130.768C52.9597 133.18 51.7225 135.532 50.6797 137.995C49.6368 140.458 48.87 142.86 48.0009 145.374C47.9294 145.567 48.0623 145.536 48.1339 145.374C49.1052 142.901 50.1787 140.681 51.2011 138.218C52.2235 135.755 53.1028 133.241 54.1866 130.819C54.1866 130.758 54.1253 130.707 54.115 130.768Z" fill="#263238"/>
<path d="M60.6176 132.086C58.7552 135.739 57.2818 139.574 56.2212 143.53C56.1599 143.722 56.3235 143.672 56.3848 143.469C57.7753 139.637 58.8386 136.627 60.7403 132.147C60.771 132.086 60.6585 132.005 60.6176 132.086Z" fill="#263238"/>
<path d="M68.9095 108.074L91.2188 132.735C91.2188 132.735 113.784 127.606 117.106 121.869C119.294 118.088 102.302 102.793 89.5011 104.577L68.9095 108.074Z" fill="#E5005B"/>
<path opacity="0.1" d="M88.7134 123.449C88.6149 124.074 88.4255 124.682 88.1511 125.254C87.8932 125.835 87.5485 126.375 87.1287 126.855C87.229 126.23 87.4183 125.623 87.691 125.051C87.9565 124.473 88.3005 123.934 88.7134 123.449ZM104.213 122.061C103.942 122.637 103.753 123.247 103.651 123.875C104.069 123.39 104.413 122.847 104.673 122.263C104.949 121.692 105.142 121.084 105.246 120.459C104.829 120.943 104.481 121.482 104.213 122.061ZM93.161 116.891C92.5858 116.616 91.9724 116.428 91.3411 116.334C92.3294 117.142 93.5136 117.68 94.7764 117.895C94.289 117.485 93.745 117.148 93.161 116.891ZM104.213 110.11C104.428 110.707 104.727 111.27 105.103 111.783C104.978 110.517 104.524 109.305 103.784 108.265C103.837 108.898 103.982 109.519 104.213 110.11ZM81.6485 115.442C81.8586 116.04 82.1585 116.604 82.538 117.114C82.4132 115.848 81.9587 114.636 81.2191 113.597C81.2721 114.229 81.4168 114.851 81.6485 115.442ZM72.4467 109.603C73.0478 109.389 73.6156 109.092 74.1337 108.722C73.4965 108.771 72.8698 108.911 72.2729 109.137C71.6727 109.354 71.1052 109.65 70.5859 110.019C71.2231 109.97 71.8498 109.83 72.4467 109.603ZM91.4433 107.576C92.0444 107.362 92.6123 107.065 93.1303 106.694C92.4933 106.745 91.8667 106.885 91.2695 107.11C90.6703 107.329 90.1031 107.625 89.5825 107.992C90.2126 107.934 90.8318 107.79 91.4228 107.566L91.4433 107.576ZM98.4775 129.227C99.0795 129.014 99.6476 128.717 100.165 128.345C99.5267 128.397 98.8999 128.54 98.3037 128.771C97.7008 128.981 97.1324 129.278 96.6168 129.653C97.2478 129.594 97.8673 129.447 98.4571 129.217L98.4775 129.227ZM115.245 116.942C114.788 117.027 114.34 117.152 113.906 117.317C113.304 117.53 112.736 117.826 112.219 118.199C112.856 118.141 113.482 117.998 114.08 117.773C114.542 117.61 114.984 117.396 115.399 117.135L115.245 116.942Z" fill="black"/>
<path d="M104.776 108.55C100.341 105.373 94.8807 103.929 89.4394 104.495C89.3781 104.495 89.3781 104.607 89.4394 104.607C95.0423 104.455 102.598 107.354 104.714 108.61C104.786 108.681 104.837 108.59 104.776 108.55Z" fill="#263238"/>
<path d="M97.3225 128.579C95.0118 125.741 92.558 123.035 90.0837 120.328C87.6095 117.622 85.1557 114.905 82.6201 112.219C81.1887 110.729 79.7675 109.179 78.285 107.78C78.2769 107.769 78.2647 107.762 78.2513 107.76C78.2379 107.758 78.2243 107.762 78.2134 107.77C78.2026 107.778 78.1954 107.79 78.1935 107.803C78.1916 107.816 78.1951 107.83 78.2032 107.841C80.5139 110.669 82.9575 113.395 85.3602 116.112C87.7628 118.828 90.2882 121.545 92.7932 124.22C94.2041 125.731 95.6457 127.261 97.1282 128.67C97.2509 128.772 97.3838 128.68 97.3225 128.579Z" fill="#263238"/>
<path d="M68.8688 107.759C70.2385 107.345 71.6358 107.027 73.0505 106.806C74.4512 106.553 75.8724 106.31 77.2833 106.087C80.095 105.641 86.0046 104.374 91.1985 104.384C91.2598 104.384 90.9633 104.668 90.902 104.658C88.4277 104.526 70.7092 108.023 69.2573 108.124C69.3084 108.225 69.3698 108.317 69.4107 108.418C69.4256 108.434 69.4334 108.456 69.4325 108.477C69.4315 108.499 69.4218 108.52 69.4056 108.535C69.3893 108.549 69.3678 108.557 69.3457 108.556C69.3237 108.555 69.3029 108.546 69.288 108.53C69.104 108.408 68.9813 108.256 68.8075 108.124C68.7746 108.102 68.7488 108.072 68.7331 108.036C68.7174 108 68.7125 107.961 68.719 107.922C68.7254 107.883 68.7431 107.848 68.7696 107.819C68.7962 107.79 68.8307 107.769 68.8688 107.759Z" fill="#263238"/>
<path d="M215.914 52.8622L218.128 58.1739L215.914 59.0854L213.685 53.737L210.023 56.5553V41.5945L220.585 52.176L215.914 52.8622Z" fill="#263238"/>
<path d="M210.171 39.6091C209.989 39.3091 209.897 38.9638 209.907 38.6138C209.896 38.2654 209.988 37.9216 210.171 37.6237C210.349 37.9235 210.44 38.266 210.435 38.6138C210.439 38.9632 210.348 39.3072 210.171 39.6091Z" fill="#263238"/>
<path d="M208.432 40.3161C208.089 40.2288 207.777 40.0472 207.534 39.7922C207.276 39.553 207.093 39.2459 207.005 38.907C207.347 38.9938 207.657 39.1755 207.898 39.4308C208.155 39.6717 208.34 39.978 208.432 40.3161Z" fill="#263238"/>
<path d="M207.719 42.0239C207.414 42.1998 207.067 42.2903 206.715 42.2858C206.364 42.291 206.018 42.2003 205.716 42.0239C206.017 41.8429 206.363 41.752 206.715 41.762C207.067 41.755 207.415 41.8457 207.719 42.0239Z" fill="#263238"/>
<path d="M208.432 43.732C208.341 44.0693 208.158 44.3754 207.904 44.6173C207.662 44.8721 207.352 45.0537 207.011 45.1411C207.097 44.8017 207.281 44.4943 207.539 44.2558C207.781 44.0016 208.091 43.8201 208.432 43.732Z" fill="#263238"/>
<path d="M212.59 42.0239C212.892 41.8451 213.238 41.7543 213.589 41.762C213.942 41.7519 214.291 41.8428 214.593 42.0239C214.288 42.1956 213.943 42.2859 213.592 42.2859C213.241 42.2859 212.896 42.1956 212.59 42.0239Z" fill="#263238"/>
<path d="M211.877 40.3164C211.967 39.9769 212.15 39.6687 212.406 39.4259C212.649 39.1704 212.961 38.9888 213.304 38.902C213.216 39.2407 213.033 39.5477 212.776 39.7873C212.532 40.044 212.221 40.2274 211.877 40.3164Z" fill="#263238"/>
<path d="M115.412 23.8697L120.406 12.8691H122.435L127.444 23.8697H125.288L120.992 13.9534H121.816L117.536 23.8697H115.412ZM117.711 21.3239L118.266 19.7209H124.258L124.812 21.3239H117.711Z" fill="#263238"/>
<path d="M128.379 23.8697V12.8691H133.579C134.91 12.8691 135.925 13.131 136.622 13.6549C137.32 14.1682 137.669 14.8597 137.669 15.7293C137.669 16.316 137.531 16.8188 137.257 17.2379C136.982 17.6465 136.612 17.966 136.147 18.1965C135.692 18.4165 135.196 18.5266 134.657 18.5266L134.942 17.9608C135.566 17.9608 136.126 18.0761 136.622 18.3065C137.119 18.5266 137.51 18.8513 137.795 19.2809C138.091 19.7104 138.239 20.2447 138.239 20.8838C138.239 21.8267 137.875 22.5601 137.146 23.084C136.416 23.6078 135.333 23.8697 133.896 23.8697H128.379ZM130.44 22.2668H133.769C134.541 22.2668 135.132 22.141 135.545 21.8896C135.957 21.6382 136.163 21.2348 136.163 20.6795C136.163 20.1347 135.957 19.7366 135.545 19.4852C135.132 19.2233 134.541 19.0923 133.769 19.0923H130.282V17.5051H133.357C134.076 17.5051 134.625 17.3793 135.006 17.1279C135.397 16.8765 135.592 16.4993 135.592 15.9964C135.592 15.4831 135.397 15.1006 135.006 14.8492C134.625 14.5978 134.076 14.472 133.357 14.472H130.44V22.2668Z" fill="#263238"/>
<path d="M145.162 24.0269C144.296 24.0269 143.498 23.8854 142.769 23.6026C142.04 23.3197 141.406 22.9268 140.867 22.4239C140.328 21.9106 139.91 21.3134 139.614 20.6324C139.318 19.9409 139.17 19.1866 139.17 18.3694C139.17 17.5522 139.318 16.8031 139.614 16.1221C139.91 15.4307 140.328 14.8335 140.867 14.3306C141.406 13.8172 142.04 13.4191 142.769 13.1363C143.498 12.8534 144.291 12.7119 145.147 12.7119C146.013 12.7119 146.806 12.8534 147.524 13.1363C148.254 13.4191 148.888 13.8172 149.427 14.3306C149.966 14.8335 150.383 15.4307 150.679 16.1221C150.975 16.8031 151.123 17.5522 151.123 18.3694C151.123 19.1866 150.975 19.9409 150.679 20.6324C150.383 21.3239 149.966 21.921 149.427 22.4239C148.888 22.9268 148.254 23.3197 147.524 23.6026C146.806 23.8854 146.018 24.0269 145.162 24.0269ZM145.147 22.2353C145.707 22.2353 146.225 22.141 146.7 21.9525C147.176 21.7639 147.588 21.4967 147.937 21.151C148.285 20.7948 148.555 20.3862 148.745 19.9252C148.946 19.4537 149.046 18.9351 149.046 18.3694C149.046 17.8037 148.946 17.2903 148.745 16.8293C148.555 16.3579 148.285 15.9493 147.937 15.6035C147.588 15.2473 147.176 14.9749 146.7 14.7863C146.225 14.5978 145.707 14.5035 145.147 14.5035C144.587 14.5035 144.069 14.5978 143.593 14.7863C143.128 14.9749 142.716 15.2473 142.357 15.6035C142.008 15.9493 141.733 16.3579 141.532 16.8293C141.342 17.2903 141.247 17.8037 141.247 18.3694C141.247 18.9247 141.342 19.438 141.532 19.9095C141.733 20.3809 142.008 20.7948 142.357 21.151C142.705 21.4967 143.118 21.7639 143.593 21.9525C144.069 22.141 144.587 22.2353 145.147 22.2353Z" fill="#263238"/>
<path d="M157.603 24.0269C156.081 24.0269 154.887 23.6026 154.02 22.7539C153.164 21.9053 152.736 20.6795 152.736 19.0766V12.8691H154.797V18.998C154.797 20.1295 155.04 20.9519 155.526 21.4653C156.023 21.9787 156.721 22.2353 157.619 22.2353C158.517 22.2353 159.209 21.9787 159.695 21.4653C160.182 20.9519 160.425 20.1295 160.425 18.998V12.8691H162.454V19.0766C162.454 20.6795 162.02 21.9053 161.154 22.7539C160.298 23.6026 159.114 24.0269 157.603 24.0269Z" fill="#263238"/>
<path d="M166.914 23.8697V14.5978H163.236V12.8691H172.652V14.5978H168.975V23.8697H166.914Z" fill="#263238"/>
<path d="M177.629 23.8697V12.8691H179.325L184.175 20.8995H183.288L188.059 12.8691H189.755L189.771 23.8697H187.821L187.805 15.9021H188.218L184.16 22.6125H183.24L179.119 15.9021H179.594V23.8697H177.629Z" fill="#263238"/>
<path d="M194.195 17.4422H199.711V19.1237H194.195V17.4422ZM194.353 22.1568H200.615V23.8697H192.293V12.8691H200.393V14.582H194.353V22.1568Z" fill="#263238"/>
</svg>
