<svg width="143" height="175" viewBox="0 0 143 175" fill="none" xmlns="http://www.w3.org/2000/svg">
<path d="M139.501 2.92566H134.149V0.449341H139.501V2.92566ZM134.413 2.66222H139.237V0.728585H134.413V2.66222Z" fill="white"/>
<path d="M138.046 0.87616H134.593V2.50948H138.046V0.87616Z" fill="white"/>
<path d="M139.987 1.03442H139.511V2.35689H139.987V1.03442Z" fill="white"/>
<path d="M74.3601 162.948C76.1186 162.464 83.1423 161.33 84.8494 161.083C84.5316 159.819 84.3252 158.529 84.2324 157.229C84.2395 157.216 84.2499 157.205 84.2626 157.197C84.2753 157.19 84.2897 157.186 84.3044 157.186C84.3191 157.186 84.3336 157.19 84.3462 157.197C84.3589 157.205 84.3693 157.216 84.3764 157.229C84.9137 158.665 85.3434 160.139 85.6619 161.639C85.6619 161.784 76.2009 162.979 74.3498 163.072C74.3292 163.051 74.3087 162.969 74.3601 162.948Z" fill="#263238"/>
<path d="M24.6409 109.417C25.8496 107.458 26.7798 105.339 27.4046 103.123C27.868 100.929 27.7557 98.652 27.0788 96.5144C26.4661 94.2455 25.9749 91.9455 25.607 89.6242C25.2384 87.2002 25.3607 84.7268 25.9665 82.3512C26.6251 79.9721 27.8205 77.7764 29.4605 75.9339C31.0501 74.1826 32.7825 72.5671 34.6397 71.104C36.4366 69.7033 38.042 68.0718 39.4144 66.2516C40.7282 64.3594 41.5047 62.1453 41.6613 59.8455C41.8603 62.2308 41.3356 64.6206 40.1558 66.7019C38.913 68.7312 37.3715 70.5607 35.5833 72.1285C33.8807 73.6557 32.2782 75.2916 30.7861 77.0259C29.3767 78.7199 28.3462 80.6971 27.7641 82.8241C27.2443 84.9791 27.1225 87.2113 27.4046 89.4103C27.6405 91.662 28.1573 93.9137 28.5281 96.1654C28.747 97.3471 28.8747 98.5441 28.91 99.7456C28.9176 100.975 28.7045 102.195 28.2809 103.348C27.4342 105.57 26.2019 107.625 24.6409 109.417V109.417Z" fill="#263238"/>
<path d="M5.66528 162.568C5.66528 162.399 5.6653 162.23 5.75519 162.061C5.71054 162.269 5.67675 162.48 5.65403 162.691C5.65218 162.65 5.65597 162.608 5.66528 162.568V162.568Z" fill="#E5005B"/>
<path d="M33.7966 167.555C33.7043 167.617 33.6066 167.67 33.5046 167.713V167.634L33.8078 167.567L33.7966 167.555Z" fill="#E5005B"/>
<path d="M71.8708 49.0484C71.4551 49.0484 71.0731 49.0484 70.6574 49.0484C70.2343 49.1185 69.8 49.0472 69.4213 48.8457C69.311 48.7611 69.233 48.6412 69.2003 48.506C69.1676 48.3707 69.1821 48.2283 69.2416 48.1025C69.3895 47.8704 69.5967 47.6822 69.8417 47.5574C70.0867 47.4327 70.3606 47.376 70.6349 47.3931C71.2008 47.3369 71.7669 47.4979 72.2192 47.8435C72.3253 47.9266 72.4043 48.0396 72.4457 48.168C72.4872 48.2965 72.4893 48.4344 72.4518 48.5641C72.4144 48.6937 72.339 48.8091 72.2354 48.8955C72.1319 48.9818 72.0049 49.035 71.8708 49.0484V49.0484Z" fill="#263238"/>
<path d="M59.8043 50.7375C60.1891 50.5925 60.5644 50.4232 60.9279 50.2308C61.3431 50.1129 61.707 49.8593 61.9616 49.5101C62.0202 49.3851 62.0355 49.2441 62.005 49.1095C61.9744 48.9748 61.8999 48.8543 61.7931 48.767C61.556 48.6228 61.2839 48.5466 61.0066 48.5466C60.7292 48.5466 60.4572 48.6228 60.22 48.767C59.6874 48.9741 59.2535 49.3767 59.0065 49.893C58.9706 50.0061 58.9656 50.1268 58.9921 50.2426C59.0185 50.3583 59.0754 50.4648 59.1569 50.551C59.2383 50.6373 59.3413 50.7 59.4552 50.7328C59.569 50.7656 59.6896 50.7672 59.8043 50.7375V50.7375Z" fill="#263238"/>
<path d="M33.763 167.566L33.471 167.634L33.763 167.566Z" fill="#D3766A"/>
<path d="M5.75519 162.061C5.71054 162.269 5.67675 162.48 5.65403 162.691C5.64848 162.65 5.64848 162.609 5.65403 162.568C5.68774 162.399 5.72148 162.23 5.75519 162.061Z" fill="#E5005B"/>
<path d="M5.75519 162.061C5.71054 162.269 5.67675 162.48 5.65403 162.691C5.64848 162.65 5.64848 162.609 5.65403 162.568C5.68774 162.399 5.72148 162.23 5.75519 162.061Z" fill="#E5005B"/>
<path d="M35.0891 170.629L34.1789 170.843L35.0891 170.629Z" fill="#E5005B"/>
<path d="M5.75519 162.061C5.71054 162.269 5.67675 162.48 5.65403 162.691C5.64848 162.65 5.64848 162.609 5.65403 162.568C5.68774 162.399 5.72148 162.23 5.75519 162.061Z" fill="#DBDBDB"/>
<path d="M88.1832 107.446L80.319 107.998C77.8166 103.657 76.714 98.6471 77.1621 93.6542C77.252 92.5283 74.859 99.1709 76.342 108.29C68.0397 108.864 56.7376 109.653 46.8737 110.249C46.5029 106.388 45.9862 102.83 45.9862 102.83C45.787 105.381 45.3622 107.909 44.7166 110.384C43.3685 110.474 42.0428 110.542 40.7733 110.609C40.5821 105.111 40.087 99.6271 39.2903 94.1833C38.8392 99.9487 37.4464 105.601 35.1672 110.913C28.8871 111.229 24.764 111.319 25.0561 111.004C34.0438 99.6662 26.8087 93.6992 29.0781 83.9832C31.7857 72.3306 41.6047 70.0452 40.9193 61.4662C40.3689 54.4409 38.9196 41.7301 47.6601 38.589C49.9351 36.1353 52.8783 34.4041 56.1252 33.6096C59.3721 32.8152 62.7801 32.9924 65.9275 34.1193C80.1842 38.8479 75.6229 60.7907 76.7801 65.159C78.4316 71.3962 81.5323 73.479 84.0938 80.5718C86.6553 87.6647 83.6107 92.7197 83.4647 97.6622C83.3186 102.605 89.7561 107.356 88.1832 107.446Z" fill="#263238"/>
<path d="M74.2529 41.8655C75.3391 44.5323 76.0937 47.3228 76.4998 50.1743C76.9829 53.0002 77.3312 55.8035 77.6233 58.6969L78.1288 62.9414C78.2708 64.3121 78.5455 65.6657 78.949 66.9832C79.8987 69.5782 81.3067 71.9808 83.1057 74.076C84.0077 75.2345 84.8297 76.4532 85.5661 77.7238C86.3059 79.0295 86.8939 80.4158 87.3187 81.8556C87.6968 83.2862 87.971 84.7424 88.1389 86.2127C88.3222 87.7082 88.3222 89.2206 88.1389 90.7161C87.9479 92.1909 87.5996 93.5982 87.3187 94.9718C87.0336 96.339 86.8756 97.7297 86.8469 99.1262C86.87 100.525 87.2242 101.899 87.8805 103.134C88.5368 104.369 89.4762 105.43 90.6217 106.23C89.3253 105.526 88.222 104.512 87.4089 103.279C86.5958 102.046 86.098 100.631 85.9594 99.1599C85.8691 97.6944 85.9255 96.2234 86.1278 94.7691C86.3188 93.328 86.6109 91.932 86.7008 90.5584C86.8617 87.8016 86.5152 85.0385 85.6785 82.4073C85.2621 81.1115 84.7124 79.8626 84.0382 78.6807C83.3255 77.4843 82.5336 76.3372 81.6677 75.2469C80.7688 74.0958 79.9325 72.8969 79.1625 71.6555C78.3761 70.3724 77.7533 68.9957 77.3087 67.5574C76.9148 66.1254 76.659 64.6588 76.5448 63.1778C76.3987 61.7367 76.3088 60.3069 76.2189 58.8771C76.0279 56.0174 75.8819 53.169 75.6123 50.3319C75.455 47.47 74.9993 44.6324 74.2529 41.8655Z" fill="#263238"/>
<path d="M73.9939 88.7451C91.6547 108.65 113.034 149.71 108.237 157.557C102.9 166.294 77.4317 137.945 78.308 136.661C79.0495 135.535 70.7696 111.014 64.7479 93.0571C58.7261 75.0998 69.6237 83.8251 73.9939 88.7451Z" fill="#D3766A"/>
<path d="M73.9939 88.7451C91.6547 108.65 113.034 149.71 108.237 157.557C102.9 166.294 77.4317 137.945 78.308 136.661C79.0495 135.535 70.7696 111.014 64.7479 93.0571C58.7261 75.0998 69.6237 83.8251 73.9939 88.7451Z" fill="#455A64"/>
<path d="M71.6127 113.661C73.3428 118.896 74.9156 123.794 76.1065 127.734C78.8365 127.858 86.8243 127.419 95.1154 119.425C92.6213 115.001 89.925 110.554 87.1389 106.298C83.0025 110.525 77.4974 113.136 71.6127 113.661V113.661Z" fill="#EBEBEB"/>
<path d="M91.0258 166.631L86.5994 136.515C86.5994 136.515 93.6996 124.13 89.5765 115.124C87.4981 110.62 73.219 88.5086 65.5346 82.9132C58.322 77.6667 48.4355 82.4516 45.0764 87.0113C35.4146 100.139 30.7073 123.759 25.3147 166.597L91.0258 166.631Z" fill="#455A64"/>
<path d="M78.0948 96.8288C79.5553 98.8328 80.9708 100.871 82.3639 102.931C81.9819 102.132 81.5999 101.332 81.2404 100.533C81.2404 100.477 81.2404 100.42 81.3191 100.533C81.8359 101.535 82.3189 102.548 82.7796 103.573C84.6445 106.327 86.4495 109.127 88.1946 111.971C88.9521 113.161 89.5954 114.42 90.1158 115.732C90.5874 117.017 90.9005 118.356 91.0482 119.717C91.2111 121.081 91.2336 122.458 91.1156 123.827C91.0244 125.232 90.8253 126.629 90.5202 128.003C90.1748 129.569 89.6859 131.099 89.0597 132.574C88.7452 133.295 88.4193 134.004 88.0598 134.714C87.7003 135.423 87.0824 136.65 87.0824 136.695C87.2172 137.416 87.3521 137.922 87.4419 138.53C87.5318 139.138 87.6329 139.769 87.7228 140.388C87.9138 141.626 89.5091 153.65 89.6889 154.889C90.0484 157.343 90.3629 159.797 90.6663 162.263C90.8348 163.682 90.9359 165.1 91.1268 166.507C91.1268 166.564 91.0482 166.586 91.037 166.507C90.8347 165.28 90.5314 164.076 90.318 162.848C90.1045 161.621 89.8686 160.394 89.6326 159.167C89.172 156.69 87.3858 143.405 87.0038 140.917C86.8914 140.23 86.7903 139.543 86.6779 138.845C86.5268 138.104 86.4404 137.35 86.4196 136.594C87.6288 134.107 88.6503 131.533 89.4754 128.893C89.8689 127.551 90.158 126.181 90.3404 124.795C90.4695 123.443 90.4695 122.082 90.3404 120.731C90.2298 119.374 89.9699 118.033 89.5652 116.734C89.1135 115.412 88.534 114.137 87.8351 112.928C86.3971 110.373 84.8692 107.862 83.3413 105.374C81.5887 102.552 79.8061 99.741 77.9936 96.9413C77.9936 96.9413 78.0611 96.7837 78.0948 96.8288Z" fill="#263238"/>
<path d="M48.7271 139.87L72.4209 167.814C72.4209 167.814 104.776 165.562 108.506 157.006C112.236 148.449 87.5988 136.009 79.9143 136.74C72.2299 137.472 48.7271 139.87 48.7271 139.87Z" fill="#455A64"/>
<path d="M92.3852 140.389C90.5202 139.105 85.24 136.088 79.9148 136.684V136.775C84.2851 136.91 90.4416 139.375 92.3403 140.456C92.3852 140.49 92.4301 140.411 92.3852 140.389Z" fill="#263238"/>
<path d="M77.4317 162.984C68.1183 153.099 59.8272 141.289 58.2319 139.341C58.1645 139.251 58.3217 139.138 58.3891 139.228C59.8496 141.232 70.7472 153.696 77.6003 162.871C77.6789 162.973 77.5216 163.074 77.4317 162.984Z" fill="#263238"/>
<path d="M40.3463 93.2937C21.3149 117.556 14.136 161.205 24.6965 164.582C34.347 167.69 74.0388 157.737 85.8688 153.707C89.3403 152.525 78.6113 125.47 74.8926 126.686C70.3988 128.206 45.8625 134.038 45.3794 134.049C44.3571 134.049 49.8171 107.232 52.1202 95.0612C55.4231 78.1285 47.4915 84.1743 40.3463 93.2937Z" fill="#EB9481"/>
<path d="M106.631 116.531C107.195 117.222 107.535 118.069 107.603 118.959C107.671 119.849 107.465 120.739 107.013 121.508C108.463 121.945 109.715 122.877 110.552 124.142C111.922 126.394 108.923 129.602 108.923 129.602C110.335 130.37 111.482 131.547 112.214 132.98C113.338 135.31 110.731 138.936 110.731 138.936C111.64 140.354 112.007 142.053 111.765 143.721C110.934 148.156 104.541 150.678 100.53 152.322C96.5196 153.966 83.4537 154.81 80.9933 155.227L70.2531 129.253C70.2531 129.253 86.3298 116.723 91.3742 115.462C95.5647 114.403 104.373 113.919 106.631 116.531Z" fill="#EB9481"/>
<path d="M106.664 121.17C101.878 121.17 97.3732 122.656 92.7895 123.849C92.6884 123.849 92.7895 124.029 92.7895 124.007C97.2834 122.768 102.069 122.453 106.653 121.395C106.683 121.396 106.712 121.386 106.734 121.366C106.756 121.346 106.769 121.318 106.771 121.288C106.772 121.258 106.762 121.229 106.742 121.207C106.722 121.184 106.694 121.171 106.664 121.17V121.17Z" fill="#263238"/>
<path d="M108.698 129.298C107.613 129.408 106.548 129.662 105.53 130.052C104.406 130.401 103.283 130.762 102.249 131.178C100.003 131.944 97.9016 132.766 95.7558 133.644C95.6659 133.644 95.7558 133.835 95.7558 133.801C97.9353 133.051 100.126 132.334 102.328 131.651C103.452 131.313 104.575 130.987 105.642 130.672C106.71 130.44 107.75 130.093 108.743 129.636C108.765 129.633 108.786 129.626 108.806 129.614C108.825 129.603 108.842 129.588 108.856 129.57C108.869 129.553 108.879 129.532 108.885 129.511C108.891 129.489 108.892 129.467 108.889 129.444C108.886 129.422 108.879 129.401 108.868 129.382C108.856 129.362 108.842 129.345 108.824 129.332C108.806 129.318 108.786 129.308 108.764 129.302C108.743 129.297 108.72 129.295 108.698 129.298V129.298Z" fill="#263238"/>
<path d="M110.641 138.947C109.661 139.067 108.707 139.353 107.822 139.791C106.844 140.163 105.844 140.523 104.856 140.917C102.878 141.627 100.89 142.347 98.8901 142.989C98.8729 142.995 98.8581 143.007 98.8476 143.022C98.8371 143.037 98.8315 143.055 98.8315 143.073C98.8315 143.092 98.8371 143.11 98.8476 143.125C98.8581 143.14 98.8729 143.151 98.8901 143.158C100.924 142.505 102.979 141.886 105.013 141.221L108.001 140.219C108.943 140.009 109.838 139.628 110.641 139.093C110.651 139.093 110.661 139.092 110.669 139.088C110.678 139.084 110.686 139.079 110.693 139.072C110.7 139.065 110.705 139.057 110.709 139.048C110.713 139.039 110.714 139.03 110.714 139.02C110.714 139.011 110.713 139.001 110.709 138.992C110.705 138.983 110.7 138.975 110.693 138.968C110.686 138.962 110.678 138.956 110.669 138.953C110.661 138.949 110.651 138.947 110.641 138.947V138.947Z" fill="#263238"/>
<path d="M45.7056 132.957C45.4023 132.766 51.0982 106.871 53.0081 93.35C54.918 79.8286 48.8962 81.1346 40.2344 92.6858C30.9434 105.07 14.3948 138.575 20.1357 163.389C21.9894 171.428 79.4319 160.169 79.4319 160.169L71.6912 127.08C71.6912 127.08 46.2112 133.239 45.7056 132.957Z" fill="#455A64"/>
<path d="M71.9492 156.769C68.4553 145.241 66.5341 132.609 66.0398 130.424C66.0398 130.323 66.1859 130.301 66.1971 130.424C66.5679 132.586 70.3427 146.794 72.129 156.758C72.1515 156.848 71.9829 156.871 71.9492 156.769Z" fill="#263238"/>
<path d="M34.9427 136.785C36.0661 136.594 65.3772 128.319 71.7809 127.317C71.882 127.317 71.7809 126.968 71.691 126.99C59.1082 129.194 46.6967 132.286 34.5495 136.245C33.089 136.83 32.8755 137.145 34.9427 136.785Z" fill="#263238"/>
<path d="M46.0202 133.217C46.0202 133.217 47.9525 123.242 48.2671 122.622C48.5817 122.003 49.3905 120.562 49.7051 119.898C50.3455 118.558 50.896 117.185 51.4802 115.822C51.4802 115.71 51.3566 115.631 51.3116 115.744C50.6712 117.05 49.9298 118.31 49.1771 119.56C48.8063 120.168 48.4356 120.787 48.0536 121.384C48.0536 121.384 49.8624 111.702 50.1208 109.99C50.1208 109.867 50.0084 109.822 49.9635 109.99C49.413 111.713 45.5707 131.201 45.0427 133.363C45.3716 133.338 45.6984 133.289 46.0202 133.217Z" fill="#263238"/>
<path d="M70.2083 85.3567C70.2083 85.3567 69.4444 92.9674 63.1418 94.1496C56.8392 95.3317 45.0766 87.0455 45.0766 87.0455C46.6935 85.0796 48.7175 83.4894 51.0086 82.3852C53.2996 81.281 55.8027 80.6891 58.3446 80.6507C66.5571 80.6394 70.2083 85.3567 70.2083 85.3567Z" fill="#EB9481"/>
<path d="M52.1319 83.2289C52.4689 84.3547 58.412 91.5827 63.6811 91.031C65.4 90.8396 64.8045 81.405 64.8045 81.405L64.9168 80.707L66.5459 70.822L54.6822 64.0669L52.9745 63.1888C52.9745 63.1888 52.7048 65.9246 52.4127 69.3359C52.4127 69.4935 52.4127 69.6512 52.4127 69.82C52.4127 69.9889 52.4128 70.1916 52.3566 70.3717C52.3566 70.8783 52.2555 71.3962 52.2218 71.9141C52.1881 72.432 52.1544 72.7022 52.1319 73.1075L52.0645 74.3459C51.8847 77.305 51.9072 80.2729 52.1319 83.2289V83.2289Z" fill="#EB9481"/>
<path d="M52.4462 69.3809C53.5873 72.0638 55.2965 74.4662 57.4555 76.4218C59.6145 78.3774 62.1717 79.8395 64.9503 80.707L66.5793 70.822L54.7156 64.0669L53.0079 63.1888C53.0079 63.1888 52.727 65.9696 52.4462 69.3809Z" fill="#263238"/>
<path d="M77.9715 52.3691C82.5889 69.3244 72.9609 74.0192 69.3097 75.01C65.9393 75.9106 54.6036 78.5564 48.2561 62.164C41.9085 45.7717 48.3234 38.251 55.8057 35.7854C63.2879 33.3198 73.3541 35.4026 77.9715 52.3691Z" fill="#EB9481"/>
<path d="M63.681 56.1635C63.681 56.1635 63.6136 56.2423 63.681 56.2873C64.0068 57.4134 64.1754 58.8209 63.2203 59.4627C63.2203 59.4627 63.2203 59.5416 63.2203 59.519C64.4226 59.0236 64.1641 57.1994 63.681 56.1635Z" fill="#263238"/>
<path d="M62.3434 55.2061C60.4333 55.5214 61.2198 59.3161 62.9727 59.0121C64.7255 58.7081 63.9278 54.9359 62.3434 55.2061Z" fill="#263238"/>
<path d="M61.6363 55.5552C61.3554 55.8367 61.1082 56.2871 60.7149 56.411C60.3216 56.5348 59.8385 56.2196 59.4565 55.9043C59.4565 55.9043 59.389 55.9043 59.4565 55.9606C59.6025 56.6925 60.0295 57.3794 60.8273 57.3231C61.6251 57.2668 61.951 56.5236 61.951 55.7579C61.906 55.6228 61.7487 55.4426 61.6363 55.5552Z" fill="#263238"/>
<path d="M70.6462 53.8439C70.6462 53.8439 70.7473 53.8439 70.7585 53.934C70.972 55.1163 71.4103 56.4225 72.5564 56.5802V56.6477C71.2305 56.7491 70.6574 55.0037 70.6462 53.8439Z" fill="#263238"/>
<path d="M71.4213 52.4028C73.2753 51.851 74.2304 55.6007 72.5449 56.1074C70.8595 56.6141 69.8707 52.8645 71.4213 52.4028Z" fill="#263238"/>
<path d="M72.2641 52.448C72.6125 52.5718 72.9945 52.8533 73.3878 52.7858C73.781 52.7182 74.0058 52.2228 74.1631 51.7724C74.1631 51.7724 74.2193 51.7724 74.2305 51.7724C74.4327 52.4818 74.3878 53.2925 73.7361 53.6078C73.0844 53.9231 72.5338 53.3938 72.1742 52.7295C72.0731 52.6281 72.1293 52.4029 72.2641 52.448Z" fill="#263238"/>
<path d="M66.6691 65.0354C66.9949 65.2606 67.332 65.5984 67.7927 65.5646C68.2271 65.4854 68.6403 65.3167 69.0063 65.0692C69.0063 65.0692 69.0849 65.0692 69.0737 65.0692C68.9416 65.3284 68.7428 65.5476 68.4979 65.704C68.2529 65.8604 67.9707 65.9484 67.6804 65.9587C67.4251 65.9371 67.1819 65.8399 66.9819 65.6795C66.7818 65.5191 66.6338 65.3028 66.5567 65.0579C66.5343 65.0354 66.6129 65.0016 66.6691 65.0354Z" fill="#263238"/>
<path d="M70.6237 59.7323C70.6237 59.7323 71.2416 61.4324 71.4214 62.2542C71.4214 62.333 71.2528 62.4118 70.972 62.4907C70.2955 62.7774 69.553 62.8703 68.8269 62.759C68.1009 62.6477 67.42 62.3365 66.8601 61.8602C66.7815 61.7926 66.8601 61.6913 66.9612 61.7251C68.1645 62.2122 69.4929 62.2951 70.7473 61.9615C70.7473 61.7251 69.6238 59.1018 69.7137 59.0568C70.366 58.9673 71.0274 58.9673 71.6797 59.0568C70.4776 55.4879 68.725 52.1441 67.5903 48.5752C67.5903 48.4401 67.7364 48.3612 67.7926 48.4738C69.7835 52.0018 71.4169 55.7206 72.6684 59.5747C72.8144 60.0476 70.9832 59.7999 70.6237 59.7323Z" fill="#263238"/>
<path d="M70.6462 62.2322C70.3333 62.9834 69.8344 63.6423 69.1966 64.1464C68.8377 64.4104 68.4058 64.556 67.9607 64.5631C66.9944 64.5631 66.7472 63.7298 66.7247 62.9754C66.7151 62.5745 66.7528 62.1738 66.837 61.7818C68.0276 62.3307 69.3608 62.4884 70.6462 62.2322V62.2322Z" fill="#263238"/>
<path d="M69.1968 64.1457C68.8379 64.4097 68.406 64.5553 67.9609 64.5624C66.9945 64.5624 66.7474 63.7291 66.7249 62.9747C67.2081 62.8703 67.7122 62.9284 68.1591 63.1401C68.606 63.3518 68.9707 63.7053 69.1968 64.1457Z" fill="#FF9CBD"/>
<path d="M49.1994 61.8828C51.0082 61.2411 54.3449 54.8012 51.9407 45.8732C51.9407 45.8732 53.5472 54.0469 53.2776 55.3867C53.008 56.7264 55.1425 51.7614 53.2776 44.5335C55.9935 45.5067 58.835 46.083 61.7148 46.2448C65.3548 46.2448 67.4219 45.5918 67.5904 45.2766C67.759 44.9613 62.3439 44.8262 60.5576 43.6553C60.5576 43.6553 70.7361 45.2653 74.9716 44.3871C75.4547 44.2858 73.2078 34.2545 65.602 31.9015C57.9962 29.5484 49.1545 36.9903 47.1772 40.4129C47.1772 40.4129 44.1102 41.7864 41.9869 47.5395C39.8635 53.2926 47.2559 62.5696 49.1994 61.8828Z" fill="#263238"/>
<path d="M51.8164 62.2542C51.8164 62.2542 47.0754 57.5369 44.8734 59.327C42.6714 61.1171 46.9293 68.4351 49.9851 68.9755C50.3712 69.0738 50.7731 69.0931 51.1668 69.0323C51.5605 68.9715 51.9379 68.8319 52.2766 68.6217C52.6152 68.4116 52.9082 68.1352 53.1379 67.8091C53.3677 67.4831 53.5296 67.1139 53.6139 66.7238L51.8164 62.2542Z" fill="#EB9481"/>
<path d="M46.143 61.3983C46.143 61.3983 46.143 61.4659 46.143 61.4771C48.3004 61.9275 49.7049 63.6053 50.7949 65.407C50.6419 65.2246 50.451 65.078 50.2356 64.9774C50.0201 64.8768 49.7853 64.8247 49.5476 64.8247C49.3099 64.8247 49.0751 64.8768 48.8596 64.9774C48.6442 65.078 48.4533 65.2246 48.3003 65.407C48.3003 65.407 48.3004 65.5196 48.379 65.497C48.7123 65.3193 49.0925 65.2498 49.467 65.2983C49.8414 65.3467 50.1916 65.5106 50.469 65.7673C50.9282 66.2008 51.3424 66.6799 51.705 67.1973C51.8398 67.3662 52.1432 67.1973 52.0308 67.0172C51.5926 64.3823 48.9521 61.1506 46.143 61.3983Z" fill="#263238"/>
<path d="M72.4246 152.406C72.4616 154.514 72.4246 156.658 72.3823 158.786H71.6418C71.7652 156.654 71.9221 154.526 72.1125 152.401C72.1199 152.365 72.1397 152.332 72.1686 152.309C72.1975 152.286 72.2337 152.273 72.2708 152.274C72.3078 152.275 72.3435 152.288 72.3716 152.312C72.3998 152.336 72.4185 152.37 72.4246 152.406V152.406Z" fill="#455A64"/>
<path d="M79.9188 158.787C80.0832 156.859 80.1379 154.924 80.0828 152.991C80.0828 152.854 80.2943 152.859 80.2996 152.991C80.4054 154.93 80.654 156.864 80.7651 158.787H79.9188Z" fill="#455A64"/>
<path d="M54.8243 164.497C57.9906 161.343 57.9906 156.229 54.8243 153.074C51.6579 149.92 46.5243 149.92 43.358 153.074C40.1916 156.229 40.1916 161.343 43.3579 164.497C46.5243 167.651 51.658 167.651 54.8243 164.497Z" fill="#263238"/>
<path d="M102.974 166.864C107.451 166.864 111.081 163.248 111.081 158.787C111.081 154.326 107.451 150.71 102.974 150.71C98.4957 150.71 94.8656 154.326 94.8656 158.787C94.8656 163.248 98.4957 166.864 102.974 166.864Z" fill="#263238"/>
<path d="M107.696 157.759V159.814C107.693 159.898 107.67 159.98 107.63 160.055C107.591 160.129 107.535 160.194 107.467 160.245C107.4 160.295 107.321 160.33 107.238 160.346C107.155 160.363 107.07 160.361 106.988 160.341L106.067 160.104L105.591 159.982V157.564L106.824 157.253L106.988 157.211C107.072 157.189 107.159 157.187 107.244 157.204C107.329 157.222 107.409 157.258 107.477 157.311C107.546 157.364 107.601 157.432 107.639 157.51C107.677 157.587 107.697 157.673 107.696 157.759V157.759Z" fill="white"/>
<path d="M104.073 156.268H100.509C99.9331 156.268 99.4666 156.733 99.4666 157.306V160.272C99.4666 160.846 99.9331 161.31 100.509 161.31H104.073C104.649 161.31 105.115 160.846 105.115 160.272V157.306C105.115 156.733 104.649 156.268 104.073 156.268Z" fill="white"/>
<path d="M78.3262 172.641C86.0141 171.387 91.2258 164.161 89.9669 156.503C88.7079 148.844 81.4551 143.652 73.7672 144.907C66.0793 146.161 60.8676 153.386 62.1265 161.045C63.3855 168.703 70.6383 173.895 78.3262 172.641Z" fill="white"/>
<path d="M87.806 163.072C90.1761 156.596 86.8272 149.431 80.3259 147.07C73.8246 144.709 66.6329 148.045 64.2628 154.522C61.8927 160.998 65.2416 168.163 71.7429 170.524C78.2442 172.885 85.4359 169.549 87.806 163.072Z" fill="#E5005B"/>
<path d="M83.1452 158.861C83.0961 158.66 83.0324 158.463 82.9548 158.271C82.8596 158.081 82.7274 157.907 82.6163 157.744L82.1562 157.285C81.9658 157.148 81.7807 157.006 81.585 156.88C80.8361 156.404 80.0004 156.08 79.1256 155.926C77.0812 155.521 74.9767 155.521 72.9323 155.926C72.0466 156.082 71.2003 156.41 70.4412 156.89C70.2561 157.017 70.0763 157.154 69.9123 157.285L69.4363 157.76C69.3623 157.865 69.2882 157.97 69.2195 158.081C69.0556 158.324 68.9606 158.606 68.9445 158.898H72.9799C73.0093 158.899 73.0383 158.891 73.0629 158.874C73.0875 158.858 73.1065 158.835 73.1174 158.808C73.2252 158.593 73.3891 158.41 73.5919 158.279C73.7947 158.149 74.029 158.075 74.2704 158.065C75.4469 157.991 76.6269 157.991 77.8034 158.065C78.0451 158.073 78.2802 158.146 78.484 158.276C78.6877 158.406 78.8527 158.588 78.9617 158.803C78.9757 158.832 78.9984 158.857 79.0268 158.873C79.0552 158.889 79.0879 158.895 79.1203 158.892H83.0289L83.1452 158.861Z" fill="white"/>
<path d="M68.9233 159.688C68.9233 159.688 68.9233 159.746 68.9233 159.783C68.9233 160.241 68.9233 160.699 68.9233 161.158C68.9088 161.228 68.9115 161.3 68.9312 161.369C68.9509 161.437 68.9869 161.5 69.0363 161.552C69.0857 161.604 69.1469 161.643 69.2147 161.666C69.2825 161.689 69.3549 161.695 69.4257 161.685H72.4087C72.4812 161.699 72.5563 161.695 72.6271 161.674C72.6979 161.653 72.7623 161.614 72.8146 161.562C72.8669 161.51 72.9055 161.446 72.927 161.375C72.9484 161.305 72.9521 161.23 72.9376 161.158V159.988C72.9376 159.883 72.9376 159.783 72.9376 159.693L68.9233 159.688Z" fill="white"/>
<path d="M83.1081 159.671H79.1626C79.1626 160.198 79.1255 160.672 79.1203 161.173C79.1152 161.237 79.1244 161.302 79.1473 161.362C79.1702 161.422 79.2062 161.477 79.2527 161.522C79.2991 161.566 79.355 161.6 79.4162 161.621C79.4775 161.642 79.5426 161.649 79.6068 161.642H82.6268C82.6932 161.649 82.7605 161.642 82.8237 161.62C82.8868 161.598 82.9442 161.562 82.9914 161.515C83.0387 161.468 83.0747 161.411 83.0967 161.348C83.1188 161.285 83.1263 161.218 83.1187 161.152C83.1187 160.688 83.1187 160.225 83.1187 159.756C83.1182 159.727 83.1146 159.699 83.1081 159.671V159.671Z" fill="white"/>
<path d="M142.217 15.7726H96.1797V77.8118H142.217V15.7726Z" fill="#EBEBEB"/>
<path d="M121.726 51.299L121.088 51.8848L120.248 52.5878L119.97 52.8222C118.332 54.2198 116.534 55.6341 114.661 57.0066C113.224 58.0611 111.737 59.0989 110.25 60.0864C105.033 63.5512 99.7659 66.3883 96.1535 67.426V51.9685C97.38 51.6756 98.8418 51.3074 100.446 50.9056C106.008 49.4829 113.199 47.5581 117.82 46.3948C118.735 46.1688 119.5 46.0098 120.231 45.901L120.584 45.8508L120.928 45.8089C121.558 45.7304 122.196 45.7304 122.827 45.8089C123.667 45.9094 124.162 46.219 124.339 46.6458C124.818 47.7171 123.406 49.6503 121.726 51.299Z" fill="#EB9481"/>
<path d="M96.1372 67.5069L96.1371 51.2909C96.1371 51.2909 114.165 46.1852 120.382 45.5742C126.876 44.9466 128.396 46.8463 121.591 52.169C105.084 65.5302 96.1372 67.5069 96.1372 67.5069Z" fill="#E5005B"/>
<path opacity="0.1" d="M121.565 52.0153C104.881 64.8105 96.1535 66.1639 96.1535 66.1639V58.6864L125.499 46.0515C126.765 46.9268 125.683 48.8575 121.565 52.0153Z" fill="black"/>
<path d="M142.216 73.6778V77.7702H109.814C110.755 71.1259 112.256 64.5722 114.3 58.1784C114.326 58.1128 114.348 58.0457 114.367 57.9775L114.569 57.375C114.569 57.2578 114.653 57.149 114.686 57.0235C115.487 54.6152 116.444 52.2613 117.551 49.9768V49.9768C118.086 48.8852 118.695 47.8311 119.374 46.8217C119.619 46.4644 119.92 46.148 120.265 45.8844C120.396 45.7793 120.534 45.6815 120.676 45.5915V45.5915L120.752 45.5413C122.115 44.782 123.673 44.444 125.23 44.5705V44.5705C126.611 44.6224 127.959 45.0134 129.153 45.7086C129.529 45.943 129.873 46.2242 130.178 46.5455C130.312 46.6778 130.436 46.8205 130.547 46.9723C130.942 47.4913 131.31 48.0304 131.648 48.5876C131.917 49.006 132.177 49.4245 132.446 49.9099C132.463 49.9331 132.477 49.9584 132.488 49.9852C132.488 50.0605 132.58 50.1442 132.614 50.2195C134.407 53.5187 135.992 56.9259 137.361 60.4213V60.4213L137.487 60.7226C137.764 61.4088 138.033 62.0951 138.327 62.7813C138.35 62.8301 138.37 62.8804 138.386 62.932C138.671 63.6768 138.957 64.43 139.226 65.1749C140.343 68.0956 141.351 71.0164 142.216 73.6778Z" fill="#E5005B"/>
<path d="M142.217 57.6007V76.5648C140.259 73.0164 138.335 69.4177 136.605 66.0115C136.599 65.9784 136.599 65.9443 136.605 65.9111C136.589 65.89 136.575 65.8676 136.563 65.8442C134.506 61.8987 132.671 57.8418 131.069 53.6924C129.716 49.985 130.329 48.5622 131.715 48.5539C132.334 48.5958 132.935 48.7791 133.471 49.0895C133.555 49.0895 133.648 49.1815 133.732 49.2234C134.912 49.9219 135.982 50.7905 136.907 51.801C137.411 52.345 137.924 52.9141 138.47 53.4748C138.493 53.5094 138.522 53.5404 138.554 53.5669C139.688 54.8222 140.923 56.1529 142.217 57.6007Z" fill="#E5005B"/>
<path d="M142.216 55.4153V65.6293L139.25 66.5276L137.57 67.0307L136.554 67.3271L136.234 67.4259C136.212 67.3917 136.193 67.3557 136.176 67.3181C135.798 66.6174 134.109 63.4194 131.757 58.0923C131.757 58.0923 131.757 58.0923 131.757 58.0474C131.757 58.0025 131.757 58.0474 131.757 57.9935C131.253 56.8436 130.707 55.6039 130.161 54.2744C129.494 52.791 128.973 51.2376 128.606 49.639C128.606 49.5402 128.606 49.4504 128.548 49.3516C128.455 48.8672 128.424 48.3716 128.455 47.8783C128.453 47.6057 128.525 47.3383 128.664 47.1098C128.803 46.8812 129.002 46.7017 129.236 46.5937C129.568 46.4811 129.922 46.4656 130.261 46.5488C131.717 46.9581 133.086 47.6626 134.294 48.6239C137.062 50.7117 139.708 52.9798 142.216 55.4153Z" fill="#E5005B"/>
<path d="M131.591 59.4432C132.409 60.3171 133.151 61.2588 133.809 62.2582C133.577 61.7593 133.326 61.2783 133.094 60.7794C132.342 59.1759 131.627 57.5724 130.875 55.969C130.875 55.969 130.875 55.8621 130.965 55.969C132.467 58.6592 134.078 61.3139 135.509 64.0398C136.94 66.7657 138.354 69.5273 139.731 72.2889C140.501 73.8211 141.472 75.7958 142.223 77.3102C142.16 77.4946 142.028 77.6304 141.884 77.7691C141.741 77.7691 136.511 68.0842 134.31 63.3628C133.434 61.9909 132.485 60.726 131.591 59.4432Z" fill="#263238"/>
<path d="M121.835 51.3494C123.835 51.9855 127.565 49.1651 129.144 46.7632C129.201 45.3518 129.184 43.9383 129.094 42.5285C129.094 41.1728 129.094 39.6664 129.195 38.2855C129.195 38.0009 120.348 39.7082 120.348 39.7082C120.705 41.4701 120.846 43.2686 120.768 45.0643C120.752 45.254 120.719 45.4417 120.667 45.6251C120.665 45.6557 120.665 45.6865 120.667 45.7171C120.382 46.7716 119.911 50.7301 121.835 51.3494Z" fill="#EB9481"/>
<path d="M128.657 38.2852C128.069 40.5783 126.137 46.0935 121.533 45.8173C121.234 45.8027 120.936 45.7635 120.643 45.7001C120.641 45.6695 120.641 45.6387 120.643 45.6081C120.69 45.4238 120.724 45.2364 120.743 45.0474C120.827 43.2488 120.686 41.4468 120.323 39.6828C120.323 39.6828 126.767 38.4777 128.657 38.2852Z" fill="#263238"/>
<path d="M131.387 28.8286C131.984 31.9837 129.38 40.6288 126.985 42.3612C123.507 44.8719 118.299 44.5623 116.282 40.5117C114.266 36.4611 117.963 25.3722 120.559 23.849C124.44 21.6145 130.505 24.1587 131.387 28.8286Z" fill="#EB9481"/>
<path d="M131.387 28.8286C131.984 31.9837 129.38 40.6288 126.985 42.3612C123.507 44.8719 118.299 44.5623 116.282 40.5117C114.266 36.4611 117.963 25.3722 120.559 23.849C124.44 21.6145 130.505 24.1587 131.387 28.8286Z" fill="#EB9481"/>
<path d="M123.608 33.4143C123.608 33.4143 123.608 33.4143 123.608 33.4813C123.44 34.0671 123.348 34.7617 123.835 35.0881C123.222 34.8705 123.356 33.9416 123.608 33.4143Z" fill="#263238"/>
<path d="M124.289 32.9288C125.263 33.0961 124.86 35.021 123.961 34.862C123.062 34.703 123.474 32.7948 124.289 32.9288Z" fill="#263238"/>
<path d="M120.046 32.8539H119.996C119.903 33.4564 119.693 34.1259 119.114 34.2264C119.794 34.3352 120.046 33.4313 120.046 32.8539Z" fill="#263238"/>
<path d="M119.643 32.1257C118.694 31.8746 118.248 33.7995 119.13 34.0171C120.013 34.2347 120.441 32.3433 119.643 32.1257Z" fill="#263238"/>
<path d="M125.498 31.4396C125.241 31.3558 124.989 31.258 124.742 31.1467C124.463 31.0793 124.212 30.9237 124.028 30.7031C123.983 30.6222 123.967 30.5286 123.983 30.4375C123.998 30.3463 124.043 30.263 124.112 30.201C124.263 30.0965 124.439 30.0345 124.623 30.0212C124.806 30.008 124.989 30.044 125.154 30.1256C125.511 30.2407 125.811 30.4858 125.994 30.8119C126.031 30.8868 126.046 30.9705 126.037 31.0534C126.028 31.1363 125.996 31.2151 125.944 31.2806C125.892 31.3461 125.823 31.3958 125.744 31.4239C125.665 31.452 125.58 31.4575 125.498 31.4396V31.4396Z" fill="#263238"/>
<path d="M119.265 30.4187C119.542 30.4187 119.803 30.4187 120.105 30.4187C120.399 30.4521 120.695 30.3841 120.945 30.2262C121.014 30.1642 121.06 30.0808 121.075 29.9897C121.09 29.8986 121.074 29.805 121.029 29.7241C120.918 29.5783 120.77 29.4649 120.6 29.3957C120.43 29.3265 120.245 29.3041 120.063 29.3307C119.687 29.3199 119.321 29.4515 119.038 29.699C118.988 29.7561 118.954 29.825 118.939 29.899C118.924 29.973 118.927 30.0497 118.95 30.1218C118.973 30.1939 119.014 30.259 119.069 30.311C119.124 30.3629 119.191 30.4 119.265 30.4187V30.4187Z" fill="#263238"/>
<path d="M122.801 37.2142C122.598 37.4165 122.355 37.5751 122.088 37.6802C121.821 37.7853 121.535 37.8346 121.247 37.8251C120.999 37.8236 120.753 37.7841 120.516 37.7079L120.374 37.6661L120.248 37.6159C120.218 37.6022 120.193 37.5795 120.176 37.551C120.159 37.5225 120.152 37.4896 120.155 37.4569V37.4569C120.155 37.4569 120.155 37.4569 120.155 37.3983V37.3481C120.239 36.8878 120.432 36.2015 120.432 36.2015C120.248 36.2015 119.307 36.4526 119.374 36.2015C119.864 34.1486 120.559 32.1496 121.449 30.2344C121.453 30.2236 121.461 30.2142 121.471 30.2077C121.48 30.2011 121.492 30.1976 121.504 30.1976C121.515 30.1976 121.527 30.2011 121.537 30.2077C121.546 30.2142 121.554 30.2236 121.558 30.2344C121.121 32.1342 120.348 33.9503 119.878 35.85C120.214 35.7719 120.559 35.7409 120.903 35.758C120.962 35.758 120.508 37.0803 120.483 37.2895C120.852 37.4065 121.24 37.4483 121.626 37.4123C122.011 37.3764 122.385 37.2634 122.726 37.0803C122.801 37.1221 122.843 37.1723 122.801 37.2142Z" fill="#263238"/>
<path d="M120.836 37.5316C121.025 37.9168 121.315 38.2437 121.676 38.4773C121.868 38.602 122.094 38.6662 122.323 38.6615C122.827 38.6615 122.936 38.2012 122.928 37.8246C122.92 37.6176 122.886 37.4123 122.827 37.2136C122.216 37.5329 121.517 37.6446 120.836 37.5316V37.5316Z" fill="#263238"/>
<path d="M121.642 38.4777C121.834 38.6023 122.06 38.6665 122.289 38.6618C122.793 38.6618 122.902 38.2015 122.894 37.8249C122.642 37.7796 122.382 37.8192 122.156 37.9374C121.929 38.0556 121.748 38.2457 121.642 38.4777V38.4777Z" fill="#FF97B8"/>
<path opacity="0.2" d="M130.615 35.2888C130.068 35.021 129.287 32.6526 128.934 31.6985C128.581 30.7444 129.522 26.5097 129.774 25.564C130.629 26.4519 131.211 27.5637 131.455 28.7693C131.698 30.2088 131.329 32.7195 130.615 35.2888Z" fill="#263238"/>
<path d="M121.567 26.7862C121.795 27.262 122.14 27.6726 122.571 27.9798C123.001 28.2871 123.502 28.481 124.028 28.5436C124.566 28.6057 125.11 28.5299 125.61 28.3234C126.11 28.1168 126.549 27.7865 126.884 27.3636C126.884 27.3636 126.943 27.3636 126.926 27.3636C126.614 27.8387 126.178 28.2199 125.664 28.4662C125.15 28.7125 124.579 28.8145 124.011 28.7612C123.454 28.6819 122.927 28.4576 122.485 28.1108C122.042 27.764 121.7 27.3071 121.491 26.7862C121.483 26.7694 121.55 26.736 121.567 26.7862Z" fill="#263238"/>
<path d="M126.7 20.2503C127.488 20.4706 128.209 20.8838 128.796 21.4524C129.383 22.0211 129.817 22.727 130.06 23.5058C130.233 24.273 130.138 25.0758 129.792 25.7822C129.792 25.7822 129.716 25.7822 129.733 25.7822C129.947 25.1319 129.982 24.4364 129.834 23.7681C129.686 23.0998 129.361 22.4832 128.893 21.9827C128.39 21.4085 127.76 20.9585 127.053 20.668C126.346 20.3776 125.581 20.2546 124.818 20.3089C124.081 20.3456 123.381 20.6423 122.844 21.1458C122.794 21.196 122.676 21.1458 122.718 21.0621C123.499 20.1666 125.129 19.79 126.7 20.2503Z" fill="#263238"/>
<path d="M115.568 21.2626C116.091 20.4853 116.869 19.9141 117.769 19.6474C118.988 19.4067 120.252 19.5837 121.357 20.1496C121.357 20.1496 121.357 20.2165 121.357 20.1998C120.394 19.7484 119.32 19.5828 118.265 19.7227C117.384 19.9061 116.592 20.3846 116.022 21.0785C115.463 21.7997 115.183 22.6973 115.234 23.6072C115.285 24.517 115.663 25.3782 116.299 26.033C116.676 26.4016 117.125 26.6897 117.617 26.8797C118.11 27.0696 118.636 27.1574 119.164 27.1377C119.206 27.1377 119.214 27.1962 119.164 27.1962C118.445 27.2515 117.724 27.1065 117.083 26.7772C116.442 26.448 115.905 25.9476 115.533 25.332C115.161 24.7163 114.968 24.0097 114.975 23.2911C114.983 22.5724 115.191 21.8701 115.577 21.2626H115.568Z" fill="#263238"/>
<path d="M131.53 30.6447C131.53 30.6447 134.05 27.9917 133.118 25.8242C132.605 24.5939 129.976 24.0332 129.976 24.0332C129.557 22.8187 128.672 21.8194 127.514 21.2547C125.473 20.1835 122.549 20.7526 122.549 20.7526C122.026 20.2592 121.39 19.8983 120.698 19.7002C120.005 19.5021 119.274 19.4727 118.567 19.6144C115.459 20.4513 114.694 24.6358 117.055 26.6527C118.735 28.0838 121.751 27.0962 121.751 27.0962C121.995 27.1967 124.129 29.4061 126.666 27.657C126.666 27.657 127.859 29.4563 129.531 28.8621C129.642 29.3268 129.893 29.7466 130.25 30.0652C130.608 30.3838 131.054 30.586 131.53 30.6447V30.6447Z" fill="#263238"/>
<path d="M128.691 35.8084C128.691 35.8084 131.068 33.2224 132.27 34.1346C133.471 35.0468 131.429 38.9468 129.833 39.315C129.631 39.3745 129.42 39.393 129.21 39.3694C129.001 39.3458 128.799 39.2805 128.615 39.1775C128.432 39.0744 128.271 38.9357 128.143 38.7695C128.014 38.6034 127.921 38.4132 127.867 38.2103L128.691 35.8084Z" fill="#EB9481"/>
<path d="M131.657 35.2303C131.135 35.4097 130.657 35.696 130.253 36.0708C129.849 36.4456 129.529 36.9005 129.313 37.4062C129.386 37.3043 129.482 37.2201 129.593 37.16C129.703 37.0999 129.826 37.0653 129.952 37.0589C130.078 37.0525 130.203 37.0743 130.32 37.1229C130.436 37.1714 130.54 37.2453 130.623 37.3393C130.623 37.3393 130.623 37.4062 130.623 37.3978C130.444 37.3131 130.242 37.2861 130.046 37.3206C129.851 37.355 129.671 37.4493 129.531 37.5903C129.297 37.8251 129.091 38.0863 128.918 38.3686C128.851 38.4523 128.691 38.3686 128.741 38.2766C128.868 36.9041 130.178 35.1633 131.657 35.2303Z" fill="#263238"/>
<path d="M129.589 47.7255C128.684 48.9337 127.707 50.0878 126.666 51.1819C125.713 52.255 124.436 52.9919 123.028 53.2826C121.65 53.4667 120.264 53.2826 119.668 51.6088C119.254 50.1793 119.157 48.6773 119.382 47.2067C119.382 47.1934 119.377 47.1806 119.367 47.1712C119.358 47.1618 119.345 47.1565 119.332 47.1565C119.318 47.1565 119.305 47.1618 119.296 47.1712C119.287 47.1806 119.281 47.1934 119.281 47.2067C119.063 49.4161 118.878 52.8306 120.911 53.5085C123.188 54.2617 125.338 53.0231 126.842 51.4163C127.901 50.3168 128.831 49.1011 129.614 47.7925L129.589 47.7255Z" fill="#263238"/>
<path d="M0.932867 39.98C1.24687 42.9459 2.38107 45.7668 4.20919 48.1286C6.03731 50.4904 8.48759 52.3004 11.2872 53.357C14.0868 54.4136 17.1259 54.6754 20.066 54.1132C23.0062 53.551 25.732 52.1869 27.9399 50.1728L36.0294 51.3556L31.982 44.3851C32.9932 41.9308 33.3741 39.264 33.0901 36.6261C32.8691 34.5206 32.2339 32.4791 31.2208 30.6182C30.2078 28.7572 28.8367 27.1133 27.1859 25.7802C25.5351 24.4471 23.6368 23.4509 21.5996 22.8486C19.5623 22.2464 17.4259 22.0497 15.3124 22.2699C13.1988 22.4901 11.1495 23.1229 9.2814 24.1321C7.41332 25.1413 5.76307 26.5071 4.42487 28.1517C3.08668 29.7962 2.08674 31.6872 1.48215 33.7167C0.877553 35.7462 0.680149 37.8745 0.901207 39.98H0.932867Z" fill="white"/>
<path d="M5.77741 26.6699C8.47522 24.0822 11.9827 22.495 15.7138 22.1735C19.445 21.852 23.1739 22.8156 26.2777 24.9034C29.3815 26.9911 31.6722 30.0766 32.7671 33.6444C33.8621 37.2122 33.695 41.0463 32.2937 44.5061V44.2275L36.32 51.2137L36.6207 51.7394L36.0297 51.6448L27.9403 50.3989L28.1355 50.3411C25.8809 52.3702 23.1035 53.7335 20.1147 54.2784C19.3764 54.4158 18.6281 54.4931 17.8773 54.5097C17.1279 54.5483 16.3767 54.5342 15.6293 54.4677C14.1364 54.3194 12.6713 53.9655 11.2759 53.4163C9.87841 52.8812 8.5638 52.152 7.37102 51.2505C6.16451 50.3757 5.09716 49.3248 4.2049 48.1333C1.78221 44.9813 0.605121 41.0531 0.896924 37.0939C1.18873 33.1347 2.92912 29.4198 5.78796 26.6541L5.77741 26.6699ZM4.24711 48.1123C4.70374 48.6951 5.19539 49.2498 5.71936 49.7734C6.25795 50.2807 6.82715 50.7547 7.4238 51.1927C8.61377 52.0823 9.92975 52.7909 11.3287 53.2954C12.7174 53.8117 14.1724 54.1302 15.6504 54.2416C16.3865 54.2942 17.1254 54.2942 17.8614 54.2416C18.5991 54.2103 19.3332 54.1207 20.0566 53.9735C22.9597 53.3928 25.6425 52.0164 27.8031 49.9994L27.8822 49.9258H27.9931L36.093 51.056L35.8028 51.4818L31.7291 44.5271L31.6552 44.3957L31.7132 44.2485C32.6112 42.0225 33.0006 39.6253 32.853 37.2308C32.6955 34.8277 31.9937 32.4913 30.8003 30.397C29.5868 28.3159 27.934 26.5223 25.9562 25.1402C23.9597 23.7681 21.6746 22.869 19.2757 22.5118C16.8691 22.1439 14.4102 22.3236 12.0833 23.0375C9.61091 23.8037 7.36232 25.1566 5.53083 26.9799C3.69933 28.8032 2.33973 31.0423 1.5689 33.5047C0.798073 35.9671 0.639084 38.5792 1.1056 41.1163C1.57212 43.6535 2.65018 46.0398 4.24711 48.0702V48.1123Z" fill="#263238"/>
<path d="M8.00385 38.792C8.00385 39.1777 8.11866 39.5548 8.33378 39.8755C8.5489 40.1962 8.85465 40.4462 9.21238 40.5938C9.57011 40.7414 9.96374 40.7801 10.3435 40.7048C10.7233 40.6296 11.0721 40.4438 11.3459 40.1711C11.6197 39.8983 11.8061 39.5508 11.8817 39.1725C11.9572 38.7942 11.9184 38.4021 11.7703 38.0457C11.6221 37.6893 11.3712 37.3847 11.0492 37.1704C10.7273 36.9561 10.3488 36.8418 9.96157 36.8418C9.70447 36.8418 9.4499 36.8922 9.21238 36.9902C8.97486 37.0882 8.75904 37.2319 8.57725 37.413C8.39546 37.5941 8.25125 37.8091 8.15287 38.0457C8.05448 38.2823 8.00385 38.5359 8.00385 38.792V38.792Z" fill="#263238"/>
<path d="M15.0222 38.792C15.0222 39.1777 15.137 39.5548 15.3521 39.8755C15.5672 40.1962 15.873 40.4462 16.2307 40.5938C16.5884 40.7414 16.982 40.7801 17.3618 40.7048C17.7416 40.6296 18.0904 40.4438 18.3642 40.1711C18.638 39.8983 18.8244 39.5508 18.9 39.1725C18.9755 38.7942 18.9367 38.4021 18.7886 38.0457C18.6404 37.6893 18.3895 37.3847 18.0675 37.1704C17.7456 36.9561 17.3671 36.8418 16.9799 36.8418C16.7228 36.8418 16.4682 36.8922 16.2307 36.9902C15.9932 37.0882 15.7773 37.2319 15.5956 37.413C15.4138 37.5941 15.2696 37.8091 15.1712 38.0457C15.0728 38.2823 15.0222 38.5359 15.0222 38.792V38.792Z" fill="#263238"/>
<path d="M22.0404 38.792C22.0404 39.1777 22.1553 39.5548 22.3704 39.8755C22.5855 40.1962 22.8912 40.4462 23.249 40.5938C23.6067 40.7414 24.0003 40.7801 24.3801 40.7048C24.7598 40.6296 25.1087 40.4438 25.3825 40.1711C25.6563 39.8983 25.8427 39.5508 25.9183 39.1725C25.9938 38.7942 25.955 38.4021 25.8069 38.0457C25.6587 37.6893 25.4078 37.3847 25.0858 37.1704C24.7639 36.9561 24.3854 36.8418 23.9982 36.8418C23.7411 36.8418 23.4865 36.8922 23.249 36.9902C23.0114 37.0882 22.7956 37.2319 22.6138 37.413C22.432 37.5941 22.2878 37.8091 22.1895 38.0457C22.0911 38.2823 22.0404 38.5359 22.0404 38.792V38.792Z" fill="#263238"/>
<path d="M50.412 153.549C50.2309 155.308 49.9554 157.057 49.5869 158.786H48.7407C49.3168 157.056 49.804 155.297 50.2004 153.518C50.2046 153.49 50.2198 153.465 50.2426 153.448C50.2654 153.431 50.294 153.424 50.3221 153.428C50.3501 153.432 50.3753 153.447 50.3922 153.47C50.4091 153.493 50.4162 153.521 50.412 153.549V153.549Z" fill="#455A64"/>
<path d="M49.095 163.302C49.0468 163.3 49.0011 163.28 48.9675 163.246C48.9339 163.212 48.9152 163.165 48.9152 163.117V160.968C48.9106 160.941 48.912 160.914 48.919 160.888C48.9261 160.862 48.9388 160.838 48.9562 160.818C48.9735 160.797 48.9952 160.781 49.0196 160.77C49.0441 160.758 49.0707 160.752 49.0976 160.752C49.1246 160.752 49.1512 160.758 49.1757 160.77C49.2001 160.781 49.2218 160.797 49.2391 160.818C49.2565 160.838 49.2692 160.862 49.2763 160.888C49.2833 160.914 49.2847 160.941 49.2801 160.968V163.117C49.2801 163.166 49.2606 163.213 49.2259 163.248C49.1912 163.282 49.1441 163.302 49.095 163.302V163.302Z" fill="white"/>
<path d="M50.2744 163.302H47.9103C47.8612 163.302 47.8141 163.283 47.7794 163.248C47.7447 163.214 47.7252 163.167 47.7252 163.118C47.7252 163.069 47.7447 163.022 47.7794 162.987C47.8141 162.953 47.8612 162.933 47.9103 162.933H50.2744C50.3235 162.933 50.3706 162.953 50.4053 162.987C50.44 163.022 50.4595 163.069 50.4595 163.118C50.4595 163.167 50.44 163.214 50.4053 163.248C50.3706 163.283 50.3235 163.302 50.2744 163.302V163.302Z" fill="white"/>
<path d="M50.6132 155.789V158.913C50.6255 159.119 50.5952 159.326 50.5243 159.521C50.4534 159.715 50.3434 159.893 50.201 160.043C50.0586 160.194 49.8868 160.314 49.6962 160.396C49.5056 160.478 49.3003 160.52 49.0927 160.52C48.8851 160.52 48.6797 160.478 48.4891 160.396C48.2985 160.314 48.1267 160.194 47.9843 160.043C47.8419 159.893 47.7319 159.715 47.661 159.521C47.5901 159.326 47.5599 159.119 47.5721 158.913V155.789C47.5721 155.387 47.7319 155.002 48.0164 154.718C48.3009 154.433 48.687 154.273 49.09 154.271C49.4819 154.269 49.8592 154.419 50.1431 154.688C50.427 154.957 50.5955 155.325 50.6132 155.715V155.789Z" fill="white"/>
<path d="M49.0897 161.147C48.7999 161.148 48.5128 161.092 48.2449 160.981C47.977 160.871 47.7336 160.709 47.5287 160.505C47.3237 160.301 47.1613 160.059 47.0507 159.792C46.9401 159.525 46.8836 159.239 46.8843 158.95V157.628C46.8842 157.604 46.8891 157.58 46.8984 157.558C46.9078 157.536 46.9215 157.516 46.9388 157.499C46.956 157.482 46.9765 157.469 46.9989 157.461C47.0214 157.452 47.0453 157.448 47.0694 157.449C47.1176 157.449 47.1639 157.467 47.1984 157.501C47.233 157.534 47.2531 157.58 47.2545 157.628V158.95C47.2542 159.198 47.3043 159.442 47.4018 159.67C47.4993 159.897 47.6421 160.103 47.8216 160.274C48.0011 160.445 48.2135 160.577 48.446 160.664C48.6785 160.751 48.9263 160.79 49.1744 160.778C49.6537 160.745 50.1022 160.531 50.4284 160.179C50.7547 159.828 50.9341 159.366 50.9303 158.887V157.628C50.9303 157.579 50.9498 157.532 50.9845 157.497C51.0192 157.463 51.0663 157.443 51.1154 157.443C51.1645 157.443 51.2116 157.463 51.2463 157.497C51.281 157.532 51.3005 157.579 51.3005 157.628V158.887C51.3096 159.463 51.0943 160.02 50.6999 160.442C50.3054 160.863 49.7625 161.116 49.1849 161.147H49.0897Z" fill="white"/>
</svg>
