<svg width="193" height="140" viewBox="0 0 193 140" fill="none" xmlns="http://www.w3.org/2000/svg">
<g clip-path="url(#clip0_132_3092)">
<path d="M91.5754 102.808C93.0692 105.132 94.1021 107.748 94.6123 110.5C95.113 113.262 95.0903 116.101 94.5457 118.855C93.9951 121.615 92.9216 124.23 91.3889 126.546C89.8561 128.871 87.9006 130.855 85.6348 132.384C83.3612 133.899 80.8273 134.932 78.1758 135.426C75.5323 135.911 72.8233 135.838 70.207 135.212C67.5907 134.585 65.1196 133.417 62.9381 131.776C60.7769 130.137 58.9515 128.059 57.5703 125.665C59.7668 129.123 62.8775 131.832 66.5204 133.459C70.1633 135.087 74.1796 135.561 78.0759 134.825C83.259 133.808 87.8617 130.714 90.9094 126.197C93.1788 122.79 94.4509 118.762 94.5692 114.607C94.6875 110.452 93.6469 106.351 91.5754 102.808Z" fill="white"/>
<path d="M54.6466 140.579H32.0698L31.8101 141.621C31.8101 141.271 31.8101 140.922 31.8101 140.579H27.7076L27.348 97.5016V97.3828L27.3147 93.2785V91.2159L27.2814 87.4542V86.3005L27.2148 78.1689V77.8543H52.2291L52.4888 84.5456V84.6784L52.6087 87.7269L52.6819 89.5448V89.9503L52.7619 91.964L52.955 96.8584L54.6466 140.579Z" fill="#263238"/>
<path d="M32.5237 140.579H32.0709L31.8111 141.621C31.8111 141.271 31.8111 140.922 31.8111 140.579C31.8111 139.621 31.8111 138.656 31.8111 137.698C31.7845 134.79 31.7623 131.883 31.7445 128.979C31.7046 122.589 31.6802 116.193 31.6713 109.793C31.6713 106.4 31.6713 103.004 31.6713 99.6062C31.6713 97.152 31.6713 94.7118 31.6713 92.2366C31.6713 91.4745 31.6713 90.7194 31.6713 89.9573C31.6713 87.2724 31.6979 84.5828 31.7512 81.8886C31.7512 81.8886 31.7845 81.8886 31.7911 81.8886C31.8511 84.4267 31.8977 86.9577 31.931 89.4958C31.931 90.4118 31.931 91.3277 31.971 92.2366C31.971 94.7537 32.0242 97.2709 32.0509 99.788C32.0908 104.256 32.1241 108.731 32.1907 113.198C32.2485 117.464 32.3106 121.731 32.3772 126.001C32.4394 130.294 32.5015 134.585 32.5637 138.873C32.5037 139.446 32.5171 140.013 32.5237 140.579Z" fill="#37474F"/>
<path d="M47.8876 77.8471L47.6745 78.6931L47.6012 78.9937L46.8686 81.8884L46.3092 84.1118L45.8696 85.8528L45.3368 87.9504L44.2913 92.0757L42.3799 99.6969L41.7139 102.375L41.614 102.78L41.5607 102.976V103.067L41.0279 105.165L40.9214 105.591L40.8348 105.934L32.4967 138.852L32.0705 140.551L31.8107 141.593C31.8107 141.243 31.8107 140.893 31.8107 140.551H27.7083L27.3487 97.4734V97.3546L27.3154 93.2503V92.2295V91.1947V87.426V86.2723L27.2488 78.1407V77.8261L47.8876 77.8471Z" fill="#37474F"/>
<path d="M49.6319 77.8191C49.5919 78.0079 49.3655 79.1126 49.0125 80.7837C49.0125 80.7837 49.0125 80.8186 49.0125 80.8396C49.0125 80.8606 49.0125 80.9445 48.9792 81.0004C48.7994 81.8255 48.5996 82.7764 48.3732 83.7972C48.22 84.4964 48.0668 85.1956 47.9003 85.8948C47.4675 87.8246 46.9879 89.9361 46.4885 92.0128C46.3153 92.7119 46.1422 93.4111 45.969 94.1103C45.6027 95.5926 45.2364 97.026 44.8834 98.3055C44.4151 100.336 43.7455 102.309 42.8855 104.193C42.803 104.361 42.6845 104.507 42.5392 104.619C42.2661 104.787 41.6734 105.095 40.9342 105.458L40.6012 105.619L40.2216 105.808C38.6765 106.549 36.8251 107.402 35.9526 107.787C35.9501 107.805 35.9501 107.824 35.9526 107.842C35.8128 108.542 34.3809 116.016 32.383 125.861C32.1832 126.833 31.9834 127.818 31.7769 128.832C31.0244 132.517 30.2052 136.447 29.3594 140.432H0.162727C4.9578 122.253 10.1525 101.676 10.1525 101.676C10.1791 98.4756 10.4015 95.2807 10.8184 92.1106C11.0182 90.5724 11.2846 88.9642 11.6243 87.3631C11.6243 87.2512 11.6709 87.1394 11.6975 87.0275C11.7118 86.9747 11.7229 86.9209 11.7308 86.8667C11.7308 86.7478 11.7841 86.6359 11.8174 86.5171C12.59 83.1819 13.7355 79.9656 15.4204 77.6723L49.6319 77.8191Z" fill="#263238"/>
<path d="M17.3992 97.1802C18.1891 97.0025 18.9871 96.8672 19.79 96.7746C20.4227 96.6628 21.0621 96.5509 21.6881 96.4041C22.8889 96.1707 24.0258 95.6622 25.018 94.9148C26.1102 94.0268 26.6696 92.6704 27.1958 91.3699C27.5088 90.5938 27.8618 89.8247 28.1615 89.0625C28.3213 88.685 28.4811 88.3144 28.6476 87.9508C28.8695 87.518 29.0674 87.0721 29.2403 86.6153C29.2403 86.5454 29.3602 86.5804 29.3402 86.6153C29.2322 86.929 29.141 87.2488 29.0672 87.5732L28.7542 88.6989C28.5544 89.3562 28.3612 90.0274 28.1548 90.6846C27.8464 91.902 27.3992 93.0758 26.8228 94.1806C25.6574 96.1244 23.5728 96.9145 21.495 97.1872C20.8956 97.2711 20.2895 97.313 19.6902 97.348C18.9325 97.4214 18.1701 97.4214 17.4125 97.348C17.4003 97.3385 17.3901 97.3264 17.3827 97.3125C17.3753 97.2986 17.3708 97.2831 17.3696 97.2672C17.3683 97.2514 17.3703 97.2354 17.3754 97.2203C17.3805 97.2053 17.3886 97.1916 17.3992 97.1802Z" fill="#37474F"/>
<path d="M44.7839 103.557C41.72 104.731 38.7587 106.181 35.9329 107.892C35.9134 107.905 35.8992 107.926 35.8927 107.95C35.8862 107.973 35.8879 107.999 35.8974 108.021C35.907 108.044 35.9238 108.062 35.9449 108.073C35.966 108.084 35.9901 108.086 36.0129 108.08C38.9965 106.738 42.04 105.451 44.9437 103.934C44.9827 103.907 45.0112 103.866 45.0241 103.818C45.0371 103.771 45.0338 103.72 45.0147 103.675C44.9956 103.63 44.962 103.593 44.9198 103.572C44.8776 103.55 44.8294 103.545 44.7839 103.557Z" fill="#37474F"/>
<path d="M45.6824 82.1124C45.6824 82.0005 45.4959 81.9795 45.4959 82.1124C45.4959 85.8251 45.2894 89.1043 44.9964 92.6003C44.8566 94.2154 43.6178 103.13 40.9539 102.48C40.5077 102.368 40.2879 101.907 40.2146 101.2C40.2239 100.277 40.3425 99.3589 40.5676 98.4665C40.8606 96.5996 41.1004 94.7328 41.2336 92.8729C41.5423 89.3636 41.5043 85.8302 41.1204 82.3291C41.1152 82.3101 41.1043 82.2934 41.0893 82.2815C41.0743 82.2696 41.056 82.2632 41.0371 82.2632C41.0183 82.2632 41 82.2696 40.985 82.2815C40.97 82.2934 40.9591 82.3101 40.9539 82.3291C41.0336 87.1745 40.7686 92.0194 40.1614 96.8234C39.8284 99.1447 38.7162 102.634 41.0271 102.99C43.3381 103.347 44.8965 97.5086 45.1829 95.9074C45.9183 91.3512 46.0862 86.714 45.6824 82.1124Z" fill="#37474F"/>
<path d="M41.0273 102.675C40.7918 103.277 40.5917 103.894 40.4279 104.521C40.2574 105.007 40.1738 105.521 40.1815 106.038C40.185 106.059 40.1942 106.078 40.2078 106.092C40.2214 106.107 40.2389 106.118 40.2582 106.122C40.2774 106.127 40.2974 106.125 40.3157 106.118C40.3341 106.11 40.35 106.097 40.3613 106.08C40.6399 105.626 40.8489 105.128 40.9807 104.605C41.1872 104.032 41.4003 103.465 41.5868 102.892C41.6053 102.817 41.5965 102.737 41.562 102.668C41.5276 102.598 41.4699 102.545 41.4003 102.518C41.3306 102.491 41.254 102.492 41.1851 102.521C41.1162 102.55 41.0599 102.605 41.0273 102.675Z" fill="#37474F"/>
<path d="M14.315 93.0339C14.4415 95.1315 14.981 97.2291 14.9477 99.4036C14.8132 101.533 14.4695 103.641 13.922 105.696C11.9951 114.394 9.93059 123.05 7.7284 131.664C6.96918 134.643 6.1922 137.617 5.39747 140.586H4.73148C5.27093 138.558 5.81038 136.524 6.3365 134.489C8.55644 125.926 10.6454 117.322 12.6034 108.675C13.0962 106.514 13.629 104.354 14.0286 102.172C14.385 99.9671 14.385 97.7145 14.0286 95.5091C13.885 94.4387 13.8071 93.3597 13.7955 92.2788C13.7824 91.3669 13.8358 90.4553 13.9553 89.552C13.9553 89.475 13.9553 89.3911 13.9886 89.3142C14.0219 89.2373 13.9886 89.1884 13.9886 89.1255C13.9886 89.0625 13.9886 89.0136 13.9886 88.9577C13.9886 88.9017 14.0352 88.6849 14.0552 88.5451C14.3678 86.7569 14.7882 84.9914 15.3139 83.2592C15.627 82.2104 15.9799 81.1616 16.3063 80.1408C16.3169 80.122 16.3334 80.1075 16.3529 80.0996C16.3723 80.0917 16.3938 80.0909 16.4138 80.0974C16.4337 80.1038 16.451 80.1171 16.463 80.1351C16.4749 80.1532 16.4807 80.1748 16.4794 80.1967C15.5785 83.0172 14.897 85.9097 14.4415 88.8458C14.4415 88.9926 14.4015 89.1394 14.3882 89.2863C14.3849 89.3421 14.3849 89.3982 14.3882 89.4541C14.3882 89.6032 14.3749 89.7501 14.3483 89.8946C14.2725 90.6867 14.2436 91.483 14.2617 92.2788C14.2883 92.5235 14.295 92.7822 14.315 93.0339Z" fill="#37474F"/>
<path d="M36.3188 39.3144C38.057 48.0124 48.8326 71.9249 55.5058 76.8192C59.3951 79.6719 83.7168 90.6842 85.1686 87.9434C86.5006 85.3913 86.1343 65.73 86.1343 65.73C80.4401 63.961 64.6231 59.2275 62.8249 58.9059C61.5396 58.6821 52.8352 47.6139 43.5114 36.4547C38.3367 30.2739 35.2799 34.1194 36.3188 39.3144Z" fill="#EB9481"/>
<path d="M80.9869 62.7936L79.6216 89.2092C79.6216 89.2092 59.7021 82.0075 53.8348 76.8754C47.9675 71.7433 38.8102 52.0121 36.1196 41.636C33.4291 31.26 38.0243 29.0505 46.1094 38.4337C52.7692 46.1248 61.6068 57.0742 62.8122 57.6615C64.0176 58.2489 80.9869 62.7936 80.9869 62.7936Z" fill="#E5005B"/>
<path d="M36.1194 41.6215C38.7833 51.9976 47.9672 71.7358 53.8345 76.8609C56.938 79.5878 63.9974 82.881 69.9446 85.3841L70.1045 85.447L36.6388 33.2731C36.471 33.2794 36.3039 33.3005 36.1394 33.3361C35.1337 34.6715 35.0471 37.4683 36.1194 41.6215Z" fill="#263238"/>
<path d="M74.2871 85.7482C74.6667 82.0145 75.6723 66.6952 75.679 63.374C75.679 63.1433 75.5391 63.0873 75.5125 63.325C74.1273 74.4772 74.3404 82.0565 74.1472 85.6993C74.1273 85.8181 74.2804 85.8391 74.2871 85.7482Z" fill="#263238"/>
<path d="M8.58081 92.2225C8.69402 92.3484 55.0397 92.2715 55.4593 91.768C56.0454 91.0688 44.5771 40.8178 41.3804 33.3294C40.0152 30.1341 32.5828 29.1342 29.4527 31.8751C21.6008 38.6503 14.9609 61.8565 13.4291 68.8484C10.8984 80.3712 8.19454 91.768 8.58081 92.2225Z" fill="#E5005B"/>
<path d="M41.6138 34.1403H41.5805C41.7137 36.3498 41.8869 41.4679 38.5836 41.1323C37.2569 40.8895 36.0246 40.2512 35.0339 39.2934C34.0015 38.4076 33.0616 37.4092 32.2301 36.3148C31.2602 35.1208 30.3869 33.8439 29.6195 32.4972C29.5862 32.4343 29.5063 32.4972 29.5396 32.5532C30.3188 33.9026 30.9781 35.301 31.8838 36.5735C32.7446 37.8103 33.7617 38.9182 34.9074 39.8667C35.9929 40.7407 37.2849 41.6077 38.6902 41.6706C39.3018 41.7005 39.9046 41.5083 40.3971 41.1262C40.8896 40.7442 41.2416 40.1957 41.3941 39.5731C41.8507 37.8018 41.9258 35.9459 41.6138 34.1403Z" fill="#263238"/>
<path d="M38.7565 38.811C36.3856 39.0627 32.4363 34.4411 31.2575 31.2318C31.1776 31.008 31.7503 28.8895 32.3364 26.2815C32.6827 24.6943 33.0024 22.9183 33.2421 21.2752L42.7391 25.1558C41.9165 27.1306 41.3282 29.2041 40.9875 31.3297C40.967 31.5622 40.967 31.7963 40.9875 32.0289C40.9909 32.0661 40.9909 32.1035 40.9875 32.1407C41.0075 33.4342 41.0541 38.5663 38.7565 38.811Z" fill="#EB9481"/>
<path d="M39.9555 32.043C40.2902 32.1003 40.6288 32.1284 40.9678 32.1269C40.9678 32.078 40.9678 32.043 40.9678 32.015C40.9472 31.7825 40.9472 31.5484 40.9678 31.3158C41.3078 29.1909 41.8937 27.1176 42.7127 25.1419L33.5421 21.3873C33.6554 23.7995 34.4545 31.176 39.9555 32.043Z" fill="#263238"/>
<path d="M30.7989 11.8222C30.1995 15.6258 33.3762 25.9249 36.1268 27.9036C40.1226 30.8123 46.0632 30.3159 48.2543 25.4075C50.3721 20.639 46.0099 7.29839 42.9731 5.54341C38.5243 2.99135 31.6847 6.20765 30.7989 11.8222Z" fill="#EB9481"/>
<path d="M41.8197 17.1501C41.8197 17.1501 41.7731 17.199 41.7865 17.227C42.0195 17.9262 42.1727 18.7442 41.6399 19.1708C41.6399 19.1708 41.6399 19.2197 41.6399 19.2127C42.3592 18.8561 42.1594 17.7584 41.8197 17.1501Z" fill="#263238"/>
<path d="M41.008 16.6181C39.9158 16.8908 40.5152 19.1562 41.5208 18.9115C42.5265 18.6668 41.9204 16.3944 41.008 16.6181Z" fill="#263238"/>
<path d="M45.5233 16.0314C45.5233 16.0314 45.5832 16.0314 45.5899 16.0803C45.7497 16.7795 46.0561 17.5696 46.7221 17.6255V17.6675C45.9562 17.7724 45.5699 16.7306 45.5233 16.0314Z" fill="#263238"/>
<path d="M45.9291 15.0944C46.9814 14.6959 47.6607 16.9403 46.6817 17.3109C45.7027 17.6815 45.0434 15.458 45.9291 15.0944Z" fill="#263238"/>
<path d="M39.8826 15.8288C40.1428 15.6592 40.3941 15.4748 40.6352 15.2765C40.9282 15.0597 41.1746 14.9199 41.3012 14.5773C41.3278 14.4709 41.32 14.3582 41.279 14.257C41.238 14.1557 41.1662 14.0716 41.0747 14.0179C40.8786 13.9399 40.6664 13.9175 40.4594 13.9531C40.2524 13.9887 40.0581 14.081 39.896 14.2207C39.5291 14.4545 39.2584 14.8234 39.1367 15.2555C39.1161 15.3558 39.1237 15.4603 39.1584 15.5563C39.1931 15.6522 39.2536 15.7356 39.3325 15.7962C39.4114 15.8569 39.5054 15.8922 39.603 15.898C39.7006 15.9038 39.7977 15.8798 39.8826 15.8288Z" fill="#263238"/>
<path d="M46.4625 13.7382C46.1564 13.7557 45.8496 13.7557 45.5434 13.7382C45.2192 13.7926 44.887 13.7336 44.5978 13.5704C44.5195 13.4981 44.4651 13.4016 44.4424 13.2949C44.4197 13.1881 44.4298 13.0765 44.4712 12.9761C44.5864 12.7916 44.7467 12.6429 44.9353 12.5458C45.1239 12.4486 45.334 12.4064 45.5434 12.4237C45.9707 12.3894 46.395 12.5213 46.7356 12.7943C46.8144 12.8607 46.8725 12.9504 46.9024 13.0518C46.9323 13.1532 46.9325 13.2617 46.9032 13.3632C46.8738 13.4648 46.8161 13.5548 46.7376 13.6216C46.659 13.6884 46.5632 13.729 46.4625 13.7382Z" fill="#263238"/>
<path d="M42.5264 23.7714C42.7135 23.9345 42.9492 24.0236 43.1924 24.0231C43.4362 23.9418 43.6625 23.8111 43.8584 23.6385C43.8584 23.6385 43.905 23.6385 43.8917 23.6385C43.8334 23.8039 43.7331 23.9493 43.6016 24.0591C43.4701 24.1688 43.3124 24.2385 43.1458 24.2608C43.0035 24.2591 42.8646 24.2139 42.7464 24.1307C42.6281 24.0475 42.5355 23.9299 42.4798 23.7923C42.4798 23.7923 42.4931 23.7574 42.5264 23.7714Z" fill="#263238"/>
<path d="M42.6724 21.4636C42.9155 21.6935 43.2015 21.8675 43.5123 21.9747C43.8231 22.0818 44.1517 22.1197 44.4772 22.0859C44.7621 22.0617 45.0423 21.9958 45.3097 21.8902C45.3601 21.8734 45.4091 21.8524 45.4562 21.8272L45.5961 21.7573C45.6305 21.7407 45.6585 21.7122 45.6755 21.6766C45.6925 21.641 45.6973 21.6004 45.6893 21.5615C45.6921 21.536 45.6921 21.5102 45.6893 21.4846V21.4217C45.5561 20.8763 45.2897 20.0653 45.2897 20.0653C45.5095 20.1142 46.5884 20.289 46.4952 20.0093C45.7952 17.5857 44.8625 15.243 43.7113 13.0174C43.6714 12.9405 43.5648 13.0174 43.5915 13.0663C44.2575 15.3107 45.2365 17.4223 45.9091 19.6597C45.5202 19.6045 45.1259 19.6045 44.737 19.6597C44.6704 19.7017 45.2831 21.2119 45.323 21.4636C44.9117 21.63 44.4727 21.7076 44.0322 21.692C43.5917 21.6764 43.1587 21.5678 42.759 21.3727C42.6591 21.3867 42.6191 21.4217 42.6724 21.4636Z" fill="#263238"/>
<path d="M44.9309 21.7018C44.7502 22.1712 44.4564 22.5832 44.0784 22.8975C43.8678 23.0613 43.6146 23.154 43.3525 23.1632C42.7798 23.1632 42.6333 22.6597 42.6133 22.1913C42.6071 21.9403 42.6272 21.6895 42.6732 21.4431C43.3807 21.7783 44.1712 21.8689 44.9309 21.7018Z" fill="#263238"/>
<path d="M44.0784 22.8975C43.8677 23.0613 43.6145 23.154 43.3525 23.1632C42.7797 23.1632 42.6332 22.6597 42.6132 22.1913C42.8974 22.1247 43.1945 22.1577 43.4591 22.2852C43.7237 22.4128 43.9413 22.6278 44.0784 22.8975Z" fill="#FF98B9"/>
<path opacity="0.2" d="M31.9701 19.7723C32.5895 19.213 33.302 16.5001 33.6817 15.3744C34.0613 14.2487 32.8758 9.50114 32.4962 8.10275C32.3798 8.23832 32.2709 8.38072 32.1699 8.52926C32.0618 8.6722 31.9617 8.82162 31.8702 8.97675C31.6713 9.28967 31.4975 9.61943 31.3507 9.96261C31.0894 10.5665 30.9036 11.2034 30.798 11.8574C30.5249 13.5774 31.0444 16.7098 31.9701 19.7723Z" fill="#263238"/>
<path d="M42.1605 9.31902C41.9133 9.91046 41.5257 10.4254 41.0348 10.8147C40.5439 11.204 39.9661 11.4546 39.3567 11.5425C38.7376 11.6322 38.1069 11.5547 37.5242 11.3174C36.9416 11.08 36.4262 10.6906 36.0268 10.186C36.0268 10.186 35.9535 10.186 35.9801 10.228C36.3566 10.8009 36.8752 11.2549 37.4797 11.5409C38.0842 11.8268 38.7517 11.9337 39.4099 11.8501C40.0527 11.7333 40.655 11.4412 41.1564 11.0032C41.6578 10.5651 42.0408 9.99636 42.267 9.35397C42.2714 9.33914 42.27 9.32307 42.2632 9.3093C42.2563 9.29553 42.2445 9.2852 42.2304 9.28056C42.2163 9.27593 42.2009 9.27737 42.1878 9.28458C42.1747 9.2918 42.1649 9.30419 42.1605 9.31902Z" fill="#263238"/>
<path d="M36.0396 1.48136C35.1274 1.77071 34.2991 2.29636 33.631 3.00993C32.963 3.72349 32.4767 4.60202 32.2169 5.56465C32.0317 6.51495 32.1658 7.50328 32.5965 8.36142C32.5965 8.36142 32.6831 8.36143 32.6698 8.32647C32.3948 7.53684 32.327 6.68413 32.4734 5.85755C32.6199 5.03097 32.9752 4.2609 33.5022 3.62789C34.0711 2.91993 34.7874 2.35876 35.5957 1.98777C36.4041 1.61679 37.2828 1.44591 38.1641 1.48834C39.0211 1.52061 39.8396 1.8698 40.4751 2.47421C40.5417 2.53714 40.6749 2.47421 40.6216 2.37632C39.7492 1.22964 37.8445 0.866064 36.0396 1.48136Z" fill="#263238"/>
<path d="M48.9927 2.37646C48.3676 1.44077 47.4476 0.76716 46.3953 0.474646C44.9368 0.0621212 43.5782 0.621477 42.2396 1.17384C42.1996 1.17384 42.2396 1.24376 42.2396 1.22978C43.3424 0.639204 44.5845 0.396369 45.8159 0.530583C46.8516 0.721508 47.7926 1.28219 48.4799 2.11776C49.1494 2.98459 49.4997 4.07536 49.4667 5.19088C49.4337 6.3064 49.0196 7.37224 48.3 8.19376C47.8743 8.65639 47.3627 9.02231 46.7967 9.26886C46.2308 9.51542 45.6227 9.63735 45.0101 9.6271C44.9635 9.6271 44.9502 9.70401 45.0101 9.70401C45.8484 9.75233 46.683 9.55429 47.4201 9.13212C48.1572 8.70995 48.7675 8.0804 49.1826 7.31416C49.5977 6.54791 49.801 5.67534 49.7698 4.79446C49.7386 3.91358 49.4741 3.05928 49.006 2.32752L48.9927 2.37646Z" fill="#263238"/>
<path d="M30.7312 14.3465C30.7312 14.3465 27.7676 11.1652 28.7332 8.48729C29.286 6.97004 32.3295 6.20791 32.3295 6.20791C32.5499 5.46168 32.9087 4.76859 33.3854 4.16859C33.862 3.56859 34.447 3.07354 35.1067 2.71194C37.4443 1.31356 40.8608 1.94982 40.8608 1.94982C40.8608 1.94982 42.8587 -0.217676 45.4494 0.432574C49.079 1.33453 50.1113 6.43166 47.4074 8.9977C45.5226 10.8016 41.9597 9.6969 41.9597 9.6969C41.6866 9.82974 39.2957 12.5986 36.2722 10.5289C36.2722 10.5289 34.9402 12.7734 32.9822 12.0951C32.8706 12.6667 32.5951 13.1887 32.1927 13.5911C31.7903 13.9936 31.2803 14.2571 30.7312 14.3465Z" fill="#263238"/>
<path d="M34.0352 20.1219C34.0352 20.1219 31.2713 17.0874 29.9261 18.1712C28.5808 19.2549 31.0049 23.9185 32.8297 24.3101C33.0625 24.3777 33.306 24.3949 33.5453 24.3605C33.7846 24.3261 34.0148 24.2409 34.2217 24.11C34.4286 23.9791 34.6079 23.8054 34.7487 23.5994C34.8896 23.3934 34.9889 23.1594 35.0408 22.9117L34.0352 20.1219Z" fill="#EB9481"/>
<path d="M30.6522 19.4925C30.6522 19.4925 30.6522 19.5345 30.6522 19.5415C31.9375 19.8561 32.75 20.9398 33.3694 22.0865C33.2815 21.9701 33.1705 21.8752 33.0442 21.8084C32.9178 21.7416 32.779 21.7046 32.6376 21.7C32.4962 21.6953 32.3555 21.7231 32.2254 21.7814C32.0953 21.8397 31.9789 21.9271 31.8842 22.0376C31.8803 22.0403 31.8769 22.0439 31.8743 22.048C31.8716 22.0521 31.8698 22.0568 31.8689 22.0616C31.868 22.0665 31.8679 22.0715 31.8689 22.0764C31.8698 22.0812 31.8716 22.0859 31.8742 22.09C31.8769 22.0942 31.8802 22.0977 31.8842 22.1005C31.8881 22.1032 31.8925 22.1051 31.8971 22.1061C31.9018 22.1071 31.9066 22.1071 31.9112 22.1061C31.9158 22.1052 31.9203 22.1033 31.9242 22.1005C32.127 21.996 32.3556 21.96 32.5786 21.9976C32.8017 22.0351 33.0081 22.1444 33.1696 22.3103C33.4411 22.5865 33.6824 22.8937 33.8888 23.2262C33.9621 23.3311 34.1486 23.2262 34.0886 23.1143C33.8689 21.4572 32.3371 19.3876 30.6522 19.4925Z" fill="#263238"/>
<path d="M89.3849 69.8868C89.3665 74.9163 87.9286 79.8273 85.253 83.9994C82.5773 88.1714 78.7839 91.4173 74.352 93.3271C69.9201 95.2368 65.0485 95.7247 60.3526 94.7291C55.6567 93.7334 51.3472 91.299 47.9685 87.7333C44.5899 84.1676 42.2936 79.6305 41.3697 74.6953C40.4459 69.7601 40.936 64.6482 42.7781 60.0053C44.6202 55.3624 47.7317 51.3968 51.7195 48.6095C55.7072 45.8223 60.3924 44.3383 65.1831 44.3452C68.3703 44.3516 71.5249 45.0176 74.4667 46.3051C77.4085 47.5926 80.0797 49.4763 82.3275 51.8485C84.5753 54.2207 86.3556 57.0349 87.5665 60.1301C88.7775 63.2252 89.3954 66.5407 89.3849 69.8868Z" fill="#FFC727"/>
<path d="M79.4547 54.8054C81.3806 56.7378 82.9183 59.0558 83.9767 61.6225C85.026 64.2107 85.5804 66.9903 85.6083 69.8031C85.6347 72.6256 85.1183 75.4246 84.0899 78.0326C83.0728 80.6509 81.5664 83.0287 79.6596 85.0258C77.7528 87.0228 75.4843 88.5986 72.988 89.6602C70.5035 90.7371 67.837 91.2747 65.1493 91.2404C62.4693 91.2063 59.8218 90.6195 57.3574 89.5134C54.9182 88.3926 52.7155 86.7741 50.8773 84.7519C53.7258 87.6371 57.3151 89.5858 61.2042 90.3584C65.0932 91.131 69.1125 90.694 72.7682 89.1009C77.6238 86.9418 81.4917 82.8886 83.5571 77.7949C85.081 73.96 85.5046 69.7412 84.7758 65.657C84.047 61.5728 82.1975 57.801 79.4547 54.8054Z" fill="white"/>
<path opacity="0.1" d="M50.7175 84.7097C48.7945 82.7737 47.2632 80.4503 46.2155 77.8786C45.1693 75.2901 44.6215 72.5098 44.6038 69.698C44.5937 66.8827 45.1213 64.0939 46.1555 61.4965C47.1827 58.883 48.6969 56.5113 50.609 54.5206C52.5212 52.5299 54.7929 50.9602 57.2908 49.9038C59.7824 48.8381 62.4524 48.3079 65.1427 48.3446C67.8201 48.3883 70.4632 48.9846 72.9214 50.0996C75.3619 51.2266 77.5629 52.8551 79.3947 54.8891C76.5551 51.9803 72.9658 50.0089 69.0705 49.2186C65.1752 48.4283 61.1447 48.8537 57.4772 50.4422C52.6139 52.5772 48.7343 56.6177 46.6617 61.7062C45.1239 65.5359 44.6866 69.7541 45.4037 73.8415C46.1208 77.9288 47.961 81.7066 50.6975 84.7097H50.7175Z" fill="black"/>
<path d="M89.9376 59.5351C91.7758 62.5276 95.8915 65.9816 96.5109 68.5477C96.686 69.1724 96.6645 69.8396 96.4498 70.4505C96.235 71.0614 95.8384 71.5833 95.3188 71.9388C95.3188 71.9388 97.9494 72.8967 98.1492 75.3159C98.2491 76.5674 96.4443 77.833 96.4443 77.833C96.4443 77.833 98.5222 78.693 98.5754 80.8605C98.6154 82.5805 96.7973 83.5943 96.7973 83.5943C96.7973 83.5943 98.4223 85.3983 97.9294 87.1672C96.9238 90.7611 82.9315 92.6769 80.0944 87.5658C78.7625 85.1815 82.2189 84.9088 82.2189 84.9088C82.2189 84.9088 77.1774 84.0418 76.7246 81.0283C76.2717 78.0148 80.7671 77.9379 80.7671 77.9379C80.7671 77.9379 75.8921 77.0569 75.7256 73.8755C75.5524 70.5684 80.0611 71.3025 80.0611 71.3025C80.0611 71.3025 76.6713 69.5196 77.0775 67.0514C77.7435 62.9821 85.409 66.9186 88.3992 65.7299L88.013 60.451L89.9376 59.5351Z" fill="#EB9481"/>
<path d="M93.0143 63.807C91.5092 60.8145 93.5005 59.1644 92.8678 55.969C92.1552 52.4171 88.2059 53.9134 87.9861 60.2691L88.3857 65.7298L93.0143 63.807Z" fill="#EB9481"/>
<path d="M96.531 83.7978C96.5776 83.7978 96.6042 83.8537 96.531 83.8747C91.9042 85.7674 86.839 86.1405 82.0059 84.9444C81.8527 84.9025 81.8527 84.6228 82.0059 84.6368C86.8607 85.1011 91.754 84.8184 96.531 83.7978Z" fill="#263238"/>
<path d="M96.5176 77.8543C96.5709 77.8543 96.5909 77.9312 96.5176 77.9522C91.9157 79.7911 85.7887 80.2386 80.6007 78.092C80.4208 78.0151 80.3343 77.7634 80.5407 77.8333C84.1171 78.987 92.0622 78.8751 96.5176 77.8543Z" fill="#263238"/>
<path d="M79.7273 71.0296C84.7755 72.8894 89.8902 72.8544 95.1315 72.0294C95.1981 72.0294 95.2048 72.1203 95.1315 72.1483C92.674 73.288 89.2775 73.4418 86.6269 73.3369C84.1644 73.2854 81.7569 72.5625 79.6408 71.2393C79.5808 71.1554 79.6208 70.9806 79.7273 71.0296Z" fill="#263238"/>
<path d="M23.5123 37.7694C15.2807 48.2573 1.53488 75.9454 5.0779 80.0986C13.1097 89.5308 27.7946 98.2148 33.6818 100.529C36.2259 101.522 46.7751 82.385 44.4308 80.5881C41.6204 78.4276 23.3125 69.352 23.2859 68.3941C23.2592 67.4362 27.6281 54.0397 29.4662 43.4399C31.7771 30.2741 26.9754 33.3995 23.5123 37.7694Z" fill="#EB9481"/>
<path d="M35.0942 78.5332C35.0942 78.5332 43.1526 76.6593 48.4804 75.6875C51.4507 75.1491 56.6254 74.7016 58.983 75.3518C62.506 76.3237 76.6515 82.7633 75.2396 86.3991C73.9609 89.6853 62.4794 82.5326 62.4794 82.5326C62.4794 82.5326 74.6735 88.6785 72.4358 92.3213C70.1981 95.9641 58.2504 86.0915 58.2504 86.0915C58.2504 86.0915 70.651 92.6988 67.7739 96.0899C65.6028 98.656 54.3011 90.3426 54.3011 90.3426C54.3011 90.3426 64.9169 96.0969 62.7924 98.8378C60.4415 101.865 49.5527 94.8733 49.5527 94.8733C43.0327 100.879 37.6782 101.369 33.7089 100.509C32.7832 100.327 35.0942 78.5332 35.0942 78.5332Z" fill="#EB9481"/>
<path d="M58.9563 80.4338C68.2801 84.2374 71.7232 89.0968 71.61 88.9919C68.8528 86.4049 63.8979 83.4543 62.4993 82.6572C61.1008 81.8602 60.3149 81.2938 58.923 80.4897C58.8897 80.4688 58.923 80.4198 58.9563 80.4338Z" fill="#263238"/>
<path d="M55.5392 85.3698C59.3734 86.7262 62.9459 88.791 66.0884 91.4667C66.2016 91.5786 66.135 91.5996 65.9951 91.5157C64.2503 90.4459 57.3041 86.3836 55.5192 85.4117L55.5392 85.3698Z" fill="#263238"/>
<path d="M52.3292 89.4043C55.28 90.5206 58.0046 92.2093 60.361 94.3826C60.4809 94.4805 60.361 94.5155 60.2345 94.4316C57.5705 92.7255 55.5326 91.3621 52.2893 89.5372C52.236 89.4813 52.2693 89.3764 52.3292 89.4043Z" fill="#263238"/>
<path d="M39.1231 76.6654L26.7158 98.5991C26.7158 98.5991 4.27886 83.3637 3.96585 77.868C3.51964 70.1279 19.097 42.4958 23.6856 37.098C28.1677 31.8401 31.2512 32.4763 30.2322 40.0206C29.3131 46.8797 24.2384 67.5549 24.2916 67.8556C24.3449 68.1562 39.1231 76.6654 39.1231 76.6654Z" fill="#E5005B"/>
<path d="M23.1998 94.4946C25.1245 91.3343 32.5235 78.0985 33.9687 75.127C34.0686 74.9172 33.9687 74.8053 33.8355 75.0081C27.8417 84.3284 24.8181 91.2084 23.0865 94.4107C23.0399 94.4877 23.1531 94.5716 23.1998 94.4946Z" fill="#263238"/>
<path d="M29.1864 45.8172C29.1864 45.7263 29.3595 45.7543 29.3462 45.8172C29.2064 46.7541 28.94 48.1385 28.6136 49.7606C28.6536 49.6767 28.6869 49.5858 28.7268 49.4949C28.9866 48.7957 29.2197 48.1455 29.3928 47.4463C29.395 47.439 29.3985 47.4321 29.4032 47.4262C29.4079 47.4203 29.4137 47.4154 29.4202 47.4119C29.4267 47.4083 29.4338 47.4061 29.4411 47.4054C29.4484 47.4047 29.4558 47.4056 29.4628 47.4078C29.4698 47.4101 29.4763 47.4139 29.4819 47.4188C29.4875 47.4237 29.4922 47.4298 29.4956 47.4366C29.499 47.4434 29.501 47.4509 29.5017 47.4585C29.5024 47.4662 29.5016 47.4739 29.4994 47.4813C29.3062 48.1805 29.0998 48.8797 28.8667 49.5789C28.7204 50.0565 28.5447 50.5236 28.3406 50.9772C26.942 57.7384 24.7176 67.4363 24.7576 67.674C24.8175 68.0725 36.7453 74.9316 39.2027 76.4978C39.2893 76.5538 38.8498 77.197 38.8032 77.3019C38.7987 77.3204 38.7875 77.3364 38.7719 77.3462C38.7563 77.3561 38.7376 77.359 38.7199 77.3543C38.7022 77.3497 38.6871 77.3379 38.6777 77.3215C38.6683 77.3051 38.6656 77.2855 38.67 77.2669C38.7186 77.0749 38.7832 76.8877 38.8631 76.7076C36.5521 75.491 24.3314 68.3732 24.1116 67.9816C23.8918 67.5901 28.4471 48.7118 29.1864 45.8172Z" fill="#263238"/>
<path d="M9.75956 85.441C10.4788 85.8955 17.1786 91.6359 17.8979 92.1673C17.904 92.1714 17.9093 92.1768 17.9134 92.1831C17.9176 92.1893 17.9205 92.1964 17.9221 92.2039C17.9236 92.2113 17.9237 92.219 17.9224 92.2266C17.9211 92.2341 17.9184 92.2413 17.9145 92.2477C17.9106 92.2541 17.9055 92.2597 17.8995 92.264C17.8935 92.2684 17.8868 92.2715 17.8797 92.2731C17.8725 92.2747 17.8652 92.2748 17.8581 92.2735C17.8509 92.2721 17.8441 92.2693 17.8379 92.2652C15.0408 90.7899 10.3856 86.5807 9.71961 85.497C9.69963 85.462 9.72626 85.42 9.75956 85.441Z" fill="#263238"/>
<path d="M67.4995 19.0685L67.0475 18.6428C67.3066 18.334 67.5885 18.0095 67.8938 17.6757L68.3352 18.1155C68.0299 18.4494 67.7526 18.7604 67.4995 19.0685ZM69.1993 17.1976L68.7746 16.7428C69.0661 16.4493 69.369 16.1479 69.6899 15.8442L70.0987 16.3203C69.783 16.6169 69.4855 16.9112 69.1993 17.1976ZM71.0257 15.4716L70.6337 14.9806C70.9454 14.7038 71.2699 14.4319 71.6119 14.1513L71.9812 14.658C71.6496 14.9394 71.3311 15.2106 71.0257 15.4716ZM72.9651 13.8794L72.6071 13.3649C72.9399 13.1112 73.2786 12.8567 73.6287 12.5944L73.97 13.1239C73.6252 13.3791 73.2925 13.6328 72.9651 13.8794ZM75.0061 12.4288L74.6823 11.8907C75.0239 11.6616 75.3836 11.4302 75.7501 11.2044L76.0572 11.7575C75.6968 11.9825 75.3417 12.2004 75.0061 12.4288ZM77.1609 11.1182L76.8712 10.5565C77.2277 10.3513 77.597 10.1509 77.9784 9.94896L78.2508 10.5192C77.8452 10.7241 77.4812 10.9175 77.1609 11.1182ZM79.3577 9.96309L79.0992 9.35254C79.4774 9.17672 79.8549 8.99457 80.264 8.82133L80.5044 9.43414C80.053 9.61266 79.6929 9.78621 79.3275 9.96686L79.3577 9.96309ZM81.6259 8.95333L81.4036 8.33826C81.784 8.18147 82.1771 8.0295 82.577 7.88312L82.7812 8.50045C82.3572 8.64985 81.9701 8.80106 81.5957 8.95711L81.6259 8.95333ZM83.9468 8.08486L83.7607 7.46526C84.15 7.33307 84.552 7.2057 84.9427 7.08619L85.1106 7.70805L83.9468 8.08486ZM99.7564 5.85283L98.5302 5.83887L98.5313 5.19588L99.7582 5.21619L99.7564 5.85283ZM86.3157 7.37109L86.1598 6.74772C86.5557 6.63827 86.9525 6.53728 87.3503 6.44473L87.4881 7.07036C87.0787 7.16864 86.6778 7.27014 86.2855 7.37487L86.3157 7.37109ZM97.2881 5.84618L96.0683 5.88927L96.0392 5.25006L97.2899 5.20954L97.2881 5.84618ZM88.7131 6.80163L88.5995 6.17298C89.004 6.12244 89.4075 6.00776 89.7978 5.93971L89.8994 6.56987C89.5151 6.63716 89.0832 6.71683 88.6829 6.8054L88.7131 6.80163ZM94.8212 5.96148C94.4106 6.01277 93.9957 6.02602 93.6079 6.06162L93.5365 5.42769C93.9471 5.3764 94.3577 5.32511 94.78 5.32378L94.8212 5.96148ZM91.1436 6.36303L91.0722 5.72909L92.2195 5.58578L92.3101 5.57447L92.3814 6.2084L92.2908 6.21971L91.1436 6.36303Z" fill="#263238"/>
<path d="M66.8954 16.1998L67.4688 16.3982L66.2133 20.3671L69.6038 18.1757L69.9223 18.7209L65.1103 21.8291L66.8954 16.1998Z" fill="#263238"/>
<path d="M193.436 140.471C193.182 140.51 192.926 140.529 192.67 140.529H166.894C166.894 140.42 166.846 140.312 166.828 140.203C166.809 140.095 166.761 139.897 166.73 139.744C166.7 139.591 166.663 139.399 166.627 139.233C162.906 121.046 159.665 99.5199 158.54 94.2406C157.175 90.678 156.022 87.0302 155.086 83.3181C155.031 83.1202 154.983 82.9159 154.928 82.7116C154.539 81.1349 154.156 79.4559 153.815 77.7068C153.384 75.5108 153.019 73.2382 152.77 70.8635C152.77 70.8635 173.662 70.8635 180.594 70.8635H182.795L182.838 70.9465C183.861 73.1264 184.742 75.3765 185.476 77.6813C187.301 83.2926 188.967 91.3552 186.607 97.8538C186.285 98.7348 190.426 128.279 193.436 140.471Z" fill="#263238"/>
<path d="M173.869 140.529H173.17C172.902 138.748 172.647 136.967 172.373 135.192C171.376 128.643 170.381 122.091 169.388 115.537L169.351 115.294L169.187 114.235C169.132 113.864 169.071 113.488 169.017 113.111C168.615 110.558 168.22 108.042 167.922 105.495C167.667 103.344 167.351 101.206 167.034 99.0606L166.907 98.2307C166.761 97.2731 166.621 96.3156 166.481 95.3453C166.366 94.5218 166.25 93.6919 166.147 92.862C166.147 92.6896 166.366 92.613 166.396 92.7918C166.718 94.6047 167.004 96.4305 167.29 98.2499L167.418 99.0861C167.6 100.28 167.782 101.48 167.971 102.674C168.238 104.353 168.579 106.012 168.853 107.691C168.998 108.604 169.138 109.517 169.278 110.424C169.333 110.8 169.394 111.177 169.448 111.547C169.503 111.917 169.564 112.275 169.619 112.639V112.741C170.628 119.342 171.631 125.938 172.629 132.53C173.042 135.203 173.455 137.869 173.869 140.529Z" fill="#37474F"/>
<path d="M182.837 70.8637V70.9467C182.741 73.2196 182.523 75.4851 182.187 77.7326C181.421 83.0247 179.755 90.4362 176.106 96.5263C176.106 96.5263 174.89 97.0051 173.534 97.6243C172.568 98.0442 171.622 98.5151 170.701 99.0351H170.664C170.664 99.0351 170.664 99.1181 170.664 99.284C170.549 100.42 170.056 105.329 169.448 111.509C169.363 112.383 169.278 113.277 169.187 114.196C168.323 123.134 167.296 133.814 166.755 139.731C166.73 140.004 166.706 140.265 166.682 140.516H141.356C141.685 133.935 143.448 102.316 149.079 79.1562C149.206 78.6455 149.334 78.1348 149.462 77.6369C149.516 77.4134 149.577 77.19 149.638 76.9666C149.875 76.0345 150.124 75.1153 150.38 74.2152C150.38 74.2152 150.38 74.1705 150.38 74.145L150.581 73.4492C150.842 72.5618 151.11 71.6936 151.383 70.851L182.837 70.8637Z" fill="#263238"/>
<path d="M157.045 73.6027C156.725 74.9774 156.423 76.352 156.139 77.7266C155.756 79.5843 155.409 81.4483 155.087 83.3187C154.309 87.8256 153.688 92.3581 153.135 96.8969C152.199 104.653 151.311 112.422 150.557 120.197C149.9 126.964 149.396 133.742 149.043 140.53H148.386C149.213 126.709 150.642 112.946 152.393 99.2142C153.092 93.6923 153.871 88.1767 154.929 82.7123C155.251 81.0461 155.598 79.38 155.975 77.7266C156.291 76.3413 156.625 74.9625 156.99 73.59L157.045 73.6027Z" fill="#37474F"/>
<path d="M149.571 77.005C149.571 76.9915 149.576 76.9785 149.585 76.9689C149.594 76.9593 149.607 76.9539 149.62 76.9539C149.633 76.9539 149.645 76.9593 149.654 76.9689C149.663 76.9785 149.668 76.9915 149.668 77.005C149.547 78.8818 149.243 80.931 150.039 82.6993C150.738 84.2633 152.076 85.1443 153.304 86.1976C153.341 86.1976 153.304 86.2933 153.256 86.2806C151.62 85.7635 149.991 84.8123 149.352 83.0568C148.629 81.1034 149.018 78.9584 149.571 77.005Z" fill="#37474F"/>
<path d="M163.198 98.1032C164.509 98.0607 165.821 98.1076 167.126 98.2436C168.407 98.3171 169.691 98.2915 170.969 98.167C171.61 98.1041 172.246 97.9932 172.872 97.8351C173.523 97.6755 174.137 97.4201 174.781 97.235C175.368 97.1007 175.977 97.1271 176.551 97.3116C177.232 97.4712 177.913 97.5797 178.606 97.6755C180.18 97.9189 181.777 97.9618 183.361 97.8032C183.422 97.8032 183.452 97.8925 183.361 97.9053C182.03 98.2018 180.672 98.3494 179.311 98.3458C178.615 98.3311 177.92 98.265 177.232 98.1479C176.597 97.9601 175.939 97.8719 175.28 97.8862C174.635 98.0635 174 98.2766 173.377 98.5245C172.744 98.7075 172.1 98.8461 171.449 98.9395C170.145 99.116 168.827 99.1587 167.515 99.0672C166.031 99.0248 164.558 98.7867 163.131 98.3585C163.111 98.3404 163.097 98.3167 163.089 98.2902C163.081 98.2637 163.081 98.2355 163.088 98.2088C163.095 98.1821 163.109 98.158 163.128 98.1393C163.148 98.1206 163.172 98.1081 163.198 98.1032Z" fill="#37474F"/>
<path d="M170.633 98.7408C170.633 98.8494 170.633 98.9515 170.633 99.06C170.633 99.1685 170.633 99.2324 170.633 99.3218C170.566 101.99 170.293 104.659 170.08 107.321C169.934 109.129 169.784 110.936 169.63 112.74C169.545 113.672 169.466 114.604 169.381 115.536C169.381 115.658 169.381 115.773 169.35 115.894C168.84 121.639 168.353 127.327 167.715 133.028C167.532 134.649 167.344 136.264 167.143 137.886C167.046 138.658 166.93 139.431 166.821 140.203C166.821 140.312 166.821 140.42 166.772 140.529H166.535C166.565 140.101 166.596 139.667 166.62 139.252C166.736 137.56 166.839 135.868 166.985 134.183C167.234 131.33 167.508 128.47 167.788 125.616C168.207 121.454 168.602 117.317 169.004 113.13C169.089 112.23 169.174 111.336 169.265 110.442C169.326 109.804 169.387 109.165 169.454 108.482C169.758 105.354 169.983 102.201 170.457 99.0919C170.457 98.977 170.457 98.8685 170.506 98.7536C170.508 98.7387 170.516 98.7252 170.526 98.715C170.537 98.7049 170.55 98.6986 170.565 98.6972C170.579 98.6957 170.594 98.6992 170.606 98.7071C170.618 98.7149 170.628 98.7268 170.633 98.7408Z" fill="#37474F"/>
<path d="M151.584 60.1391L149.03 74.4961C149.03 74.4961 179.305 74.9429 186.419 74.4195C186.419 74.4195 178.983 44.0202 171.339 35.3001C167.515 30.9464 163.021 31.272 160.164 34.317C159.44 35.0894 150.8 47.0844 149.887 51.6552C149.097 55.696 151.584 60.1391 151.584 60.1391Z" fill="#455A64"/>
<path d="M148.404 27.7036C148.384 32.2938 147.07 36.7751 144.626 40.5814C142.182 44.3878 138.719 47.3486 134.674 49.0897C130.628 50.8309 126.182 51.2744 121.897 50.3642C117.611 49.454 113.679 47.2309 110.596 43.9758C107.513 40.7207 105.419 36.5794 104.576 32.0751C103.734 27.5708 104.182 22.9055 105.864 18.6684C107.546 14.4313 110.386 10.8125 114.025 8.26891C117.665 5.72536 121.941 4.3712 126.313 4.37746C129.223 4.38247 132.104 4.99022 134.791 6.16589C137.477 7.34156 139.916 9.06206 141.968 11.2288C144.02 13.3956 145.645 15.9661 146.749 18.7931C147.853 21.6201 148.416 24.6481 148.404 27.7036Z" fill="#FFC727"/>
<g opacity="0.1">
<path opacity="0.1" d="M126.313 6.03737C121.45 6.02636 116.741 7.82887 113.026 11.1236C109.311 14.4183 106.831 18.991 106.028 24.0267C105.861 25.067 105.767 26.119 105.749 27.1738C105.749 27.2504 105.749 27.3334 105.749 27.4164V27.6016C105.745 29.5584 105.996 31.5065 106.497 33.3916C106.533 33.532 106.569 33.6725 106.612 33.8129C107.571 37.172 109.297 40.2347 111.638 42.7354C113.98 45.2361 116.867 47.0993 120.05 48.1634C123.233 49.2276 126.615 49.4605 129.903 48.842C133.19 48.2235 136.285 46.7723 138.918 44.6141C139.033 44.5184 139.155 44.4226 139.264 44.3205C139.847 43.8228 140.403 43.2922 140.93 42.731C141.058 42.5969 141.186 42.4564 141.307 42.316C144.037 39.2461 145.853 35.4064 146.533 31.2681C147.213 27.1299 146.728 22.8731 145.136 19.0205C143.544 15.1679 140.916 11.887 137.573 9.58068C134.23 7.27431 130.319 6.04282 126.319 6.03737H126.313ZM137.258 12.0764C137.976 12.6417 138.655 13.2603 139.289 13.9276C139.344 13.9819 139.397 14.0394 139.447 14.1C142.852 17.7594 144.737 22.6874 144.687 27.8032C144.636 32.9191 142.656 37.8054 139.179 41.3904L138.814 41.7479C138.331 42.2296 137.819 42.6795 137.282 43.0948L137.002 43.3119C136.556 43.6523 136.1 43.9651 135.634 44.2503C132.622 46.1208 129.167 47.0571 125.668 46.9506C121.908 46.8384 118.274 45.4997 115.271 43.1204C114.777 42.738 114.304 42.3267 113.854 41.8883L113.629 41.6713C112.39 40.4445 111.316 39.0464 110.437 37.5155C110.42 37.4914 110.406 37.4657 110.394 37.4389C109.991 36.7265 109.633 35.9864 109.324 35.2237C109.281 35.1343 109.245 35.045 109.208 34.9556C108.356 32.8015 107.888 30.5013 107.828 28.1697C107.828 28.0293 107.828 27.8824 107.828 27.7356C107.828 27.5888 107.828 27.3207 107.828 27.0972C107.856 25.9078 107.99 24.7237 108.229 23.5607C108.866 20.4121 110.241 17.48 112.23 15.0298C114.218 12.5795 116.757 10.6886 119.616 9.52811C122.476 8.36761 125.566 7.97419 128.607 8.38347C131.648 8.79275 134.544 9.9918 137.033 11.8721L137.258 12.0764Z" fill="black"/>
</g>
<path d="M139.319 13.9277C141.077 15.6927 142.481 17.8089 143.448 20.1519C144.414 22.5208 144.92 25.0682 144.938 27.645C144.956 30.2219 144.484 32.7766 143.55 35.1598C142.617 37.5431 141.24 39.7072 139.501 41.5256C137.762 43.344 135.695 44.7803 133.421 45.7505C131.146 46.7338 128.706 47.2266 126.246 47.1997C123.801 47.167 121.386 46.629 119.138 45.6165C116.908 44.5956 114.895 43.1176 113.216 41.2692C115.817 43.904 119.096 45.6834 122.647 46.3889C126.199 47.0943 129.87 46.6949 133.208 45.2398C136.526 43.787 139.365 41.3424 141.37 38.2099C143.375 35.0773 144.46 31.395 144.488 27.6208C144.528 22.5243 142.674 17.6122 139.319 13.9277Z" fill="white"/>
<path opacity="0.1" d="M113.1 41.2373C111.348 39.464 109.951 37.3415 108.99 34.994C108.038 32.6297 107.538 30.0919 107.518 27.5251C107.503 24.9485 107.983 22.3951 108.929 20.0178C109.868 17.6316 111.251 15.466 112.996 13.6476C114.742 11.8291 116.815 10.3944 119.096 9.42723C121.364 8.45441 123.796 7.97239 126.246 8.01004C128.693 8.04606 131.109 8.59065 133.354 9.61235C135.581 10.6388 137.588 12.1236 139.258 13.9788C136.667 11.3342 133.395 9.54322 129.846 8.82637C126.297 8.10951 122.625 8.49811 119.284 9.94431C114.847 11.9013 111.306 15.5875 109.403 20.2285C108.004 23.727 107.608 27.578 108.262 31.3096C108.917 35.0413 110.594 38.4914 113.088 41.2373H113.1Z" fill="black"/>
<path d="M167.594 33.0464C167.411 33.6847 164.237 37.5788 161.513 37.2405C160.613 37.1255 160.984 31.9547 160.984 31.9547L160.929 31.5653L160.151 26.1264L166.414 22.5388L167.314 22.0728C167.314 22.0728 167.435 23.5729 167.569 25.4434C167.569 25.5327 167.569 25.6157 167.569 25.7115C167.569 25.8072 167.569 25.9157 167.569 26.0179C167.569 26.2924 167.612 26.5797 167.63 26.8669C167.648 27.1542 167.63 27.2946 167.666 27.5053C167.703 27.716 167.666 27.9585 167.666 28.1884C167.746 29.8076 167.722 31.4306 167.594 33.0464Z" fill="#EB9481"/>
<path d="M153.967 15.108C149.82 23.7196 154.204 27.3711 156.035 28.2329C157.676 29.0053 163.216 31.7631 168.196 23.643C173.176 15.5229 170.628 10.7798 167.083 8.63488C163.538 6.48996 158.108 6.48996 153.967 15.108Z" fill="#EB9481"/>
<path d="M155.268 13.4612C155.469 13.514 155.672 13.5545 155.876 13.5825C156.089 13.6588 156.32 13.6588 156.533 13.5825C156.597 13.5453 156.647 13.4868 156.676 13.4163C156.704 13.3457 156.71 13.2672 156.691 13.1931C156.633 13.0547 156.541 12.9347 156.425 12.8451C156.308 12.7555 156.172 12.6994 156.028 12.6824C155.742 12.6052 155.438 12.6439 155.177 12.7909C155.117 12.827 155.068 12.8814 155.037 12.947C155.007 13.0126 154.996 13.0863 155.005 13.1586C155.015 13.231 155.046 13.2985 155.092 13.3524C155.139 13.4064 155.201 13.4443 155.268 13.4612Z" fill="#263238"/>
<path d="M160.614 16.1873C160.433 16.0714 160.259 15.9457 160.091 15.8107C159.89 15.6575 159.72 15.5617 159.629 15.3128C159.61 15.2396 159.616 15.162 159.645 15.0926C159.673 15.0232 159.723 14.9658 159.787 14.9297C159.921 14.8754 160.067 14.8597 160.209 14.8844C160.351 14.9091 160.485 14.9733 160.595 15.0702C160.845 15.2323 161.031 15.484 161.118 15.7788C161.135 15.8478 161.132 15.9205 161.11 15.9879C161.088 16.0552 161.048 16.1144 160.994 16.1579C160.941 16.2014 160.876 16.2274 160.808 16.2326C160.74 16.2378 160.673 16.2221 160.614 16.1873Z" fill="#263238"/>
<path d="M158.473 17.828C158.473 17.828 158.509 17.8727 158.473 17.8982C158.199 18.4919 157.98 19.2196 158.412 19.6601C158.412 19.6601 158.412 19.7048 158.412 19.692C157.865 19.3026 158.139 18.3642 158.473 17.828Z" fill="#263238"/>
<path d="M159.264 17.438C160.212 17.7955 159.459 19.768 158.583 19.4361C157.707 19.1041 158.473 17.138 159.264 17.438Z" fill="#263238"/>
<path d="M159.592 17.7257C159.713 17.9045 159.798 18.1726 159.987 18.2747C160.175 18.3769 160.461 18.2747 160.686 18.1279C160.686 18.1279 160.717 18.1279 160.686 18.1279C160.552 18.5109 160.267 18.8365 159.859 18.728C159.686 18.655 159.545 18.5175 159.463 18.3418C159.381 18.1662 159.364 17.9649 159.415 17.7768C159.446 17.7257 159.543 17.6236 159.592 17.7257Z" fill="#263238"/>
<path d="M155.494 16.1678C155.494 16.1678 155.439 16.1678 155.433 16.2061C155.22 16.8445 154.88 17.4829 154.278 17.4829C154.278 17.4829 154.248 17.4829 154.278 17.5212C154.947 17.6871 155.391 16.7934 155.494 16.1678Z" fill="#263238"/>
<path d="M155.214 15.3189C154.308 14.8529 153.493 16.8 154.338 17.234C155.183 17.6681 155.974 15.702 155.214 15.3189Z" fill="#263238"/>
<path d="M154.776 15.268C154.588 15.268 154.363 15.4212 154.168 15.3573C153.974 15.2935 153.895 14.9935 153.852 14.719C153.852 14.719 153.852 14.719 153.816 14.719C153.71 14.8747 153.662 15.0651 153.68 15.2552C153.698 15.4452 153.781 15.6221 153.913 15.7531C154.199 15.9574 154.557 15.7531 154.795 15.4148C154.855 15.3829 154.825 15.2552 154.776 15.268Z" fill="#263238"/>
<path d="M155.147 19.2898C154.912 19.7035 154.697 20.1297 154.503 20.5665C154.503 20.6048 154.576 20.6687 154.709 20.7389C155.032 20.9574 155.406 21.0783 155.79 21.0885C156.174 21.0986 156.553 20.9975 156.886 20.7964C156.935 20.7964 156.886 20.7006 156.85 20.7134C156.183 20.8588 155.49 20.7737 154.874 20.4708C154.874 20.3431 155.737 19.0408 155.676 19.0025C155.347 18.8955 155.005 18.8354 154.661 18.8238C155.609 17.0108 156.825 15.3766 157.744 13.5572C157.748 13.5439 157.749 13.5292 157.745 13.5156C157.741 13.502 157.732 13.4902 157.721 13.4821C157.71 13.474 157.696 13.4701 157.683 13.471C157.669 13.4719 157.656 13.4775 157.646 13.487C156.294 15.1983 155.107 17.0458 154.101 19.0025C153.992 19.2451 154.953 19.2898 155.147 19.2898Z" fill="#263238"/>
<path d="M154.873 20.4259C154.933 20.8913 155.109 21.3318 155.384 21.7027C155.54 21.9009 155.753 22.0399 155.992 22.0984C156.497 22.2389 156.734 21.8176 156.849 21.4026C156.904 21.1941 156.936 20.9801 156.947 20.7642C156.239 20.8902 155.511 20.7715 154.873 20.4259Z" fill="#263238"/>
<path d="M155.383 21.6835C155.539 21.8817 155.753 22.0207 155.992 22.0792C156.496 22.2197 156.733 21.7984 156.849 21.3834C156.608 21.2553 156.333 21.2152 156.067 21.2696C155.802 21.3239 155.561 21.4695 155.383 21.6835Z" fill="#FF98B9"/>
<path d="M166.122 24.7479C164.541 23.5606 167.022 19.6793 167.022 19.6793C167.022 19.6793 164.681 17.1705 164.845 14.4319C164.845 14.4319 164.481 16.647 165.082 18.1025C165.18 18.3514 160.097 13.7488 162.517 8.97378C162.517 8.97378 158.814 12.721 155.731 11.7826C155.579 11.7315 158.728 8.09283 160.151 7.7545C161.767 7.38454 163.442 7.40733 165.048 7.82113C166.654 8.23493 168.149 9.02878 169.418 10.142C172.458 13.1232 172.166 18.4408 171.406 20.1517C169.929 23.5095 166.87 25.3097 166.122 24.7479Z" fill="#263238"/>
<path d="M164.845 18.064C161.951 15.7339 160.911 11.9931 162.796 8.60972C162.801 8.5916 162.801 8.57228 162.795 8.55451C162.788 8.53675 162.777 8.52147 162.762 8.51084C162.748 8.50021 162.73 8.49478 162.712 8.49534C162.694 8.4959 162.677 8.50243 162.662 8.51396C160.096 11.4632 161.854 16.2957 164.833 18.1406C164.906 18.1853 164.912 18.1214 164.845 18.064Z" fill="#263238"/>
<path d="M166.232 24.5624C165.198 22.5005 166.074 20.6109 167.108 18.8171C167.108 18.7596 167.059 18.7022 167.022 18.7532C165.867 20.4321 164.773 22.7303 166.08 24.6901C166.096 24.7112 166.12 24.7248 166.145 24.7278C166.171 24.7308 166.197 24.723 166.217 24.706C166.237 24.6891 166.25 24.6645 166.253 24.6375C166.256 24.6106 166.248 24.5836 166.232 24.5624Z" fill="#263238"/>
<path d="M162.93 8.28362C162.93 8.28362 162.93 8.24532 162.9 8.28362C161.337 9.80933 159.251 12.7522 156.758 11.6223C156.746 11.6194 156.732 11.621 156.72 11.6269C156.708 11.6328 156.698 11.6426 156.692 11.6549C156.686 11.6671 156.684 11.6812 156.686 11.6949C156.688 11.7086 156.694 11.7212 156.704 11.7308C159.002 13.0395 161.927 10.3073 162.93 8.28362Z" fill="#263238"/>
<path d="M164.815 40.707C161.064 45.6607 145.473 61.1795 139.806 60.2284C130.923 58.7218 118.999 52.121 113.8 49.6633C110.979 48.3291 121.759 31.042 124.313 33.4998C127.645 36.6916 139.897 42.2199 141.339 42.9668C142.78 43.7137 153.135 37.8598 160.796 34.0615C167.235 30.8697 169.564 34.419 164.815 40.707Z" fill="#EB9481"/>
<path d="M105.737 24.2245C105.342 24.5991 105.065 25.0916 104.945 25.6359C104.824 26.1802 104.865 26.7503 105.062 27.2695C104.168 27.3988 103.345 27.8501 102.733 28.5462C101.724 29.823 103.201 32.07 103.201 32.07C102.301 32.4119 101.519 33.0303 100.957 33.8447C100.106 35.1789 101.298 37.6749 101.298 37.6749C100.636 38.4665 100.267 39.4815 100.258 40.5348C100.349 43.3564 103.906 45.5141 106.132 46.9185C108.357 48.323 115.982 50.0785 117.399 50.57L126.611 36.6791C126.611 36.6791 122.963 28.6164 114.857 25.0224C112.456 23.95 107.293 22.8328 105.737 24.2245Z" fill="#EB9481"/>
<path d="M105.299 27.0907C108.114 27.5631 110.644 28.8909 113.234 30.0591C113.246 30.0642 113.256 30.0741 113.261 30.0867C113.266 30.0992 113.266 30.1134 113.262 30.1261C113.257 30.1388 113.247 30.149 113.235 30.1544C113.223 30.1597 113.21 30.1599 113.198 30.1548C110.632 28.9547 107.871 28.31 105.293 27.2247C105.28 27.2196 105.268 27.2101 105.26 27.1976C105.252 27.1852 105.248 27.1703 105.249 27.1553C105.25 27.1403 105.255 27.126 105.264 27.1143C105.273 27.1027 105.285 27.0944 105.299 27.0907Z" fill="#263238"/>
<path d="M103.365 31.9165C104.004 32.0868 104.617 32.3467 105.19 32.689C105.798 33.0081 106.406 33.3273 107.014 33.6721C108.23 34.3551 109.446 35.0637 110.619 35.8106C110.674 35.8425 110.619 35.9319 110.583 35.9064C109.367 35.2297 108.151 34.5722 106.898 33.9529C106.29 33.6401 105.682 33.3146 105.031 33.0337C104.422 32.7904 103.841 32.4756 103.299 32.0953C103.284 32.0814 103.273 32.063 103.268 32.0426C103.264 32.0222 103.265 32.0008 103.272 31.9813C103.28 31.9618 103.292 31.9451 103.309 31.9335C103.326 31.9219 103.345 31.916 103.365 31.9165Z" fill="#263238"/>
<path d="M101.347 37.7001C101.915 37.8629 102.452 38.1287 102.934 38.4853L104.588 39.4429C105.688 40.0812 106.795 40.7196 107.92 41.2878C107.975 41.2878 107.92 41.4154 107.877 41.3835C106.734 40.7898 105.579 40.2153 104.442 39.6088L102.764 38.7087C102.232 38.4819 101.743 38.16 101.316 37.7576C101.316 37.7576 101.316 37.6937 101.347 37.7001Z" fill="#263238"/>
<path d="M137.045 40.2531L130.357 59.2127C130.357 59.2127 138.517 61.9768 141.508 60.9299C144.5 59.883 158.394 50.0776 164.614 41.5617C170.835 33.0459 166.846 30.9712 160.473 33.9396C154.101 36.908 142.275 42.3789 141.788 42.3789C141.302 42.3789 137.045 40.2531 137.045 40.2531Z" fill="#455A64"/>
<path d="M134.065 58.8176C135.719 53.5063 137.404 48.176 139.538 43.0498C139.538 43.0051 139.629 43.0498 139.611 43.0881C138.121 48.4504 136.139 53.6659 134.138 58.8495C134.151 58.9134 134.041 58.8878 134.065 58.8176Z" fill="#263238"/>
<path d="M168.342 9.1713C171.85 10.8247 175.529 14.5336 176.562 27.9394C177.596 41.3452 175.62 51.1825 171.862 53.5189C168.104 55.8554 159.926 54.6297 155.548 51.0995C155.548 51.0995 164.56 41.0707 165.885 26.3626C166.305 21.6642 163.574 14.2974 165.314 10.8757L168.342 9.1713Z" fill="#263238"/>
<path d="M155.019 50.3911C155.682 49.3378 156.284 48.2398 156.928 47.1992C157.573 46.1587 158.187 45.1054 158.795 44.0457C160.039 41.9161 161.164 39.7121 162.164 37.4449C164.208 32.9407 165.388 28.0579 165.636 23.0752C165.733 20.0812 165.417 17.132 165.252 14.138C165.252 14.0869 165.338 14.0742 165.344 14.138C166.183 19.296 166.56 24.6073 165.417 29.7462C164.264 34.6061 162.371 39.2387 159.81 43.4648C159.117 44.6649 158.382 45.8331 157.615 46.9758C156.849 48.1185 155.937 49.2995 155.104 50.4677C155.068 50.4996 154.983 50.4486 155.019 50.3911Z" fill="#263238"/>
<path d="M171.99 13.0717C171.954 13.027 172.033 12.9631 172.069 13.0078C175.231 17.0806 176.508 22.3919 177.329 27.4733C178.318 33.1654 178.2 39.0089 176.982 44.6519C176.652 46.113 176.199 47.5401 175.626 48.9162C175.04 50.2296 174.344 51.4858 173.547 52.6698C173.51 52.7337 173.419 52.6698 173.468 52.606C174.26 51.5313 174.877 50.3252 175.292 49.0375C175.704 47.84 176.035 46.6134 176.283 45.3669C176.862 42.6146 177.182 39.8093 177.238 36.9914C177.384 31.5369 176.77 26.0891 175.413 20.8215C174.718 18.046 173.559 15.422 171.99 13.0717Z" fill="#263238"/>
<path d="M175.176 47.7676C175.685 46.5463 176.131 45.2976 176.514 44.0267C177.272 41.5032 177.78 38.9039 178.028 36.2705C178.505 31.0431 177.848 25.7701 176.106 20.8474C175.108 18.0794 173.815 15.4389 172.251 12.9763C172.251 12.9316 172.288 12.8806 172.318 12.9253C175.407 17.1905 177.469 22.1762 178.328 27.458C179.186 32.7398 178.816 38.1612 177.25 43.2607C176.804 44.6627 176.27 46.0319 175.65 47.359C175 48.7634 174.185 50.0657 173.455 51.4254C173.455 51.4893 173.334 51.4254 173.37 51.368C174.085 50.2341 174.69 49.0279 175.176 47.7676Z" fill="#263238"/>
<path d="M165.289 20.5285C165.289 20.5285 167.551 17.7196 168.779 18.6134C170.007 19.5071 168.135 23.6884 166.56 24.1416C166.362 24.2138 166.152 24.2432 165.942 24.228C165.733 24.2128 165.529 24.1533 165.342 24.0531C165.155 23.9529 164.989 23.8141 164.855 23.6451C164.72 23.476 164.62 23.2801 164.559 23.0692L165.289 20.5285Z" fill="#EB9481"/>
</g>
<defs>
<clipPath id="clip0_132_3092">
<rect width="193" height="140" fill="white"/>
</clipPath>
</defs>
</svg>
