<svg width="148" height="92" viewBox="0 0 148 92" fill="none" xmlns="http://www.w3.org/2000/svg">
<path d="M52.9894 74.8364H23.2158V81.414H52.9894V74.8364Z" fill="#FFC727"/>
<g opacity="0.1">
<path opacity="0.1" d="M24.4433 75.4409C24.6082 76.3079 24.6861 77.1893 24.6757 78.0719C24.6884 78.9546 24.6105 79.8362 24.4433 80.703C24.2784 79.8359 24.2005 78.9545 24.2109 78.0719C24.2028 77.1894 24.2807 76.3083 24.4433 75.4409Z" fill="black"/>
<path opacity="0.1" d="M26.6605 75.4409C26.8254 76.3079 26.9032 77.1893 26.8929 78.0719C26.9056 78.9546 26.8277 79.8362 26.6605 80.703C26.4955 79.8359 26.4177 78.9545 26.428 78.0719C26.42 77.1894 26.4978 76.3083 26.6605 75.4409Z" fill="black"/>
<path opacity="0.1" d="M27.7437 75.4409C27.9087 76.3079 27.9865 77.1893 27.9762 78.0719C27.9889 78.9546 27.911 79.8362 27.7437 80.703C27.4339 78.9626 27.4339 77.1812 27.7437 75.4409V75.4409Z" fill="black"/>
<path opacity="0.1" d="M33.6893 75.4409C33.9992 77.1812 33.9992 78.9626 33.6893 80.703C33.3794 78.9626 33.3794 77.1812 33.6893 75.4409V75.4409Z" fill="black"/>
<path opacity="0.1" d="M35.3159 75.4409C35.6257 77.1812 35.6257 78.9626 35.3159 80.703C35.006 78.9626 35.006 77.1812 35.3159 75.4409V75.4409Z" fill="black"/>
<path opacity="0.1" d="M41.9497 75.4409C42.1146 76.3079 42.1925 77.1893 42.1821 78.0719C42.1948 78.9546 42.1169 79.8362 41.9497 80.703C41.6398 78.9626 41.6398 77.1812 41.9497 75.4409V75.4409Z" fill="black"/>
<path opacity="0.1" d="M43.4883 75.4409C43.7981 77.1812 43.7981 78.9626 43.4883 80.703C43.321 79.8362 43.2432 78.9546 43.2559 78.0719C43.2455 77.1893 43.3233 76.3079 43.4883 75.4409V75.4409Z" fill="black"/>
<path opacity="0.1" d="M46.3098 75.4409C46.6197 77.1812 46.6197 78.9626 46.3098 80.703C46.1426 79.8362 46.0647 78.9546 46.0774 78.0719C46.067 77.1893 46.1449 76.3079 46.3098 75.4409V75.4409Z" fill="black"/>
<path opacity="0.1" d="M40.6665 75.4409C40.9763 77.1812 40.9763 78.9626 40.6665 80.703C40.3566 78.9626 40.3566 77.1812 40.6665 75.4409V75.4409Z" fill="black"/>
<path opacity="0.1" d="M29.71 75.4409C29.8726 76.3083 29.9504 77.1894 29.9424 78.0719C29.9527 78.9545 29.8749 79.8359 29.71 80.703C29.5427 79.8362 29.4648 78.9546 29.4775 78.0719C29.4672 77.1893 29.545 76.3079 29.71 75.4409V75.4409Z" fill="black"/>
<path opacity="0.1" d="M37.4172 75.4409C37.7271 77.1812 37.7271 78.9626 37.4172 80.703C37.1074 78.9626 37.1074 77.1812 37.4172 75.4409V75.4409Z" fill="black"/>
<path opacity="0.1" d="M38.5236 75.4409C38.6862 76.3083 38.7641 77.1894 38.756 78.0719C38.7687 78.9546 38.6909 79.8362 38.5236 80.703C38.3587 79.8359 38.2808 78.9545 38.2912 78.0719C38.2832 77.1894 38.361 76.3083 38.5236 75.4409V75.4409Z" fill="black"/>
<path opacity="0.1" d="M49.9866 75.4409C50.1516 76.3079 50.2294 77.1893 50.2191 78.0719C50.2317 78.9546 50.1539 79.8362 49.9866 80.703C49.8217 79.8359 49.7438 78.9545 49.7542 78.0719C49.7462 77.1894 49.824 76.3083 49.9866 75.4409Z" fill="black"/>
<path opacity="0.1" d="M51.6508 75.4409C51.9606 77.1812 51.9606 78.9626 51.6508 80.703C51.4835 79.8362 51.4056 78.9546 51.4183 78.0719C51.408 77.1893 51.4858 76.3079 51.6508 75.4409V75.4409Z" fill="black"/>
<path opacity="0.1" d="M47.6206 75.4409C47.9304 77.1812 47.9304 78.9626 47.6206 80.703C47.3107 78.9626 47.3107 77.1812 47.6206 75.4409V75.4409Z" fill="black"/>
<path opacity="0.1" d="M32.406 75.4409C32.7159 77.1812 32.7159 78.9626 32.406 80.703C32.2388 79.8362 32.1609 78.9546 32.1736 78.0719C32.1632 77.1893 32.2411 76.3079 32.406 75.4409V75.4409Z" fill="black"/>
</g>
<path opacity="0.1" d="M52.9848 74.8364V76.2356L23.2158 77.1746V74.8364H52.9848Z" fill="black"/>
<path d="M50.9534 68.2591H21.1798V74.8367H50.9534V68.2591Z" fill="#FFC727"/>
<g opacity="0.1">
<path opacity="0.1" d="M22.407 68.8637C22.5722 69.7308 22.65 70.6122 22.6395 71.4948C22.6522 72.3774 22.5743 73.259 22.407 74.1258C22.2421 73.2587 22.1643 72.3773 22.1746 71.4948C22.1664 70.6123 22.2442 69.7311 22.407 68.8637V68.8637Z" fill="black"/>
<path opacity="0.1" d="M24.6246 68.8636C24.7897 69.7307 24.8675 70.6121 24.857 71.4947C24.8684 72.3711 24.7905 73.2465 24.6246 74.1071C24.4596 73.2401 24.3818 72.3587 24.3921 71.4761C24.3851 70.5998 24.463 69.7249 24.6246 68.8636V68.8636Z" fill="black"/>
<path opacity="0.1" d="M25.7075 68.8636C25.8726 69.7307 25.9504 70.6121 25.9399 71.4947C25.9526 72.3774 25.8747 73.259 25.7075 74.1257C25.5425 73.2587 25.4647 72.3773 25.475 71.4947C25.4668 70.6122 25.5446 69.731 25.7075 68.8636V68.8636Z" fill="black"/>
<path opacity="0.1" d="M31.6527 68.8636C31.9625 70.604 31.9625 72.3854 31.6527 74.1257C31.3428 72.3854 31.3428 70.604 31.6527 68.8636Z" fill="black"/>
<path opacity="0.1" d="M33.261 68.8636C33.5708 70.604 33.5708 72.3854 33.261 74.1257C32.9511 72.3854 32.9511 70.604 33.261 68.8636V68.8636Z" fill="black"/>
<path opacity="0.1" d="M39.9133 68.8636C40.0784 69.7307 40.1562 70.6121 40.1457 71.4947C40.1584 72.3774 40.0805 73.259 39.9133 74.1257C39.7483 73.2587 39.6705 72.3773 39.6808 71.4947C39.6726 70.6122 39.7504 69.731 39.9133 68.8636V68.8636Z" fill="black"/>
<path opacity="0.1" d="M41.4519 68.8636C41.7617 70.604 41.7617 72.3854 41.4519 74.1257C41.142 72.3854 41.142 70.604 41.4519 68.8636Z" fill="black"/>
<path opacity="0.1" d="M44.2732 68.8636C44.583 70.604 44.583 72.3854 44.2732 74.1257C44.106 73.259 44.0281 72.3774 44.0408 71.4947C44.0302 70.6121 44.1081 69.7307 44.2732 68.8636V68.8636Z" fill="black"/>
<path opacity="0.1" d="M38.6301 68.8636C38.94 70.604 38.94 72.3854 38.6301 74.1257C38.3202 72.3854 38.3202 70.604 38.6301 68.8636Z" fill="black"/>
<path opacity="0.1" d="M27.6736 68.8636C27.8364 69.731 27.9142 70.6122 27.906 71.4947C27.9164 72.3773 27.8385 73.2587 27.6736 74.1257C27.5063 73.259 27.4285 72.3774 27.4412 71.4947C27.4306 70.6121 27.5085 69.7307 27.6736 68.8636Z" fill="black"/>
<path opacity="0.1" d="M35.3811 68.8636C35.6909 70.604 35.6909 72.3854 35.3811 74.1257C35.0712 72.3854 35.0712 70.604 35.3811 68.8636Z" fill="black"/>
<path opacity="0.1" d="M36.4872 68.8636C36.6501 69.731 36.7279 70.6122 36.7197 71.4947C36.7324 72.3774 36.6545 73.259 36.4872 74.1257C36.3223 73.2587 36.2445 72.3773 36.2548 71.4947C36.2466 70.6122 36.3244 69.731 36.4872 68.8636Z" fill="black"/>
<path opacity="0.1" d="M47.95 68.8636C48.1151 69.7307 48.193 70.6121 48.1824 71.4947C48.1951 72.3774 48.1172 73.259 47.95 74.1257C47.7851 73.2587 47.7072 72.3773 47.7176 71.4947C47.7093 70.6122 47.7872 69.731 47.95 68.8636V68.8636Z" fill="black"/>
<path opacity="0.1" d="M49.6144 68.8636C49.9242 70.604 49.9242 72.3854 49.6144 74.1257C49.4471 73.259 49.3693 72.3774 49.3819 71.4947C49.3714 70.6121 49.4493 69.7307 49.6144 68.8636V68.8636Z" fill="black"/>
<path opacity="0.1" d="M45.5847 68.8636C45.8945 70.604 45.8945 72.3854 45.5847 74.1257C45.2748 72.3854 45.2748 70.604 45.5847 68.8636Z" fill="black"/>
<path opacity="0.1" d="M30.3696 68.8636C30.6795 70.604 30.6795 72.3854 30.3696 74.1257C30.2024 73.259 30.1245 72.3774 30.1372 71.4947C30.1266 70.6121 30.2045 69.7307 30.3696 68.8636Z" fill="black"/>
</g>
<path opacity="0.1" d="M50.9488 68.2591V69.6583L21.1798 70.5973V68.2591H50.9488Z" fill="black"/>
<path d="M55.5557 55.1542H25.7821V61.7319H55.5557V55.1542Z" fill="#FFC727"/>
<g opacity="0.1">
<path opacity="0.1" d="M27.0089 55.7597C27.3187 57.5001 27.3187 59.2815 27.0089 61.0218C26.699 59.2815 26.699 57.5001 27.0089 55.7597Z" fill="black"/>
<path opacity="0.1" d="M29.2216 55.7598C29.5314 57.5001 29.5314 59.2815 29.2216 61.0219C28.9178 59.281 28.9178 57.5006 29.2216 55.7598V55.7598Z" fill="black"/>
<path opacity="0.1" d="M30.3095 55.7598C30.6194 57.5001 30.6194 59.2815 30.3095 61.0219C29.9997 59.2815 29.9997 57.5001 30.3095 55.7598Z" fill="black"/>
<path opacity="0.1" d="M36.2453 55.7598C36.5552 57.5001 36.5552 59.2815 36.2453 61.0219C35.9355 59.2815 35.9355 57.5001 36.2453 55.7598Z" fill="black"/>
<path opacity="0.1" d="M37.8631 55.7598C38.173 57.5001 38.173 59.2815 37.8631 61.0219C37.5533 59.2815 37.5533 57.5001 37.8631 55.7598V55.7598Z" fill="black"/>
<path opacity="0.1" d="M44.5151 55.7598C44.825 57.5001 44.825 59.2815 44.5151 61.0219C44.2053 59.2815 44.2053 57.5001 44.5151 55.7598Z" fill="black"/>
<path opacity="0.1" d="M46.0492 55.7598C46.2141 56.6268 46.292 57.5082 46.2816 58.3908C46.2945 59.2735 46.2166 60.1551 46.0492 61.0219C45.7393 59.2815 45.7393 57.5001 46.0492 55.7598V55.7598Z" fill="black"/>
<path opacity="0.1" d="M48.8708 55.7598C49.1807 57.5001 49.1807 59.2815 48.8708 61.0219C48.561 59.2815 48.561 57.5001 48.8708 55.7598Z" fill="black"/>
<path opacity="0.1" d="M43.2179 55.7598C43.3828 56.6268 43.4607 57.5082 43.4503 58.3908C43.4632 59.2735 43.3853 60.1551 43.2179 61.0219C42.908 59.2815 42.908 57.5001 43.2179 55.7598V55.7598Z" fill="black"/>
<path opacity="0.1" d="M32.2712 55.7598C32.5811 57.5001 32.5811 59.2815 32.2712 61.0219C31.9614 59.2815 31.9614 57.5001 32.2712 55.7598Z" fill="black"/>
<path opacity="0.1" d="M39.9641 55.7598C40.1268 56.6272 40.2046 57.5083 40.1966 58.3908C40.2071 59.2734 40.1293 60.1548 39.9641 61.0219C39.7967 60.1551 39.7188 59.2735 39.7317 58.3908C39.7237 57.5083 39.8015 56.6272 39.9641 55.7598V55.7598Z" fill="black"/>
<path opacity="0.1" d="M41.0844 55.7598C41.3943 57.5001 41.3943 59.2815 41.0844 61.0219C40.7746 59.2815 40.7746 57.5001 41.0844 55.7598Z" fill="black"/>
<path opacity="0.1" d="M52.5523 55.7598C52.8561 57.5006 52.8561 59.281 52.5523 61.0219C52.2425 59.2815 52.2425 57.5001 52.5523 55.7598Z" fill="black"/>
<path opacity="0.1" d="M54.212 55.7598C54.5219 57.5001 54.5219 59.2815 54.212 61.0219C53.9022 59.2815 53.9022 57.5001 54.212 55.7598Z" fill="black"/>
<path opacity="0.1" d="M50.191 55.7598C50.3536 56.6272 50.4315 57.5083 50.4234 58.3908C50.4363 59.2735 50.3584 60.1551 50.191 61.0219C50.0259 60.1548 49.948 59.2734 49.9586 58.3908C49.9506 57.5083 50.0284 56.6272 50.191 55.7598V55.7598Z" fill="black"/>
<path opacity="0.1" d="M34.967 55.7598C35.2769 57.5001 35.2769 59.2815 34.967 61.0219C34.6572 59.2815 34.6572 57.5001 34.967 55.7598Z" fill="black"/>
</g>
<path opacity="0.1" d="M55.5511 55.1542V56.5534L25.7821 57.4924V55.1542H55.5511Z" fill="black"/>
<path d="M54.8023 48.5778H25.0287V55.1555H54.8023V48.5778Z" fill="#FFC727"/>
<g opacity="0.1">
<path opacity="0.1" d="M53.4452 54.4441C53.1353 52.7038 53.1353 50.9224 53.4452 49.182C53.755 50.9224 53.755 52.7038 53.4452 54.4441V54.4441Z" fill="black"/>
<path opacity="0.1" d="M51.2462 54.4441C50.9363 52.7038 50.9363 50.9224 51.2462 49.182C51.556 50.9224 51.556 52.7038 51.2462 54.4441V54.4441Z" fill="black"/>
<path opacity="0.1" d="M50.1634 54.4441C49.8536 52.7038 49.8536 50.9224 50.1634 49.182C50.4733 50.9224 50.4733 52.7038 50.1634 54.4441V54.4441Z" fill="black"/>
<path opacity="0.1" d="M44.2129 54.4441C43.903 52.7038 43.903 50.9224 44.2129 49.182C44.5227 50.9224 44.5227 52.7038 44.2129 54.4441V54.4441Z" fill="black"/>
<path opacity="0.1" d="M42.6048 54.4441C42.295 52.7038 42.295 50.9224 42.6048 49.182C42.9147 50.9224 42.9147 52.7038 42.6048 54.4441V54.4441Z" fill="black"/>
<path opacity="0.1" d="M35.9574 54.4441C35.6475 52.7038 35.6475 50.9224 35.9574 49.182C36.2672 50.9224 36.2672 52.7038 35.9574 54.4441V54.4441Z" fill="black"/>
<path opacity="0.1" d="M34.419 54.4441C34.2541 53.577 34.1762 52.6956 34.1866 51.8131C34.1737 50.9304 34.2516 50.0487 34.419 49.182C34.5841 50.0491 34.662 50.9305 34.6514 51.8131C34.6594 52.6955 34.5816 53.5767 34.419 54.4441V54.4441Z" fill="black"/>
<path opacity="0.1" d="M31.5972 54.4441C31.4323 53.577 31.3544 52.6956 31.3648 51.8131C31.3519 50.9304 31.4298 50.0487 31.5972 49.182C31.7623 50.0491 31.8402 50.9305 31.8296 51.8131C31.8377 52.6955 31.7598 53.5767 31.5972 54.4441V54.4441Z" fill="black"/>
<path opacity="0.1" d="M37.2403 54.4441C37.0776 53.5767 36.9998 52.6955 37.0078 51.8131C36.995 50.9304 37.0728 50.0487 37.2403 49.182C37.4054 50.0491 37.4832 50.9305 37.4727 51.8131C37.4807 52.6955 37.4029 53.5767 37.2403 54.4441V54.4441Z" fill="black"/>
<path opacity="0.1" d="M48.1971 54.4441C48.0321 53.577 47.9543 52.6956 47.9646 51.8131C47.9517 50.9304 48.0296 50.0487 48.1971 49.182C48.5069 50.9224 48.5069 52.7038 48.1971 54.4441V54.4441Z" fill="black"/>
<path opacity="0.1" d="M40.4897 54.4441C40.3271 53.5767 40.2493 52.6955 40.2573 51.8131C40.2467 50.9305 40.3246 50.0491 40.4897 49.182C40.6571 50.0487 40.735 50.9304 40.7221 51.8131C40.7325 52.6956 40.6546 53.577 40.4897 54.4441V54.4441Z" fill="black"/>
<path opacity="0.1" d="M39.3831 54.4441C39.0733 52.7038 39.0733 50.9224 39.3831 49.182C39.693 50.9224 39.693 52.7038 39.3831 54.4441V54.4441Z" fill="black"/>
<path opacity="0.1" d="M27.92 54.4441C27.6102 52.7038 27.6102 50.9224 27.92 49.182C28.2299 50.9224 28.2299 52.7038 27.92 54.4441V54.4441Z" fill="black"/>
<path opacity="0.1" d="M26.2558 54.4442C26.0881 53.5711 26.0086 52.6834 26.0187 51.7945C26.0058 50.9118 26.0837 50.0302 26.2511 49.1635C26.4162 50.0305 26.4941 50.9119 26.4836 51.7945C26.4943 52.683 26.418 53.5705 26.2558 54.4442V54.4442Z" fill="black"/>
<path opacity="0.1" d="M30.2863 54.4441C30.1237 53.5767 30.0459 52.6955 30.0539 51.8131C30.0434 50.9305 30.1212 50.0491 30.2863 49.182C30.4538 50.0487 30.5317 50.9304 30.5188 51.8131C30.5268 52.6955 30.449 53.5767 30.2863 54.4441V54.4441Z" fill="black"/>
<path opacity="0.1" d="M45.5008 54.4441C45.3358 53.577 45.258 52.6956 45.2683 51.8131C45.2555 50.9304 45.3333 50.0487 45.5008 49.182C45.6659 50.0491 45.7437 50.9305 45.7332 51.8131C45.7412 52.6955 45.6634 53.5767 45.5008 54.4441V54.4441Z" fill="black"/>
</g>
<path opacity="0.1" d="M54.7977 48.5778V49.977L25.0287 50.916V48.5778H54.7977Z" fill="black"/>
<path d="M52.9894 41.9999H23.2158V48.5775H52.9894V41.9999Z" fill="#FFC727"/>
<g opacity="0.1">
<path opacity="0.1" d="M24.443 42.6039C24.7528 44.3443 24.7528 46.1257 24.443 47.866C24.1331 46.1257 24.1331 44.3443 24.443 42.6039Z" fill="black"/>
<path opacity="0.1" d="M26.6605 42.6038C26.8256 43.4708 26.9035 44.3522 26.8929 45.2348C26.9054 46.1175 26.8275 46.9991 26.6605 47.8658C26.3506 46.1255 26.3506 44.3441 26.6605 42.6038V42.6038Z" fill="black"/>
<path opacity="0.1" d="M27.7436 42.6038C28.0535 44.3441 28.0535 46.1255 27.7436 47.8658C27.4338 46.1255 27.4338 44.3441 27.7436 42.6038Z" fill="black"/>
<path opacity="0.1" d="M33.6889 42.6038C33.9988 44.3441 33.9988 46.1255 33.6889 47.8658C33.3791 46.1255 33.3791 44.3441 33.6889 42.6038Z" fill="black"/>
<path opacity="0.1" d="M35.3156 42.6038C35.6255 44.3441 35.6255 46.1255 35.3156 47.8658C35.0058 46.1255 35.0058 44.3441 35.3156 42.6038Z" fill="black"/>
<path opacity="0.1" d="M41.9492 42.6038C42.259 44.3441 42.259 46.1255 41.9492 47.8658C41.6393 46.1255 41.6393 44.3441 41.9492 42.6038V42.6038Z" fill="black"/>
<path opacity="0.1" d="M43.4881 42.6038C43.6509 43.4711 43.7288 44.3523 43.7205 45.2348C43.7307 46.1174 43.6528 46.9987 43.4881 47.8658C43.3211 46.9991 43.2432 46.1175 43.2557 45.2348C43.2451 44.3522 43.323 43.4708 43.4881 42.6038Z" fill="black"/>
<path opacity="0.1" d="M46.3094 42.6038C46.4722 43.4711 46.5501 44.3523 46.5418 45.2348C46.552 46.1174 46.4741 46.9987 46.3094 47.8658C46.1424 46.9991 46.0645 46.1175 46.077 45.2348C46.0687 44.3523 46.1466 43.4711 46.3094 42.6038V42.6038Z" fill="black"/>
<path opacity="0.1" d="M40.6662 42.6038C40.829 43.4711 40.9069 44.3523 40.8986 45.2348C40.9088 46.1174 40.8309 46.9987 40.6662 47.8658C40.4992 46.9991 40.4213 46.1175 40.4338 45.2348C40.4232 44.3522 40.5011 43.4708 40.6662 42.6038V42.6038Z" fill="black"/>
<path opacity="0.1" d="M29.71 42.6038C29.8728 43.4711 29.9507 44.3523 29.9424 45.2348C29.9549 46.1175 29.877 46.9991 29.71 47.8658C29.5453 46.9987 29.4674 46.1174 29.4776 45.2348C29.4693 44.3523 29.5472 43.4711 29.71 42.6038V42.6038Z" fill="black"/>
<path opacity="0.1" d="M37.4167 42.6038C37.7266 44.3441 37.7266 46.1255 37.4167 47.8658C37.1069 46.1255 37.1069 44.3441 37.4167 42.6038Z" fill="black"/>
<path opacity="0.1" d="M38.5232 42.6038C38.6883 43.4708 38.7661 44.3522 38.7556 45.2348C38.768 46.1175 38.6902 46.9991 38.5232 47.8658C38.2133 46.1255 38.2133 44.3441 38.5232 42.6038V42.6038Z" fill="black"/>
<path opacity="0.1" d="M49.9867 42.6038C50.2965 44.3441 50.2965 46.1255 49.9867 47.8658C49.6768 46.1255 49.6768 44.3441 49.9867 42.6038V42.6038Z" fill="black"/>
<path opacity="0.1" d="M51.6506 42.6038C51.8134 43.4711 51.8913 44.3523 51.883 45.2348C51.8932 46.1174 51.8153 46.9987 51.6506 47.8658C51.4836 46.9991 51.4057 46.1175 51.4182 45.2348C51.4099 44.3523 51.4878 43.4711 51.6506 42.6038Z" fill="black"/>
<path opacity="0.1" d="M47.6206 42.6038C47.9304 44.3441 47.9304 46.1255 47.6206 47.8658C47.4536 46.9991 47.3757 46.1175 47.3881 45.2348C47.3776 44.3522 47.4554 43.4708 47.6206 42.6038V42.6038Z" fill="black"/>
<path opacity="0.1" d="M32.4056 42.6038C32.5684 43.4711 32.6463 44.3523 32.638 45.2348C32.6482 46.1174 32.5703 46.9987 32.4056 47.8658C32.2386 46.9991 32.1607 46.1175 32.1732 45.2348C32.1649 44.3523 32.2428 43.4711 32.4056 42.6038V42.6038Z" fill="black"/>
</g>
<path opacity="0.1" d="M52.9848 41.9999V43.3991L23.2158 44.3381V41.9999H52.9848Z" fill="black"/>
<path d="M52.9894 61.7324H23.2158V68.31H52.9894V61.7324Z" fill="#FFC727"/>
<g opacity="0.1">
<path opacity="0.1" d="M51.6506 67.5989C51.4855 66.7318 51.4076 65.8504 51.4182 64.9678C51.4057 64.0852 51.4836 63.2036 51.6506 62.3368C51.8153 63.2039 51.8932 64.0853 51.883 64.9678C51.8913 65.8503 51.8134 66.7315 51.6506 67.5989V67.5989Z" fill="black"/>
<path opacity="0.1" d="M49.4334 67.5989C49.2706 66.7315 49.1928 65.8503 49.201 64.9678C49.1885 64.0852 49.2664 63.2036 49.4334 62.3368C49.5981 63.2039 49.676 64.0853 49.6658 64.9678C49.6741 65.8503 49.5962 66.7315 49.4334 67.5989V67.5989Z" fill="black"/>
<path opacity="0.1" d="M48.3316 67.5989C48.1665 66.7318 48.0886 65.8504 48.0992 64.9678C48.0867 64.0852 48.1646 63.2036 48.3316 62.3368C48.4963 63.2039 48.5742 64.0853 48.564 64.9678C48.5723 65.8503 48.4944 66.7315 48.3316 67.5989V67.5989Z" fill="black"/>
<path opacity="0.1" d="M42.405 67.5989C42.2399 66.7318 42.162 65.8504 42.1726 64.9678C42.1601 64.0852 42.238 63.2036 42.405 62.3368C42.7148 64.0771 42.7148 65.8585 42.405 67.5989V67.5989Z" fill="black"/>
<path opacity="0.1" d="M40.7965 67.5989C40.4866 65.8585 40.4866 64.0771 40.7965 62.3368C41.1063 64.0771 41.1063 65.8585 40.7965 67.5989Z" fill="black"/>
<path opacity="0.1" d="M34.1444 67.5989C33.9792 66.7318 33.9014 65.8504 33.9119 64.9678C33.8995 64.0852 33.9774 63.2036 34.1444 62.3368C34.3091 63.2039 34.3869 64.0853 34.3768 64.9678C34.385 65.8503 34.3072 66.7315 34.1444 67.5989V67.5989Z" fill="black"/>
<path opacity="0.1" d="M32.606 67.5989C32.2962 65.8585 32.2962 64.0771 32.606 62.3368C32.9159 64.0771 32.9159 65.8585 32.606 67.5989V67.5989Z" fill="black"/>
<path opacity="0.1" d="M29.7843 67.5989C29.4744 65.8585 29.4744 64.0771 29.7843 62.3368C29.9513 63.2036 30.0292 64.0852 30.0167 64.9678C30.0272 65.8504 29.9494 66.7318 29.7843 67.5989V67.5989Z" fill="black"/>
<path opacity="0.1" d="M35.4275 67.5989C35.1176 65.8585 35.1176 64.0771 35.4275 62.3368C35.7373 64.0771 35.7373 65.8585 35.4275 67.5989V67.5989Z" fill="black"/>
<path opacity="0.1" d="M46.3838 67.5989C46.0739 65.8585 46.0739 64.0771 46.3838 62.3368C46.5508 63.2036 46.6286 64.0852 46.6162 64.9678C46.6267 65.8504 46.5489 66.7318 46.3838 67.5989V67.5989Z" fill="black"/>
<path opacity="0.1" d="M38.677 67.5989C38.3671 65.8585 38.3671 64.0771 38.677 62.3368C38.9868 64.0771 38.9868 65.8585 38.677 67.5989V67.5989Z" fill="black"/>
<path opacity="0.1" d="M37.5704 67.5989C37.4076 66.7315 37.3297 65.8503 37.338 64.9678C37.3255 64.0852 37.4034 63.2036 37.5704 62.3368C37.7351 63.2039 37.813 64.0853 37.8028 64.9678C37.8111 65.8503 37.7332 66.7315 37.5704 67.5989V67.5989Z" fill="black"/>
<path opacity="0.1" d="M26.1075 67.5989C25.9424 66.7318 25.8645 65.8504 25.8751 64.9678C25.8626 64.0852 25.9405 63.2036 26.1075 62.3368C26.2722 63.2039 26.3501 64.0853 26.3399 64.9678C26.3482 65.8503 26.2703 66.7315 26.1075 67.5989V67.5989Z" fill="black"/>
<path opacity="0.1" d="M24.443 67.599C24.1331 65.8586 24.1331 64.0772 24.443 62.3369C24.61 63.2036 24.6878 64.0853 24.6754 64.9679C24.6859 65.8505 24.6081 66.7319 24.443 67.599Z" fill="black"/>
<path opacity="0.1" d="M28.4731 67.5989C28.1633 65.8585 28.1633 64.0771 28.4731 62.3368C28.783 64.0771 28.783 65.8585 28.4731 67.5989V67.5989Z" fill="black"/>
<path opacity="0.1" d="M43.683 67.5989C43.3731 65.8585 43.3731 64.0771 43.683 62.3368C43.85 63.2036 43.9278 64.0852 43.9154 64.9678C43.9259 65.8504 43.8481 66.7318 43.683 67.5989Z" fill="black"/>
</g>
<path opacity="0.1" d="M52.9848 61.7373V63.1319L23.2158 64.0708V61.7373H52.9848Z" fill="black"/>
<path d="M20.7337 52.0959C40.3317 55.6101 35.144 84.6353 15.5227 81.1211C-4.09861 77.6068 1.10306 48.5723 20.7337 52.0959Z" fill="#FFC727"/>
<path opacity="0.1" d="M20.7337 52.0959C40.3317 55.6101 35.144 84.6353 15.5227 81.1211C-4.09861 77.6068 1.10306 48.5723 20.7337 52.0959Z" fill="black"/>
<path d="M18.8928 51.7662C37.5705 55.1132 32.3735 84.1477 13.6865 80.7915C-5.00043 77.4352 0.187285 48.4054 18.8928 51.7662Z" fill="#FFC727"/>
<path opacity="0.1" d="M4.44519 66.9626C4.54281 72.1317 7.55503 77.1428 14.128 78.3235C29.654 81.1126 33.9538 57.0148 18.4511 54.2304L18.149 54.1839C32.6802 57.0939 28.5151 79.8947 13.7143 77.2404C7.6759 76.1573 4.76594 71.6901 4.44519 66.9626Z" fill="black"/>
<path d="M8 82.2324L24.25 82.1571L40.5 82.1289L73 82.0787L105.5 82.1289L121.75 82.1571L138 82.2324L121.75 82.3108L105.5 82.339L73 82.3892L40.5 82.339L24.25 82.3108L8 82.2324Z" fill="#263238"/>
<path d="M89.3781 27.1071C89.7381 33.6197 89.9982 40.3229 89.3569 46.8173C88.8578 51.878 86.7313 56.0433 81.471 57.2865C76.5919 58.436 69.6437 58.3482 65.5177 55.1146C63.5939 53.6022 62.9254 51.4847 63.0554 49.0951C63.2309 45.7677 65.8595 27.6183 66.643 21.9648C67.1149 18.5164 67.5777 15.0227 68.6606 11.6801C70.9292 4.68961 74.4079 4.55954 74.8979 4.4204C75.3123 4.1542 77.9228 3.15901 81.713 4.36292C82.7 4.67616 83.6099 5.19392 84.3834 5.88243C85.1568 6.57094 85.7765 7.41474 86.202 8.35881C88.9183 13.9791 89.0363 21.012 89.3781 27.1071Z" fill="#263238"/>
<path d="M73.7879 5.58494C69.6287 7.52995 68.6456 12.0703 67.6292 16.1418C66.2287 21.8105 64.9068 27.5033 63.8935 33.2506C63.3974 36.0154 62.9648 38.7892 62.6139 41.5751C62.2812 44.2431 61.7609 47.0865 61.9394 49.7817C62.2419 54.2374 66.3104 56.261 70.2609 56.8962C70.301 56.9039 70.3425 56.8952 70.3762 56.8723C70.41 56.8493 70.4332 56.8138 70.4408 56.7737C70.4485 56.7336 70.4398 56.6921 70.4169 56.6584C70.3939 56.6246 70.3585 56.6014 70.3183 56.5938C68.0678 56.1461 65.781 55.5229 64.0992 53.8532C61.9545 51.7146 62.2025 48.9226 62.4566 46.1427C62.8892 41.4088 63.5879 36.7051 64.4591 32.0346C65.3303 27.3642 66.3648 22.7119 67.484 18.0868C68.5397 13.6826 69.2989 7.88688 73.8363 5.64846C73.8575 5.63334 73.8333 5.56377 73.7879 5.58494Z" fill="#263238"/>
<path d="M88.1168 13.123C87.3273 9.71996 85.5578 6.40165 81.9733 5.41251C86.6044 6.88865 87.7206 11.9523 88.3497 16.1811C89.0011 20.6297 89.4841 25.0985 89.7987 29.5875C90.1012 33.901 90.328 38.2508 90.2464 42.5764C90.1556 47.2468 89.3086 51.6208 86.5499 55.4685C86.5409 55.4844 86.5377 55.503 86.541 55.521C86.5442 55.5391 86.5536 55.5554 86.5676 55.5672C86.5816 55.5791 86.5992 55.5856 86.6176 55.5858C86.6359 55.586 86.6537 55.5798 86.6679 55.5683C89.3903 52.4557 90.2978 48.1664 90.5004 44.1523C90.7878 38.8648 90.446 33.4866 90.0316 28.2142C89.6383 23.217 89.2542 18.0263 88.1168 13.123Z" fill="#263238"/>
<path d="M57.0119 67.7889C58.3096 65.7925 55.1969 63.7719 53.9083 65.7743C52.6197 67.7768 55.7112 69.7884 57.0119 67.7889Z" fill="#263238"/>
<path d="M53.4785 78.2279C52.2322 79.6163 51.6303 81.5008 50.871 83.1736C50.8571 83.2119 50.8525 83.2531 50.8576 83.2936C50.8627 83.3341 50.8774 83.3728 50.9005 83.4065C50.9236 83.4402 50.9543 83.468 50.9902 83.4874C51.0261 83.5069 51.0662 83.5175 51.107 83.5184C51.107 83.5547 51.1372 83.5849 51.1796 83.5728C53.0665 83.0704 54.7886 82.0816 56.1737 80.7052C56.9632 79.8885 57.5772 78.4003 56.5094 77.5019C55.4991 76.6549 54.2075 77.4111 53.4785 78.2279ZM55.1906 77.8165C57.5016 77.6077 56.1283 79.9762 55.5233 80.554C55.1232 80.9219 54.6988 81.2625 54.2529 81.5734C53.3454 82.2328 52.3442 82.7501 51.3732 83.3127C51.7967 82.5141 52.1476 81.6853 52.5378 80.8716C53.0066 79.9006 53.9171 77.9284 55.1906 77.8165Z" fill="#263238"/>
<path d="M74.2054 59.3253C74.2054 59.3253 98.9188 47.8126 109.975 47.8731C123.13 47.9457 133.454 63.4967 117.398 74.8582C103.205 84.9008 58.2642 84.4622 58.2642 84.4622L68.6456 65.5354C68.6456 65.5354 81.0265 60.6442 97.2793 60.0301L74.6258 64.7822L74.2054 59.3253Z" fill="#263238"/>
<path d="M74.6864 63.0822C76.6284 62.5741 78.6188 62.2292 80.5759 61.8723C82.533 61.5154 84.5566 61.1705 86.5531 60.8589C90.5377 60.2251 94.5518 59.793 98.58 59.5643C98.9582 59.5431 99.3363 59.531 99.7144 59.5189C99.7933 59.4877 99.8742 59.4615 99.9564 59.4403C100.147 59.3798 100.334 59.3163 100.528 59.2648C100.885 59.1711 101.248 59.0924 101.608 59.0077C102.361 58.8383 103.12 58.7052 103.865 58.5086C103.91 58.5086 103.934 58.563 103.889 58.5782C103.139 58.802 102.407 59.0743 101.656 59.2951L101.006 59.4826C102.488 59.4524 103.967 59.4614 105.45 59.4826C105.495 59.4826 105.501 59.5552 105.45 59.5552C103.438 59.5794 101.417 59.7095 99.4149 59.888C97.4124 60.0664 95.4402 60.2479 93.4589 60.4929C89.4509 61.0102 85.4581 61.6575 81.4803 62.3653C79.2479 62.7616 77.0125 63.2002 74.762 63.4573C74.5503 63.4967 74.4686 63.1367 74.6864 63.0822Z" fill="#37474F"/>
<path d="M62.8286 83.5759C63.4639 82.3659 63.9902 81.1015 64.5649 79.8674C65.1397 78.6332 65.7144 77.39 66.2952 76.1528C67.4477 73.6875 71.622 65.366 72.0425 64.7731C72.0697 64.7368 72.1332 64.7731 72.1211 64.8155C71.9427 65.4477 69.3564 70.9439 68.7605 72.172C67.5505 74.6252 66.2952 77.0391 65.0489 79.465C64.695 80.1608 64.3229 80.8444 63.96 81.5341C63.597 82.2238 63.2098 82.9044 62.8831 83.6092C62.8828 83.6154 62.8808 83.6215 62.8774 83.6268C62.8741 83.6321 62.8693 83.6365 62.8638 83.6394C62.8582 83.6423 62.852 83.6438 62.8457 83.6436C62.8394 83.6434 62.8333 83.6415 62.8279 83.6383C62.8226 83.635 62.8181 83.6304 62.8151 83.6249C62.812 83.6194 62.8105 83.6132 62.8105 83.6069C62.8106 83.6006 62.8123 83.5944 62.8155 83.589C62.8187 83.5836 62.8232 83.579 62.8286 83.5759V83.5759Z" fill="#37474F"/>
<path d="M121.393 89.7377C121.064 88.6548 102.603 63.0248 101.311 62.5136C101.163 62.444 92.5027 68.3063 92.5027 68.3063C92.1397 68.7661 76.0291 64.9638 76.0291 64.9638L75.406 84.4925L104.917 84.5621C104.917 84.5621 108.849 86.9971 112.446 88.9905C114.66 90.2247 116.62 91.2683 117.183 91.4286C118.662 91.843 121.732 90.8176 121.393 89.7377Z" fill="#F7A9A0"/>
<path d="M117.198 91.4284C116.632 91.2711 114.672 90.2184 112.458 88.9903C108.861 86.9969 104.929 84.5558 104.929 84.5558H98.3619L88.4645 67.7314C90.712 68.1851 92.3968 68.4634 92.5027 68.3152C92.5027 68.3152 101.163 62.4559 101.311 62.5255C102.6 63.0397 121.061 88.6667 121.393 89.7496C121.726 90.8325 118.662 91.8458 117.198 91.4284Z" fill="white"/>
<path d="M98.3499 68.2516C96.9585 66.3187 99.9592 64.1529 101.354 66.0888C102.748 68.0247 99.7444 70.1875 98.3499 68.2516Z" fill="#263238"/>
<path d="M75.2792 58.9593C75.2792 58.9593 50.2844 51.4242 36.9507 53.0153C23.8862 54.5732 18.5261 70.956 31.2639 79.831C45.1784 89.5258 97.5424 86.1319 97.5424 86.1319L86.3503 66.1131C86.3503 66.1131 68.5306 61.9176 52.2627 62.0779L75.1188 65.7471L75.2792 58.9593Z" fill="#263238"/>
<path d="M87.1066 67.4048C87.0943 67.3717 87.0861 67.3371 87.0824 67.302L87.0643 67.2203C87.0643 67.1538 87.034 67.0902 87.0189 67.0267C86.9838 66.8944 86.9414 66.7641 86.8918 66.6365C86.8465 66.5095 86.792 66.3824 86.7376 66.2584C86.6763 66.1357 86.6066 66.0174 86.5288 65.9045C86.5288 65.9045 86.5077 65.9045 86.4986 65.8803L86.4774 65.8651H86.4472H86.42C84.4568 65.4507 71.111 63.2184 69.1236 62.9461C67.1362 62.6739 65.1126 62.4349 63.1041 62.2171C59.0936 61.7746 55.0633 61.5344 51.0287 61.4972C50.6506 61.4972 50.2755 61.4972 49.8974 61.4972C49.816 61.4704 49.7332 61.4482 49.6493 61.4307C49.4587 61.3792 49.2652 61.3248 49.0716 61.2824C48.7086 61.2038 48.3456 61.1433 47.9796 61.0798C47.2203 60.9436 46.4671 60.8438 45.7018 60.6865C45.6565 60.6865 45.6353 60.744 45.6807 60.7561C46.4399 60.9436 47.1931 61.1826 47.9463 61.3611C48.1641 61.4125 48.3819 61.467 48.6027 61.5154C47.1235 61.5577 45.6444 61.6363 44.1652 61.7362C44.1198 61.7362 44.1168 61.8118 44.1652 61.8088C46.1737 61.7392 48.1974 61.7725 50.215 61.8541C52.2326 61.9358 54.2048 62.0266 56.1952 62.1869C60.2213 62.5136 64.2444 62.9703 68.2494 63.4846C70.4969 63.787 84.1029 66.089 86.3655 66.2372H86.3776C86.3951 66.2896 86.4153 66.3411 86.4381 66.3915C86.4956 66.5185 86.5561 66.6395 86.6196 66.7635C86.6831 66.8876 86.7436 66.9965 86.8132 67.1084L86.9221 67.2747L86.9765 67.3564C86.9985 67.3831 87.0169 67.4126 87.031 67.4441C87.0522 67.4835 87.1308 67.4502 87.1066 67.4048Z" fill="#37474F"/>
<path d="M93.3709 84.8341C92.6752 83.6605 92.0884 82.4142 91.4562 81.2043C90.824 79.9943 90.1887 78.7844 89.5535 77.5744C88.283 75.1545 83.7155 67.0538 83.2587 66.4821C83.2284 66.4458 83.1679 66.4821 83.18 66.5275C83.3918 67.1536 86.2352 72.5198 86.8916 73.7146C88.2014 76.1103 89.5838 78.4577 90.945 80.8262C91.3321 81.5007 91.7375 82.1662 92.1307 82.8407C92.5239 83.5153 92.9444 84.1717 93.3074 84.8614C93.3346 84.9128 93.3951 84.8735 93.3709 84.8341Z" fill="#37474F"/>
<path d="M72.0698 31.2695C75.6089 40.4894 81.7495 51.2671 83.9516 52.8461C86.7285 54.8455 101.541 56.1402 102.361 56.1129C104.388 56.0313 105.549 42.4192 103.377 42.4132C100.071 42.4132 90.9754 42.8034 90.1738 42.1772C89.3722 41.5511 83.4767 35.9702 77.3604 29.5997C73.1376 25.2046 69.8768 25.5524 72.0698 31.2695Z" fill="#EB9481"/>
<path d="M101.583 56.137C101.825 56.2217 105.265 57.3803 107.331 57.6737C108.873 57.8945 113.329 58.4057 113.737 56.7329C114.019 55.5926 111.435 54.9815 109.618 54.5096C108.659 54.2616 107.409 53.4721 107.594 52.852C107.918 51.7691 110.389 52.4618 112.047 53.1333C115.253 54.434 119.636 56.9749 121.23 55.2144C121.835 54.549 120.894 53.6294 119.588 52.7794C121.641 53.6869 123.789 54.3796 124.485 53.6657C124.887 53.2604 124.842 52.7885 124.515 52.2863C125.12 52.3952 125.634 52.2863 125.937 51.8538C126.46 51.1278 126.028 50.2234 125.22 49.3461C125.333 49.3181 125.438 49.2634 125.526 49.1866C125.614 49.1098 125.682 49.0131 125.725 48.9045C126.741 46.7417 119.445 41.9836 117.122 41.7688C110.295 41.1336 103.374 42.4131 103.374 42.4131C101.075 44.8542 101.577 56.134 101.583 56.137Z" fill="#EB9481"/>
<path d="M110.438 48.6745C112.045 48.6967 113.629 49.0617 115.084 49.7453C116.917 50.6135 118.212 51.7508 119.8 52.8549C119.842 52.8821 119.8 52.9487 119.757 52.9215C118.998 52.3951 115.894 50.4592 115.102 50.0327C113.668 49.2397 112.071 48.7845 110.435 48.7017C110.416 48.7078 110.419 48.6745 110.438 48.6745Z" fill="#263238"/>
<path d="M111.272 45.7013C113.087 45.9312 114.923 46.158 116.651 46.7509C118.541 47.4013 120.129 48.6717 121.687 49.8877C122.621 50.6198 123.538 51.3719 124.44 52.1443C124.479 52.1776 124.44 52.2411 124.397 52.2109C122.812 50.9485 121.192 49.7385 119.536 48.581C118.004 47.4934 116.274 46.7174 114.442 46.2972C113.396 46.0582 112.325 45.9039 111.269 45.7467C111.263 45.7463 111.258 45.7435 111.254 45.7389C111.25 45.7344 111.248 45.7285 111.248 45.7225C111.248 45.7164 111.251 45.7108 111.256 45.7069C111.26 45.7029 111.266 45.7009 111.272 45.7013V45.7013Z" fill="#263238"/>
<path d="M112.779 42.9879C114.515 43.0968 116.028 43.1845 117.652 43.8742C119.797 44.7817 121.993 46.5391 122.764 47.1592C123.617 47.8429 124.443 48.5567 125.26 49.2767C125.296 49.3039 125.244 49.3644 125.208 49.3341C123.351 47.7557 121.394 46.2987 119.349 44.9722C118.383 44.3252 117.323 43.8314 116.206 43.5082C115.083 43.2422 113.94 43.0722 112.788 43C112.788 43 112.773 42.9879 112.779 42.9879Z" fill="#263238"/>
<path d="M103.317 41.3967L100.573 57.8642C100.573 57.8642 86.5558 55.9253 83.7185 53.6294C80.8811 51.3335 74.3958 38.2568 72.118 31.8017C69.8403 25.3466 73.2221 25.035 76.9034 28.7768C80.5847 32.5186 89.7108 41.5933 90.1736 41.7536C90.6364 41.9139 103.317 41.3967 103.317 41.3967Z" fill="#455A64"/>
<path d="M98.2806 51.0431C98.6194 49.1011 98.9733 47.1591 99.2425 45.202C99.3938 44.0888 99.545 42.9787 99.6932 41.8746C99.6932 41.8323 99.6267 41.8171 99.6176 41.8595C99.2002 43.7984 98.7858 45.7404 98.4561 47.6975C98.1263 49.6546 97.7845 51.5875 97.482 53.5386C97.3096 54.6487 97.1795 55.7589 97.0676 56.866C97.0676 56.8872 97.1009 56.8962 97.107 56.866C97.5909 54.9512 97.9388 53.0002 98.2806 51.0431Z" fill="#263238"/>
<path opacity="0.1" d="M100.839 56.2368L100.564 57.8763C100.564 57.8763 86.5468 55.9373 83.7094 53.6414C80.8721 51.3455 74.3837 38.2689 72.1059 31.8108C70.4422 27.0919 71.8034 25.6521 74.0933 26.6896C80.8176 33.9615 93.5071 47.7973 100.839 56.2368Z" fill="black"/>
<path d="M53.5242 58.8261L86.0327 59.3706L84.4144 48.977C84.4144 48.977 87.0551 46.6902 85.5155 42.3404C84.5082 39.497 79.9497 32.8301 77.6507 30.0593C72.0305 23.3017 68.1374 27.0738 66.5796 28.8131C60.6206 35.4437 53.5242 58.8261 53.5242 58.8261Z" fill="#455A64"/>
<path d="M74.5804 48.8834C75.9944 48.7549 77.4159 48.7306 78.8334 48.8108C79.5382 48.8623 80.2339 48.9439 80.9327 49.0407C81.2836 49.0891 81.6314 49.1284 81.9793 49.1617C82.345 49.2056 82.7146 49.2056 83.0803 49.1617C83.0868 49.1617 83.0929 49.1643 83.0975 49.1688C83.102 49.1733 83.1045 49.1795 83.1045 49.1859C83.1045 49.1923 83.102 49.1985 83.0975 49.203C83.0929 49.2076 83.0868 49.2101 83.0803 49.2101C82.7419 49.2898 82.3982 49.3454 82.0519 49.3765C81.7155 49.4007 81.3779 49.4007 81.0416 49.3765C80.3277 49.3341 79.6138 49.2555 78.8999 49.2041C77.4601 49.1012 76.0202 48.9984 74.5743 48.9984C74.529 49.0014 74.5259 48.8895 74.5804 48.8834Z" fill="#263238"/>
<path d="M71.3772 50.7406C72.5015 50.4116 73.6438 50.147 74.7983 49.9481C75.3761 49.8483 75.9538 49.7847 76.5406 49.7363L77.3755 49.6819C77.678 49.6637 77.9805 49.6819 78.3011 49.6819C78.3344 49.6819 78.3435 49.7273 78.3011 49.7303C77.9986 49.7575 77.7264 49.8362 77.439 49.8815L76.5739 50.0146C75.9962 50.1054 75.4214 50.2022 74.8437 50.2869C73.6851 50.4563 72.5327 50.6378 71.3832 50.8465C71.3287 50.8465 71.3197 50.7557 71.3772 50.7406Z" fill="#263238"/>
<path d="M70.5089 27.3097C70.4877 27.9147 72.2391 32.4218 74.9192 33.0086C75.7903 33.1962 77.0366 28.4713 77.0366 28.4713L77.209 28.1446L79.6077 23.5679L74.8829 18.3621L74.1871 17.6543C74.1871 17.6543 73.6124 18.9519 72.9137 20.5733C72.8804 20.6459 72.8471 20.7215 72.8138 20.8032C72.7806 20.8849 72.7322 20.9786 72.6959 21.0663C72.59 21.3053 72.4811 21.5534 72.3934 21.8014C72.3147 21.9889 72.2361 22.1704 72.1605 22.3731C72.0848 22.5758 72.0032 22.7663 71.9215 22.9781C71.3522 24.388 70.8802 25.8353 70.5089 27.3097V27.3097Z" fill="#EB9481"/>
<path d="M72.9016 20.5733C73.026 22.0738 73.4758 23.5293 74.2196 24.8384C74.9635 26.1475 75.9836 27.2788 77.2091 28.1537L79.6078 23.5679L74.8829 18.3621L74.1872 17.6543C74.1872 17.6543 73.6004 18.9519 72.9016 20.5733Z" fill="#263238"/>
<path d="M88.4949 17.4789C87.4755 26.4961 81.9581 26.9044 80.0251 26.6836C78.2586 26.4809 72.2754 25.5735 72.357 16.4988C72.4387 7.42411 76.9518 5.04654 81.0143 5.30668C85.0767 5.56682 89.5021 8.46165 88.4949 17.4789Z" fill="#EB9481"/>
<path d="M87.3872 15.7785C87.1871 15.7193 86.9903 15.6497 86.7976 15.5698C86.5799 15.5245 86.3833 15.4087 86.2382 15.2402C86.2021 15.1788 86.1877 15.107 86.197 15.0364C86.2063 14.9657 86.2389 14.9002 86.2896 14.8502C86.4048 14.7662 86.5403 14.7144 86.6822 14.7001C86.8241 14.6857 86.9672 14.7093 87.0969 14.7685C87.3776 14.8488 87.6181 15.0311 87.7712 15.2796C87.8029 15.3381 87.8169 15.4047 87.8115 15.471C87.8062 15.5374 87.7817 15.6008 87.7411 15.6536C87.7005 15.7064 87.6454 15.7463 87.5826 15.7684C87.5198 15.7906 87.452 15.7941 87.3872 15.7785V15.7785Z" fill="#263238"/>
<path d="M81.2353 14.6502C81.4447 14.6472 81.6537 14.6321 81.8613 14.6048C82.0835 14.6196 82.3044 14.5612 82.4902 14.4385C82.5412 14.388 82.5739 14.3219 82.5832 14.2507C82.5925 14.1796 82.5779 14.1074 82.5416 14.0454C82.4541 13.9321 82.3379 13.8442 82.2049 13.791C82.072 13.7379 81.9272 13.7213 81.7857 13.743C81.4953 13.7433 81.2152 13.851 80.9995 14.0454C80.944 14.0912 80.9044 14.1533 80.8863 14.2229C80.8681 14.2925 80.8725 14.3661 80.8986 14.4331C80.9247 14.5001 80.9714 14.5572 81.0318 14.5962C81.0923 14.6352 81.1635 14.654 81.2353 14.6502V14.6502Z" fill="#263238"/>
<path d="M82.3511 17.3244C82.3511 17.3002 82.2997 17.3486 82.2967 17.3728C82.2483 17.9775 82.088 18.6881 81.5105 18.8302C81.4923 18.8302 81.4893 18.8635 81.5105 18.8635C82.1999 18.8454 82.4025 17.917 82.3511 17.3244Z" fill="#263238"/>
<path d="M81.8731 16.6105C80.8934 16.4261 80.5971 18.3976 81.5042 18.57C82.4114 18.7423 82.6956 16.7768 81.8731 16.6105Z" fill="#263238"/>
<path d="M81.4706 16.6681C81.2801 16.7528 81.0835 16.9251 80.8658 16.913C80.6481 16.9009 80.4727 16.6681 80.3457 16.4443C80.3457 16.4232 80.3124 16.4443 80.3094 16.4625C80.2459 16.8405 80.3306 17.2487 80.7297 17.3696C81.1289 17.4906 81.4071 17.1821 81.5583 16.8193C81.5915 16.7467 81.5371 16.6348 81.4706 16.6681Z" fill="#263238"/>
<path d="M85.7725 17.7118C85.7725 17.6876 85.8149 17.748 85.8119 17.7722C85.6939 18.377 85.6637 19.0936 86.1838 19.3839C86.1989 19.3839 86.1838 19.4232 86.1838 19.4172C85.5064 19.2146 85.5578 18.2681 85.7725 17.7118Z" fill="#263238"/>
<path d="M86.4133 17.1612C87.4051 17.2428 87.1692 19.2204 86.25 19.1448C85.3308 19.0692 85.5787 17.0916 86.4133 17.1612Z" fill="#263238"/>
<path d="M86.8098 17.3396C86.9549 17.4636 87.085 17.6722 87.2725 17.7085C87.4599 17.7448 87.6716 17.5513 87.8349 17.3638C87.853 17.3426 87.8651 17.3638 87.8621 17.388C87.8288 17.769 87.6565 18.147 87.2845 18.1772C86.9126 18.2074 86.7403 17.8506 86.6949 17.4606C86.6798 17.391 86.7524 17.2912 86.8098 17.3396Z" fill="#263238"/>
<path d="M81.5379 22.3307C81.6528 22.5 81.7586 22.7238 81.9763 22.7873C82.2024 22.8261 82.434 22.8179 82.6567 22.7631C82.6614 22.7611 82.6668 22.7608 82.6717 22.7625C82.6766 22.7641 82.6807 22.7674 82.6833 22.7719C82.6859 22.7764 82.6868 22.7816 82.6858 22.7867C82.6848 22.7917 82.682 22.7963 82.6779 22.7994C82.566 22.8997 82.4291 22.9679 82.2816 22.9967C82.1341 23.0254 81.9816 23.0137 81.8403 22.9627C81.7235 22.9061 81.6261 22.8161 81.5604 22.7042C81.4947 22.5922 81.4637 22.4633 81.4714 22.3337C81.4562 22.3095 81.5046 22.3035 81.5379 22.3307Z" fill="#263238"/>
<path d="M84.387 20.4736C84.387 20.4736 84.387 21.4053 84.3265 21.8378C84.3265 21.8772 84.2145 21.8832 84.0663 21.8711C84.0663 21.8711 84.0663 21.8711 84.0512 21.8711C83.6715 21.8873 83.2947 21.7985 82.9622 21.6144C82.6297 21.4303 82.3544 21.158 82.1667 20.8275C82.1425 20.7822 82.203 20.7459 82.2393 20.7791C82.7366 21.2314 83.367 21.5105 84.0361 21.5747C84.0814 21.4597 83.9847 19.9775 84.0542 19.9836C84.3841 20.0606 84.7024 20.1806 85.001 20.3405C85.0585 18.4016 84.8074 16.4656 84.8951 14.5357C84.8951 14.5205 84.9012 14.5059 84.912 14.4951C84.9228 14.4843 84.9374 14.4783 84.9526 14.4783C84.9679 14.4783 84.9825 14.4843 84.9933 14.4951C85.004 14.5059 85.0101 14.5205 85.0101 14.5357C85.4185 16.5443 85.4003 18.7706 85.3912 20.7852C85.3943 21.0181 84.5624 20.5704 84.387 20.4736Z" fill="#263238"/>
<path d="M84.0325 21.6529C83.7474 21.9784 83.3828 22.2243 82.9741 22.3665C82.75 22.4391 82.5088 22.4391 82.2847 22.3665C81.7978 22.2032 81.816 21.7466 81.9309 21.3626C81.9961 21.1597 82.0843 20.9649 82.194 20.782C82.6982 21.261 83.3424 21.5662 84.0325 21.6529V21.6529Z" fill="#263238"/>
<path d="M82.9741 22.3576C82.75 22.4301 82.5088 22.4301 82.2847 22.3576C81.7978 22.1943 81.816 21.7377 81.9309 21.3536C82.4601 21.4504 82.965 21.8465 82.9741 22.3576Z" fill="#FF9BBC"/>
<path d="M72.363 17.5998C72.9896 17.4205 73.5589 17.0815 74.015 16.6159C74.471 16.1503 74.7982 15.5741 74.9645 14.9439C76.6561 14.5285 78.2073 13.6715 79.4594 12.4605C79.3657 12.6329 78.6972 13.8973 78.3372 14.5295C84.2297 14.4599 86.7585 10.4005 86.7585 10.4005C88.2861 12.5694 88.4494 13.8156 88.6128 14.4509C88.6128 14.4509 89.2662 10.9571 87.8747 8.30126C86.1747 5.04647 83.0742 5.06764 83.0742 5.06764C81.7242 4.48043 80.241 4.26772 78.7804 4.45189C77.3198 4.63606 75.9358 5.21031 74.7739 6.11426C70.3636 9.50517 72.363 17.5998 72.363 17.5998Z" fill="#263238"/>
<path d="M71.8006 19.56C71.9237 19.6369 72.0545 19.7007 72.1908 19.7506C72.3243 19.8031 72.4651 19.8347 72.6083 19.8443C72.793 19.8642 72.9798 19.8435 73.1558 19.7838C73.2933 19.7378 73.4236 19.6726 73.5429 19.5902C73.7128 19.4734 73.8612 19.3281 73.9816 19.1607L73.9664 16.6833C73.9664 16.6833 72.5841 13.5163 71.1866 13.9609C69.789 14.4056 70.4303 18.7281 71.8006 19.56Z" fill="#EB9481"/>
<path d="M71.401 15.186C71.3769 15.186 71.3678 15.2102 71.3859 15.2254C72.3388 15.8545 72.6897 16.9254 72.8711 17.9992C72.6413 17.5545 72.2662 17.2581 71.6612 17.5213C71.6309 17.5364 71.6612 17.5848 71.6793 17.5818C71.8766 17.5594 72.076 17.5997 72.2491 17.6969C72.4223 17.794 72.5605 17.9432 72.6443 18.1232C72.7837 18.4132 72.8912 18.7175 72.9649 19.0307C72.9952 19.1335 73.1736 19.1184 73.1585 19.0035C73.1585 19.0035 73.1585 18.9853 73.1585 18.9762C73.4489 17.6634 72.7955 15.6065 71.401 15.186Z" fill="#263238"/>
<path d="M65.9049 30.486C62.0965 36.5358 54.1804 58.2122 58.5513 61.0556C62.9223 63.899 82.5025 55.2024 87.7355 51.3578C89.2933 50.2143 80.742 40.7706 78.682 40.9188C76.9669 41.0308 69.1506 46.5875 68.8088 46.1428C68.4216 45.6407 68.9963 41.2667 69.6345 33.4383C70.3696 24.3938 67.5867 27.818 65.9049 30.486Z" fill="#EB9481"/>
<path d="M84.1783 36.4418C87.9564 34.4333 89.2329 34.4968 91.5198 31.1089C93.0322 28.8826 95.0861 28.8887 94.7776 31.6595C94.2785 36.1968 89.9377 39.8267 88.0895 40.6343L84.1783 36.4418Z" fill="#EB9481"/>
<path d="M102.21 29.9535C114.152 32.0982 110.997 49.7908 99.0339 47.6461C87.0704 45.5015 90.2435 27.8028 102.21 29.9535Z" fill="#FFC727"/>
<path opacity="0.1" d="M102.21 29.9535C114.152 32.0982 110.997 49.7908 99.0339 47.6461C87.0704 45.5015 90.2435 27.8028 102.21 29.9535Z" fill="black"/>
<path d="M101.088 29.754C112.47 31.7958 109.315 49.4914 97.9116 47.4436C86.5077 45.3957 89.6838 27.7061 101.088 29.754Z" fill="#FFC727"/>
<path opacity="0.1" d="M92.2789 39.016C92.3425 42.168 94.1755 45.2231 98.1835 45.94C107.645 47.637 110.265 32.9511 100.818 31.2572L100.634 31.2269C109.491 33.0025 106.953 46.8989 97.9294 45.2806C94.2421 44.6181 92.4755 41.8988 92.2789 39.016Z" fill="black"/>
<path d="M75.01 44.1372C75.01 44.1372 78.5733 40.0173 82.3847 37.4825C85.0224 35.725 91.1841 32.5428 99.6992 36.6567C101.72 37.6337 103.904 40.4559 100.029 40.0597C97.2732 39.7784 95.6126 38.7681 93.9791 38.8981C93.9791 38.8981 96.3325 42.8305 95.2768 44.8027C94.353 46.5386 93.3067 48.2065 92.146 49.7938C91.8074 49.6468 91.478 49.4791 91.1599 49.2917C91.1599 49.2917 89.9984 51.0522 86.8948 51.8628L75.01 44.1372Z" fill="#EB9481"/>
<path d="M85.1676 36.206C86.8131 36.4238 90.2948 36.938 92.996 38.3476C95.9998 39.9175 101.357 43.7471 100.177 45.9492C99.312 47.5645 97.1371 46.2849 97.1371 46.2849C97.1371 46.2849 99.0186 48.3328 97.9175 49.6123C96.9133 50.786 95.2919 49.694 95.2919 49.694C95.2919 49.694 96.2175 51.1339 95.0348 52.0776C93.6101 53.215 91.898 50.0116 89.463 49.9148C88.9185 49.9027 85.1676 36.206 85.1676 36.206Z" fill="#EB9481"/>
<path d="M90.8151 41.2424C92.3275 41.6991 95.5067 43.6199 97.1371 46.2123C97.1764 46.2728 97.1522 46.3302 97.1068 46.2849C95.2157 44.3644 93.0978 42.6812 90.7999 41.2726C90.7848 41.2635 90.7969 41.2393 90.8151 41.2424Z" fill="#263238"/>
<path d="M89.3207 44.3187C90.5851 44.8481 93.7703 46.9716 95.3342 49.6577C95.3705 49.7182 95.3342 49.7757 95.2979 49.7273C93.5104 47.7116 91.4989 45.9062 89.3026 44.346C89.2875 44.3369 89.3026 44.3127 89.3207 44.3187Z" fill="#263238"/>
<path d="M93.9699 38.8709C95.4067 38.7771 96.4836 39.1068 97.8569 39.4759C98.5334 39.6644 99.2202 39.8139 99.9138 39.9236C100.546 40.0173 101.484 40.1625 101.883 39.5092C102.104 39.1462 101.934 38.6955 101.735 38.3627C101.384 37.896 100.961 37.4876 100.483 37.1528C100.464 37.1376 100.483 37.1074 100.504 37.1195C100.957 37.4182 101.379 37.7629 101.762 38.148C102.021 38.4139 102.192 38.7528 102.252 39.119C102.322 39.9024 101.514 40.3047 100.842 40.3289C100.436 40.33 100.031 40.2895 99.6325 40.2079C99.2514 40.1444 98.8763 40.0597 98.5012 39.9659C97.7329 39.7753 96.9888 39.5394 96.2083 39.3398C95.467 39.16 94.7155 39.0257 93.9578 38.9375C93.9397 38.9163 93.9397 38.8709 93.9699 38.8709Z" fill="#263238"/>
<path d="M98.356 42.4403C97.7511 41.8353 94.8048 39.4154 93.9548 38.9102C93.9526 38.909 93.9507 38.9074 93.9492 38.9055C93.9476 38.9036 93.9464 38.9013 93.9457 38.8989C93.945 38.8965 93.9448 38.894 93.9451 38.8916C93.9453 38.8891 93.9461 38.8867 93.9473 38.8845C93.9485 38.8823 93.9501 38.8804 93.952 38.8788C93.9539 38.8773 93.9562 38.8761 93.9585 38.8754C93.9609 38.8747 93.9634 38.8745 93.9659 38.8747C93.9684 38.875 93.9708 38.8758 93.973 38.8769C95.3342 39.4638 97.8902 41.4148 98.5678 42.0924C99.2454 42.77 100.044 43.6321 100.383 44.5305C100.879 45.8856 100.08 46.4725 99.7777 46.6479C99.4123 46.8601 98.9858 46.9422 98.5678 46.8808C98.0634 46.7776 97.5857 46.5716 97.1642 46.2758C97.1431 46.2607 97.1642 46.2275 97.1824 46.2396C97.8479 46.6025 98.8189 46.8445 99.5206 46.4755C99.6773 46.4005 99.8174 46.295 99.9327 46.1651C100.048 46.0353 100.136 45.8837 100.192 45.7193C100.274 45.3199 100.209 44.9045 100.011 44.5486C99.5838 43.7564 99.0242 43.0432 98.356 42.4403V42.4403Z" fill="#263238"/>
<path d="M76.2439 41.9653L85.4427 54.5126C85.4427 54.5126 60.8835 65.1814 57.8163 61.1371C54.749 57.0928 61.3705 37.7093 64.8885 31.7593C68.963 24.8656 70.0127 26.744 69.8644 32.1919C69.7102 37.8968 68.9086 46.2576 68.9086 46.2576L76.2439 41.9653Z" fill="#455A64"/>
<path d="M61.8125 51.4243C62.8494 50.3729 63.9614 49.3983 65.1398 48.5083C66.305 47.6346 67.5323 46.8471 68.8121 46.1519C69.5411 45.7466 70.2852 45.3776 71.0263 45.0055C71.0505 45.0055 71.0656 45.0297 71.0444 45.0388C69.7594 45.745 68.5161 46.5247 67.3208 47.374C66.125 48.2068 64.9462 49.0589 63.7847 49.93C63.1283 50.4261 62.4931 50.9524 61.8518 51.4667C61.8462 51.4719 61.8387 51.4747 61.8311 51.4744C61.8234 51.4741 61.8162 51.4708 61.8109 51.4652C61.8057 51.4595 61.803 51.4521 61.8032 51.4444C61.8035 51.4368 61.8068 51.4295 61.8125 51.4243Z" fill="#263238"/>
<path d="M76.1654 41.938C76.0444 41.9985 69.4713 45.6556 69.2595 45.8069C69.2595 45.695 69.8131 41.7233 69.8978 41.1425C69.8978 41.085 69.8978 41.0245 69.922 40.967C70.0006 40.7009 70.0853 40.4316 70.1549 40.1594C70.2456 39.8115 70.3334 39.4637 70.4211 39.1158H70.406C70.3031 39.4606 70.1972 39.8025 70.1035 40.1473C70.0551 40.3046 70.0158 40.4498 69.9734 40.6283C70.0218 40.2169 70.0672 39.8085 70.1125 39.3971C70.1821 38.7407 70.2305 38.0843 70.2789 37.4279C70.2789 37.4067 70.2487 37.4037 70.2456 37.4279C70.0823 38.5865 69.8827 39.742 69.7133 40.9005C69.5439 42.059 68.8693 46.3453 68.8784 46.3453C68.8875 46.3453 76.0928 42.1195 76.2138 42.0197C76.2198 42.0116 76.2234 42.0018 76.2239 41.9917C76.2244 41.9815 76.222 41.9715 76.2168 41.9627C76.2116 41.954 76.204 41.947 76.1948 41.9426C76.1857 41.9382 76.1754 41.9366 76.1654 41.938V41.938Z" fill="#263238"/>
<path d="M78.3615 50.8495C77.3451 49.449 76.3378 48.0364 75.27 46.6722C74.665 45.8978 74.0601 45.1204 73.4551 44.349C73.4309 44.3218 73.3764 44.349 73.3976 44.3884C74.3626 45.8343 75.3335 47.2862 76.365 48.6867C77.3965 50.0873 78.4038 51.4908 79.4474 52.8732C80.0524 53.6597 80.6574 54.425 81.2986 55.1751C81.3018 55.1773 81.3056 55.1783 81.3094 55.1782C81.3132 55.1781 81.3169 55.1767 81.3199 55.1744C81.3229 55.1721 81.3251 55.1688 81.3262 55.1651C81.3273 55.1615 81.3272 55.1576 81.3259 55.154C80.4002 53.6748 79.3839 52.2622 78.3615 50.8495Z" fill="#263238"/>
<path d="M85.8148 54.6639C85.476 54.2888 85.0344 53.7382 84.6804 53.3783C84.5867 53.2815 84.508 53.3208 84.5867 53.4237C84.8559 53.7715 85.1009 54.1738 85.3701 54.5338C85.0253 54.6729 84.6744 54.806 84.3296 54.9512L83.1196 55.4534C82.3351 55.776 81.5487 56.0916 80.7602 56.4002C79.163 57.0233 77.5498 57.6121 75.9203 58.1667C72.6684 59.2973 69.3597 60.2575 66.0078 61.0434C65.07 61.2581 64.1263 61.4578 63.1795 61.6241C62.2481 61.8048 61.3082 61.938 60.3633 62.0234C60.3587 62.0252 60.3547 62.0283 60.3519 62.0323C60.349 62.0364 60.3475 62.0412 60.3475 62.0461C60.3475 62.0511 60.349 62.0559 60.3519 62.0599C60.3547 62.064 60.3587 62.0671 60.3633 62.0688C61.1957 62.0845 62.0281 62.035 62.8528 61.9206C63.7149 61.7996 64.577 61.6544 65.43 61.482C67.133 61.1341 68.8149 60.6985 70.4846 60.2176C73.7918 59.2637 77.0557 58.1717 80.2762 56.9416C81.1837 56.5998 82.076 56.2459 82.9714 55.8829C83.4221 55.6984 83.8789 55.5139 84.3175 55.3203C84.7561 55.1267 85.8723 54.7244 85.8148 54.6639Z" fill="#263238"/>
<path d="M92.056 57.6349C92.1525 57.1406 92.211 56.699 92.2608 56.2252C92.3078 55.7548 92.3313 55.2824 92.331 54.8096C92.333 54.3193 92.29 53.8298 92.2023 53.3473C92.1124 52.7838 91.8865 52.2507 91.5442 51.7943C91.3315 51.529 91.0561 51.321 90.7428 51.1888C90.588 51.1248 90.4259 51.0796 90.2603 51.0543C90.1072 51.033 89.9525 51.0261 89.7981 51.0338C89.223 51.078 88.6756 51.2986 88.2305 51.6656C87.8318 51.9863 87.4923 52.3743 87.2273 52.8121C86.9542 53.246 86.7675 53.7287 86.6775 54.2335C86.62 54.5346 86.6443 54.8457 86.7477 55.1343C86.8196 55.3203 86.946 55.4804 87.1103 55.5935C87.2672 55.6975 87.4489 55.758 87.6368 55.7689C87.8302 55.7789 88.0223 55.7321 88.1896 55.6344C88.3333 55.5444 88.4551 55.4235 88.5464 55.2805C88.6931 55.051 88.7925 54.7944 88.8388 54.5259C88.9223 54.0509 88.9223 53.5649 88.8388 53.0899C88.7536 52.6138 88.5704 52.1607 88.3007 51.7592C88.1605 51.5456 87.9709 51.369 87.7479 51.2444C87.5176 51.1191 87.2519 51.0748 86.9933 51.1187C86.5289 51.2223 86.1085 51.4688 85.7913 51.8235C85.1883 52.4861 84.708 53.2506 84.3728 54.0814C84.7657 53.2933 85.2955 52.5812 85.9375 51.9785C86.2364 51.6901 86.6177 51.502 87.0284 51.4404C87.2138 51.4369 87.396 51.4884 87.5522 51.5883C87.7083 51.6882 87.8314 51.8321 87.9059 52.0019C88.0906 52.3658 88.1972 52.7643 88.2188 53.1718C88.2557 53.5752 88.2221 53.982 88.1194 54.3739C88.0761 54.5413 88.0017 54.699 87.9 54.8389C87.8678 54.8816 87.8256 54.9157 87.7772 54.9383C87.7496 54.9471 87.7199 54.9471 87.6924 54.9383C87.6574 54.9336 87.6247 54.9183 87.5988 54.8945C87.5866 54.8735 87.5777 54.8508 87.5724 54.8272C87.552 54.691 87.5631 54.5519 87.6046 54.4207C87.8292 53.6974 88.2947 53.073 88.9237 52.6512C89.1805 52.4707 89.4872 52.3746 89.8011 52.3763C89.8672 52.3799 89.9328 52.3897 89.997 52.4055C90.0501 52.4196 90.1012 52.4402 90.1491 52.467C90.2402 52.5193 90.3166 52.5937 90.3714 52.6834C90.5256 52.9633 90.6155 53.274 90.6346 53.593C90.6694 53.9821 90.6694 54.3737 90.6346 54.7628C90.6002 55.1739 90.5446 55.583 90.4679 55.9883C90.3919 56.3919 90.2954 56.8219 90.1754 57.1904L92.056 57.6349Z" fill="#E5005B"/>
<path opacity="0.1" d="M92.056 57.6349C92.1525 57.1406 92.211 56.699 92.2608 56.2252C92.3078 55.7548 92.3313 55.2824 92.331 54.8096C92.333 54.3193 92.29 53.8298 92.2023 53.3473C92.1124 52.7838 91.8865 52.2507 91.5442 51.7943C91.3315 51.529 91.0561 51.321 90.7428 51.1888C90.588 51.1248 90.4259 51.0796 90.2603 51.0543C90.1072 51.033 89.9525 51.0261 89.7981 51.0338C89.223 51.078 88.6756 51.2986 88.2305 51.6656C87.8318 51.9863 87.4923 52.3743 87.2273 52.8121C86.9542 53.246 86.7675 53.7287 86.6775 54.2335C86.62 54.5346 86.6443 54.8457 86.7477 55.1343C86.8196 55.3203 86.946 55.4804 87.1103 55.5935C87.2672 55.6975 87.4489 55.758 87.6368 55.7689C87.8302 55.7789 88.0223 55.7321 88.1896 55.6344C88.3333 55.5444 88.4551 55.4235 88.5464 55.2805C88.6931 55.051 88.7925 54.7944 88.8388 54.5259C88.9223 54.0509 88.9223 53.5649 88.8388 53.0899C88.7536 52.6138 88.5704 52.1607 88.3007 51.7592C88.1605 51.5456 87.9709 51.369 87.7479 51.2444C87.5176 51.1191 87.2519 51.0748 86.9933 51.1187C86.5289 51.2223 86.1085 51.4688 85.7913 51.8235C85.1883 52.4861 84.708 53.2506 84.3728 54.0814C84.7657 53.2933 85.2955 52.5812 85.9375 51.9785C86.2364 51.6901 86.6177 51.502 87.0284 51.4404C87.2138 51.4369 87.396 51.4884 87.5522 51.5883C87.7083 51.6882 87.8314 51.8321 87.9059 52.0019C88.0906 52.3658 88.1972 52.7643 88.2188 53.1718C88.2557 53.5752 88.2221 53.982 88.1194 54.3739C88.0761 54.5413 88.0017 54.699 87.9 54.8389C87.8678 54.8816 87.8256 54.9157 87.7772 54.9383C87.7496 54.9471 87.7199 54.9471 87.6924 54.9383C87.6574 54.9336 87.6247 54.9183 87.5988 54.8945C87.5866 54.8735 87.5777 54.8508 87.5724 54.8272C87.552 54.691 87.5631 54.5519 87.6046 54.4207C87.8292 53.6974 88.2947 53.073 88.9237 52.6512C89.1805 52.4707 89.4872 52.3746 89.8011 52.3763C89.8672 52.3799 89.9328 52.3897 89.997 52.4055C90.0501 52.4196 90.1012 52.4402 90.1491 52.467C90.2402 52.5193 90.3166 52.5937 90.3714 52.6834C90.5256 52.9633 90.6155 53.274 90.6346 53.593C90.6694 53.9821 90.6694 54.3737 90.6346 54.7628C90.6002 55.1739 90.5446 55.583 90.4679 55.9883C90.3919 56.3919 90.2954 56.8219 90.1754 57.1904L92.056 57.6349Z" fill="black"/>
<path d="M93.9512 78.8654C95.2322 80.6787 94.9719 86.2093 95.7469 86.9844C96.522 87.7594 104.48 87.6805 105.018 87.2242C105.556 86.7679 105.311 84.8113 105.896 84.4896C106.141 84.3638 93.9512 78.8654 93.9512 78.8654Z" fill="#E5005B"/>
<path opacity="0.1" d="M105.902 84.4925C105.809 84.5625 105.73 84.6502 105.672 84.7506C105.613 84.851 105.575 84.9621 105.559 85.0775C101.886 84.6485 98.2949 83.6828 94.9017 82.2112C94.7204 80.8629 94.4542 79.579 93.9512 78.8654C93.9512 78.8683 106.141 84.3668 105.902 84.4925Z" fill="black"/>
<path d="M132.089 78.959C130.489 81.2725 131.355 86.2153 130.577 86.9903C129.799 87.7654 121.844 87.6864 121.309 87.2301C120.774 86.7739 121.016 84.712 120.7 84.32C120.534 84.1065 132.089 78.959 132.089 78.959Z" fill="#E5005B"/>
<path opacity="0.1" d="M132.089 78.959C131.504 79.8218 131.238 81.0531 131.115 82.2932C127.86 83.7338 124.411 84.6878 120.879 85.1243C120.883 84.846 120.822 84.5704 120.7 84.32C120.534 84.1065 132.089 78.959 132.089 78.959Z" fill="black"/>
<path d="M112.576 45.7956C94.7028 45.7956 87.8619 58.325 87.8619 65.6573C87.8619 72.8931 93.0562 85.1886 112.576 85.1886C132.095 85.1886 138.571 74.7737 138.571 65.4906C138.571 56.2076 130.624 45.7956 112.576 45.7956Z" fill="#E5005B"/>
<path d="M119.133 46.7023C119.133 46.7023 126.445 41.0927 134.362 41.7624C137.088 41.9935 132.56 47.9043 132.478 52.5137L119.133 46.7023Z" fill="#E5005B"/>
<path opacity="0.1" d="M129.425 50.2558C129.378 50.5482 131.902 51.6275 132.163 51.4637C132.423 51.2999 132.686 47.6615 134.745 43.7892C135.049 43.2189 129.914 47.1322 129.425 50.2558Z" fill="black"/>
<path opacity="0.3" d="M131.002 64.6542C131.245 64.6167 131.474 64.5108 131.659 64.3488C131.845 64.1867 131.981 63.9751 132.052 63.7387C132.03 64.0311 131.942 64.3146 131.795 64.568C131.647 64.8213 131.444 65.0378 131.201 65.2011C131.165 65.2245 131.183 65.2918 131.23 65.2771C132.628 64.7507 132.476 62.7765 131.984 61.5189C131.958 61.4487 131.932 61.3785 131.9 61.3112C131.587 60.58 131.04 60.0507 130.352 60.1413C128.103 60.466 128.916 64.9583 131.002 64.6542Z" fill="black"/>
<path d="M136.397 58.2578C136.745 59.3078 139.922 58.4538 140.72 59.1206C141.981 60.1647 141.633 73.1329 140.48 74.177C139.834 74.762 136.233 74.1449 135.216 74.8585C134.198 75.5721 136.397 58.2578 136.397 58.2578Z" fill="#E5005B"/>
<path opacity="0.1" d="M140.89 66.3329C140.89 69.4916 140.627 72.0508 140.305 72.0508C139.983 72.0508 139.72 69.4916 139.72 66.3329C139.72 63.1742 139.983 60.6151 140.305 60.6151C140.627 60.6151 140.89 63.1655 140.89 66.3329Z" fill="black"/>
<path opacity="0.3" d="M103.933 50.1972C104.015 50.1767 112.178 48.03 119.779 49.7088L120.537 47.4714C112.078 45.6054 103.392 47.8984 103.026 47.9978L103.936 50.1972L103.48 49.0975L103.933 50.1972Z" fill="black"/>
<path d="M96.2882 77.4966C89.0788 69.2139 93.4922 59.5915 93.6911 59.1792C93.8295 58.8968 93.8502 58.571 93.7484 58.2735C93.6467 57.9759 93.4309 57.731 93.1485 57.5925C92.8662 57.454 92.5404 57.4334 92.2428 57.5351C91.9453 57.6369 91.7003 57.8527 91.5619 58.135C90.5879 60.318 90.0124 62.6576 89.8626 65.0432C89.5146 70.3077 91.2577 75.151 95.3816 78.4443C96.6275 79.424 97.2153 78.5466 96.2882 77.4966Z" fill="white"/>
<path d="M93.1527 55.4881C93.1527 55.7433 93.2284 55.9928 93.3703 56.205C93.5121 56.4172 93.7138 56.5825 93.9496 56.68C94.1855 56.7775 94.4449 56.8029 94.6952 56.7529C94.9455 56.7029 95.1753 56.5798 95.3556 56.3991C95.5358 56.2184 95.6584 55.9883 95.7079 55.7379C95.7573 55.4875 95.7314 55.2281 95.6333 54.9925C95.5352 54.7569 95.3694 54.5556 95.157 54.4143C94.9445 54.2729 94.6948 54.1977 94.4396 54.1983C94.098 54.1991 93.7707 54.3353 93.5295 54.5771C93.2882 54.8189 93.1527 55.1465 93.1527 55.4881Z" fill="white"/>
</svg>
