<svg width="148" height="88" viewBox="0 0 148 88" fill="none" xmlns="http://www.w3.org/2000/svg">
<path d="M8 83.6176L25.4519 83.5411L42.9038 83.5125L77.8077 83.4615L112.712 83.5125L130.163 83.5411L147.615 83.6176L130.163 83.6972L112.712 83.7258L77.8077 83.7768L42.9038 83.7258L25.4519 83.6972L8 83.6176Z" fill="#263238"/>
<g clip-path="url(#clip0_488_1655)">
<path d="M44.6993 25.5528C46.39 13.8819 38.2846 3.05229 26.5954 1.36425C14.9061 -0.323798 4.05958 7.76893 2.36888 19.4399C0.678193 31.1108 8.78361 41.9404 20.4728 43.6284C32.1621 45.3165 43.0086 37.2238 44.6993 25.5528Z" fill="#E5005B"/>
<path opacity="0.1" d="M44.897 23.883C45.4004 12.6424 36.6819 3.12271 25.4237 2.62014C14.1655 2.11757 4.63083 10.8225 4.12747 22.063C3.62412 33.3036 12.3426 42.8233 23.6008 43.3259C34.859 43.8285 44.3937 35.1236 44.897 23.883Z" fill="black"/>
<path d="M43.6015 24.0146C44.1761 13.4892 36.0961 4.49166 25.5542 3.91794C15.0124 3.34423 6.00067 11.4116 5.42606 21.937C4.85144 32.4623 12.9315 41.4599 23.4733 42.0337C34.0152 42.6074 43.0269 34.54 43.6015 24.0146Z" fill="white"/>
<path d="M43.1967 18.9225C34.4905 24.1894 20.1832 32.828 12.1874 37.5645C9.92686 35.6613 8.13897 33.2608 6.96411 30.5514L33.4109 6.0777C35.8818 7.37628 38.0382 9.19901 39.7287 11.418C41.4192 13.6369 42.6029 16.1983 43.1967 18.9225V18.9225Z" fill="#EBEBEB"/>
<path d="M43.6157 23.6331C43.5464 25.7568 43.1194 27.8536 42.3525 29.8357L18.5098 41.0959C17.4707 40.753 16.4635 40.3201 15.4998 39.8024C22.7009 35.6523 35.8617 28.0915 43.6157 23.6331Z" fill="#EBEBEB"/>
<path d="M24.6982 5.2735H24.329V8.16671H24.6982V5.2735Z" fill="#C7C7C7"/>
<path d="M15.8089 7.5505L15.4891 7.73483L16.938 10.2404L17.2578 10.0561L15.8089 7.5505Z" fill="#C7C7C7"/>
<path d="M9.2498 13.9609L9.06519 14.2801L11.5747 15.7267L11.7593 15.4075L9.2498 13.9609Z" fill="#C7C7C7"/>
<path d="M9.68266 22.7902H6.78491V23.1589H9.68266V22.7902Z" fill="#C7C7C7"/>
<path d="M11.5751 30.2193L9.06555 31.666L9.25017 31.9852L11.7597 30.5386L11.5751 30.2193Z" fill="#C7C7C7"/>
<path d="M16.9372 35.7063L15.4896 38.2127L15.8095 38.3968L17.257 35.8905L16.9372 35.7063Z" fill="#C7C7C7"/>
<path d="M24.6982 37.7823H24.329V40.6755H24.6982V37.7823Z" fill="#C7C7C7"/>
<path d="M32.0887 35.7064L31.7689 35.8907L33.2178 38.3963L33.5376 38.212L32.0887 35.7064Z" fill="#C7C7C7"/>
<path d="M37.4484 30.2153L37.2638 30.5346L39.7733 31.9812L39.9579 31.6619L37.4484 30.2153Z" fill="#C7C7C7"/>
<path d="M42.2424 22.7902H39.3446V23.1589H42.2424V22.7902Z" fill="#C7C7C7"/>
<path d="M39.7751 13.9672L37.2656 15.4138L37.4502 15.7331L39.9598 14.2864L39.7751 13.9672Z" fill="#C7C7C7"/>
<path d="M33.2187 7.55349L31.7711 10.0598L32.091 10.244L33.5385 7.73765L33.2187 7.55349Z" fill="#C7C7C7"/>
<path d="M24.7912 6.58216L25.4195 24.2627L23.6057 24.2389L24.2988 6.57785L24.7912 6.58216Z" fill="#E5005B"/>
<path d="M35.8207 16.8076L23.908 24.4006L23.0421 22.8096L35.5853 16.3764L35.8207 16.8076Z" fill="#263238"/>
<path d="M24.5125 23.5922C24.8548 23.5922 25.1322 23.3151 25.1322 22.9734C25.1322 22.6317 24.8548 22.3547 24.5125 22.3547C24.1703 22.3547 23.8928 22.6317 23.8928 22.9734C23.8928 23.3151 24.1703 23.5922 24.5125 23.5922Z" fill="#E5005B"/>
<path d="M136.476 112.047C136.053 110.773 113.4 80.921 111.862 80.353C111.685 80.2763 101.57 87.4609 101.57 87.4609C101.147 88.0135 81.9168 83.9607 81.9168 83.9607L81.7245 107.111L116.761 106.344C116.761 106.344 121.492 109.122 125.822 111.387C127.662 112.42 129.563 113.34 131.514 114.142C133.291 114.618 136.907 113.313 136.476 112.047Z" fill="#EB9481"/>
<path d="M131.538 114.165C129.584 113.368 127.682 112.448 125.846 111.41V111.41C121.515 109.107 116.784 106.367 116.784 106.367L108.985 106.535L96.7623 86.8775C99.4468 87.3534 101.439 87.6451 101.577 87.4609C101.577 87.4609 111.692 80.2686 111.869 80.353C113.408 80.921 136.053 110.765 136.484 112.047C136.914 113.329 133.291 114.618 131.538 114.165Z" fill="white"/>
<path d="M136.684 112.085C136.237 110.78 113.5 80.9517 111.908 80.3607C111.308 80.1304 106.362 83.1854 101.578 87.4609L116.254 106.651C116.254 106.651 129.799 113.812 131.638 114.273C133.476 114.733 137.13 113.39 136.684 112.085Z" fill="#A6A6A6"/>
<path d="M135.161 112.561C131.222 107.656 115.815 87.4992 112.3 82.3487C112.3 82.3027 112.3 82.2873 112.3 82.3487C116.3 87.1231 131.53 107.41 135.207 112.523C135.299 112.607 135.245 112.676 135.161 112.561Z" fill="#263238"/>
<path d="M108.516 87.2383C106.808 84.9815 110.308 82.3334 112.023 84.5901C113.738 86.8468 110.223 89.4873 108.516 87.2383Z" fill="#263238"/>
<path d="M80.863 76.8605H65.1407C65.1407 76.8605 48.6876 68.9697 35.4421 72.1475C20.2505 75.7935 18.3044 94.8297 29.6577 101.561C44.0494 110.089 108.062 108.47 108.062 108.47L94.224 85.043C94.224 85.043 72.9326 80.5756 53.6258 81.205L80.863 84.9125V76.8605Z" fill="#455A64"/>
<path d="M95.1393 86.5781C95.1357 86.5373 95.1357 86.4962 95.1393 86.4553V86.3555C95.1393 86.2864 95.1009 86.2097 95.0855 86.1329C95.0701 86.0562 94.9778 85.8259 94.924 85.6724C94.8701 85.5189 94.7932 85.373 94.724 85.2272C94.6513 85.0821 94.5664 84.9434 94.4701 84.8127C94.4701 84.8127 94.4701 84.8127 94.4317 84.8127C92.0856 84.3751 76.1787 82.1031 73.8172 81.8344C71.4558 81.5658 69.0405 81.3432 66.6483 81.1436C61.8757 80.7305 57.0852 80.5589 52.2952 80.6293H50.9491C50.8568 80.6293 50.7491 80.5833 50.6568 80.5602L49.9645 80.399C49.5338 80.3223 49.0953 80.2532 48.6646 80.1918C47.7569 80.0536 46.8493 79.9538 45.9416 79.785C45.8878 79.785 45.8724 79.8617 45.9416 79.8694C46.8493 80.0767 47.7338 80.3376 48.6415 80.5295L49.4107 80.6984C47.6569 80.7905 45.9032 80.9287 44.1494 81.0822C44.0955 81.0822 44.0955 81.1743 44.1494 81.1743C46.5339 81.0285 48.9415 81.0131 51.326 81.0515C53.7105 81.0899 56.0642 81.1436 58.4333 81.2818C63.2254 81.5581 68.0098 81.9803 72.7788 82.4792C75.4556 82.7632 91.6779 85.1197 94.3624 85.2348H94.4009C94.4206 85.2975 94.4437 85.359 94.4701 85.4191L94.7009 85.8566C94.7778 85.9948 94.8547 86.1253 94.9393 86.2557L95.0701 86.4553L95.1393 86.5474C95.1393 86.5474 95.2009 86.6165 95.2086 86.6472C95.2162 86.6779 95.1778 86.5781 95.1393 86.5781Z" fill="#263238"/>
<path d="M103.07 107.019C102.224 105.653 101.454 104.233 100.685 102.782C99.916 101.331 99.1468 99.9495 98.3237 98.5372C96.7469 95.7201 91.101 86.2558 90.5395 85.5726C90.5395 85.5342 90.4318 85.5726 90.4472 85.6263C90.7164 86.3939 94.247 92.6421 95.0624 94.0698C96.6854 96.8715 98.393 99.6118 100.077 102.383C100.554 103.15 101.054 103.918 101.539 104.732C102.024 105.545 102.547 106.267 102.993 107.096C102.993 107.111 103.1 107.065 103.07 107.019Z" fill="#263238"/>
<path d="M90.3857 87.9368C88.9781 87.5914 87.532 87.3764 86.1013 87.1078L81.8092 86.3018C78.9478 85.7901 76.0812 85.2784 73.2096 84.7666C67.4791 83.7995 61.7255 83.0012 55.9412 82.4639C52.6798 82.1568 49.4107 81.9496 46.1339 81.6963C46.0647 81.6963 46.0724 81.7961 46.1339 81.8038C51.9567 82.0647 57.7718 82.8477 63.5408 83.6767C69.3098 84.5057 74.948 85.3961 80.64 86.3556L85.4552 87.1769C87.0859 87.4609 88.7166 87.8063 90.3549 88.0135C90.4242 88.0366 90.4549 87.9445 90.3857 87.9368Z" fill="#263238"/>
<path d="M76.4171 153.358L102.224 165.01C102.224 165.01 132.991 106.121 133.761 88.0903C134.445 72.7385 123.761 66.8281 89.1473 76.753L80.6861 76.8605V82.6941C84.4013 83.1854 94.3316 84.7436 94.3316 84.7436C101.554 87.4608 103.877 88.5815 103.762 88.8195C85.7782 125.111 76.4171 153.358 76.4171 153.358Z" fill="#455A64"/>
<path d="M108.016 82.341C106.977 83.7304 106.008 85.1734 105.085 86.6472C99.4775 84.2565 93.5473 82.7046 87.4858 82.0417C85.7884 81.8319 84.0808 81.6809 82.363 81.5888C82.2937 81.5888 82.2937 81.6886 82.363 81.6963C88.4459 82.1021 94.4593 83.2255 100.278 85.043C101.885 85.5342 103.462 86.1099 105.047 86.6779C103.939 88.451 102.893 90.2625 101.893 92.0894C100.018 95.5135 98.3308 99.0368 96.8392 102.644C96.0085 104.632 95.2008 106.635 94.4855 108.669C94.4855 108.731 94.5624 108.769 94.5855 108.708C97.7494 101.687 101.195 94.8143 104.923 88.0903C105.977 86.1943 107.077 84.3214 108.108 82.4101C108.139 82.3564 108.054 82.295 108.016 82.341Z" fill="#263238"/>
<path d="M107.893 85.043C105.854 88.8809 104.116 92.9568 102.347 96.9483C100.578 100.94 98.8699 104.924 97.2007 108.938C93.8829 116.941 90.8062 125.037 87.9704 133.224C86.3474 137.83 84.8321 142.512 83.3552 147.187C83.3552 147.248 83.4398 147.279 83.4629 147.187C86.2012 138.92 89.1626 130.73 92.2625 122.624C95.3623 114.518 98.6314 106.459 102.101 98.4988C103.075 96.2677 104.065 94.0391 105.07 91.8131C106.077 89.5871 107.123 87.3765 108.069 85.1274C108.069 84.9893 107.939 84.9125 107.893 85.043Z" fill="#263238"/>
<path d="M65.3023 78.7334C65.8868 79.3091 101.801 78.9637 101.977 78.7334C102.447 78.104 97.07 55.5216 93.0317 46.9553C87.8627 35.9788 85.1321 35.0653 83.4937 34.4513C81.3007 33.8328 78.9813 33.8142 76.7787 34.3975C75.7633 34.8504 71.4712 39.9856 70.2636 44.0615C67.8406 52.2439 64.7869 78.2268 65.3023 78.7334Z" fill="#E5005B"/>
<path d="M89.5319 37.276C105.385 48.3753 119.3 64.0494 118.177 69.1923C116.992 74.6268 106.493 81.0131 97.0854 82.5483C95.1624 82.863 88.7089 68.9006 90.6703 68.179C92.2087 67.6264 99.1315 65.4081 99.9622 64.4179C100.524 63.727 89.1319 48.7898 85.3475 40.9143C81.34 32.6781 85.3014 34.3054 89.5319 37.276Z" fill="#EB9481"/>
<path d="M94.647 67.6264C94.647 67.6264 88.7627 68.394 84.9321 69.1002C82.8014 69.4916 79.2016 70.4742 77.7632 71.4797C75.6172 72.9765 67.5791 80.5986 69.3944 82.5867C71.0328 84.3828 73.3173 81.3816 73.3173 81.3816C73.3173 81.3816 70.5097 84.4519 72.6865 85.7031C74.8633 86.9543 77.4786 82.8016 77.4786 82.8016C77.4786 82.8016 74.2711 85.8259 76.7094 86.9773C78.8324 87.9752 82.3553 83.4617 82.3553 83.4617C82.3553 83.4617 78.6401 86.2711 80.7169 87.5069C83.0245 88.8732 89.1781 82.7709 89.1781 82.7709C93.1161 83.2194 97.1047 82.8243 100.878 81.6118C101.508 81.4046 94.647 67.6264 94.647 67.6264Z" fill="#EB9481"/>
<path d="M76.617 83.8148L77.2862 82.863C77.7019 82.231 78.1539 81.6236 78.64 81.0438C79.1246 80.4912 79.6323 79.9615 80.1784 79.4396C80.7245 78.9176 81.3476 78.4033 81.886 77.843C81.8892 77.8363 81.8939 77.8305 81.8998 77.8261C81.9057 77.8217 81.9126 77.8187 81.9199 77.8174C81.9271 77.8162 81.9346 77.8167 81.9417 77.8189C81.9487 77.8212 81.9551 77.825 81.9603 77.8303C81.9655 77.8355 81.9694 77.8419 81.9717 77.8489C81.9739 77.8559 81.9744 77.8634 81.9732 77.8706C81.9719 77.8779 81.9689 77.8847 81.9645 77.8906C81.96 77.8965 81.9542 77.9012 81.9476 77.9044C81.4043 78.4523 80.8908 79.0288 80.4092 79.6315L78.9708 81.3739C78.5016 81.9496 78.0016 82.4792 77.517 83.0395C77.2785 83.3159 77.0478 83.6076 76.8247 83.8916C76.6228 84.1771 76.3991 84.4465 76.1555 84.6975L76.1017 84.6592C76.2468 84.3624 76.4194 84.0797 76.617 83.8148Z" fill="#263238"/>
<path d="M72.748 82.0264C73.478 80.8287 74.2929 79.6846 75.1863 78.6029C76.0927 77.5244 77.1054 76.5394 78.2093 75.6631C78.2179 75.659 78.2276 75.6576 78.237 75.6592C78.2464 75.6608 78.2551 75.6653 78.2618 75.6721C78.2686 75.6788 78.273 75.6874 78.2746 75.6968C78.2763 75.7062 78.2749 75.7159 78.2708 75.7245C77.3631 76.8068 76.4401 77.8737 75.5248 78.933C75.071 79.4549 73.1018 81.8882 72.8634 82.1185C72.8018 82.1722 72.7172 82.0878 72.748 82.0264Z" fill="#263238"/>
<path d="M80.2169 85.5956C80.9305 84.4858 81.7168 83.4242 82.5707 82.4178C83.5278 81.4706 84.5564 80.5981 85.6474 79.808C85.6561 79.8039 85.6657 79.8026 85.6751 79.8042C85.6845 79.8058 85.6932 79.8103 85.7 79.817C85.7067 79.8238 85.7112 79.8324 85.7128 79.8418C85.7144 79.8512 85.7131 79.8608 85.709 79.8694C84.7475 80.8136 83.7706 81.7347 82.8629 82.7325C82.4168 83.2161 80.7554 85.2425 80.2861 85.6647C80.2631 85.7031 80.1938 85.6494 80.2169 85.5956Z" fill="#263238"/>
<path d="M107.208 51.0235L95.67 59.0294C95.67 59.0294 86.4858 45.8039 84.009 39.479C81.5322 33.1541 84.1782 33.0543 90.5164 37.4909C96.8546 41.9276 107.208 51.0235 107.208 51.0235Z" fill="#E5005B"/>
<path d="M104.477 49.4269C101.422 51.9234 98.2161 54.2305 94.8777 56.3352C94.8393 56.3352 94.7931 56.2968 94.8393 56.2661C95.7161 55.6981 100.408 52.0137 104.431 49.3578C104.477 49.3194 104.531 49.3885 104.477 49.4269Z" fill="#263238"/>
<path d="M70.1327 37.4525C57.7795 44.3608 46.2877 52.6815 44.2108 58.2542C42.934 61.762 44.857 67.9795 46.38 71.71C47.1492 73.5215 64.2638 65.8072 62.7715 64.3335C59.0794 60.6797 58.4564 59.1829 58.8179 58.4077C59.0409 57.9164 72.4019 45.5583 76.0786 40.07C81.2091 32.4172 75.5325 34.4359 70.1327 37.4525Z" fill="#EB9481"/>
<path d="M69.9173 81.1282C68.302 82.1031 66.2406 77.9351 66.2406 77.9351C66.2054 78.7444 65.887 79.5158 65.3406 80.115C64.333 81.1206 62.3023 79.9845 62.3023 79.9845C62.0887 80.8159 61.6306 81.5645 60.987 82.1338C59.9178 83.0012 57.7102 82.1338 57.7102 82.1338C57.0889 82.7874 56.2543 83.1984 55.3565 83.2928C52.9489 83.4464 50.8029 80.4605 49.4183 78.5722C48.0337 76.6839 45.88 70.052 45.3416 68.8238L57.3871 59.8584C57.3871 59.8584 66.0021 66.5441 67.3098 68.9927C68.3789 71.0728 72.348 79.6698 69.9173 81.1282Z" fill="#EB9481"/>
<path d="M66.233 77.8737C65.499 75.4207 64.4656 73.067 63.1562 70.8656C63.1562 70.8196 63.0562 70.8656 63.0793 70.9117C64.3177 73.107 65.0023 75.6784 66.156 77.9198C66.1641 77.9221 66.1726 77.9227 66.1809 77.9216C66.1893 77.9205 66.1973 77.9177 66.2045 77.9133C66.2117 77.909 66.218 77.9033 66.2228 77.8965C66.2277 77.8897 66.2312 77.8819 66.233 77.8737V77.8737Z" fill="#263238"/>
<path d="M62.3946 79.831C62.1962 79.2852 61.9245 78.7688 61.587 78.2959C61.2639 77.7662 60.9255 77.2519 60.587 76.7607C59.905 75.7372 59.1948 74.7138 58.4564 73.6903C58.4564 73.6443 58.3487 73.6903 58.3794 73.6903C59.064 74.7189 59.7255 75.7551 60.3639 76.8144C60.6793 77.344 60.9947 77.8737 61.3024 78.4033C61.5657 78.926 61.8828 79.4199 62.2485 79.8771C62.2594 79.8889 62.2734 79.8974 62.2889 79.9015C62.3045 79.9056 62.3209 79.9053 62.3362 79.9004C62.3516 79.8956 62.3652 79.8865 62.3755 79.8742C62.3859 79.8619 62.3925 79.8469 62.3946 79.831V79.831Z" fill="#263238"/>
<path d="M57.6487 82.1031C57.4591 81.6099 57.1859 81.1529 56.8411 80.7522L55.8873 79.3551C55.2565 78.4264 54.6258 77.4899 54.0258 76.5381C54.0258 76.4844 53.9181 76.5381 53.9489 76.5765C54.5489 77.5513 55.1411 78.5338 55.7565 79.501C56.0565 79.9769 56.3565 80.4528 56.6641 80.921C56.9033 81.3771 57.2209 81.7876 57.6026 82.1338L57.6487 82.1031Z" fill="#263238"/>
<path d="M52.3029 47.815L61.7947 56.5117C61.7947 56.5117 73.5403 45.4355 76.8402 39.4943C80.14 33.5532 77.5401 33.108 70.6866 36.6466C63.8331 40.1852 52.3029 47.815 52.3029 47.815Z" fill="#E5005B"/>
<path d="M52.3029 47.815L61.7947 56.5117C61.7947 56.5117 73.5403 45.4355 76.8402 39.4943C80.14 33.5532 77.5401 33.108 70.6866 36.6466C63.8331 40.1852 52.3029 47.815 52.3029 47.815Z" fill="#E5005B"/>
<path d="M63.6331 54.1015C60.6777 51.6794 57.8799 49.072 55.2565 46.2952C55.2181 46.2952 55.2565 46.2107 55.3104 46.2491C56.018 46.9706 60.4024 50.7318 63.6946 54.0401C63.7638 54.0785 63.6715 54.1322 63.6331 54.1015Z" fill="#263238"/>
<path d="M71.3712 41.8662C70.9405 42.864 70.5097 43.8619 70.1559 44.8905C70.1597 44.8214 70.1597 44.7522 70.1559 44.6832C70.1885 44.0597 70.263 43.4391 70.379 42.8256C70.379 42.7566 70.2867 42.7335 70.279 42.8256C70.1559 43.4397 70.0482 44.0614 69.9713 44.6909C69.9328 44.9902 69.9174 45.2896 69.9021 45.589C69.9021 45.589 69.9021 45.658 69.9021 45.6964C69.5021 47.0627 69.2636 48.4521 68.9252 49.826C68.9252 49.8951 69.0175 49.9181 69.0329 49.826C69.3636 48.4751 69.8636 47.1625 70.2943 45.8423C70.7251 44.522 71.0635 43.1787 71.4712 41.8585C71.4558 41.8508 71.3943 41.8201 71.3712 41.8662Z" fill="#263238"/>
<path d="M77.8093 40.5843C79.8477 41.0755 83.3629 37.9745 84.7321 35.4645C84.8244 35.2879 84.5705 33.4687 84.3628 31.2351C84.2398 29.8841 84.1398 28.372 84.1398 26.9903C84.1398 26.7063 75.4325 29.0628 75.4325 29.0628C75.9194 30.7964 76.1932 32.5826 76.2478 34.3822C76.2476 34.5732 76.227 34.7636 76.1863 34.9502C76.1888 34.9808 76.1888 35.0117 76.1863 35.0423C76.0171 36.1246 75.8402 40.1084 77.8093 40.5843Z" fill="#EB9481"/>
<path d="M83.6321 27.021C83.2167 29.3622 81.7322 35.0116 77.0863 35.096C76.7904 35.1065 76.4941 35.0885 76.2017 35.0423C76.2017 35.0039 76.2017 34.9809 76.2017 34.9502C76.2408 34.7632 76.264 34.5731 76.2709 34.3822C76.2156 32.5821 75.9391 30.7957 75.4479 29.0628C75.4479 29.0628 81.7399 27.3588 83.6321 27.021Z" fill="#263238"/>
<path d="M83.7014 15.5149C85.2398 18.3473 85.3859 27.3895 83.6245 29.7613C81.0708 33.2078 76.0172 34.4973 72.8558 31.2351C69.6944 27.9728 69.779 16.2902 71.8558 14.0411C74.8864 10.7251 81.4554 11.3546 83.7014 15.5149Z" fill="#EB9481"/>
<path d="M76.8401 23.5899C76.8401 23.5899 76.8863 23.5899 76.8863 23.6436C76.8863 24.2577 76.9786 24.9562 77.5324 25.1788C76.8401 25.102 76.7247 24.1733 76.8401 23.5899Z" fill="#263238"/>
<path d="M77.3556 22.9451C78.3325 22.853 78.4555 24.8104 77.5479 24.9025C76.6402 24.9946 76.5325 23.0296 77.3556 22.9451Z" fill="#263238"/>
<path d="M73.4172 23.8202C73.4172 23.8202 73.3711 23.8202 73.3711 23.8739C73.4326 24.4803 73.3711 25.1865 72.8557 25.4091C73.5249 25.317 73.5634 24.4036 73.4172 23.8202Z" fill="#263238"/>
<path d="M72.8327 23.2138C71.8481 23.2138 71.8943 25.1711 72.8327 25.1788C73.7711 25.1865 73.6557 23.2291 72.8327 23.2138Z" fill="#263238"/>
<path d="M78.1708 21.3332C77.8939 21.3332 77.6324 21.2795 77.3632 21.2488C77.0749 21.2611 76.7908 21.1774 76.5555 21.0108C76.4936 20.9431 76.455 20.8575 76.4453 20.7663C76.4356 20.6752 76.4553 20.5833 76.5017 20.5042C76.6213 20.3638 76.7763 20.2577 76.9508 20.197C77.1252 20.1363 77.3127 20.1231 77.4939 20.1588C77.8686 20.1756 78.2242 20.3285 78.4939 20.5886C78.5516 20.652 78.5898 20.7307 78.6038 20.8151C78.6179 20.8996 78.6072 20.9864 78.5731 21.0649C78.539 21.1435 78.4829 21.2106 78.4116 21.2582C78.3402 21.3058 78.2566 21.3318 78.1708 21.3332V21.3332Z" fill="#263238"/>
<path d="M71.8404 21.8398C72.1019 21.7716 72.3588 21.687 72.6096 21.5865C72.9048 21.547 73.1769 21.4058 73.3788 21.1873C73.4276 21.109 73.4488 21.0166 73.4391 20.9248C73.4293 20.833 73.3891 20.7471 73.3249 20.6807C73.1719 20.5584 72.9869 20.4825 72.7919 20.4621C72.5969 20.4416 72.4001 20.4776 72.225 20.5656C71.8592 20.6613 71.5416 20.8881 71.3327 21.2027C71.2927 21.2791 71.2758 21.3654 71.284 21.4512C71.2922 21.537 71.3252 21.6186 71.3789 21.686C71.4327 21.7535 71.5049 21.8039 71.5868 21.8312C71.6687 21.8585 71.7568 21.8615 71.8404 21.8398V21.8398Z" fill="#263238"/>
<path d="M78.1863 29.1779C78.0478 29.3315 77.917 29.5387 77.694 29.5694C77.4679 29.5768 77.2427 29.5376 77.0325 29.4543C77.0325 29.4543 76.994 29.4543 77.0325 29.4543C77.1241 29.5652 77.2436 29.6499 77.3787 29.6998C77.5138 29.7497 77.6597 29.763 77.8017 29.7383C77.9243 29.6988 78.0323 29.6236 78.1118 29.5224C78.1913 29.4212 78.2387 29.2985 78.2478 29.1703C78.2478 29.1703 78.2093 29.1549 78.1863 29.1779Z" fill="#263238"/>
<path d="M77.4324 27.3971C77.2936 27.6469 77.1043 27.8653 76.8766 28.0384C76.6489 28.2115 76.3876 28.3355 76.1094 28.4027C75.8577 28.4638 75.5992 28.4922 75.3402 28.4871H75.1941H75.0633C75.0303 28.4824 74.9997 28.4672 74.9761 28.4437C74.9525 28.4201 74.9372 28.3896 74.9325 28.3566V28.3566V28.2415C74.8864 27.7732 74.8941 27.0594 74.8941 27.0594C74.7249 27.1515 73.8788 27.5967 73.8711 27.3511C73.8009 25.2391 73.9426 23.1253 74.2941 21.0415C74.2985 21.0297 74.3064 21.0196 74.3167 21.0125C74.327 21.0053 74.3393 21.0015 74.3518 21.0015C74.3644 21.0015 74.3766 21.0053 74.3869 21.0125C74.3973 21.0196 74.4051 21.0297 74.4095 21.0415C74.4864 22.9988 74.2249 24.9485 74.271 26.9135C74.5743 26.7517 74.8976 26.6304 75.2325 26.5528C75.3018 26.5528 75.2325 27.9344 75.2325 28.1417C75.6173 28.1594 76.0017 28.1007 76.3635 27.9689C76.7253 27.8372 77.0573 27.635 77.3401 27.3741C77.417 27.3127 77.4709 27.3511 77.4324 27.3971Z" fill="#263238"/>
<path d="M75.6249 28.2415C75.903 28.5602 76.2576 28.8032 76.6556 28.9477C76.8759 29.0166 77.1122 29.0166 77.3325 28.9477C77.8094 28.7865 77.794 28.3413 77.6863 27.9651C77.624 27.7667 77.5388 27.5761 77.4325 27.3971C76.9362 27.8646 76.3025 28.1606 75.6249 28.2415V28.2415Z" fill="#263238"/>
<path d="M76.6555 28.9323C76.8759 29.0013 77.1121 29.0013 77.3324 28.9323C77.8093 28.7711 77.7939 28.3259 77.6862 27.9498C77.429 27.9747 77.1876 28.0851 77.0007 28.2632C76.8138 28.4414 76.6922 28.677 76.6555 28.9323V28.9323Z" fill="#FF98B9"/>
<path d="M71.2173 18.0863C74.4249 19.7597 78.1401 16.2134 78.1401 16.2134C78.4693 16.83 78.9895 17.3238 79.623 17.6212C80.2565 17.9187 80.9694 18.0037 81.6553 17.8637C81.6553 17.8637 82.8322 22.807 84.1475 22.6381C86.1628 22.3848 85.9782 15.4842 85.1859 14.1946C84.8816 13.7972 84.4984 13.4667 84.0604 13.2237C83.6223 12.9807 83.1387 12.8304 82.6399 12.7823C82.3524 11.9937 81.7787 11.3417 81.0323 10.9554C79.4939 10.065 74.9479 12.0454 74.9479 12.0454C74.6051 11.4287 74.1199 10.9024 73.5326 10.5102C73.3922 10.4154 73.234 10.3499 73.0676 10.3174C72.9012 10.285 72.73 10.2864 72.5641 10.3215C72.3982 10.3566 72.2412 10.4247 72.1023 10.5218C71.9634 10.6188 71.8456 10.7428 71.7558 10.8863C72.057 11.2249 72.2731 11.6301 72.3865 12.0684C72.8019 13.5038 71.6173 13.642 71.4558 12.314C71.3791 11.8176 71.4857 11.3102 71.7558 10.8863C71.0635 10.1187 70.0635 9.91918 69.5328 10.4565C68.5405 11.4851 68.5559 16.7277 71.2173 18.0863Z" fill="#263238"/>
<path d="M72.3865 26.5144C71.4711 26.5758 70.6481 25.5089 70.5558 24.1349C70.4635 22.7609 71.1173 21.5788 72.0327 21.5174C72.948 21.456 73.7634 22.5229 73.8634 23.8969C73.9633 25.2709 73.3018 26.4453 72.3865 26.5144ZM72.0557 21.8551C71.325 21.9012 70.802 22.9144 70.8866 24.1119C70.9712 25.3093 71.6558 26.2304 72.3634 26.1767C73.0711 26.1229 73.6172 25.1174 73.5249 23.92C73.4326 22.7225 72.7788 21.8014 72.0557 21.8551Z" fill="#E5005B"/>
<path d="M77.9939 26.1153C77.494 26.1849 76.9847 26.1028 76.5322 25.8796C76.0797 25.6565 75.7049 25.3027 75.4566 24.8642C75.2082 24.4257 75.0979 23.9228 75.1398 23.4208C75.1817 22.9189 75.374 22.4411 75.6917 22.0497C76.0093 21.6583 76.4376 21.3713 76.9209 21.226C77.4042 21.0807 77.9201 21.0839 78.4016 21.2351C78.883 21.3863 79.3077 21.6786 79.6205 22.0739C79.9333 22.4692 80.1196 22.9493 80.1553 23.4517C80.22 24.0905 80.0291 24.7288 79.6243 25.2277C79.2194 25.7266 78.6334 26.0456 77.9939 26.1153V26.1153ZM77.6632 21.4483C77.2238 21.4448 76.7936 21.5735 76.4287 21.8178C76.0638 22.062 75.7812 22.4103 75.6178 22.8173C75.4543 23.2243 75.4176 23.671 75.5125 24.0991C75.6074 24.5272 75.8295 24.9168 76.1497 25.217C76.4699 25.5172 76.8734 25.7141 77.3075 25.7819C77.7416 25.8497 78.1861 25.7854 78.5829 25.5972C78.9798 25.4091 79.3105 25.1059 79.5321 24.7273C79.7536 24.3486 79.8555 23.9121 79.8246 23.4748C79.8045 22.921 79.5662 22.3974 79.1615 22.018C78.7567 21.6385 78.2183 21.4338 77.6632 21.4483V21.4483Z" fill="#E5005B"/>
<path d="M75.5786 23.5515C74.2941 23.1984 73.7557 23.6513 73.7557 23.6513L73.5249 23.4057C73.5249 23.4057 74.1864 22.8223 75.6633 23.2291L75.5786 23.5515Z" fill="#E5005B"/>
<path d="M79.9707 23.2445L79.8861 22.9144C80.1015 22.8607 85.1397 21.5558 85.6935 21.4867C86.4498 21.5711 87.1832 21.7977 87.855 22.1545L87.7165 22.4539C87.1035 22.1389 86.4439 21.9238 85.7628 21.8168V21.8168C85.3013 21.8705 81.7783 22.7763 79.9707 23.2445Z" fill="#E5005B"/>
<path d="M83.263 22.9912C83.263 22.9912 84.7321 19.8057 86.1474 20.2816C87.5628 20.7575 86.8089 25.1251 85.3782 25.9618C85.2055 26.0839 85.0094 26.1692 84.8022 26.2123C84.5949 26.2553 84.381 26.2553 84.1738 26.212C83.9666 26.1688 83.7705 26.0833 83.5979 25.961C83.4253 25.8387 83.2799 25.6822 83.1707 25.5012L83.263 22.9912Z" fill="#EB9481"/>
<path d="M85.8244 36.0709C84.9152 37.2781 83.9394 38.4338 82.9014 39.5327C81.9449 40.6075 80.6661 41.3452 79.2554 41.6359C77.8863 41.8201 76.5017 41.6359 75.9248 39.9318C75.5015 38.5028 75.4042 36.9973 75.6402 35.5259C75.6402 35.4491 75.5402 35.4338 75.5325 35.5259C75.3095 37.7442 75.1249 41.16 77.1632 41.8355C79.4708 42.603 81.5861 41.3519 83.0937 39.7399C84.1486 38.6366 85.0797 37.4218 85.8705 36.1169C85.8705 36.1169 85.8474 36.0478 85.8244 36.0709Z" fill="#263238"/>
<path d="M99.5622 86.1483H58.2949V87.9982H99.5622V86.1483Z" fill="#263238"/>
<path d="M88.9704 87.9905H48.7492L45.4032 60.7335H85.6167L88.9704 87.9905Z" fill="#263238"/>
<path d="M69.6328 74.3659C69.64 74.6851 69.5829 75.0026 69.465 75.2995C69.347 75.5964 69.1706 75.8666 68.9461 76.0942C68.7216 76.3218 68.4536 76.5022 68.158 76.6246C67.8624 76.747 67.5452 76.8089 67.2252 76.8068C66.5734 76.803 65.9486 76.546 65.4834 76.0904C65.0181 75.6347 64.749 75.0162 64.733 74.3659C64.7258 74.0462 64.7829 73.7284 64.9007 73.4311C65.0186 73.1338 65.1949 72.863 65.4193 72.6348C65.6437 72.4066 65.9116 72.2256 66.2072 72.1023C66.5028 71.9791 66.8202 71.9161 67.1406 71.9173C67.7938 71.9211 68.4196 72.1791 68.8851 72.6364C69.3505 73.0937 69.6188 73.7142 69.6328 74.3659V74.3659Z" fill="white"/>
</g>
<defs>
<clipPath id="clip0_488_1655">
<rect width="135" height="88" fill="white" transform="translate(2)"/>
</clipPath>
</defs>
</svg>
