<svg width="148" height="88" viewBox="0 0 148 88" fill="none" xmlns="http://www.w3.org/2000/svg">
<path d="M0 83.1635L18.4855 83.0825L36.9709 83.0522L73.9419 82.9982L110.913 83.0522L129.398 83.0825L147.884 83.1635L129.398 83.2478L110.913 83.2782L73.9419 83.3321L36.9709 83.2782L18.4855 83.2478L0 83.1635Z" fill="#263238"/>
<path d="M35.9895 41.6161C38.9574 54.5299 45.0956 70.0104 47.7162 72.523C51.0315 75.7 72.9638 81.528 74.0565 81.646C76.7546 81.9192 82.1947 62.4219 79.3077 62.0004C74.9233 61.3663 58.9505 60.4995 57.996 59.5181C57.0415 58.5366 50.2625 49.9904 43.3351 40.3884C38.5527 33.7545 34.1447 33.6027 35.9895 41.6161Z" fill="#EB9481"/>
<path d="M71.8846 80.5936C72.205 80.7554 76.7884 83.0623 79.6214 83.8819C81.7361 84.4957 87.8675 86.0977 88.7748 83.8347C89.3953 82.2967 85.8979 80.9308 83.4494 79.9089C82.1576 79.3693 80.5658 78.0202 80.9469 77.1905C81.6214 75.7403 84.9367 77.1905 87.1222 78.4654C91.3481 80.9207 96.977 85.3422 99.5571 83.1871C100.532 82.3777 99.3986 80.9005 97.7426 79.4536C100.441 81.1399 103.301 82.5227 104.417 81.6661C105.061 81.177 105.092 80.5059 104.734 79.7436C105.564 80.0135 106.296 79.9595 106.808 79.4064C107.682 78.489 107.257 77.14 106.299 75.7538C106.463 75.7368 106.621 75.6808 106.76 75.5905C106.898 75.5001 107.013 75.3781 107.095 75.2344C108.947 72.4115 99.6752 64.3071 96.4745 63.5482C87.048 61.3054 77.1122 61.7236 77.1122 61.7236C73.409 64.6949 71.8745 80.5868 71.8846 80.5936Z" fill="#EB9481"/>
<path d="M85.7459 71.9161C87.9904 72.2667 90.1346 73.091 92.0359 74.3343C94.4271 75.9127 96.0122 77.7609 98.0156 79.6192C98.0235 79.6298 98.0276 79.6427 98.0271 79.6559C98.0266 79.6691 98.0216 79.6817 98.0128 79.6916C98.0041 79.7015 97.9923 79.7081 97.9792 79.7103C97.9662 79.7125 97.9528 79.7101 97.9414 79.7035C96.9869 78.8199 93.0274 75.4945 92.0055 74.739C90.157 73.3481 88.0166 72.3955 85.7459 71.9532C85.7155 71.9498 85.7223 71.9094 85.7459 71.9161Z" fill="#263238"/>
<path d="M87.5035 67.9126C89.9824 68.5871 92.522 69.2616 94.8221 70.4488C97.3381 71.7304 99.3078 73.8214 101.23 75.845C102.395 77.0524 103.531 78.2891 104.64 79.5549C104.684 79.6089 104.613 79.6932 104.566 79.6392C102.601 77.5617 100.577 75.5381 98.4949 73.5685C96.5679 71.7395 94.2985 70.3091 91.8171 69.3594C90.4006 68.8164 88.9436 68.3881 87.4866 67.9564C87.4664 67.9497 87.4765 67.9058 87.5035 67.9126Z" fill="#263238"/>
<path d="M90.151 64.415C92.5591 64.9108 94.6602 65.3323 96.7917 66.6207C99.6147 68.3306 102.34 71.2075 103.294 72.2294C104.35 73.3559 105.368 74.5161 106.367 75.6931C106.407 75.7403 106.326 75.8145 106.282 75.7673C103.994 73.1865 101.542 70.7565 98.9401 68.4925C97.7162 67.3964 96.3306 66.4955 94.8322 65.8214C93.3133 65.2251 91.746 64.7602 90.1476 64.4319C90.1476 64.4319 90.1308 64.4116 90.151 64.415Z" fill="#263238"/>
<path d="M75.5947 60.9479L68.8494 82.317C68.8494 82.317 50.5866 77.1029 47.2645 73.5043C43.9424 69.9057 37.7671 51.3224 35.956 42.3141C34.1449 33.3057 38.698 33.5452 42.8834 39.2079C47.0689 44.8705 57.4904 58.6511 58.0603 58.9513C58.6303 59.2515 75.5947 60.9479 75.5947 60.9479Z" fill="#E5005B"/>
<path opacity="0.1" d="M75.5947 60.9479L68.8494 82.317C68.8494 82.317 50.5866 77.1029 47.2645 73.5043C43.9424 69.9057 37.7671 51.3224 35.956 42.3141C34.1449 33.3057 38.698 33.5452 42.8834 39.2079C47.0689 44.8705 57.4904 58.6511 58.0603 58.9513C58.6303 59.2515 75.5947 60.9479 75.5947 60.9479Z" fill="black"/>
<path d="M67.0952 72.8231C67.9148 70.3037 68.7512 67.7911 69.473 65.2414C69.8844 63.7945 70.3026 62.3443 70.7006 60.8941C70.7175 60.8367 70.6264 60.8064 70.6062 60.8603C69.6854 63.3561 68.7681 65.862 67.962 68.3982C67.156 70.9344 66.3364 73.4572 65.5674 75.9765C65.1324 77.42 64.7378 78.8702 64.3904 80.3373C64.3904 80.3643 64.4309 80.3812 64.441 80.3542C65.446 77.8888 66.2723 75.3593 67.0952 72.8231Z" fill="#263238"/>
<path d="M59.6384 79.3795L58.829 79.0962C57.3079 78.5532 55.7565 77.9697 54.2962 77.3727C54.1073 77.2985 53.9218 77.221 53.7397 77.1434C53.4463 77.022 53.1528 76.8972 52.8695 76.7724L52.4446 76.5869L52.2928 76.5195L51.8544 76.3171C51.2743 76.0507 50.7245 75.7842 50.2119 75.5144L49.8746 75.3255C49.0733 74.9133 48.318 74.417 47.6217 73.845C47.5576 73.7876 47.4935 73.7303 47.4362 73.673C47.3789 73.6156 47.3182 73.5583 47.2676 73.5043C43.9287 69.9057 37.7702 51.3224 35.9591 42.3141L35.8984 42.0038V41.9364C35.777 41.2618 35.669 40.4052 35.5814 39.4878C35.3284 35.0056 37.4498 34.2737 40.0703 36.2433C46.6032 50.2634 56.6098 73.4301 59.6384 79.3795Z" fill="#263238"/>
<path d="M50.165 82.9682L10.3678 83.1773C10.4015 82.3206 16.0676 57.2619 20.5734 48.0141C26.3508 36.1559 29.3423 35.198 31.1062 34.564C33.3827 33.7478 37.4366 34.1525 38.3978 34.6078C39.4906 35.1171 42.9644 41.1811 44.2089 45.6296C46.6979 54.5772 50.7249 82.4218 50.165 82.9682Z" fill="#EBEBEB"/>
<path d="M29.0655 35.5016C29.0655 35.5016 34.1245 54.2366 34.3774 55.4811C34.7585 57.2889 37.2813 83.0829 37.2813 83.0829L9.54126 83.1773C9.54126 83.1773 15.5952 59.299 20.101 48.8438C25.0183 37.3768 29.0655 35.5016 29.0655 35.5016Z" fill="#E5005B"/>
<g opacity="0.1">
<path opacity="0.1" d="M29.0655 35.5016C29.0655 35.5016 34.1245 54.2366 34.3774 55.4811C34.7585 57.2889 37.2813 83.0829 37.2813 83.0829L9.54126 83.1773C9.54126 83.1773 15.5952 59.299 20.101 48.8438C25.0183 37.3768 29.0655 35.5016 29.0655 35.5016Z" fill="black"/>
</g>
<path d="M38.7615 34.8979C38.9099 35.4949 43.5743 50.7156 43.8981 54.5098C44.2589 58.7189 47.4495 83.1773 47.4495 83.1773H51.4966C51.4966 83.1773 45.6384 48.0377 44.0296 44.3245C40.7379 36.7461 38.7615 34.8979 38.7615 34.8979Z" fill="#E5005B"/>
<path opacity="0.1" d="M38.7615 34.8979C38.9099 35.4949 43.5743 50.7156 43.8981 54.5098C44.2589 58.7189 47.4495 83.1773 47.4495 83.1773H51.4966C51.4966 83.1773 45.6384 48.0377 44.0296 44.3245C40.7379 36.7461 38.7615 34.8979 38.7615 34.8979Z" fill="black"/>
<path d="M23.8278 39.8823C17.1635 47.0222 0.961296 74.1113 6.10121 79.0522C11.2411 83.9932 39.7771 77.3423 47.7905 73.5211C50.1749 72.3879 41.116 57.5213 38.3133 57.1739C35.9795 56.8872 24.0538 62.3408 23.7064 61.6561C23.3186 60.8804 25.214 55.157 28.0909 44.7929C31.3927 32.847 26.7755 36.7255 23.8278 39.8823Z" fill="#EB9481"/>
<path d="M50.1584 52.3781C55.9526 51.5687 57.5782 52.2533 62.0942 48.9751C65.0655 46.8234 67.7164 47.7981 66.0199 51.2146C63.2476 56.8064 55.9897 59.4168 53.2039 59.599L50.1584 52.3781Z" fill="#EB9481"/>
<path d="M34.7652 57.9497C34.7652 57.9497 41.2778 54.3343 47.3688 52.8638C51.5778 51.852 60.9875 50.6547 69.9925 59.9463C72.1273 62.1487 73.6079 66.8029 68.8154 64.4724C65.409 62.8165 63.7564 60.7389 61.5946 60.1352C61.5946 60.1352 62.775 66.2768 60.485 68.3307C58.4835 70.1256 56.3567 71.7756 54.1208 73.2683C53.7531 72.9223 53.4084 72.5528 53.0888 72.1621C53.0888 72.1621 50.7684 73.8787 46.4042 73.4605L34.7652 57.9497Z" fill="#EB9481"/>
<path d="M51.5439 52.5535C53.5675 53.6024 57.7866 55.8991 60.5927 58.9817C63.7124 62.4083 68.795 69.8416 66.2419 72.135C64.3734 73.8045 62.1947 71.1232 62.1947 71.1232C62.1947 71.1232 63.6483 74.6409 61.6281 75.7775C59.79 76.8163 58.2183 74.651 58.2183 74.651C58.2183 74.651 58.7344 76.9343 56.7681 77.592C54.4073 78.3812 53.7125 73.4639 50.6265 72.1957C49.9216 71.8922 51.5439 52.5535 51.5439 52.5535Z" fill="#EB9481"/>
<path d="M56.4279 61.6597C58.158 62.9581 61.3351 66.9143 62.212 71.012C62.2322 71.1064 62.1749 71.1705 62.1378 71.0896C60.6142 67.7358 58.689 64.5795 56.4043 61.69C56.3773 61.6597 56.4043 61.6597 56.4279 61.6597Z" fill="#263238"/>
<path d="M53.0619 64.9076C54.4413 66.1825 57.5341 70.405 58.2794 74.5905C58.2963 74.6849 58.2322 74.7456 58.2018 74.6613C56.8514 71.2342 55.1169 67.9711 53.0316 64.9346C53.0113 64.9144 53.0316 64.8907 53.0619 64.9076Z" fill="#263238"/>
<path d="M61.5942 60.0946C63.4829 60.651 64.7105 61.5785 66.3159 62.6848C67.0973 63.2431 67.9091 63.7577 68.7476 64.2261C69.5166 64.6409 70.6531 65.2682 71.4693 64.6173C71.928 64.2564 71.9213 63.6055 71.8066 63.076C71.576 62.3095 71.2254 61.5844 70.7678 60.9276C70.7678 60.9006 70.7914 60.8703 70.8117 60.8939C71.2534 61.4924 71.6331 62.1342 71.9449 62.8095C72.1491 63.2724 72.209 63.786 72.1169 64.2834C71.8369 65.3222 70.6093 65.4604 69.756 65.1738C69.2389 64.9838 68.7418 64.7431 68.2721 64.4554C67.8134 64.1923 67.3682 63.909 66.923 63.6122C66.0259 63.0052 65.1658 62.3475 64.2755 61.7303C63.4104 61.1496 62.5092 60.6246 61.5774 60.1586C61.5703 60.1553 61.5646 60.1495 61.5613 60.1424C61.558 60.1353 61.5573 60.1272 61.5593 60.1196C61.5613 60.112 61.5659 60.1054 61.5722 60.1008C61.5786 60.0962 61.5864 60.094 61.5942 60.0946V60.0946Z" fill="#263238"/>
<path d="M65.5506 66.7392C65.0616 65.6633 62.4141 61.1777 61.5574 60.1389C61.5543 60.1337 61.5529 60.1277 61.5537 60.1216C61.5544 60.1156 61.5571 60.11 61.5614 60.1057C61.5657 60.1015 61.5713 60.0987 61.5773 60.098C61.5833 60.0973 61.5894 60.0987 61.5945 60.1018C63.0684 61.4981 65.4326 65.2046 65.979 66.3918C66.5253 67.579 67.1527 69.0663 67.1527 70.3715C67.1527 72.3445 65.8441 72.7324 65.3618 72.8167C64.7846 72.9212 64.189 72.8235 63.6755 72.5401C63.0746 72.1731 62.5557 71.6863 62.151 71.1101C62.1308 71.0831 62.1679 71.046 62.1915 71.073C62.866 71.8521 64.0127 72.6177 65.0818 72.476C65.319 72.4537 65.5492 72.3839 65.759 72.2709C65.9687 72.158 66.1536 72.0041 66.3028 71.8184C66.595 71.3438 66.7074 70.7802 66.6198 70.2299C66.462 69.0145 66.1006 67.8344 65.5506 66.7392V66.7392Z" fill="#263238"/>
<path d="M34.7656 57.9497L43.8987 77.1738C43.8987 77.1738 8.17566 85.1939 5.09306 78.9748C2.01046 72.7556 15.8855 48.4186 22.135 41.3293C29.3828 33.1135 30.307 35.9095 28.7117 43.191C27.0254 50.8132 23.8112 61.835 23.8112 61.835L34.7656 57.9497Z" fill="#E5005B"/>
<path opacity="0.1" d="M34.7656 57.9497L43.8987 77.1738C43.8987 77.1738 8.17566 85.1939 5.09306 78.9748C2.01046 72.7556 15.8855 48.4186 22.135 41.3293C29.3828 33.1135 30.307 35.9095 28.7117 43.191C27.0254 50.8132 23.8112 61.835 23.8112 61.835L34.7656 57.9497Z" fill="black"/>
<path d="M12.9547 66.9517C16.2497 64.6633 19.868 62.8797 23.6898 61.66C24.7724 61.3227 25.8652 61.0023 26.9579 60.6887C26.9916 60.6887 27.0051 60.7325 26.9579 60.7426C25.052 61.3594 23.1838 62.0869 21.3627 62.9213C19.5437 63.7308 17.745 64.5728 15.9665 65.4475C14.9547 65.9432 13.9699 66.4862 12.9783 67.0157C12.9716 67.0143 12.9655 67.0112 12.9603 67.0067C12.9552 67.0023 12.9513 66.9966 12.9489 66.9902C12.9466 66.9838 12.9458 66.9769 12.9469 66.9702C12.9479 66.9634 12.9506 66.9571 12.9547 66.9517V66.9517Z" fill="#263238"/>
<path d="M34.6704 57.8994C34.4916 57.9466 24.7211 61.1742 24.4007 61.3226C24.4411 61.1742 26.1949 55.9803 26.458 55.2181C26.4816 55.1439 26.5052 55.0664 26.5322 54.9922C26.7075 54.6549 26.8897 54.3176 27.0549 53.9804C27.264 53.5386 27.4731 53.09 27.6789 52.6313H27.6586L26.9841 53.9365C26.8796 54.1355 26.7817 54.3412 26.6839 54.547C26.8559 54.0107 27.0212 53.4711 27.1865 52.9281C27.4495 52.0681 27.6856 51.1979 27.9183 50.3278C27.9183 50.2974 27.8846 50.2907 27.8745 50.3278C27.3551 51.8421 26.7885 53.3396 26.2657 54.8539C25.743 56.3682 23.7329 61.9364 23.7497 61.9364C23.7666 61.9364 34.5085 58.1388 34.7176 58.0545C34.7278 58.0514 34.7372 58.0463 34.7455 58.0396C34.7537 58.0328 34.7605 58.0245 34.7655 58.0151C34.7705 58.0057 34.7736 57.9954 34.7747 57.9848C34.7757 57.9742 34.7746 57.9635 34.7715 57.9533C34.7684 57.9432 34.7634 57.9337 34.7566 57.9254C34.7498 57.9172 34.7415 57.9104 34.7321 57.9054C34.7227 57.9004 34.7124 57.8973 34.7018 57.8962C34.6912 57.8952 34.6805 57.8963 34.6704 57.8994V57.8994Z" fill="#263238"/>
<path d="M35.3286 70.4287C34.3168 68.287 33.3353 66.1319 32.2527 64.0207C31.6355 62.8234 31.0251 61.6227 30.3978 60.4322C30.3742 60.3883 30.2932 60.4322 30.3135 60.4693C31.2376 62.6615 32.1684 64.8537 33.1937 67.0088C34.219 69.1639 35.2173 71.2921 36.2594 73.4168C36.853 74.6242 37.4837 75.8125 38.1515 76.9817C38.1515 77.0053 38.2054 76.9817 38.1953 76.9817C37.3454 74.749 36.3437 72.5939 35.3286 70.4287Z" fill="#263238"/>
<path d="M44.36 77.4705C44.0025 76.877 43.5505 76.027 43.1694 75.447C43.0682 75.2952 42.9502 75.3255 43.0311 75.484C43.3043 76.0237 43.5303 76.6274 43.7967 77.1704C43.2976 77.2715 42.7849 77.3592 42.2925 77.4638C41.7124 77.5852 41.1357 77.71 40.5556 77.828C39.4179 78.0529 38.2802 78.2777 37.1425 78.5026C34.8356 78.932 32.5197 79.3097 30.1949 79.6358C25.5373 80.3178 20.8475 80.758 16.1444 80.9545C14.8291 81.0017 13.5104 81.0253 12.195 81.0084C10.8976 81.0118 9.60079 80.9487 8.30976 80.8196C8.27267 80.8196 8.26592 80.8769 8.30976 80.8837C9.42068 81.1184 10.5484 81.265 11.6824 81.3221C12.873 81.3794 14.0669 81.4064 15.2608 81.3929C17.6216 81.3659 20.0061 81.2108 22.3703 80.9949C27.0583 80.5632 31.7328 79.9292 36.3668 79.1096C37.6664 78.8848 38.9626 78.6408 40.2555 78.3778C40.9097 78.2462 41.5607 78.1147 42.2116 77.9697C42.8625 77.8247 44.4207 77.5717 44.36 77.4705Z" fill="#263238"/>
<path d="M38.7684 41.8894C36.4075 42.5403 32.1816 39.0496 30.4548 36.1559C30.3368 35.9569 30.5695 33.8119 30.728 31.1913C30.8191 29.6028 30.8798 27.8187 30.8191 26.2066C30.8191 25.8693 41.082 28.3043 41.082 28.3043C41.082 28.3043 40.2051 31.7377 40.3266 34.564C40.3373 34.7912 40.3689 35.017 40.421 35.2385C40.4303 35.2739 40.437 35.31 40.4412 35.3464C40.6942 36.5977 41.0517 41.2587 38.7684 41.8894Z" fill="#EB9481"/>
<path d="M31.4467 26.2467C32.0201 28.9718 33.9695 35.5316 39.3994 35.454C39.7477 35.4506 40.095 35.4191 40.4382 35.3596C40.4425 35.3226 40.4425 35.2853 40.4382 35.2483C40.3881 35.0264 40.3554 34.8008 40.3404 34.5738C40.2223 31.7441 41.0959 28.3074 41.0959 28.3074C41.0959 28.3074 33.6693 26.5536 31.4467 26.2467Z" fill="#263238"/>
<path d="M42.3066 21.3395C42.1919 23.8285 43.8715 25.9263 46.0569 26.0275C48.2424 26.1287 50.1041 24.186 50.2154 21.697C50.3267 19.208 48.6471 17.1102 46.465 17.0124C44.2829 16.9146 42.4179 18.8505 42.3066 21.3395Z" fill="#455A64"/>
<path d="M49.8139 21.8346C49.9391 19.0658 48.0706 16.7321 45.6405 16.6222C43.2103 16.5122 41.1388 18.6677 41.0135 21.4365C40.8883 24.2053 42.7568 26.539 45.1869 26.6489C47.6171 26.7588 49.6886 24.6034 49.8139 21.8346Z" fill="#C7C7C7"/>
<path d="M32.1577 13.2926C30.3905 16.6248 30.2792 27.2183 32.3567 29.9906C35.3685 34.0041 41.2875 35.4779 44.9367 31.6432C48.4881 27.9131 48.3869 14.1054 45.9755 11.4849C42.4308 7.61648 34.7682 8.37195 32.1577 13.2926Z" fill="#EB9481"/>
<path d="M40.9673 21.4813C40.9673 21.4544 40.91 21.5184 40.9134 21.5488C40.9505 22.2604 40.8763 23.0833 40.2389 23.3329C40.2186 23.3329 40.222 23.3768 40.2389 23.3734C41.0281 23.2452 41.1157 22.1525 40.9673 21.4813Z" fill="#263238"/>
<path d="M40.3135 20.753C39.1635 20.6923 39.1264 22.9958 40.1887 23.0497C41.2511 23.1037 41.2781 20.8036 40.3135 20.753Z" fill="#263238"/>
<path d="M44.9607 21.5689C44.9607 21.5419 45.0146 21.606 45.0146 21.633C44.9809 22.348 45.0619 23.1709 45.6892 23.4171C45.7094 23.4171 45.6892 23.461 45.6892 23.4576C44.9101 23.3328 44.8123 22.2401 44.9607 21.5689Z" fill="#263238"/>
<path d="M45.6119 20.8508C46.7586 20.78 46.8126 23.0835 45.7468 23.1476C44.6811 23.2117 44.6473 20.8913 45.6119 20.8508Z" fill="#263238"/>
<path d="M39.2808 18.9112C39.6181 18.8944 39.898 18.8236 40.2184 18.7763C40.5564 18.7699 40.8827 18.6512 41.1459 18.4391C41.2165 18.3579 41.2581 18.2555 41.2642 18.148C41.2703 18.0406 41.2405 17.9342 41.1796 17.8455C41.0321 17.6903 40.8459 17.5773 40.6402 17.518C40.4345 17.4587 40.2167 17.4553 40.0093 17.5082C39.5698 17.5432 39.1594 17.7418 38.8592 18.0647C38.7963 18.1421 38.7571 18.236 38.7461 18.3351C38.7352 18.4343 38.753 18.5344 38.7974 18.6237C38.8419 18.713 38.9111 18.7876 38.9968 18.8386C39.0826 18.8896 39.1811 18.9148 39.2808 18.9112Z" fill="#263238"/>
<path d="M46.6942 19.1646C46.3863 19.0969 46.0823 19.0124 45.7835 18.9117C45.4518 18.8716 45.1424 18.7235 44.9033 18.4901C44.8428 18.401 44.8136 18.2944 44.8203 18.1869C44.8271 18.0795 44.8693 17.9773 44.9404 17.8965C45.1053 17.7583 45.3041 17.6664 45.5162 17.6302C45.7284 17.5941 45.9464 17.615 46.1478 17.6908C46.5791 17.7814 46.9613 18.029 47.2203 18.3855C47.2708 18.4702 47.2961 18.5675 47.2933 18.6661C47.2905 18.7647 47.2597 18.8604 47.2045 18.9421C47.1494 19.0238 47.0721 19.0881 46.9817 19.1275C46.8913 19.1669 46.7916 19.1798 46.6942 19.1646V19.1646Z" fill="#263238"/>
<path d="M39.6656 28.0951C39.8342 28.2637 40.0028 28.4964 40.2592 28.5234C40.5244 28.521 40.7862 28.4636 41.0281 28.3547C41.033 28.3537 41.038 28.3541 41.0427 28.3557C41.0473 28.3573 41.0515 28.3602 41.0546 28.3641C41.0577 28.3679 41.0597 28.3725 41.0604 28.3774C41.0611 28.3823 41.0604 28.3873 41.0585 28.3918C40.955 28.5311 40.8156 28.6395 40.6552 28.7055C40.4947 28.7715 40.3193 28.7925 40.1479 28.7662C40.0029 28.7256 39.8731 28.6432 39.7747 28.5292C39.6763 28.4152 39.6137 28.2748 39.5948 28.1254C39.5846 28.0849 39.6386 28.0681 39.6656 28.0951Z" fill="#263238"/>
<path d="M40.4512 25.9706C40.6273 26.2557 40.8606 26.5012 41.1363 26.6916C41.412 26.882 41.7242 27.0132 42.0532 27.0769C42.3401 27.1381 42.6343 27.1574 42.9267 27.1342C42.9832 27.1321 43.0395 27.1265 43.0953 27.1173L43.2505 27.0937C43.2887 27.0874 43.3238 27.0689 43.3506 27.0409C43.3773 27.0129 43.3943 26.977 43.3989 26.9386V26.9386C43.4006 26.9139 43.4006 26.8891 43.3989 26.8644V26.8644V26.8003C43.4225 26.2506 43.3989 25.4141 43.3989 25.4141C43.5979 25.5187 44.6164 25.9976 44.6029 25.7109C44.5017 23.3299 44.3871 20.6857 43.7834 18.3417C43.78 18.3268 43.7716 18.3135 43.7597 18.304C43.7477 18.2944 43.7329 18.2892 43.7176 18.2892C43.7023 18.2892 43.6875 18.2944 43.6755 18.304C43.6636 18.3135 43.6552 18.3268 43.6518 18.3417C43.6518 20.6317 44.07 22.9049 44.1139 25.205C43.7527 25.0304 43.3691 24.9067 42.9739 24.8374C42.8964 24.861 43.0785 26.4529 43.0481 26.6991C43.0489 26.7081 43.0489 26.7171 43.0481 26.7261C42.1206 26.8273 41.4293 26.5372 40.5456 25.9032C40.4647 25.8661 40.4073 25.9099 40.4512 25.9706Z" fill="#263238"/>
<path d="M42.6066 26.8471C42.2999 27.2353 41.8979 27.5374 41.4397 27.724C41.1868 27.8176 40.9111 27.8305 40.6505 27.7611C40.0839 27.5992 40.0772 27.0865 40.1884 26.6312C40.2506 26.3967 40.34 26.1704 40.4549 25.9567C41.059 26.4751 41.8129 26.787 42.6066 26.8471V26.8471Z" fill="#263238"/>
<path d="M41.4397 27.7241C41.1868 27.8177 40.9111 27.8307 40.6505 27.7612C40.0839 27.5993 40.0772 27.0867 40.1884 26.6314C40.7989 26.7056 41.3959 27.1305 41.4397 27.7241Z" fill="#FF98B9"/>
<path opacity="0.2" d="M30.8325 20.773C31.5273 20.6617 33.1934 18.311 33.8983 17.3768C34.6031 16.4426 35.0112 11.4342 35.0753 10.2942C33.8385 10.9937 32.8256 12.0299 32.1546 13.2824C31.3654 14.7798 30.9101 17.7242 30.8325 20.773Z" fill="#263238"/>
<path d="M43.6924 14.4428C43.2806 14.8946 42.7602 15.2336 42.1806 15.4278C41.6009 15.622 40.9813 15.6649 40.3805 15.5524C39.7673 15.4396 39.1932 15.1718 38.7127 14.7745C38.2322 14.3772 37.8612 13.8637 37.6352 13.2826C37.6352 13.2455 37.5677 13.2658 37.5812 13.2995C37.7635 13.9324 38.1153 14.5035 38.5986 14.9511C39.0818 15.3987 39.6781 15.7057 40.3232 15.8391C40.964 15.9359 41.6191 15.8622 42.2224 15.6254C42.8257 15.3885 43.356 14.997 43.7599 14.4901C43.7622 14.4814 43.7618 14.4722 43.7587 14.4638C43.7556 14.4553 43.75 14.448 43.7426 14.4429C43.7353 14.4377 43.7265 14.435 43.7175 14.435C43.7086 14.435 43.6998 14.4377 43.6924 14.4428V14.4428Z" fill="#263238"/>
<path d="M40.2657 5.46485C38.1848 5.44461 36.2421 6.53397 35.4361 7.9235C34.9884 8.71534 34.8219 9.63543 34.9639 10.5339C34.9639 10.571 35.0415 10.5643 35.0381 10.5339C35.0206 9.74209 35.2165 8.96012 35.6051 8.27001C35.9938 7.5799 36.561 7.00706 37.2472 6.61154C37.9985 6.15109 38.8465 5.87123 39.7243 5.79398C40.6021 5.71673 41.4859 5.8442 42.3061 6.16636C43.1056 6.46218 43.773 7.03393 44.1881 7.77848C44.2286 7.85605 44.3837 7.81221 44.3533 7.73464C43.8272 6.41256 42.1443 5.48171 40.2657 5.46485Z" fill="#263238"/>
<path d="M52.188 10.3518C51.8795 9.31544 51.2155 8.42099 50.3128 7.82571C49.0616 6.99604 47.6147 7.06686 46.1847 7.16804C46.1767 7.16804 46.1689 7.17124 46.1633 7.17693C46.1576 7.18262 46.1544 7.19035 46.1544 7.1984C46.1544 7.20645 46.1576 7.21416 46.1633 7.21986C46.1689 7.22555 46.1767 7.22875 46.1847 7.22875C47.4056 7.14781 48.6501 7.13431 49.7496 7.74476C50.6648 8.24019 51.3799 9.03756 51.7732 10.0011C52.1475 10.9893 52.1523 12.0795 51.7867 13.071C51.4211 14.0626 50.7096 14.8887 49.7833 15.3973C49.243 15.6764 48.6515 15.8422 48.0448 15.8845C47.4382 15.9268 46.8293 15.8448 46.2555 15.6435C46.2083 15.6266 46.1746 15.6907 46.2184 15.7109C46.9935 16.0164 47.8383 16.1002 48.6583 15.9528C49.4783 15.8055 50.2411 15.4329 50.8613 14.8767C51.4816 14.3205 51.9348 13.6027 52.1703 12.8035C52.4058 12.0044 52.4143 11.1555 52.1948 10.3518H52.188Z" fill="#263238"/>
<path d="M31.406 15.3332C31.406 15.3332 29.5645 11.5457 31.2913 9.45464C32.2694 8.27085 35.3655 8.54066 35.3655 8.54066C35.3655 8.54066 36.4278 6.797 39.018 6.30122C41.6082 5.80544 44.6638 7.42768 44.6638 7.42768C44.6638 7.42768 47.1798 6.10898 49.4395 7.512C52.5929 9.46813 52.0128 14.3551 48.7144 15.8121C46.4008 16.8239 43.3856 14.7126 43.3856 14.7126C43.0854 14.7429 39.9759 16.463 37.7769 13.6671C37.7769 13.6671 35.8478 15.259 34.212 14.0347C33.9338 14.5126 33.5153 14.8935 33.0134 15.1257C32.5115 15.358 31.9504 15.4304 31.406 15.3332V15.3332Z" fill="#263238"/>
<path d="M32.7316 22.0547C32.7316 22.0547 30.9812 18.3448 29.332 18.8979C27.6827 19.451 28.5967 24.5842 30.2493 25.5488C30.4532 25.6871 30.683 25.7828 30.9248 25.8301C31.1667 25.8774 31.4156 25.8753 31.6566 25.8239C31.8976 25.7726 32.1257 25.673 32.3272 25.5313C32.5288 25.3895 32.6996 25.2085 32.8294 24.999L32.7316 22.0547Z" fill="#EB9481"/>
<path d="M29.6288 20.3582C29.6018 20.3582 29.5883 20.3919 29.6288 20.4054C30.7823 21.1204 31.2376 22.3851 31.4871 23.6566C31.2005 23.1339 30.7384 22.7966 30.0504 23.1271C30.0433 23.1318 30.0378 23.1386 30.0348 23.1466C30.0318 23.1546 30.0314 23.1633 30.0336 23.1716C30.0359 23.1798 30.0407 23.1871 30.0473 23.1924C30.054 23.1978 30.0621 23.2009 30.0706 23.2013C30.3009 23.1701 30.5353 23.2107 30.7417 23.3175C30.9481 23.4243 31.1166 23.5922 31.2241 23.7983C31.3989 24.1449 31.5368 24.5089 31.6355 24.8843C31.676 25.0057 31.8851 24.9787 31.8649 24.8438C31.8665 24.8337 31.8665 24.8235 31.8649 24.8134C32.1482 23.2384 31.3016 20.8135 29.6288 20.3582Z" fill="#263238"/>
<path d="M36.5459 29.5251L33.2239 28.0917L30.5527 24.7663L31.0654 24.3514L33.6353 27.5521L36.809 28.9214L36.5459 29.5251Z" fill="#C7C7C7"/>
<path d="M36.1916 28.9957C36.5289 28.0277 39.227 28.3852 38.7379 29.8489C38.2489 31.3127 35.8644 29.9569 36.1916 28.9957Z" fill="#37474F"/>
<path d="M29.281 18.7969C29.281 18.7969 28.9202 13.3568 30.512 10.3653C32.2861 7.02301 39.6384 3.84261 44.6771 7.43447C44.6771 7.43447 36.4917 5.97074 32.6773 10.6048C31.0719 12.5541 31.1124 18.9487 31.1124 18.9487L29.281 18.7969Z" fill="#C7C7C7"/>
<path d="M30.0238 26.6101C32.4563 26.5859 34.4059 24.3195 34.3783 21.548C34.3507 18.7765 32.3564 16.5494 29.9239 16.5736C27.4914 16.5978 25.5418 18.8642 25.5694 21.6357C25.597 24.4072 27.5913 26.6343 30.0238 26.6101Z" fill="#C7C7C7"/>
<path d="M33.0925 21.4037C33.1161 23.8961 31.3657 25.9332 29.1803 25.9534C26.9948 25.9736 25.2005 23.9737 25.1769 21.4813C25.1533 18.9889 26.9037 16.9518 29.0892 16.9316C31.2747 16.9113 33.0689 18.9113 33.0925 21.4037Z" fill="#455A64"/>
<path d="M40.4008 35.1777L38.0231 41.181L30.5426 33.6331L28.4448 36.0749C28.4448 36.0749 35.7803 48.0848 35.8242 47.5418L38.2693 42.3648L41.8511 45.9432L41.5138 36.9248L40.4008 35.1777Z" fill="#EBEBEB"/>
<path d="M41.9385 41.4743C41.8339 39.987 41.7732 38.4862 41.6012 37.0056C41.6012 36.955 41.5135 36.9314 41.5 37.0056C41.21 38.4457 41.6383 44.1286 41.6383 45.4945H41.6215C41.4731 45.3394 38.3028 42.3478 38.2724 42.395C37.7429 43.218 35.9453 46.9852 35.8239 47.3292C34.6637 45.4203 29.7531 37.9027 28.3703 36.0983C28.3636 36.0867 28.3526 36.0782 28.3396 36.0747C28.3266 36.0712 28.3128 36.0731 28.3012 36.0798C28.2896 36.0865 28.2811 36.0975 28.2776 36.1105C28.2741 36.1235 28.2759 36.1373 28.2827 36.1489C29.2944 38.1725 35.6687 48.0914 35.7564 48.0645C36.7027 46.286 37.5571 44.4601 38.3163 42.594C38.8525 43.245 42.0498 46.6243 42.0599 46.4018C42.1065 44.7583 42.066 43.1135 41.9385 41.4743V41.4743Z" fill="#263238"/>
<path d="M79.3176 83.582H77.004V85.093H79.3176V83.582Z" fill="#455A64"/>
<path d="M82.3163 83.4805H80.0026V84.9914H82.3163V83.4805Z" fill="#455A64"/>
<path d="M85.3172 83.3795H83.0035V84.8905H85.3172V83.3795Z" fill="#455A64"/>
<path d="M88.3193 83.2817H86.0057V84.7927H88.3193V83.2817Z" fill="#455A64"/>
<path d="M91.3212 83.1804H89.0076V84.6913H91.3212V83.1804Z" fill="#455A64"/>
<path d="M94.323 83.0826H92.0094V84.5936H94.323V83.0826Z" fill="#455A64"/>
<path d="M97.3239 82.9817H95.0103V84.4926H97.3239V82.9817Z" fill="#455A64"/>
<path d="M100.326 82.8802H98.0122V84.3911H100.326V82.8802Z" fill="#455A64"/>
<path d="M103.325 82.7824H101.011V84.2933H103.325V82.7824Z" fill="#455A64"/>
<path d="M103.895 85.9597H76.4348V84.1216L103.895 83.356V85.9597Z" fill="#37474F"/>
<path d="M130.693 78.7119H85.3648L92.5721 44.9652H137.9L130.693 78.7119Z" fill="#455A64"/>
<path d="M132.369 78.7119H87.0408L94.2482 44.9652H139.576L132.369 78.7119Z" fill="#37474F"/>
<path d="M116.182 61.7781C117.412 60.6417 117.621 58.8687 116.651 57.8181C115.68 56.7674 113.896 56.837 112.666 57.9735C111.436 59.1099 111.226 60.8829 112.197 61.9335C113.168 62.9842 114.952 62.9146 116.182 61.7781Z" fill="#263238"/>
<path d="M119.551 87.5248H97.2573V85.7913L119.551 85.0729V87.5248Z" fill="#455A64"/>
<path d="M125.611 87.521H113.641L106.431 68.6106H118.4L125.611 87.521Z" fill="#455A64"/>
<path d="M127.581 87.521H115.611L108.404 68.6106H120.373L127.581 87.521Z" fill="#263238"/>
<path d="M75.5875 87.9833H52.6029C50.6434 87.9833 53.4798 82.3982 60.6399 80.2566C67.8 78.1149 77.8471 85.8889 75.5875 87.9833Z" fill="#37474F"/>
<path d="M66.569 87.9833C66.5874 87.3469 66.693 86.716 66.8826 86.1081C67.0678 85.4954 67.3272 84.9076 67.655 84.3577C67.9848 83.8054 68.3964 83.3062 68.8759 82.8771C69.35 82.4467 69.8971 82.1041 70.4914 81.8654C70.2452 82.0677 69.9652 82.2026 69.7393 82.4286L69.402 82.7288L69.0647 83.066C68.6385 83.5106 68.2651 84.0029 67.9518 84.5331C67.6335 85.0635 67.3605 85.6197 67.1356 86.1958C66.9068 86.7783 66.7175 87.3754 66.569 87.9833Z" fill="#263238"/>
<path d="M69.2908 82.668C70.656 83.1198 71.9479 83.7686 73.1255 84.5938C73.7207 85.0051 74.2593 85.4926 74.7275 86.044C74.9575 86.3259 75.1554 86.6325 75.3177 86.958C75.478 87.2833 75.5698 87.638 75.5876 88.0002C75.5071 87.6568 75.3667 87.3302 75.1727 87.0356C74.9892 86.7402 74.7744 86.4654 74.5319 86.216C74.0405 85.7181 73.5042 85.2665 72.9299 84.867C72.3599 84.4555 71.7562 84.0879 71.1525 83.7237C70.849 83.5415 70.5387 83.3662 70.2284 83.1975C69.9181 83.0289 69.6045 82.84 69.2908 82.668Z" fill="#263238"/>
<path d="M77.2341 11.37C77.0357 13.251 76.3187 15.04 75.163 16.5374C74.0073 18.0347 72.4583 19.1816 70.6889 19.85C68.9194 20.5184 66.9991 20.682 65.142 20.3227C63.285 19.9634 61.5643 19.0953 60.1718 17.8151L55.0555 18.5773L57.612 14.1625C56.9732 12.6072 56.7321 10.9171 56.9105 9.24522C57.0415 7.90463 57.4364 6.6032 58.0724 5.41587C58.7085 4.22854 59.5732 3.17877 60.6166 2.327C61.6601 1.47524 62.8618 0.838319 64.1524 0.452911C65.4431 0.067504 66.7972 -0.058775 68.1369 0.0813523C69.4765 0.22148 70.7752 0.625244 71.9582 1.26939C73.1412 1.91353 74.185 2.78534 75.0296 3.83459C75.8743 4.88385 76.503 6.08982 76.8796 7.38308C77.2562 8.67633 77.3732 10.0313 77.2239 11.37H77.2341Z" fill="white"/>
<path d="M77.2338 11.3702C77.0375 13.2529 76.3243 15.0446 75.1731 16.5472C74.8871 16.9209 74.5784 17.2768 74.249 17.613C73.9074 17.9374 73.547 18.2414 73.1698 18.5236C72.4183 19.0955 71.5893 19.5577 70.7077 19.8962C69.8265 20.2414 68.9013 20.4616 67.959 20.5505C67.4871 20.5949 67.0124 20.6039 66.5391 20.5775C66.065 20.5665 65.5925 20.518 65.126 20.4325C63.2406 20.0865 61.4889 19.2223 60.067 17.9367L60.1884 17.9738L55.0856 18.7597L54.718 18.8271L54.9035 18.4898L57.4465 14.0616V14.2369C56.8498 12.7863 56.5918 11.2186 56.6922 9.65324C56.7927 8.08786 57.2488 6.56602 58.026 5.2035C58.8032 3.84098 59.881 2.67369 61.1772 1.79044C62.4735 0.907189 63.9542 0.331252 65.5066 0.106458C67.059 -0.118336 68.6422 0.0139328 70.1358 0.493198C71.6294 0.972464 72.994 1.7861 74.1257 2.87219C75.2575 3.95829 76.1266 5.28823 76.667 6.76082C77.2073 8.23341 77.4046 9.80985 77.2439 11.3702H77.2338ZM77.2338 11.3702C77.3939 9.83315 77.1998 8.27985 76.6664 6.82947C76.1329 5.37909 75.2744 4.07016 74.1565 3.00312C73.0387 1.93608 71.6913 1.13927 70.2177 0.673826C68.7441 0.208384 67.1834 0.0866719 65.6555 0.318035C64.1404 0.54403 62.6971 1.11396 61.4363 1.98412C60.1895 2.86155 59.1471 3.99826 58.3807 5.3163C57.6266 6.64107 57.1816 8.11911 57.0789 9.64002C56.9846 11.1639 57.2324 12.6896 57.804 14.1054L57.8411 14.1965L57.7905 14.2774L55.2205 18.6855L55.0384 18.4156L60.1513 17.7006H60.2222L60.2728 17.7479C61.6374 19.0254 63.3307 19.8977 65.1631 20.2672C65.6201 20.3591 66.0835 20.4154 66.5493 20.4359C67.0141 20.4679 67.4807 20.4679 67.9455 20.4359C68.8787 20.3646 69.7971 20.1625 70.674 19.8355C71.5553 19.517 72.3849 19.0704 73.136 18.5101C73.5124 18.2304 73.8727 17.9297 74.2153 17.6096C74.5457 17.277 74.8555 16.9245 75.1428 16.5539C76.3066 15.0531 77.0305 13.2585 77.2338 11.3702V11.3702Z" fill="#263238"/>
<path d="M72.7717 10.6184C72.7723 10.8633 72.7003 11.103 72.5647 11.3069C72.4291 11.5109 72.236 11.6701 72.0099 11.7643C71.7838 11.8585 71.5348 11.8835 71.2945 11.8361C71.0542 11.7887 70.8333 11.6711 70.6599 11.4982C70.4864 11.3252 70.3682 11.1046 70.3202 10.8645C70.2721 10.6243 70.2965 10.3752 70.39 10.1488C70.4836 9.92248 70.6423 9.72897 70.8459 9.59281C71.0495 9.45665 71.289 9.38398 71.5339 9.38398C71.6963 9.38353 71.8572 9.41513 72.0073 9.47697C72.1575 9.5388 72.2939 9.62966 72.4089 9.74433C72.5239 9.85899 72.6151 9.99522 72.6774 10.1452C72.7396 10.2952 72.7717 10.456 72.7717 10.6184V10.6184Z" fill="#263238"/>
<path d="M68.3402 10.6184C68.3409 10.8635 68.2688 11.1032 68.133 11.3073C67.9973 11.5114 67.804 11.6705 67.5777 11.7646C67.3514 11.8587 67.1022 11.8835 66.8618 11.8359C66.6214 11.7882 66.4005 11.6703 66.2272 11.497C66.0539 11.3237 65.936 11.1028 65.8883 10.8624C65.8407 10.622 65.8654 10.3728 65.9595 10.1465C66.0537 9.9202 66.2128 9.72692 66.4169 9.59117C66.621 9.45542 66.8607 9.38331 67.1058 9.38398C67.4332 9.38398 67.7472 9.51403 67.9787 9.74552C68.2102 9.97701 68.3402 10.291 68.3402 10.6184V10.6184Z" fill="#263238"/>
<path d="M63.9119 10.6184C63.9126 10.8633 63.8406 11.1029 63.705 11.3069C63.5694 11.5109 63.3763 11.6701 63.1502 11.7643C62.9241 11.8585 62.6751 11.8835 62.4348 11.8361C62.1944 11.7887 61.9736 11.6711 61.8001 11.4982C61.6267 11.3252 61.5085 11.1046 61.4604 10.8644C61.4124 10.6243 61.4367 10.3752 61.5303 10.1488C61.6239 9.92248 61.7825 9.72896 61.9861 9.59281C62.1898 9.45665 62.4292 9.38397 62.6742 9.38397C63.0018 9.38397 63.3162 9.51391 63.5482 9.74531C63.7802 9.97671 63.911 10.2907 63.9119 10.6184V10.6184Z" fill="#263238"/>
</svg>
