<svg width="140" height="141" viewBox="0 0 140 141" fill="none" xmlns="http://www.w3.org/2000/svg">
<g opacity="0.4">
<path d="M69.9878 140.025C59.1741 140.021 48.5082 137.512 38.8265 132.695C29.1448 127.879 20.7105 120.885 14.1849 112.262C7.65927 103.639 3.21973 93.6218 1.21438 82.9957C-0.79096 72.3696 -0.307592 61.4233 2.62658 51.0153C5.56075 40.6073 10.866 31.0204 18.1262 23.0064C25.3865 14.9923 34.4045 8.76901 44.4731 4.82436C54.5416 0.87971 65.3871 -0.679029 76.1591 0.27036C86.931 1.21975 97.3366 4.65146 106.56 10.2964C106.81 10.4439 107.029 10.6398 107.202 10.8726C107.376 11.1054 107.502 11.3704 107.572 11.6523C107.642 11.9341 107.655 12.2271 107.611 12.5142C107.567 12.8012 107.466 13.0766 107.314 13.3243C107.162 13.5719 106.963 13.7869 106.727 13.9566C106.491 14.1263 106.224 14.2474 105.941 14.3128C105.658 14.3781 105.365 14.3865 105.079 14.3374C104.793 14.2883 104.519 14.1827 104.274 14.0267C90.5761 5.64151 74.2782 2.57253 58.4688 5.40143C42.6593 8.23032 28.4369 16.7605 18.4969 29.3754C8.55684 41.9904 3.58985 57.8134 4.53721 73.846C5.48457 89.8786 12.2805 105.007 23.637 116.363C34.9935 127.72 50.1215 134.515 66.1541 135.463C82.1866 136.41 98.0097 131.443 110.625 121.503C123.24 111.563 131.77 97.3407 134.599 81.5313C137.428 65.7219 134.359 49.4239 125.973 35.7262C125.817 35.4812 125.712 35.2075 125.663 34.9213C125.614 34.635 125.622 34.3418 125.687 34.0588C125.753 33.7758 125.874 33.5087 126.044 33.273C126.213 33.0373 126.428 32.8377 126.676 32.6859C126.923 32.5342 127.199 32.4332 127.486 32.389C127.773 32.3448 128.066 32.3582 128.348 32.4283C128.63 32.4985 128.895 32.6242 129.127 32.7979C129.36 32.9716 129.556 33.1899 129.704 33.4401C136.198 44.0537 139.748 56.2062 139.987 68.647C140.226 81.0878 137.146 93.3677 131.064 104.223C124.982 115.079 116.118 124.118 105.383 130.41C94.6484 136.702 82.4309 140.021 69.9878 140.025Z" fill="#E9E9E9"/>
<path d="M69.9884 57.0965C65.5258 57.0963 61.1635 55.7728 57.4531 53.2934C53.7427 50.814 50.8508 47.29 49.1431 43.1671C47.4355 39.0442 46.9887 34.5075 47.8594 30.1307C48.7301 25.7539 50.879 21.7335 54.0345 18.578C57.1901 15.4225 61.2104 13.2735 65.5872 12.4029C69.964 11.5322 74.5008 11.9789 78.6237 13.6866C82.7466 15.3942 86.2706 18.2861 88.75 21.9965C91.2294 25.7069 92.5529 30.0692 92.5531 34.5318C92.546 40.5142 90.1664 46.2495 85.9362 50.4797C81.7061 54.7099 75.9707 57.0895 69.9884 57.0965ZM69.9884 16.345C66.3911 16.3452 62.8748 17.4121 59.8839 19.4108C56.893 21.4095 54.562 24.2502 53.1856 27.5737C51.8092 30.8972 51.4493 34.5542 52.1512 38.0822C52.8532 41.6103 54.5857 44.851 57.1294 47.3944C59.6732 49.9379 62.9141 51.6699 66.4422 52.3715C69.9704 53.0731 73.6273 52.7127 76.9507 51.3359C80.274 49.9591 83.1144 47.6277 85.1127 44.6366C87.1111 41.6455 88.1775 38.129 88.1773 34.5318C88.1717 29.7097 86.2535 25.0868 82.8436 21.6772C79.4336 18.2677 74.8104 16.3501 69.9884 16.345Z" fill="#E9E9E9"/>
<path d="M69.9874 140.024C60.139 140.018 50.4025 137.937 41.4118 133.918C32.4211 129.898 24.378 124.03 17.8063 116.695C17.4379 116.283 17.2387 115.747 17.2486 115.195C17.506 101.061 23.2905 87.5897 33.3622 77.6697C38.2738 72.6964 44.146 68.7743 50.6213 66.1422C57.0966 63.51 64.0398 62.2228 71.0284 62.3589C84.8136 62.6987 97.9242 68.3954 107.579 78.2407C117.234 88.086 122.674 101.305 122.744 115.095V115.214C122.744 115.752 122.546 116.272 122.187 116.673C115.614 124.013 107.569 129.886 98.5749 133.91C89.5809 137.933 79.8402 140.017 69.9874 140.024ZM21.6487 114.417C27.8004 121.113 35.276 126.457 43.6017 130.112C51.9273 133.767 60.9215 135.652 70.014 135.648C79.1066 135.644 88.0991 133.752 96.4217 130.09C104.744 126.428 112.215 121.077 118.361 114.376C118.111 101.858 113.041 89.9184 104.208 81.0439C95.3753 72.1694 83.4597 67.0439 70.9424 66.7347C64.5409 66.6164 58.1821 67.8002 52.252 70.2139C46.3218 72.6277 40.9439 76.2213 36.4447 80.7765C27.3964 89.6882 22.1022 101.725 21.6487 114.417Z" fill="#E9E9E9"/>
<path d="M117.865 40.2836C114.276 40.2838 110.767 39.2197 107.783 37.2258C104.798 35.2319 102.472 32.3978 101.099 29.0818C99.7249 25.7659 99.3653 22.1171 100.065 18.5968C100.765 15.0765 102.494 11.8428 105.031 9.30473C107.569 6.76662 110.803 5.03807 114.323 4.33766C117.843 3.63725 121.492 3.99644 124.808 5.36981C128.124 6.74318 130.958 9.06904 132.953 12.0533C134.947 15.0375 136.011 18.5461 136.012 22.1353C136.006 26.9466 134.093 31.5594 130.691 34.9617C127.289 38.364 122.677 40.2779 117.865 40.2836ZM117.865 8.36476C115.141 8.36455 112.479 9.17208 110.214 10.6852C107.949 12.1984 106.184 14.3492 105.141 16.8657C104.099 19.3822 103.826 22.1513 104.357 24.8228C104.888 27.4944 106.2 29.9484 108.126 31.8744C110.052 33.8005 112.506 35.1121 115.178 35.6435C117.849 36.1748 120.618 35.902 123.135 34.8595C125.651 33.817 127.802 32.0517 129.315 29.7868C130.829 27.5219 131.636 24.8592 131.636 22.1353C131.631 18.4845 130.179 14.9845 127.598 12.403C125.016 9.82147 121.516 8.36922 117.865 8.36476Z" fill="#E9E9E9"/>
<path d="M118.141 29.624C117.853 29.6241 117.569 29.5677 117.303 29.4578C117.038 29.3479 116.797 29.1867 116.593 28.9835C116.39 28.7803 116.229 28.5391 116.119 28.2735C116.009 28.008 115.953 27.7234 115.953 27.4361V16.1527C115.953 15.5725 116.183 15.016 116.594 14.6057C117.004 14.1954 117.561 13.9648 118.141 13.9648C118.721 13.9648 119.278 14.1954 119.688 14.6057C120.098 15.016 120.329 15.5725 120.329 16.1527V27.4361C120.329 27.7234 120.272 28.008 120.162 28.2735C120.053 28.5391 119.891 28.7803 119.688 28.9835C119.485 29.1867 119.244 29.3479 118.978 29.4578C118.713 29.5677 118.428 29.6241 118.141 29.624Z" fill="#E9E9E9"/>
<path d="M123.783 23.9812H112.5C111.919 23.9812 111.363 23.7507 110.953 23.3404C110.542 22.9301 110.312 22.3736 110.312 21.7933C110.312 21.2131 110.542 20.6566 110.953 20.2463C111.363 19.836 111.919 19.6055 112.5 19.6055H123.783C124.363 19.6055 124.92 19.836 125.33 20.2463C125.74 20.6566 125.971 21.2131 125.971 21.7933C125.971 22.3736 125.74 22.9301 125.33 23.3404C124.92 23.7507 124.363 23.9812 123.783 23.9812Z" fill="#E9E9E9"/>
</g>
</svg>
