<svg width="18" height="18" viewBox="0 0 18 18" fill="none" xmlns="http://www.w3.org/2000/svg">
<path d="M8.99998 12.335C8.49675 12.335 8.07493 12.7568 8.07493 13.26C8.07493 13.7632 8.49675 14.1851 8.99998 14.1851C9.4847 14.1851 9.92502 13.7632 9.90282 13.2822C9.92502 12.7531 9.5069 12.335 8.99998 12.335Z" fill="#E02C5E"/>
<path d="M17.562 15.6139C18.1429 14.6111 18.1466 13.416 17.5694 12.4169L11.7749 2.38204C11.2014 1.37189 10.1653 0.772461 9.00346 0.772461C7.8416 0.772461 6.80555 1.37559 6.23202 2.37834L0.430144 12.4243C-0.147084 13.4345 -0.143383 14.637 0.441245 15.6398C1.01847 16.6314 2.05082 17.2272 3.20528 17.2272H14.7794C15.9376 17.2272 16.9773 16.624 17.562 15.6139ZM16.3039 14.8886C15.982 15.4437 15.4122 15.773 14.7757 15.773H3.20158C2.57255 15.773 2.00642 15.4511 1.69191 14.9071C1.37369 14.3558 1.36999 13.6972 1.68821 13.1422L7.49008 3.09987C7.8046 2.54855 8.36703 2.22293 9.00346 2.22293C9.63619 2.22293 10.2023 2.55225 10.5168 3.10357L16.315 13.1459C16.6258 13.6861 16.6221 14.3373 16.3039 14.8886Z" fill="#E02C5E"/>
<path d="M8.77002 5.84155C8.3297 5.96735 8.05589 6.36697 8.05589 6.85169C8.07809 7.14401 8.09659 7.44002 8.11879 7.73234C8.1817 8.84609 8.2446 9.93764 8.3075 11.0514C8.3297 11.4288 8.62202 11.7026 8.99943 11.7026C9.37685 11.7026 9.67287 11.4103 9.69137 11.0292C9.69137 10.7998 9.69137 10.5889 9.71357 10.3558C9.75427 9.64163 9.79867 8.92749 9.83937 8.21336C9.86158 7.75084 9.90228 7.28831 9.92448 6.82579C9.92448 6.65928 9.90228 6.51128 9.83937 6.36327C9.65067 5.94885 9.21034 5.73794 8.77002 5.84155Z" fill="#E02C5E"/>
</svg>
