<svg width="27" height="28" viewBox="0 0 27 28" fill="none" xmlns="http://www.w3.org/2000/svg">
<path d="M13.5005 6.0244C15.3632 5.99574 17.1646 6.6897 18.5267 7.96065L22.1955 4.37315C19.8417 2.16758 16.7259 0.958165 13.5005 0.998153C11.0905 0.997596 8.72797 1.66745 6.67696 2.9328C4.62596 4.19815 2.96738 6.00911 1.88672 8.16315L6.09047 11.4269C6.60448 9.86397 7.59614 8.50182 8.92559 7.53254C10.255 6.56326 11.8552 6.03575 13.5005 6.0244Z" fill="#E43E2B"/>
<path d="M25.98 14.2873C25.9953 13.3936 25.903 12.5013 25.705 11.6298H13.5V16.4548H20.665C20.5291 17.3007 20.2235 18.1104 19.7666 18.8352C19.3097 19.56 18.7109 20.1849 18.0062 20.6723L22.1087 23.8498C23.3873 22.6153 24.3928 21.1265 25.0602 19.4794C25.7277 17.8323 26.0423 16.0635 25.9837 14.2873H25.98Z" fill="#3B7DED"/>
<path d="M6.10543 16.5688C5.8212 15.7412 5.67467 14.8726 5.67168 13.9975C5.67686 13.1239 5.81814 12.2564 6.09043 11.4263L1.88668 8.16254C0.97492 9.97271 0.5 11.9713 0.5 13.9982C0.5 16.025 0.97492 18.0236 1.88668 19.8338L6.10543 16.5688Z" fill="#F0B501"/>
<path d="M13.5006 26.998C16.6672 27.0875 19.7478 25.9607 22.1094 23.8492L18.0069 20.6717C16.6767 21.5635 15.1014 22.0179 13.5006 21.9717C11.8568 21.9619 10.2577 21.4348 8.93037 20.4651C7.603 19.4953 6.61467 18.1323 6.10561 16.5692L1.90186 19.8342C2.9796 21.9873 4.63547 23.7978 6.684 25.0631C8.73253 26.3283 11.0928 26.9983 13.5006 26.998Z" fill="#2BA24C"/>
</svg>
