<svg width="77" height="24" viewBox="0 0 77 24" fill="none" xmlns="http://www.w3.org/2000/svg">
<path d="M7.9024 19.5447C7.71684 19.5447 7.62003 19.4519 7.62003 19.2866V7.70925C7.61689 7.67156 7.62208 7.63363 7.63522 7.59816C7.64836 7.56269 7.66914 7.53055 7.69608 7.50399C7.72301 7.47744 7.75546 7.45713 7.79111 7.4445C7.82676 7.43187 7.86476 7.42723 7.9024 7.43091H9.28603C9.32188 7.43018 9.35748 7.43704 9.39049 7.45104C9.4235 7.46505 9.45317 7.48588 9.47755 7.51217C9.50194 7.53846 9.52048 7.56961 9.53197 7.60358C9.54346 7.63754 9.54763 7.67356 9.5442 7.70925V19.2866C9.54804 19.3214 9.544 19.3566 9.53238 19.3897C9.52077 19.4228 9.50186 19.4528 9.47708 19.4776C9.4523 19.5024 9.42226 19.5213 9.3892 19.5329C9.35613 19.5445 9.32087 19.5486 9.28603 19.5447H7.9024Z" fill="white"/>
<path d="M48.2852 19.5445C48.0996 19.5445 48.0028 19.4517 48.0028 19.2863V4.68361C47.9998 4.64575 48.005 4.60769 48.0181 4.57205C48.0312 4.53641 48.0519 4.50404 48.0788 4.47719C48.1056 4.45034 48.138 4.42963 48.1736 4.41652C48.2093 4.40341 48.2473 4.39819 48.2852 4.40123H49.6688C49.705 4.40043 49.741 4.40739 49.7743 4.42163C49.8076 4.43588 49.8375 4.45708 49.862 4.48383C49.8864 4.51057 49.9049 4.54223 49.9161 4.57669C49.9273 4.61114 49.931 4.6476 49.927 4.68361V19.2863C49.9308 19.3212 49.9268 19.3564 49.9151 19.3895C49.9035 19.4226 49.8846 19.4526 49.8598 19.4774C49.8351 19.5022 49.805 19.5211 49.772 19.5327C49.7389 19.5443 49.7036 19.5483 49.6688 19.5445H48.2852Z" fill="white"/>
<path d="M53.291 19.5445C53.1055 19.5445 53.0087 19.4517 53.0087 19.2863V4.68361C53.0056 4.64575 53.0108 4.60769 53.0239 4.57205C53.0371 4.53641 53.0578 4.50404 53.0846 4.47719C53.1115 4.45034 53.1438 4.42963 53.1795 4.41652C53.2151 4.40341 53.2532 4.39819 53.291 4.40123H54.6747C54.7109 4.40043 54.7469 4.40739 54.7802 4.42163C54.8135 4.43588 54.8434 4.45708 54.8678 4.48383C54.8923 4.51057 54.9107 4.54223 54.9219 4.57669C54.9331 4.61114 54.9369 4.6476 54.9328 4.68361V19.2863C54.9367 19.3212 54.9326 19.3564 54.921 19.3895C54.9094 19.4226 54.8905 19.4526 54.8657 19.4774C54.8409 19.5022 54.8109 19.5211 54.7778 19.5327C54.7448 19.5443 54.7095 19.5483 54.6747 19.5445H53.291Z" fill="white"/>
<path d="M17.1521 7.17285C20.1977 7.17285 22.3961 8.69363 22.3961 12.2556V14.8332C22.3961 17.9958 20.2864 19.803 17.265 19.803C16.2514 19.8072 15.2529 19.5576 14.3606 19.0769V23.7361C14.3606 23.9015 14.2678 23.9983 14.0782 23.9983H12.6785C12.6431 24.0021 12.6073 23.9979 12.5738 23.9861C12.5402 23.9743 12.5097 23.9551 12.4846 23.9299C12.4594 23.9048 12.4402 23.8743 12.4284 23.8408C12.4166 23.8072 12.4124 23.7714 12.4163 23.7361V8.31848C12.4082 8.25393 12.4226 8.18857 12.4572 8.13344C12.4917 8.07831 12.5442 8.03681 12.6058 8.01594C14.0607 7.47259 15.5991 7.18728 17.1521 7.17285ZM20.4316 14.8373V12.2556C20.4316 9.79892 19.1892 8.85902 17.1036 8.85902C16.1616 8.84273 15.2246 9.00139 14.3404 9.32696V17.2495C15.1634 17.8051 16.135 18.099 17.1279 18.0926C19.2376 18.0926 20.4316 17.1245 20.4316 14.8332V14.8373Z" fill="white"/>
<path d="M29.5962 19.804C26.482 19.804 24.582 17.9282 24.582 15.282V11.72C24.582 9.04556 26.5062 7.17383 29.576 7.17383C30.9364 7.17334 32.2657 7.58084 33.3921 8.34366C33.4267 8.36238 33.4567 8.38866 33.4798 8.42055C33.5029 8.45244 33.5185 8.48913 33.5255 8.52788C33.5324 8.56663 33.5306 8.60646 33.5201 8.6444C33.5096 8.68234 33.4906 8.71743 33.4647 8.74705L32.8556 9.70712C32.8361 9.73694 32.8108 9.76254 32.7812 9.78241C32.7516 9.80228 32.7183 9.816 32.6834 9.82277C32.6484 9.82955 32.6124 9.82922 32.5775 9.82183C32.5427 9.81444 32.5096 9.80012 32.4804 9.77973C31.6332 9.21546 30.6383 8.91376 29.6204 8.91244C27.6034 8.91244 26.5062 10.0621 26.5062 11.7362V15.2981C26.5062 16.9843 27.6276 18.1218 29.5962 18.1218C30.7227 18.1029 31.8169 17.7428 32.7346 17.0892C32.7599 17.0615 32.7914 17.0404 32.8266 17.0275C32.8618 17.0146 32.8995 17.0104 32.9367 17.0151C32.9738 17.0199 33.0093 17.0335 33.0401 17.0548C33.0709 17.0761 33.0962 17.1045 33.1137 17.1376L33.7914 18.0976C33.816 18.1241 33.8344 18.1556 33.8455 18.19C33.8565 18.2244 33.8598 18.2608 33.8552 18.2966C33.8505 18.3324 33.8381 18.3667 33.8187 18.3972C33.7993 18.4276 33.7735 18.4534 33.743 18.4728C32.548 19.3668 31.0883 19.8353 29.5962 19.804Z" fill="white"/>
<path d="M40.4233 7.17304C43.3076 7.17304 45.0865 8.69382 45.0865 11.7193V18.7382C45.0906 18.8054 45.0722 18.872 45.0342 18.9275C44.9962 18.983 44.9408 19.0243 44.8768 19.0448C43.4212 19.5429 41.8932 19.7964 40.3548 19.7951C37.7327 19.7951 35.3164 18.7382 35.3164 15.9508C35.3164 13.4659 37.3576 12.2235 40.3548 12.2235C41.3022 12.2387 42.2468 12.3332 43.1785 12.5059V11.7677C43.1785 9.86769 42.404 8.90762 40.3548 8.90762C39.1886 8.90018 38.041 9.19926 37.0268 9.77491C37.0006 9.79754 36.9695 9.81385 36.9359 9.82255C36.9024 9.83126 36.8673 9.83214 36.8334 9.82512C36.7995 9.8181 36.7676 9.80337 36.7403 9.78208C36.713 9.76078 36.6909 9.73348 36.6758 9.7023L35.9981 8.71803C35.9255 8.57684 35.9013 8.48406 35.9981 8.39128C37.3188 7.55318 38.8598 7.12895 40.4233 7.17304ZM40.3548 18.0928C41.3112 18.0848 42.2618 17.9422 43.1785 17.6693V14.1557C42.2471 13.9806 41.3024 13.8861 40.3548 13.8734C38.2208 13.8734 37.2365 14.6801 37.2365 15.9589C37.2365 17.3667 38.5516 18.0928 40.3548 18.0928Z" fill="white"/>
<path d="M58.5313 19.6624C58.1988 19.6439 57.886 19.4988 57.6571 19.2568C57.4283 19.0149 57.3008 18.6945 57.3008 18.3615C57.3008 18.0285 57.4283 17.7081 57.6571 17.4661C57.886 17.2242 58.1988 17.0791 58.5313 17.0605C58.8638 17.0791 59.1766 17.2242 59.4054 17.4661C59.6342 17.7081 59.7617 18.0285 59.7617 18.3615C59.7617 18.6945 59.6342 19.0149 59.4054 19.2568C59.1766 19.4988 58.8638 19.6439 58.5313 19.6624Z" fill="white"/>
<path d="M62.5013 19.5452C62.3157 19.5452 62.2189 19.4525 62.2189 19.2871V7.70977C62.2176 7.67306 62.2241 7.63649 62.2381 7.60251C62.252 7.56853 62.2731 7.53791 62.2998 7.51271C62.3265 7.48751 62.3583 7.4683 62.3931 7.45638C62.4278 7.44445 62.4647 7.44007 62.5013 7.44354H63.8849C63.9208 7.4428 63.9564 7.44966 63.9894 7.46367C64.0224 7.47767 64.052 7.4985 64.0764 7.52479C64.1008 7.55108 64.1194 7.58224 64.1308 7.6162C64.1423 7.65017 64.1465 7.68618 64.1431 7.72188V19.2992C64.1469 19.334 64.1429 19.3693 64.1313 19.4023C64.1196 19.4354 64.1007 19.4654 64.076 19.4902C64.0512 19.515 64.0211 19.5339 63.9881 19.5455C63.955 19.5571 63.9197 19.5612 63.8849 19.5573L62.5013 19.5452Z" fill="white"/>
<path d="M8.60858 2.60279C8.43501 2.60768 8.26223 2.5775 8.1006 2.51407C7.93896 2.45063 7.79179 2.35523 7.66788 2.23358C7.54397 2.11194 7.44588 1.96654 7.37948 1.8061C7.31308 1.64566 7.27973 1.47347 7.28142 1.29984C7.27856 1.12607 7.31114 0.953541 7.37719 0.792787C7.44323 0.632033 7.54136 0.486427 7.66556 0.364865C7.78977 0.243303 7.93745 0.148335 8.09958 0.085761C8.26172 0.0231866 8.43491 -0.00567932 8.60858 0.000923238C8.78082 -0.00528488 8.9525 0.0240662 9.1129 0.087146C9.2733 0.150226 9.41899 0.245679 9.54086 0.367555C9.66274 0.48943 9.75819 0.635113 9.82127 0.795514C9.88435 0.955914 9.9137 1.12759 9.9075 1.29984C9.91191 1.4718 9.88136 1.64288 9.81769 1.80269C9.75403 1.9625 9.65858 2.10772 9.53713 2.22955C9.41568 2.35137 9.27076 2.44727 9.11115 2.51143C8.95153 2.57559 8.78056 2.60667 8.60858 2.60279Z" fill="#E5005B"/>
<path d="M63.2238 2.60279C63.0502 2.60768 62.8775 2.5775 62.7158 2.51407C62.5542 2.45063 62.407 2.35523 62.2831 2.23358C62.1592 2.11194 62.0611 1.96654 61.9947 1.8061C61.9283 1.64566 61.895 1.47347 61.8967 1.29984C61.8938 1.12607 61.9264 0.953541 61.9924 0.792787C62.0585 0.632033 62.1566 0.486427 62.2808 0.364865C62.405 0.243303 62.5527 0.148335 62.7148 0.085761C62.877 0.0231866 63.0501 -0.00567932 63.2238 0.000923238C63.3957 -0.00471844 63.567 0.0250502 63.7269 0.0883832C63.8868 0.151716 64.032 0.247259 64.1534 0.369075C64.2749 0.490891 64.37 0.636377 64.4328 0.796495C64.4956 0.956614 64.5249 1.12794 64.5187 1.29984C64.5231 1.47146 64.4927 1.64219 64.4292 1.80172C64.3658 1.96126 64.2707 2.10629 64.1497 2.22806C64.0287 2.34983 63.8843 2.44582 63.7251 2.51022C63.566 2.57463 63.3955 2.60612 63.2238 2.60279Z" fill="#E5005B"/>
<path d="M71.7784 19.804C68.6158 19.804 66.623 17.9524 66.623 15.2094V11.837C66.623 9.09397 68.6158 7.17383 71.7784 7.17383C74.941 7.17383 76.9337 9.09397 76.9337 11.837V15.2094C76.9256 17.9524 74.9571 19.804 71.7784 19.804ZM71.7784 18.0936C73.8881 18.0936 75.0055 16.9681 75.0055 15.2094V11.837C75.0055 10.0581 73.88 8.90841 71.7784 8.90841C69.6767 8.90841 68.5513 10.0581 68.5513 11.837V15.2094C68.5513 16.9681 69.6848 18.0936 71.7784 18.0936Z" fill="white"/>
<path d="M5.29652 17.9758C4.89313 17.9758 4.42923 18.0201 4.17106 18.0201C2.71885 18.0201 1.92417 17.1085 1.92417 15.5594V9.25849H4.96977C5.13112 9.25849 5.22794 9.16571 5.22794 8.97612V7.80628C5.23177 7.77145 5.22774 7.73619 5.21612 7.70312C5.2045 7.67005 5.1856 7.64002 5.16082 7.61523C5.13603 7.59045 5.106 7.57155 5.07293 7.55994C5.03986 7.54832 5.00461 7.54428 4.96977 7.54811H1.92417V4.66387C1.92801 4.62903 1.92397 4.59378 1.91235 4.56071C1.90073 4.52764 1.88183 4.49761 1.85705 4.47282C1.83227 4.44804 1.80223 4.42914 1.76916 4.41752C1.7361 4.40591 1.70084 4.40187 1.666 4.4057H0.282372C0.0968125 4.4057 0 4.49848 0 4.66387V15.6522C0 18.5365 1.73458 19.8031 4.07828 19.8031C4.38082 19.8031 4.92136 19.7789 5.34492 19.7547C5.41309 19.7476 5.47575 19.714 5.51948 19.6612C5.56321 19.6084 5.58454 19.5406 5.57889 19.4723V18.2339C5.57889 18.0685 5.48208 17.9758 5.29652 17.9758Z" fill="white"/>
<path d="M10.1738 1.19141C10.1758 1.22768 10.1758 1.26404 10.1738 1.30032C10.1738 1.34066 10.1738 1.37697 10.1738 1.41327H61.6303C61.6303 1.37697 61.6303 1.34066 61.6303 1.30032C61.6303 1.25998 61.6303 1.22771 61.6303 1.19141H10.1738Z" fill="white"/>
</svg>
