<svg width="135" height="42" viewBox="0 0 135 42" fill="none" xmlns="http://www.w3.org/2000/svg">
<path d="M13.8292 34.2041C13.5045 34.2041 13.335 34.0418 13.335 33.7523V13.492C13.3296 13.4261 13.3386 13.3597 13.3616 13.2976C13.3846 13.2356 13.421 13.1793 13.4681 13.1328C13.5153 13.0864 13.572 13.0508 13.6344 13.0287C13.6968 13.0066 13.7633 12.9985 13.8292 13.0049H16.2506C16.3133 13.0037 16.3756 13.0157 16.4334 13.0402C16.4911 13.0647 16.543 13.1011 16.5857 13.1471C16.6284 13.1932 16.6608 13.2477 16.6809 13.3071C16.7011 13.3666 16.7083 13.4296 16.7024 13.492V33.7523C16.7091 33.8133 16.702 33.875 16.6817 33.9329C16.6613 33.9907 16.6283 34.0433 16.5849 34.0867C16.5415 34.13 16.489 34.1631 16.4311 34.1834C16.3732 34.2038 16.3115 34.2108 16.2506 34.2041H13.8292Z" fill="#1D1D1B"/>
<path d="M84.5002 34.204C84.1755 34.204 84.0061 34.0417 84.0061 33.7522V8.19746C84.0007 8.13122 84.0099 8.0646 84.0328 8.00223C84.0558 7.93986 84.092 7.88322 84.139 7.83623C84.186 7.78923 84.2426 7.75301 84.305 7.73006C84.3673 7.70711 84.434 7.69798 84.5002 7.7033H86.9216C86.985 7.7019 87.0479 7.71407 87.1062 7.739C87.1645 7.76393 87.2168 7.80104 87.2596 7.84784C87.3024 7.89464 87.3347 7.95005 87.3543 8.01035C87.3739 8.07065 87.3804 8.13444 87.3734 8.19746V33.7522C87.3801 33.8132 87.373 33.8749 87.3527 33.9328C87.3323 33.9906 87.2993 34.0432 87.2559 34.0866C87.2125 34.13 87.16 34.163 87.1021 34.1834C87.0442 34.2037 86.9825 34.2108 86.9216 34.204H84.5002Z" fill="#1D1D1B"/>
<path d="M93.2607 34.204C92.936 34.204 92.7666 34.0417 92.7666 33.7522V8.19746C92.7612 8.13122 92.7703 8.0646 92.7933 8.00223C92.8162 7.93986 92.8525 7.88322 92.8995 7.83623C92.9465 7.78923 93.0031 7.75301 93.0655 7.73006C93.1278 7.70711 93.1945 7.69798 93.2607 7.7033H95.6821C95.7455 7.7019 95.8084 7.71407 95.8667 7.739C95.925 7.76393 95.9773 7.80104 96.0201 7.84784C96.0629 7.89464 96.0952 7.95005 96.1148 8.01035C96.1344 8.07065 96.1409 8.13444 96.1339 8.19746V33.7522C96.1406 33.8132 96.1335 33.8749 96.1132 33.9328C96.0928 33.9906 96.0598 34.0432 96.0164 34.0866C95.973 34.13 95.9205 34.163 95.8626 34.1834C95.8047 34.2037 95.743 34.2108 95.6821 34.204H93.2607Z" fill="#1D1D1B"/>
<path d="M30.0164 12.5531C35.3462 12.5531 39.1935 15.2144 39.1935 21.4478V25.9587C39.1935 31.4932 35.5015 34.6558 30.2141 34.6558C28.4403 34.6632 26.693 34.2264 25.1313 33.3851V41.5387C25.1313 41.8281 24.969 41.9975 24.6372 41.9975H22.1876C22.1257 42.0042 22.0631 41.997 22.0044 41.9763C21.9457 41.9556 21.8923 41.922 21.8483 41.878C21.8043 41.8339 21.7707 41.7806 21.75 41.7219C21.7293 41.6632 21.7221 41.6006 21.7287 41.5387V14.5579C21.7146 14.4449 21.7399 14.3306 21.8003 14.2341C21.8608 14.1376 21.9527 14.065 22.0605 14.0285C24.6065 13.0776 27.2988 12.5783 30.0164 12.5531ZM35.7556 25.9658V21.4478C35.7556 17.1487 33.5814 15.5039 29.9317 15.5039C28.283 15.4753 26.6434 15.753 25.0961 16.3227V30.1873C26.5362 31.1595 28.2365 31.6738 29.974 31.6627C33.6661 31.6627 35.7556 29.9684 35.7556 25.9587V25.9658Z" fill="#1D1D1B"/>
<path d="M51.7945 34.6558C46.3447 34.6558 43.0197 31.3732 43.0197 26.7423V20.5089C43.0197 15.8286 46.387 12.5531 51.7592 12.5531C54.1399 12.5522 56.4661 13.2653 58.4373 14.6003C58.4979 14.633 58.5504 14.679 58.5908 14.7348C58.6312 14.7906 58.6585 14.8548 58.6707 14.9226C58.6829 14.9905 58.6797 15.0602 58.6613 15.1266C58.6429 15.193 58.6098 15.2544 58.5644 15.3062L57.4984 16.9863C57.4643 17.0385 57.42 17.0833 57.3682 17.1181C57.3165 17.1528 57.2582 17.1769 57.197 17.1887C57.1358 17.2006 57.0728 17.2 57.0118 17.1871C56.9508 17.1741 56.893 17.1491 56.8419 17.1134C55.3593 16.1259 53.6182 15.5979 51.8368 15.5956C48.3072 15.5956 46.387 17.6075 46.387 20.5372V26.7706C46.387 29.7214 48.3495 31.7121 51.7945 31.7121C53.7658 31.6789 55.6808 31.0488 57.2866 29.9049C57.3309 29.8566 57.3862 29.8196 57.4477 29.797C57.5093 29.7745 57.5753 29.767 57.6404 29.7754C57.7054 29.7837 57.7675 29.8074 57.8214 29.8447C57.8753 29.882 57.9195 29.9317 57.9502 29.9896L59.1362 31.6697C59.1792 31.716 59.2114 31.7712 59.2307 31.8314C59.25 31.8915 59.2558 31.9552 59.2477 32.0178C59.2396 32.0805 59.2178 32.1406 59.1839 32.1939C59.15 32.2472 59.1048 32.2924 59.0515 32.3262C56.9601 33.8907 54.4056 34.7107 51.7945 34.6558Z" fill="#1D1D1B"/>
<path d="M70.7417 12.5531C75.7891 12.5531 78.9023 15.2145 78.9023 20.509V32.7922C78.9094 32.9097 78.8772 33.0263 78.8108 33.1234C78.7443 33.2206 78.6473 33.2928 78.5352 33.3287C75.9879 34.2003 73.3139 34.644 70.6217 34.6418C66.0331 34.6418 61.8046 32.7922 61.8046 27.9142C61.8046 23.5657 65.3766 21.3914 70.6217 21.3914C72.2797 21.4181 73.9327 21.5834 75.5632 21.8855V20.5937C75.5632 17.2687 74.2078 15.5886 70.6217 15.5886C68.5809 15.5756 66.5726 16.099 64.7977 17.1064C64.7518 17.146 64.6974 17.1745 64.6388 17.1898C64.5801 17.205 64.5187 17.2065 64.4593 17.1942C64.3999 17.182 64.3442 17.1562 64.2964 17.1189C64.2486 17.0817 64.21 17.0339 64.1836 16.9793L62.9976 15.2568C62.8705 15.0098 62.8282 14.8474 62.9976 14.685C65.3087 13.2184 68.0055 12.4759 70.7417 12.5531ZM70.6217 31.6627C72.2955 31.6486 73.9589 31.3991 75.5632 30.9215V24.7728C73.9333 24.4663 72.28 24.3009 70.6217 24.2787C66.8873 24.2787 65.1648 25.6905 65.1648 27.9283C65.1648 30.392 67.4661 31.6627 70.6217 31.6627Z" fill="#1D1D1B"/>
<path d="M102.431 34.4087C101.849 34.3763 101.302 34.1223 100.901 33.6989C100.501 33.2755 100.278 32.7148 100.278 32.132C100.278 31.5492 100.501 30.9886 100.901 30.5652C101.302 30.1418 101.849 29.8878 102.431 29.8554C103.013 29.8878 103.56 30.1418 103.961 30.5652C104.361 30.9886 104.584 31.5492 104.584 32.132C104.584 32.7148 104.361 33.2755 103.961 33.6989C103.56 34.1223 103.013 34.3763 102.431 34.4087Z" fill="#1D1D1B"/>
<path d="M109.377 34.2042C109.053 34.2042 108.883 34.0418 108.883 33.7524V13.4921C108.881 13.4279 108.892 13.3639 108.917 13.3044C108.941 13.2449 108.978 13.1913 109.025 13.1472C109.071 13.1031 109.127 13.0695 109.188 13.0487C109.249 13.0278 109.313 13.0201 109.377 13.0262H111.799C111.861 13.0249 111.924 13.0369 111.981 13.0614C112.039 13.0859 112.091 13.1224 112.134 13.1684C112.176 13.2144 112.209 13.2689 112.229 13.3284C112.249 13.3878 112.256 13.4508 112.25 13.5133V33.7736C112.257 33.8345 112.25 33.8962 112.23 33.9541C112.209 34.012 112.176 34.0645 112.133 34.1079C112.09 34.1513 112.037 34.1843 111.979 34.2047C111.921 34.225 111.86 34.2321 111.799 34.2254L109.377 34.2042Z" fill="#1D1D1B"/>
<path d="M15.0645 4.55488C14.7607 4.56344 14.4584 4.51063 14.1755 4.39961C13.8926 4.2886 13.6351 4.12165 13.4182 3.90877C13.2014 3.69589 13.0297 3.44145 12.9135 3.16068C12.7973 2.87991 12.739 2.57857 12.7419 2.27472C12.7369 1.97062 12.7939 1.6687 12.9095 1.38738C13.0251 1.10606 13.1968 0.851246 13.4142 0.638513C13.6315 0.42578 13.89 0.259587 14.1737 0.150082C14.4575 0.0405766 14.7605 -0.00993882 15.0645 0.00161567C15.3659 -0.00924854 15.6663 0.0421159 15.947 0.152505C16.2277 0.262895 16.4827 0.429938 16.696 0.64322C16.9092 0.856503 17.0763 1.11145 17.1867 1.39215C17.2971 1.67285 17.3484 1.97328 17.3376 2.27472C17.3453 2.57566 17.2918 2.87504 17.1804 3.1547C17.069 3.43437 16.902 3.68851 16.6894 3.9017C16.4769 4.1149 16.2233 4.28273 15.944 4.395C15.6646 4.50728 15.3654 4.56167 15.0645 4.55488Z" fill="#E5005B"/>
<path d="M110.641 4.55488C110.337 4.56344 110.035 4.51063 109.752 4.39961C109.469 4.2886 109.211 4.12165 108.995 3.90877C108.778 3.69589 108.606 3.44145 108.49 3.16068C108.374 2.87991 108.315 2.57857 108.318 2.27472C108.313 1.97062 108.37 1.6687 108.486 1.38738C108.601 1.10606 108.773 0.851246 108.991 0.638513C109.208 0.42578 109.466 0.259587 109.75 0.150082C110.034 0.0405766 110.337 -0.00993882 110.641 0.00161567C110.942 -0.00825727 111.241 0.0438378 111.521 0.154671C111.801 0.265503 112.055 0.432703 112.268 0.645881C112.48 0.859059 112.647 1.11366 112.757 1.39387C112.867 1.67407 112.918 1.9739 112.907 2.27472C112.915 2.57505 112.861 2.87383 112.75 3.15302C112.639 3.4322 112.473 3.68601 112.261 3.89911C112.049 4.11221 111.797 4.28018 111.518 4.39289C111.24 4.5056 110.941 4.5607 110.641 4.55488Z" fill="#E5005B"/>
<path d="M125.614 34.6558C120.079 34.6558 116.592 31.4156 116.592 26.6152V20.7136C116.592 15.9133 120.079 12.5531 125.614 12.5531C131.148 12.5531 134.636 15.9133 134.636 20.7136V26.6152C134.622 31.4156 131.177 34.6558 125.614 34.6558ZM125.614 31.6627C129.306 31.6627 131.261 29.6931 131.261 26.6152V20.7136C131.261 17.6005 129.292 15.5886 125.614 15.5886C121.936 15.5886 119.966 17.6005 119.966 20.7136V26.6152C119.966 29.6931 121.95 31.6627 125.614 31.6627Z" fill="#1D1D1B"/>
<path d="M9.26891 31.4581C8.56297 31.4581 7.75115 31.5358 7.29935 31.5358C4.75799 31.5358 3.3673 29.9404 3.3673 27.2296V16.2029H8.6971C8.97947 16.2029 9.14889 16.0406 9.14889 15.7088V13.6616C9.15561 13.6006 9.14854 13.5389 9.12821 13.481C9.10787 13.4232 9.0748 13.3706 9.03143 13.3272C8.98806 13.2839 8.9355 13.2508 8.87763 13.2305C8.81976 13.2101 8.75806 13.2031 8.6971 13.2098H3.3673V8.16234C3.37402 8.10137 3.36694 8.03968 3.34661 7.98181C3.32628 7.92394 3.29321 7.87138 3.24984 7.828C3.20647 7.78463 3.1539 7.75156 3.09604 7.73123C3.03817 7.7109 2.97647 7.70383 2.9155 7.71054H0.494151C0.169422 7.71054 0 7.87291 0 8.16234V27.392C0 32.4394 3.03551 34.656 7.13698 34.656C7.66643 34.656 8.61238 34.6137 9.35361 34.5713C9.47291 34.5588 9.58256 34.5001 9.65909 34.4077C9.73562 34.3153 9.77294 34.1967 9.76306 34.0772V31.9099C9.76306 31.6205 9.59363 31.4581 9.26891 31.4581Z" fill="#1D1D1B"/>
<path d="M17.8036 2.08411C17.8071 2.14759 17.8071 2.21122 17.8036 2.27471C17.8036 2.3453 17.8036 2.40884 17.8036 2.47237H107.853C107.853 2.40884 107.853 2.3453 107.853 2.27471C107.853 2.20411 107.853 2.14764 107.853 2.08411H17.8036Z" fill="#1D1D1B"/>
</svg>
