<svg width="70" height="52" viewBox="0 0 70 52" fill="none" xmlns="http://www.w3.org/2000/svg">
<path d="M66.5129 42.8333H27.6748V51.4134H66.5129V42.8333Z" fill="#FFC727"/>
<g opacity="0.1">
<path opacity="0.1" d="M29.2761 43.6218C29.4912 44.7529 29.5928 45.9026 29.5792 47.0539C29.5958 48.2053 29.4942 49.3553 29.2761 50.486C29.0609 49.3549 28.9594 48.2052 28.9729 47.0539C28.9624 45.9027 29.0639 44.7533 29.2761 43.6218Z" fill="black"/>
<path opacity="0.1" d="M32.1686 43.6218C32.3838 44.7529 32.4853 45.9026 32.4718 47.0539C32.4884 48.2053 32.3868 49.3553 32.1686 50.486C31.9535 49.3549 31.8519 48.2052 31.8654 47.0539C31.855 45.9027 31.9565 44.7533 32.1686 43.6218Z" fill="black"/>
<path opacity="0.1" d="M33.5815 43.6218C33.7966 44.7529 33.8982 45.9026 33.8846 47.0539C33.9012 48.2053 33.7996 49.3553 33.5815 50.486C33.1773 48.2158 33.1773 45.892 33.5815 43.6218Z" fill="black"/>
<path opacity="0.1" d="M41.3368 43.6218C41.741 45.892 41.741 48.2158 41.3368 50.486C40.9326 48.2158 40.9326 45.892 41.3368 43.6218Z" fill="black"/>
<path opacity="0.1" d="M43.4589 43.6218C43.8631 45.892 43.8631 48.2158 43.4589 50.486C43.0547 48.2158 43.0547 45.892 43.4589 43.6218Z" fill="black"/>
<path opacity="0.1" d="M52.1122 43.6218C52.3274 44.7529 52.4289 45.9026 52.4154 47.0539C52.432 48.2053 52.3304 49.3553 52.1122 50.486C51.708 48.2158 51.708 45.892 52.1122 43.6218Z" fill="black"/>
<path opacity="0.1" d="M54.1194 43.6218C54.5236 45.892 54.5236 48.2158 54.1194 50.486C53.9012 49.3553 53.7996 48.2053 53.8162 47.0539C53.8027 45.9026 53.9042 44.7529 54.1194 43.6218Z" fill="black"/>
<path opacity="0.1" d="M57.8 43.6218C58.2042 45.892 58.2042 48.2158 57.8 50.486C57.5819 49.3553 57.4803 48.2053 57.4969 47.0539C57.4833 45.9026 57.5849 44.7529 57.8 43.6218Z" fill="black"/>
<path opacity="0.1" d="M50.4384 43.6218C50.8426 45.892 50.8426 48.2158 50.4384 50.486C50.0342 48.2158 50.0342 45.892 50.4384 43.6218Z" fill="black"/>
<path opacity="0.1" d="M36.1462 43.6218C36.3584 44.7533 36.4599 45.9027 36.4494 47.0539C36.4629 48.2052 36.3614 49.3549 36.1462 50.486C35.9281 49.3553 35.8265 48.2053 35.843 47.0539C35.8295 45.9026 35.9311 44.7529 36.1462 43.6218Z" fill="black"/>
<path opacity="0.1" d="M46.1996 43.6218C46.6038 45.892 46.6038 48.2158 46.1996 50.486C45.7954 48.2158 45.7954 45.892 46.1996 43.6218Z" fill="black"/>
<path opacity="0.1" d="M47.6432 43.6218C47.8554 44.7533 47.9569 45.9027 47.9464 47.0539C47.963 48.2053 47.8614 49.3553 47.6432 50.486C47.4281 49.3549 47.3265 48.2052 47.3401 47.0539C47.3296 45.9027 47.4311 44.7533 47.6432 43.6218Z" fill="black"/>
<path opacity="0.1" d="M62.5959 43.6218C62.811 44.7529 62.9126 45.9026 62.8991 47.0539C62.9156 48.2053 62.814 49.3553 62.5959 50.486C62.3807 49.3549 62.2792 48.2052 62.2927 47.0539C62.2822 45.9027 62.3838 44.7533 62.5959 43.6218Z" fill="black"/>
<path opacity="0.1" d="M64.7668 43.6218C65.171 45.892 65.171 48.2158 64.7668 50.486C64.5487 49.3553 64.4471 48.2053 64.4637 47.0539C64.4501 45.9026 64.5517 44.7529 64.7668 43.6218Z" fill="black"/>
<path opacity="0.1" d="M59.5097 43.6218C59.9139 45.892 59.9139 48.2158 59.5097 50.486C59.1055 48.2158 59.1055 45.892 59.5097 43.6218Z" fill="black"/>
<path opacity="0.1" d="M39.6633 43.6218C40.0675 45.892 40.0675 48.2158 39.6633 50.486C39.4452 49.3553 39.3436 48.2053 39.3601 47.0539C39.3466 45.9026 39.4482 44.7529 39.6633 43.6218Z" fill="black"/>
</g>
<path opacity="0.1" d="M66.5068 42.8333V44.6584L27.6748 45.8833V42.8333H66.5068Z" fill="black"/>
<path d="M63.8571 34.2537H25.019V42.8338H63.8571V34.2537Z" fill="#FFC727"/>
<g opacity="0.1">
<path opacity="0.1" d="M26.6198 35.0422C26.8352 36.1733 26.9368 37.323 26.923 38.4743C26.9395 39.6257 26.8379 40.7757 26.6198 41.9064C26.4047 40.7753 26.3031 39.6256 26.3166 38.4743C26.3059 37.3231 26.4074 36.1737 26.6198 35.0422Z" fill="black"/>
<path opacity="0.1" d="M29.5124 35.0422C29.7278 36.1733 29.8293 37.323 29.8156 38.4743C29.8305 39.6176 29.7289 40.7594 29.5124 41.8821C29.2972 40.751 29.1957 39.6013 29.2092 38.45C29.2 37.307 29.3016 36.1657 29.5124 35.0422Z" fill="black"/>
<path opacity="0.1" d="M30.925 35.0422C31.1404 36.1733 31.2419 37.323 31.2282 38.4743C31.2447 39.6257 31.1431 40.7757 30.925 41.9064C30.7098 40.7753 30.6083 39.6256 30.6218 38.4743C30.611 37.3231 30.7126 36.1737 30.925 35.0422Z" fill="black"/>
<path opacity="0.1" d="M38.6806 35.0422C39.0848 37.3124 39.0848 39.6362 38.6806 41.9064C38.2764 39.6362 38.2764 37.3124 38.6806 35.0422Z" fill="black"/>
<path opacity="0.1" d="M40.7782 35.0422C41.1824 37.3124 41.1824 39.6362 40.7782 41.9064C40.374 39.6362 40.374 37.3124 40.7782 35.0422Z" fill="black"/>
<path opacity="0.1" d="M49.4557 35.0422C49.6711 36.1733 49.7727 37.323 49.7589 38.4743C49.7755 39.6257 49.6739 40.7757 49.4557 41.9064C49.2406 40.7753 49.139 39.6256 49.1526 38.4743C49.1418 37.3231 49.2433 36.1737 49.4557 35.0422Z" fill="black"/>
<path opacity="0.1" d="M51.4628 35.0422C51.867 37.3124 51.867 39.6362 51.4628 41.9064C51.0586 39.6362 51.0586 37.3124 51.4628 35.0422Z" fill="black"/>
<path opacity="0.1" d="M55.1433 35.0422C55.5475 37.3124 55.5475 39.6362 55.1433 41.9064C54.9252 40.7757 54.8236 39.6257 54.8401 38.4743C54.8264 37.323 54.9279 36.1733 55.1433 35.0422Z" fill="black"/>
<path opacity="0.1" d="M47.7821 35.0422C48.1863 37.3124 48.1863 39.6362 47.7821 41.9064C47.378 39.6362 47.378 37.3124 47.7821 35.0422Z" fill="black"/>
<path opacity="0.1" d="M33.49 35.0422C33.7024 36.1737 33.8039 37.3231 33.7932 38.4743C33.8067 39.6256 33.7051 40.7753 33.49 41.9064C33.2718 40.7757 33.1702 39.6257 33.1868 38.4743C33.173 37.323 33.2746 36.1733 33.49 35.0422Z" fill="black"/>
<path opacity="0.1" d="M43.5439 35.0422C43.9481 37.3124 43.9481 39.6362 43.5439 41.9064C43.1397 39.6362 43.1397 37.3124 43.5439 35.0422Z" fill="black"/>
<path opacity="0.1" d="M44.987 35.0422C45.1994 36.1737 45.3009 37.3231 45.2902 38.4743C45.3067 39.6257 45.2051 40.7757 44.987 41.9064C44.7719 40.7753 44.6703 39.6256 44.6838 38.4743C44.6731 37.3231 44.7746 36.1737 44.987 35.0422Z" fill="black"/>
<path opacity="0.1" d="M59.9396 35.0422C60.155 36.1733 60.2566 37.323 60.2428 38.4743C60.2594 39.6257 60.1578 40.7757 59.9396 41.9064C59.7245 40.7753 59.6229 39.6256 59.6364 38.4743C59.6257 37.3231 59.7272 36.1737 59.9396 35.0422Z" fill="black"/>
<path opacity="0.1" d="M62.1106 35.0422C62.5148 37.3124 62.5148 39.6362 62.1106 41.9064C61.8924 40.7757 61.7909 39.6257 61.8074 38.4743C61.7936 37.323 61.8952 36.1733 62.1106 35.0422Z" fill="black"/>
<path opacity="0.1" d="M56.8534 35.0422C57.2576 37.3124 57.2576 39.6362 56.8534 41.9064C56.4492 39.6362 56.4492 37.3124 56.8534 35.0422Z" fill="black"/>
<path opacity="0.1" d="M37.0066 35.0422C37.4108 37.3124 37.4108 39.6362 37.0066 41.9064C36.7884 40.7757 36.6868 39.6257 36.7034 38.4743C36.6896 37.323 36.7912 36.1733 37.0066 35.0422Z" fill="black"/>
</g>
<path opacity="0.1" d="M63.8511 34.2537V36.0788L25.019 37.3037V34.2537H63.8511Z" fill="black"/>
<path d="M69.8605 17.1589H31.0225V25.7391H69.8605V17.1589Z" fill="#FFC727"/>
<g opacity="0.1">
<path opacity="0.1" d="M32.623 17.9487C33.0272 20.2189 33.0272 22.5427 32.623 24.8129C32.2188 22.5427 32.2188 20.2189 32.623 17.9487Z" fill="black"/>
<path opacity="0.1" d="M35.5096 17.9487C35.9138 20.2189 35.9138 22.5427 35.5096 24.8129C35.1133 22.542 35.1133 20.2196 35.5096 17.9487Z" fill="black"/>
<path opacity="0.1" d="M36.9286 17.9487C37.3328 20.2189 37.3328 22.5427 36.9286 24.8129C36.5244 22.5427 36.5244 20.2189 36.9286 17.9487Z" fill="black"/>
<path opacity="0.1" d="M44.6713 17.9487C45.0755 20.2189 45.0755 22.5427 44.6713 24.8129C44.2671 22.5427 44.2671 20.2189 44.6713 17.9487Z" fill="black"/>
<path opacity="0.1" d="M46.7821 17.9487C47.1863 20.2189 47.1863 22.5427 46.7821 24.8129C46.378 22.5427 46.378 20.2189 46.7821 17.9487Z" fill="black"/>
<path opacity="0.1" d="M55.4589 17.9487C55.8631 20.2189 55.8631 22.5427 55.4589 24.8129C55.0547 22.5427 55.0547 20.2189 55.4589 17.9487Z" fill="black"/>
<path opacity="0.1" d="M57.4604 17.9487C57.6755 19.0798 57.7771 20.2295 57.7636 21.3808C57.7804 22.5322 57.6788 23.6823 57.4604 24.8129C57.0562 22.5427 57.0562 20.2189 57.4604 17.9487Z" fill="black"/>
<path opacity="0.1" d="M61.141 17.9487C61.5452 20.2189 61.5452 22.5427 61.141 24.8129C60.7368 22.5427 60.7368 20.2189 61.141 17.9487Z" fill="black"/>
<path opacity="0.1" d="M53.767 17.9487C53.9821 19.0798 54.0837 20.2295 54.0702 21.3808C54.087 22.5322 53.9854 23.6823 53.767 24.8129C53.3628 22.5427 53.3628 20.2189 53.767 17.9487Z" fill="black"/>
<path opacity="0.1" d="M39.4872 17.9487C39.8914 20.2189 39.8914 22.5427 39.4872 24.8129C39.083 22.5427 39.083 20.2189 39.4872 17.9487Z" fill="black"/>
<path opacity="0.1" d="M49.5227 17.9487C49.7349 19.0802 49.8364 20.2296 49.8259 21.3808C49.8397 22.5321 49.7381 23.6818 49.5227 24.8129C49.3044 23.6823 49.2028 22.5322 49.2196 21.3808C49.2091 20.2296 49.3106 19.0802 49.5227 17.9487Z" fill="black"/>
<path opacity="0.1" d="M50.9838 17.9487C51.388 20.2189 51.388 22.5427 50.9838 24.8129C50.5796 22.5427 50.5796 20.2189 50.9838 17.9487Z" fill="black"/>
<path opacity="0.1" d="M65.9433 17.9487C66.3395 20.2196 66.3395 22.542 65.9433 24.8129C65.5391 22.5427 65.5391 20.2189 65.9433 17.9487Z" fill="black"/>
<path opacity="0.1" d="M68.1083 17.9487C68.5125 20.2189 68.5125 22.5427 68.1083 24.8129C67.7041 22.5427 67.7041 20.2189 68.1083 17.9487Z" fill="black"/>
<path opacity="0.1" d="M62.863 17.9487C63.0751 19.0802 63.1767 20.2296 63.1662 21.3808C63.183 22.5322 63.0814 23.6823 62.863 24.8129C62.6476 23.6818 62.5461 22.5321 62.5598 21.3808C62.5493 20.2296 62.6509 19.0802 62.863 17.9487Z" fill="black"/>
<path opacity="0.1" d="M43.0038 17.9487C43.408 20.2189 43.408 22.5427 43.0038 24.8129C42.5996 22.5427 42.5996 20.2189 43.0038 17.9487Z" fill="black"/>
</g>
<path opacity="0.1" d="M69.8545 17.1589V18.9841L31.0225 20.209V17.1589H69.8545Z" fill="black"/>
<path d="M68.8777 8.58032H30.0396V17.1605H68.8777V8.58032Z" fill="#FFC727"/>
<g opacity="0.1">
<path opacity="0.1" d="M67.1078 16.2328C66.7036 13.9626 66.7036 11.6388 67.1078 9.36865C67.512 11.6388 67.512 13.9626 67.1078 16.2328Z" fill="black"/>
<path opacity="0.1" d="M64.2397 16.2328C63.8355 13.9626 63.8355 11.6388 64.2397 9.36865C64.6439 11.6388 64.6439 13.9626 64.2397 16.2328Z" fill="black"/>
<path opacity="0.1" d="M62.8266 16.2328C62.4224 13.9626 62.4224 11.6388 62.8266 9.36865C63.2308 11.6388 63.2308 13.9626 62.8266 16.2328Z" fill="black"/>
<path opacity="0.1" d="M55.0649 16.2328C54.6607 13.9626 54.6607 11.6388 55.0649 9.36865C55.4691 11.6388 55.4691 13.9626 55.0649 16.2328Z" fill="black"/>
<path opacity="0.1" d="M52.9672 16.2328C52.563 13.9626 52.563 11.6388 52.9672 9.36865C53.3714 11.6388 53.3714 13.9626 52.9672 16.2328Z" fill="black"/>
<path opacity="0.1" d="M44.2958 16.2328C43.8916 13.9626 43.8916 11.6388 44.2958 9.36865C44.7 11.6388 44.7 13.9626 44.2958 16.2328Z" fill="black"/>
<path opacity="0.1" d="M42.2889 16.2328C42.0737 15.1017 41.9722 13.952 41.9857 12.8007C41.9689 11.6493 42.0705 10.4993 42.2889 9.36865C42.5042 10.4997 42.6058 11.6494 42.592 12.8007C42.6025 13.9519 42.501 15.1013 42.2889 16.2328Z" fill="black"/>
<path opacity="0.1" d="M38.6082 16.2328C38.3931 15.1017 38.2915 13.952 38.305 12.8007C38.2882 11.6493 38.3898 10.4993 38.6082 9.36865C38.8236 10.4997 38.9251 11.6494 38.9114 12.8007C38.9219 13.9519 38.8203 15.1013 38.6082 16.2328Z" fill="black"/>
<path opacity="0.1" d="M45.9695 16.2328C45.7574 15.1013 45.6559 13.9519 45.6663 12.8007C45.6495 11.6493 45.7511 10.4993 45.9695 9.36865C46.1849 10.4997 46.2865 11.6494 46.2727 12.8007C46.2832 13.9519 46.1817 15.1013 45.9695 16.2328Z" fill="black"/>
<path opacity="0.1" d="M60.262 16.2328C60.0469 15.1017 59.9453 13.952 59.9588 12.8007C59.942 11.6493 60.0436 10.4993 60.262 9.36865C60.6662 11.6388 60.6662 13.9626 60.262 16.2328Z" fill="black"/>
<path opacity="0.1" d="M50.2082 16.2328C49.9961 15.1013 49.8946 13.9519 49.905 12.8007C49.8913 11.6494 49.9928 10.4997 50.2082 9.36865C50.4266 10.4993 50.5282 11.6493 50.5114 12.8007C50.5249 13.952 50.4234 15.1017 50.2082 16.2328Z" fill="black"/>
<path opacity="0.1" d="M48.7646 16.2328C48.3604 13.9626 48.3604 11.6388 48.7646 9.36865C49.1688 11.6388 49.1688 13.9626 48.7646 16.2328Z" fill="black"/>
<path opacity="0.1" d="M33.8114 16.2328C33.4073 13.9626 33.4073 11.6388 33.8114 9.36865C34.2156 11.6388 34.2156 13.9626 33.8114 16.2328Z" fill="black"/>
<path opacity="0.1" d="M31.6406 16.2329C31.4218 15.0941 31.3182 13.9361 31.3314 12.7765C31.3146 11.6252 31.4162 10.4751 31.6346 9.34448C31.8499 10.4755 31.9515 11.6253 31.9378 12.7765C31.9518 13.9356 31.8523 15.0932 31.6406 16.2329Z" fill="black"/>
<path opacity="0.1" d="M36.8982 16.2328C36.686 15.1013 36.5845 13.9519 36.595 12.8007C36.5812 11.6494 36.6828 10.4997 36.8982 9.36865C37.1166 10.4993 37.2182 11.6493 37.2014 12.8007C37.2118 13.9519 37.1103 15.1013 36.8982 16.2328Z" fill="black"/>
<path opacity="0.1" d="M56.7449 16.2328C56.5298 15.1017 56.4282 13.952 56.4417 12.8007C56.4249 11.6493 56.5265 10.4993 56.7449 9.36865C56.9603 10.4997 57.0619 11.6494 57.0481 12.8007C57.0586 13.9519 56.957 15.1013 56.7449 16.2328Z" fill="black"/>
</g>
<path opacity="0.1" d="M68.8716 8.58032V10.4055L30.0396 11.6304V8.58032H68.8716Z" fill="black"/>
<path d="M66.5129 0H27.6748V8.58015H66.5129V0Z" fill="#FFC727"/>
<g opacity="0.1">
<path opacity="0.1" d="M29.2758 0.787598C29.68 3.05779 29.68 5.38152 29.2758 7.65171C28.8716 5.38152 28.8716 3.05779 29.2758 0.787598Z" fill="black"/>
<path opacity="0.1" d="M32.1689 0.787354C32.3842 1.91839 32.4858 3.06815 32.4721 4.21942C32.4883 5.37079 32.3867 6.52078 32.1689 7.65146C31.7647 5.38127 31.7647 3.05754 32.1689 0.787354Z" fill="black"/>
<path opacity="0.1" d="M33.5815 0.787354C33.9857 3.05754 33.9857 5.38127 33.5815 7.65146C33.1773 5.38127 33.1773 3.05754 33.5815 0.787354Z" fill="black"/>
<path opacity="0.1" d="M41.3373 0.787354C41.7415 3.05754 41.7415 5.38127 41.3373 7.65146C40.9331 5.38127 40.9331 3.05754 41.3373 0.787354Z" fill="black"/>
<path opacity="0.1" d="M43.4589 0.787354C43.8631 3.05754 43.8631 5.38127 43.4589 7.65146C43.0547 5.38127 43.0547 3.05754 43.4589 0.787354Z" fill="black"/>
<path opacity="0.1" d="M52.1117 0.787354C52.5159 3.05754 52.5159 5.38127 52.1117 7.65146C51.7075 5.38127 51.7075 3.05754 52.1117 0.787354Z" fill="black"/>
<path opacity="0.1" d="M54.1193 0.787354C54.3317 1.9188 54.4333 3.06826 54.4225 4.21942C54.4357 5.37067 54.3342 6.52036 54.1193 7.65146C53.9015 6.52078 53.7999 5.37079 53.8161 4.21942C53.8024 3.06815 53.9039 1.91839 54.1193 0.787354Z" fill="black"/>
<path opacity="0.1" d="M57.8 0.787354C58.0124 1.9188 58.1139 3.06826 58.1032 4.21942C58.1164 5.37067 58.0148 6.52036 57.8 7.65146C57.5821 6.52078 57.4805 5.37079 57.4968 4.21942C57.486 3.06826 57.5876 1.9188 57.8 0.787354Z" fill="black"/>
<path opacity="0.1" d="M50.4382 0.787354C50.6506 1.9188 50.7521 3.06826 50.7414 4.21942C50.7546 5.37067 50.653 6.52036 50.4382 7.65146C50.2203 6.52078 50.1187 5.37079 50.135 4.21942C50.1212 3.06815 50.2228 1.91839 50.4382 0.787354Z" fill="black"/>
<path opacity="0.1" d="M36.1466 0.787354C36.359 1.9188 36.4606 3.06826 36.4498 4.21942C36.4661 5.37079 36.3645 6.52078 36.1466 7.65146C35.9318 6.52036 35.8302 5.37067 35.8434 4.21942C35.8327 3.06826 35.9342 1.9188 36.1466 0.787354Z" fill="black"/>
<path opacity="0.1" d="M46.1996 0.787354C46.6038 3.05754 46.6038 5.38127 46.1996 7.65146C45.7954 5.38127 45.7954 3.05754 46.1996 0.787354Z" fill="black"/>
<path opacity="0.1" d="M47.643 0.787354C47.8584 1.91839 47.9599 3.06815 47.9462 4.21942C47.9624 5.37079 47.8608 6.52078 47.643 7.65146C47.2388 5.38127 47.2388 3.05754 47.643 0.787354Z" fill="black"/>
<path opacity="0.1" d="M62.5966 0.787354C63.0008 3.05754 63.0008 5.38127 62.5966 7.65146C62.1924 5.38127 62.1924 3.05754 62.5966 0.787354Z" fill="black"/>
<path opacity="0.1" d="M64.7668 0.787354C64.9792 1.9188 65.0807 3.06826 65.07 4.21942C65.0832 5.37067 64.9816 6.52036 64.7668 7.65146C64.5489 6.52078 64.4473 5.37079 64.4636 4.21942C64.4528 3.06826 64.5544 1.9188 64.7668 0.787354Z" fill="black"/>
<path opacity="0.1" d="M59.5099 0.787354C59.9141 3.05754 59.9141 5.38127 59.5099 7.65146C59.2921 6.52078 59.1905 5.37079 59.2068 4.21942C59.193 3.06815 59.2946 1.91839 59.5099 0.787354Z" fill="black"/>
<path opacity="0.1" d="M39.6633 0.787354C39.8757 1.9188 39.9772 3.06826 39.9665 4.21942C39.9797 5.37067 39.8781 6.52036 39.6633 7.65146C39.4454 6.52078 39.3438 5.37079 39.3601 4.21942C39.3493 3.06826 39.4509 1.9188 39.6633 0.787354Z" fill="black"/>
</g>
<path opacity="0.1" d="M66.5068 0V1.82518L27.6748 3.05005V0H66.5068Z" fill="black"/>
<path d="M66.5129 25.74H27.6748V34.3201H66.5129V25.74Z" fill="#FFC727"/>
<g opacity="0.1">
<path opacity="0.1" d="M64.7668 33.3925C64.5514 32.2614 64.4498 31.1117 64.4636 29.9604C64.4473 28.809 64.5489 27.659 64.7668 26.5283C64.9816 27.6594 65.0832 28.8091 65.07 29.9604C65.0807 31.1115 64.9792 32.261 64.7668 33.3925Z" fill="black"/>
<path opacity="0.1" d="M61.8747 33.3925C61.6623 32.261 61.5608 31.1115 61.5715 29.9604C61.5553 28.809 61.6568 27.659 61.8747 26.5283C62.0895 27.6594 62.1911 28.8091 62.1779 29.9604C62.1886 31.1115 62.0871 32.261 61.8747 33.3925Z" fill="black"/>
<path opacity="0.1" d="M60.4377 33.3925C60.2223 32.2614 60.1207 31.1117 60.1345 29.9604C60.1182 28.809 60.2198 27.659 60.4377 26.5283C60.6525 27.6594 60.7541 28.8091 60.7409 29.9604C60.7516 31.1115 60.6501 32.261 60.4377 33.3925Z" fill="black"/>
<path opacity="0.1" d="M52.7062 33.3925C52.4909 32.2614 52.3893 31.1117 52.403 29.9604C52.3868 28.809 52.4884 27.659 52.7062 26.5283C53.1104 28.7985 53.1104 31.1223 52.7062 33.3925Z" fill="black"/>
<path opacity="0.1" d="M50.6083 33.3925C50.2041 31.1223 50.2041 28.7985 50.6083 26.5283C51.0125 28.7985 51.0125 31.1223 50.6083 33.3925Z" fill="black"/>
<path opacity="0.1" d="M41.9313 33.3925C41.716 32.2614 41.6144 31.1117 41.6281 29.9604C41.6119 28.809 41.7135 27.659 41.9313 26.5283C42.1462 27.6594 42.2478 28.8091 42.2345 29.9604C42.2453 31.1115 42.1437 32.261 41.9313 33.3925Z" fill="black"/>
<path opacity="0.1" d="M39.9242 33.3925C39.52 31.1223 39.52 28.7985 39.9242 26.5283C40.3284 28.7985 40.3284 31.1223 39.9242 33.3925Z" fill="black"/>
<path opacity="0.1" d="M36.2436 33.3925C35.8394 31.1223 35.8394 28.7985 36.2436 26.5283C36.4614 27.659 36.563 28.809 36.5468 29.9604C36.5605 31.1117 36.459 32.2614 36.2436 33.3925Z" fill="black"/>
<path opacity="0.1" d="M43.6049 33.3925C43.2007 31.1223 43.2007 28.7985 43.6049 26.5283C44.0091 28.7985 44.0091 31.1223 43.6049 33.3925Z" fill="black"/>
<path opacity="0.1" d="M57.8969 33.3925C57.4927 31.1223 57.4927 28.7985 57.8969 26.5283C58.1147 27.659 58.2163 28.809 58.2001 29.9604C58.2138 31.1117 58.1123 32.2614 57.8969 33.3925Z" fill="black"/>
<path opacity="0.1" d="M47.8432 33.3925C47.439 31.1223 47.439 28.7985 47.8432 26.5283C48.2474 28.7985 48.2474 31.1223 47.8432 33.3925Z" fill="black"/>
<path opacity="0.1" d="M46.4001 33.3925C46.1877 32.261 46.0861 31.1115 46.0969 29.9604C46.0806 28.809 46.1822 27.659 46.4001 26.5283C46.6149 27.6594 46.7165 28.8091 46.7033 29.9604C46.714 31.1115 46.6125 32.261 46.4001 33.3925Z" fill="black"/>
<path opacity="0.1" d="M31.447 33.3925C31.2316 32.2614 31.13 31.1117 31.1438 29.9604C31.1275 28.809 31.2291 27.659 31.447 26.5283C31.6618 27.6594 31.7634 28.8091 31.7501 29.9604C31.7609 31.1115 31.6594 32.261 31.447 33.3925Z" fill="black"/>
<path opacity="0.1" d="M29.2758 33.3925C28.8716 31.1223 28.8716 28.7985 29.2758 26.5283C29.4936 27.659 29.5952 28.809 29.579 29.9604C29.5927 31.1117 29.4912 32.2614 29.2758 33.3925Z" fill="black"/>
<path opacity="0.1" d="M34.5331 33.3925C34.1289 31.1223 34.1289 28.7985 34.5331 26.5283C34.9373 28.7985 34.9373 31.1223 34.5331 33.3925Z" fill="black"/>
<path opacity="0.1" d="M54.3739 33.3925C53.9698 31.1223 53.9698 28.7985 54.3739 26.5283C54.5918 27.659 54.6934 28.809 54.6771 29.9604C54.6909 31.1117 54.5893 32.2614 54.3739 33.3925Z" fill="black"/>
</g>
<path opacity="0.1" d="M66.5068 25.7463V27.5655L27.6748 28.7903V25.7463H66.5068Z" fill="black"/>
<path d="M24.4373 13.1695C50.0019 17.7537 43.2348 55.6155 17.6399 51.0313C-7.95505 46.4472 -1.16975 8.57319 24.4373 13.1695Z" fill="#FFC727"/>
<path opacity="0.1" d="M24.4373 13.1695C50.0019 17.7537 43.2348 55.6155 17.6399 51.0313C-7.95505 46.4472 -1.16975 8.57319 24.4373 13.1695Z" fill="black"/>
<path d="M22.0358 12.7395C46.3998 17.1054 39.6206 54.9794 15.2444 50.6014C-9.13169 46.2234 -2.36459 8.35546 22.0358 12.7395Z" fill="#FFC727"/>
<path opacity="0.1" d="M3.18945 32.5625C3.31679 39.3053 7.24608 45.842 15.8202 47.3822C36.073 51.0204 41.6819 19.5861 21.4594 15.9539L21.0653 15.8933C40.0205 19.6892 34.5874 49.4317 15.2805 45.9693C7.40374 44.5565 3.60785 38.7293 3.18945 32.5625Z" fill="black"/>
</svg>
