<svg width="503" height="426" viewBox="0 0 503 426" fill="none" xmlns="http://www.w3.org/2000/svg">
<path d="M207.15 192.319L265.576 89.6921" stroke="black" stroke-opacity="0.2" stroke-width="0.5"/>
<path d="M337.124 258.862L395.55 156.235" stroke="black" stroke-opacity="0.2" stroke-width="0.5"/>
<path d="M208.289 141.372L225.835 36.9487" stroke="black" stroke-opacity="0.2" stroke-width="0.5"/>
<path d="M290.944 98.5909C291.525 97.6517 292.759 97.3611 293.692 97.953C328.981 120.351 355.18 154.58 367.57 194.544C380.157 235.146 377.643 278.929 360.491 317.823C343.339 356.716 312.705 388.099 274.236 406.184C235.768 424.27 192.058 427.84 151.165 416.236C110.271 404.632 74.9512 378.636 51.7153 343.041C28.4794 307.446 18.8943 264.651 24.7268 222.545C30.5593 180.439 51.4164 141.861 83.453 113.923C114.987 86.4225 155.259 71.0551 197.053 70.5304C198.157 70.5166 199.055 71.4121 199.056 72.5167L199.216 204.722C199.217 205.827 198.322 206.718 197.219 206.775C188.287 207.232 179.745 210.673 172.976 216.576C165.703 222.918 160.968 231.676 159.644 241.234C158.32 250.793 160.496 260.507 165.771 268.588C171.046 276.668 179.064 282.569 188.347 285.204C197.63 287.838 207.552 287.027 216.285 282.922C225.018 278.816 231.972 271.692 235.866 262.863C239.759 254.034 240.33 244.095 237.473 234.878C234.813 226.299 229.35 218.884 221.991 213.804C221.082 213.176 220.788 211.948 221.369 211.009L290.944 98.5909Z" fill="#E5005B"/>
<path d="M226.548 105.972C226.758 104.887 227.808 104.177 228.89 104.402C244.918 107.739 260.269 113.759 274.292 122.209C275.238 122.779 275.525 124.013 274.942 124.951L221.391 211.121C220.808 212.059 219.577 212.342 218.611 211.807C215.53 210.1 212.236 208.808 208.815 207.965C207.743 207.701 207.032 206.656 207.243 205.572L226.548 105.972Z" fill="#4A2545"/>
<path d="M199.405 127.581C199.406 126.477 200.303 125.58 201.407 125.6C207.698 125.711 213.97 126.312 220.167 127.398C221.255 127.588 221.965 128.638 221.756 129.723L207.151 205.707C206.942 206.792 205.894 207.497 204.8 207.343C203.643 207.18 202.479 207.069 201.312 207.009C200.209 206.952 199.314 206.061 199.315 204.956L199.405 127.581Z" fill="#FFC727"/>
<path d="M270.099 22.5337V11.3337H274.467C275.448 11.3337 276.286 11.4884 276.979 11.7977C277.672 12.107 278.206 12.555 278.579 13.1417C278.952 13.7284 279.139 14.427 279.139 15.2377C279.139 16.0484 278.952 16.747 278.579 17.3337C278.206 17.9097 277.672 18.3577 276.979 18.6777C276.286 18.987 275.448 19.1417 274.467 19.1417H270.979L271.699 18.3897V22.5337H270.099ZM271.699 18.5497L270.979 17.7497H274.419C275.443 17.7497 276.216 17.531 276.739 17.0937C277.272 16.6564 277.539 16.0377 277.539 15.2377C277.539 14.4377 277.272 13.819 276.739 13.3817C276.216 12.9444 275.443 12.7257 274.419 12.7257H270.979L271.699 11.9257V18.5497ZM287.091 22.5337V20.7417L287.011 20.4057V17.3497C287.011 16.699 286.819 16.1977 286.435 15.8457C286.062 15.483 285.497 15.3017 284.739 15.3017C284.238 15.3017 283.747 15.387 283.267 15.5577C282.787 15.7177 282.382 15.9364 282.051 16.2137L281.411 15.0617C281.849 14.7097 282.371 14.443 282.979 14.2617C283.598 14.0697 284.243 13.9737 284.915 13.9737C286.078 13.9737 286.974 14.2564 287.603 14.8217C288.233 15.387 288.547 16.251 288.547 17.4137V22.5337H287.091ZM284.307 22.6297C283.678 22.6297 283.123 22.523 282.643 22.3097C282.174 22.0964 281.811 21.803 281.555 21.4297C281.299 21.0457 281.171 20.6137 281.171 20.1337C281.171 19.675 281.278 19.259 281.491 18.8857C281.715 18.5124 282.073 18.2137 282.563 17.9897C283.065 17.7657 283.737 17.6537 284.579 17.6537H287.267V18.7577H284.643C283.875 18.7577 283.358 18.8857 283.091 19.1417C282.825 19.3977 282.691 19.707 282.691 20.0697C282.691 20.4857 282.857 20.8217 283.187 21.0777C283.518 21.323 283.977 21.4457 284.563 21.4457C285.139 21.4457 285.641 21.3177 286.067 21.0617C286.505 20.8057 286.819 20.4324 287.011 19.9417L287.315 20.9977C287.113 21.499 286.755 21.899 286.243 22.1977C285.731 22.4857 285.086 22.6297 284.307 22.6297ZM292.242 25.7337C291.836 25.7337 291.442 25.6644 291.058 25.5257C290.674 25.3977 290.343 25.2057 290.066 24.9497L290.722 23.7977C290.935 24.0004 291.17 24.155 291.426 24.2617C291.682 24.3684 291.954 24.4217 292.242 24.4217C292.615 24.4217 292.924 24.3257 293.17 24.1337C293.415 23.9417 293.644 23.6004 293.858 23.1097L294.386 21.9417L294.546 21.7497L297.874 14.0537H299.378L295.266 23.3817C295.02 23.979 294.743 24.4484 294.434 24.7897C294.135 25.131 293.804 25.371 293.442 25.5097C293.079 25.659 292.679 25.7337 292.242 25.7337ZM294.258 22.8057L290.386 14.0537H291.986L295.282 21.6057L294.258 22.8057ZM312.059 13.9737C312.742 13.9737 313.345 14.107 313.867 14.3737C314.39 14.6404 314.795 15.0457 315.083 15.5897C315.382 16.1337 315.531 16.8217 315.531 17.6537V22.5337H313.995V17.8297C313.995 17.0084 313.803 16.3897 313.419 15.9737C313.035 15.5577 312.497 15.3497 311.803 15.3497C311.291 15.3497 310.843 15.4564 310.459 15.6697C310.075 15.883 309.777 16.1977 309.563 16.6137C309.361 17.0297 309.259 17.547 309.259 18.1657V22.5337H307.723V17.8297C307.723 17.0084 307.531 16.3897 307.147 15.9737C306.774 15.5577 306.235 15.3497 305.531 15.3497C305.03 15.3497 304.587 15.4564 304.203 15.6697C303.819 15.883 303.521 16.1977 303.307 16.6137C303.094 17.0297 302.987 17.547 302.987 18.1657V22.5337H301.451V14.0537H302.923V16.3097L302.683 15.7337C302.95 15.179 303.361 14.747 303.915 14.4377C304.47 14.1284 305.115 13.9737 305.851 13.9737C306.662 13.9737 307.361 14.1764 307.947 14.5817C308.534 14.9764 308.918 15.579 309.099 16.3897L308.475 16.1337C308.731 15.483 309.179 14.9604 309.819 14.5657C310.459 14.171 311.206 13.9737 312.059 13.9737ZM322.773 22.6297C321.867 22.6297 321.067 22.443 320.373 22.0697C319.691 21.6964 319.157 21.1844 318.773 20.5337C318.4 19.883 318.213 19.1364 318.213 18.2937C318.213 17.451 318.395 16.7044 318.757 16.0537C319.131 15.403 319.637 14.8964 320.277 14.5337C320.928 14.1604 321.659 13.9737 322.469 13.9737C323.291 13.9737 324.016 14.155 324.645 14.5177C325.275 14.8804 325.765 15.3924 326.117 16.0537C326.48 16.7044 326.661 17.467 326.661 18.3417C326.661 18.4057 326.656 18.4804 326.645 18.5657C326.645 18.651 326.64 18.731 326.629 18.8057H319.413V17.7017H325.829L325.205 18.0857C325.216 17.5417 325.104 17.0564 324.869 16.6297C324.635 16.203 324.309 15.8724 323.893 15.6377C323.488 15.3924 323.013 15.2697 322.469 15.2697C321.936 15.2697 321.461 15.3924 321.045 15.6377C320.629 15.8724 320.304 16.2084 320.069 16.6457C319.835 17.0724 319.717 17.563 319.717 18.1177V18.3737C319.717 18.939 319.845 19.4457 320.101 19.8937C320.368 20.331 320.736 20.6724 321.205 20.9177C321.675 21.163 322.213 21.2857 322.821 21.2857C323.323 21.2857 323.776 21.2004 324.181 21.0297C324.597 20.859 324.96 20.603 325.269 20.2617L326.117 21.2537C325.733 21.7017 325.253 22.043 324.677 22.2777C324.112 22.5124 323.477 22.6297 322.773 22.6297ZM333.962 13.9737C334.656 13.9737 335.264 14.107 335.786 14.3737C336.32 14.6404 336.736 15.0457 337.034 15.5897C337.333 16.1337 337.482 16.8217 337.482 17.6537V22.5337H335.946V17.8297C335.946 17.0084 335.744 16.3897 335.338 15.9737C334.944 15.5577 334.384 15.3497 333.658 15.3497C333.114 15.3497 332.64 15.4564 332.234 15.6697C331.829 15.883 331.514 16.1977 331.29 16.6137C331.077 17.0297 330.97 17.547 330.97 18.1657V22.5337H329.434V14.0537H330.906V16.3417L330.666 15.7337C330.944 15.179 331.37 14.747 331.946 14.4377C332.522 14.1284 333.194 13.9737 333.962 13.9737ZM343.877 22.6297C343.024 22.6297 342.362 22.4004 341.893 21.9417C341.424 21.483 341.189 20.827 341.189 19.9737V12.1977H342.725V19.9097C342.725 20.3684 342.837 20.7204 343.061 20.9657C343.296 21.211 343.626 21.3337 344.053 21.3337C344.533 21.3337 344.933 21.2004 345.253 20.9337L345.733 22.0377C345.498 22.2404 345.216 22.3897 344.885 22.4857C344.565 22.5817 344.229 22.6297 343.877 22.6297ZM339.749 15.3177V14.0537H345.157V15.3177H339.749ZM355.599 22.6297C354.895 22.6297 354.223 22.5337 353.583 22.3417C352.953 22.1497 352.457 21.915 352.095 21.6377L352.735 20.4217C353.097 20.667 353.545 20.875 354.079 21.0457C354.612 21.2164 355.156 21.3017 355.711 21.3017C356.425 21.3017 356.937 21.2004 357.247 20.9977C357.567 20.795 357.727 20.5124 357.727 20.1497C357.727 19.883 357.631 19.675 357.439 19.5257C357.247 19.3764 356.991 19.2644 356.671 19.1897C356.361 19.115 356.015 19.051 355.631 18.9977C355.247 18.9337 354.863 18.859 354.479 18.7737C354.095 18.6777 353.743 18.5497 353.423 18.3897C353.103 18.219 352.847 17.9897 352.655 17.7017C352.463 17.403 352.367 17.0084 352.367 16.5177C352.367 16.0057 352.511 15.5577 352.799 15.1737C353.087 14.7897 353.492 14.4964 354.015 14.2937C354.548 14.0804 355.177 13.9737 355.903 13.9737C356.457 13.9737 357.017 14.043 357.583 14.1817C358.159 14.3097 358.628 14.4964 358.991 14.7417L358.335 15.9577C357.951 15.7017 357.551 15.5257 357.135 15.4297C356.719 15.3337 356.303 15.2857 355.887 15.2857C355.215 15.2857 354.713 15.3977 354.383 15.6217C354.052 15.835 353.887 16.1124 353.887 16.4537C353.887 16.7417 353.983 16.9657 354.175 17.1257C354.377 17.275 354.633 17.3924 354.943 17.4777C355.263 17.563 355.615 17.6377 355.999 17.7017C356.383 17.755 356.767 17.8297 357.151 17.9257C357.535 18.011 357.881 18.1337 358.191 18.2937C358.511 18.4537 358.767 18.6777 358.959 18.9657C359.161 19.2537 359.263 19.6377 359.263 20.1177C359.263 20.6297 359.113 21.0724 358.815 21.4457C358.516 21.819 358.095 22.1124 357.551 22.3257C357.007 22.5284 356.356 22.6297 355.599 22.6297ZM365.598 22.6297C364.692 22.6297 363.892 22.443 363.198 22.0697C362.516 21.6964 361.982 21.1844 361.598 20.5337C361.225 19.883 361.038 19.1364 361.038 18.2937C361.038 17.451 361.22 16.7044 361.582 16.0537C361.956 15.403 362.462 14.8964 363.102 14.5337C363.753 14.1604 364.484 13.9737 365.294 13.9737C366.116 13.9737 366.841 14.155 367.47 14.5177C368.1 14.8804 368.59 15.3924 368.942 16.0537C369.305 16.7044 369.486 17.467 369.486 18.3417C369.486 18.4057 369.481 18.4804 369.47 18.5657C369.47 18.651 369.465 18.731 369.454 18.8057H362.238V17.7017H368.654L368.03 18.0857C368.041 17.5417 367.929 17.0564 367.694 16.6297C367.46 16.203 367.134 15.8724 366.718 15.6377C366.313 15.3924 365.838 15.2697 365.294 15.2697C364.761 15.2697 364.286 15.3924 363.87 15.6377C363.454 15.8724 363.129 16.2084 362.894 16.6457C362.66 17.0724 362.542 17.563 362.542 18.1177V18.3737C362.542 18.939 362.67 19.4457 362.926 19.8937C363.193 20.331 363.561 20.6724 364.03 20.9177C364.5 21.163 365.038 21.2857 365.646 21.2857C366.148 21.2857 366.601 21.2004 367.006 21.0297C367.422 20.859 367.785 20.603 368.094 20.2617L368.942 21.2537C368.558 21.7017 368.078 22.043 367.502 22.2777C366.937 22.5124 366.302 22.6297 365.598 22.6297ZM372.259 22.5337V14.0537H373.731V16.3577L373.587 15.7817C373.822 15.195 374.217 14.747 374.771 14.4377C375.326 14.1284 376.009 13.9737 376.819 13.9737V15.4617C376.755 15.451 376.691 15.4457 376.627 15.4457C376.574 15.4457 376.521 15.4457 376.467 15.4457C375.646 15.4457 374.995 15.691 374.515 16.1817C374.035 16.6724 373.795 17.3817 373.795 18.3097V22.5337H372.259ZM381.92 22.5337L378.208 14.0537H379.808L383.104 21.7337H382.336L385.696 14.0537H387.2L383.488 22.5337H381.92ZM389.274 22.5337V14.0537H390.81V22.5337H389.274ZM390.042 12.4217C389.743 12.4217 389.492 12.3257 389.29 12.1337C389.098 11.9417 389.002 11.707 389.002 11.4297C389.002 11.1417 389.098 10.9017 389.29 10.7097C389.492 10.5177 389.743 10.4217 390.042 10.4217C390.34 10.4217 390.586 10.5177 390.778 10.7097C390.98 10.891 391.082 11.1204 391.082 11.3977C391.082 11.6857 390.986 11.931 390.794 12.1337C390.602 12.3257 390.351 12.4217 390.042 12.4217ZM398.078 22.6297C397.214 22.6297 396.441 22.443 395.758 22.0697C395.086 21.6964 394.558 21.1844 394.174 20.5337C393.79 19.883 393.598 19.1364 393.598 18.2937C393.598 17.451 393.79 16.7044 394.174 16.0537C394.558 15.403 395.086 14.8964 395.758 14.5337C396.441 14.1604 397.214 13.9737 398.078 13.9737C398.846 13.9737 399.529 14.1284 400.126 14.4377C400.734 14.7364 401.204 15.1844 401.534 15.7817L400.366 16.5337C400.089 16.1177 399.748 15.8137 399.342 15.6217C398.948 15.419 398.521 15.3177 398.062 15.3177C397.508 15.3177 397.012 15.4404 396.574 15.6857C396.137 15.931 395.79 16.2777 395.534 16.7257C395.278 17.163 395.15 17.6857 395.15 18.2937C395.15 18.9017 395.278 19.4297 395.534 19.8777C395.79 20.3257 396.137 20.6724 396.574 20.9177C397.012 21.163 397.508 21.2857 398.062 21.2857C398.521 21.2857 398.948 21.1897 399.342 20.9977C399.748 20.795 400.089 20.4857 400.366 20.0697L401.534 20.8057C401.204 21.3924 400.734 21.8457 400.126 22.1657C399.529 22.475 398.846 22.6297 398.078 22.6297ZM407.814 22.6297C406.907 22.6297 406.107 22.443 405.414 22.0697C404.731 21.6964 404.198 21.1844 403.814 20.5337C403.441 19.883 403.254 19.1364 403.254 18.2937C403.254 17.451 403.435 16.7044 403.798 16.0537C404.171 15.403 404.678 14.8964 405.318 14.5337C405.969 14.1604 406.699 13.9737 407.51 13.9737C408.331 13.9737 409.057 14.155 409.686 14.5177C410.315 14.8804 410.806 15.3924 411.158 16.0537C411.521 16.7044 411.702 17.467 411.702 18.3417C411.702 18.4057 411.697 18.4804 411.686 18.5657C411.686 18.651 411.681 18.731 411.67 18.8057H404.454V17.7017H410.87L410.246 18.0857C410.257 17.5417 410.145 17.0564 409.91 16.6297C409.675 16.203 409.35 15.8724 408.934 15.6377C408.529 15.3924 408.054 15.2697 407.51 15.2697C406.977 15.2697 406.502 15.3924 406.086 15.6377C405.67 15.8724 405.345 16.2084 405.11 16.6457C404.875 17.0724 404.758 17.563 404.758 18.1177V18.3737C404.758 18.939 404.886 19.4457 405.142 19.8937C405.409 20.331 405.777 20.6724 406.246 20.9177C406.715 21.163 407.254 21.2857 407.862 21.2857C408.363 21.2857 408.817 21.2004 409.222 21.0297C409.638 20.859 410.001 20.603 410.31 20.2617L411.158 21.2537C410.774 21.7017 410.294 22.043 409.718 22.2777C409.153 22.5124 408.518 22.6297 407.814 22.6297ZM423.908 22.6297C423.204 22.6297 422.558 22.4697 421.972 22.1497C421.396 21.819 420.932 21.3337 420.58 20.6937C420.238 20.0537 420.068 19.2537 420.068 18.2937C420.068 17.3337 420.233 16.5337 420.564 15.8937C420.905 15.2537 421.364 14.7737 421.94 14.4537C422.526 14.1337 423.182 13.9737 423.908 13.9737C424.74 13.9737 425.476 14.155 426.116 14.5177C426.756 14.8804 427.262 15.387 427.636 16.0377C428.009 16.6777 428.196 17.4297 428.196 18.2937C428.196 19.1577 428.009 19.915 427.636 20.5657C427.262 21.2164 426.756 21.723 426.116 22.0857C425.476 22.4484 424.74 22.6297 423.908 22.6297ZM419.412 25.6377V14.0537H420.884V16.3417L420.788 18.3097L420.948 20.2777V25.6377H419.412ZM423.78 21.2857C424.324 21.2857 424.809 21.163 425.236 20.9177C425.673 20.6724 426.014 20.3257 426.26 19.8777C426.516 19.419 426.644 18.891 426.644 18.2937C426.644 17.6857 426.516 17.163 426.26 16.7257C426.014 16.2777 425.673 15.931 425.236 15.6857C424.809 15.4404 424.324 15.3177 423.78 15.3177C423.246 15.3177 422.761 15.4404 422.324 15.6857C421.897 15.931 421.556 16.2777 421.3 16.7257C421.054 17.163 420.932 17.6857 420.932 18.2937C420.932 18.891 421.054 19.419 421.3 19.8777C421.556 20.3257 421.897 20.6724 422.324 20.9177C422.761 21.163 423.246 21.2857 423.78 21.2857ZM430.958 22.5337V14.0537H432.43V16.3577L432.286 15.7817C432.521 15.195 432.915 14.747 433.47 14.4377C434.025 14.1284 434.707 13.9737 435.518 13.9737V15.4617C435.454 15.451 435.39 15.4457 435.326 15.4457C435.273 15.4457 435.219 15.4457 435.166 15.4457C434.345 15.4457 433.694 15.691 433.214 16.1817C432.734 16.6724 432.494 17.3817 432.494 18.3097V22.5337H430.958ZM441.605 22.6297C440.752 22.6297 439.994 22.443 439.333 22.0697C438.672 21.6964 438.149 21.1844 437.765 20.5337C437.381 19.8724 437.189 19.1257 437.189 18.2937C437.189 17.451 437.381 16.7044 437.765 16.0537C438.149 15.403 438.672 14.8964 439.333 14.5337C439.994 14.1604 440.752 13.9737 441.605 13.9737C442.448 13.9737 443.2 14.1604 443.861 14.5337C444.533 14.8964 445.056 15.403 445.429 16.0537C445.813 16.6937 446.005 17.4404 446.005 18.2937C446.005 19.1364 445.813 19.883 445.429 20.5337C445.056 21.1844 444.533 21.6964 443.861 22.0697C443.2 22.443 442.448 22.6297 441.605 22.6297ZM441.605 21.2857C442.149 21.2857 442.634 21.163 443.061 20.9177C443.498 20.6724 443.84 20.3257 444.085 19.8777C444.33 19.419 444.453 18.891 444.453 18.2937C444.453 17.6857 444.33 17.163 444.085 16.7257C443.84 16.2777 443.498 15.931 443.061 15.6857C442.634 15.4404 442.149 15.3177 441.605 15.3177C441.061 15.3177 440.576 15.4404 440.149 15.6857C439.722 15.931 439.381 16.2777 439.125 16.7257C438.869 17.163 438.741 17.6857 438.741 18.2937C438.741 18.891 438.869 19.419 439.125 19.8777C439.381 20.3257 439.722 20.6724 440.149 20.9177C440.576 21.163 441.061 21.2857 441.605 21.2857ZM450.759 22.5337L447.047 14.0537H448.647L451.943 21.7337H451.175L454.535 14.0537H456.039L452.327 22.5337H450.759ZM458.112 22.5337V14.0537H459.648V22.5337H458.112ZM458.88 12.4217C458.582 12.4217 458.331 12.3257 458.128 12.1337C457.936 11.9417 457.84 11.707 457.84 11.4297C457.84 11.1417 457.936 10.9017 458.128 10.7097C458.331 10.5177 458.582 10.4217 458.88 10.4217C459.179 10.4217 459.424 10.5177 459.616 10.7097C459.819 10.891 459.92 11.1204 459.92 11.3977C459.92 11.6857 459.824 11.931 459.632 12.1337C459.44 12.3257 459.19 12.4217 458.88 12.4217ZM466.725 22.6297C465.904 22.6297 465.168 22.4484 464.517 22.0857C463.877 21.723 463.371 21.2164 462.997 20.5657C462.624 19.915 462.437 19.1577 462.437 18.2937C462.437 17.4297 462.624 16.6777 462.997 16.0377C463.371 15.387 463.877 14.8804 464.517 14.5177C465.168 14.155 465.904 13.9737 466.725 13.9737C467.44 13.9737 468.085 14.1337 468.661 14.4537C469.237 14.7737 469.696 15.2537 470.037 15.8937C470.389 16.5337 470.565 17.3337 470.565 18.2937C470.565 19.2537 470.395 20.0537 470.053 20.6937C469.723 21.3337 469.269 21.819 468.693 22.1497C468.117 22.4697 467.461 22.6297 466.725 22.6297ZM466.853 21.2857C467.387 21.2857 467.867 21.163 468.293 20.9177C468.731 20.6724 469.072 20.3257 469.317 19.8777C469.573 19.419 469.701 18.891 469.701 18.2937C469.701 17.6857 469.573 17.163 469.317 16.7257C469.072 16.2777 468.731 15.931 468.293 15.6857C467.867 15.4404 467.387 15.3177 466.853 15.3177C466.309 15.3177 465.824 15.4404 465.397 15.6857C464.971 15.931 464.629 16.2777 464.373 16.7257C464.117 17.163 463.989 17.6857 463.989 18.2937C463.989 18.891 464.117 19.419 464.373 19.8777C464.629 20.3257 464.971 20.6724 465.397 20.9177C465.824 21.163 466.309 21.2857 466.853 21.2857ZM469.749 22.5337V20.2457L469.845 18.2777L469.685 16.3097V10.6617H471.221V22.5337H469.749ZM478.543 22.6297C477.637 22.6297 476.837 22.443 476.143 22.0697C475.461 21.6964 474.927 21.1844 474.543 20.5337C474.17 19.883 473.983 19.1364 473.983 18.2937C473.983 17.451 474.165 16.7044 474.527 16.0537C474.901 15.403 475.407 14.8964 476.047 14.5337C476.698 14.1604 477.429 13.9737 478.239 13.9737C479.061 13.9737 479.786 14.155 480.415 14.5177C481.045 14.8804 481.535 15.3924 481.887 16.0537C482.25 16.7044 482.431 17.467 482.431 18.3417C482.431 18.4057 482.426 18.4804 482.415 18.5657C482.415 18.651 482.41 18.731 482.399 18.8057H475.183V17.7017H481.599L480.975 18.0857C480.986 17.5417 480.874 17.0564 480.639 16.6297C480.405 16.203 480.079 15.8724 479.663 15.6377C479.258 15.3924 478.783 15.2697 478.239 15.2697C477.706 15.2697 477.231 15.3924 476.815 15.6377C476.399 15.8724 476.074 16.2084 475.839 16.6457C475.605 17.0724 475.487 17.563 475.487 18.1177V18.3737C475.487 18.939 475.615 19.4457 475.871 19.8937C476.138 20.331 476.506 20.6724 476.975 20.9177C477.445 21.163 477.983 21.2857 478.591 21.2857C479.093 21.2857 479.546 21.2004 479.951 21.0297C480.367 20.859 480.73 20.603 481.039 20.2617L481.887 21.2537C481.503 21.7017 481.023 22.043 480.447 22.2777C479.882 22.5124 479.247 22.6297 478.543 22.6297ZM485.204 22.5337V14.0537H486.676V16.3577L486.532 15.7817C486.767 15.195 487.162 14.747 487.716 14.4377C488.271 14.1284 488.954 13.9737 489.764 13.9737V15.4617C489.7 15.451 489.636 15.4457 489.572 15.4457C489.519 15.4457 489.466 15.4457 489.412 15.4457C488.591 15.4457 487.94 15.691 487.46 16.1817C486.98 16.6724 486.74 17.3817 486.74 18.3097V22.5337H485.204Z" fill="#1D1D1B"/>
<path d="M227.355 22.5337V21.3097L234.339 14.4697C234.979 13.8457 235.459 13.3017 235.779 12.8377C236.099 12.3577 236.315 11.9097 236.427 11.4937C236.539 11.0777 236.595 10.6857 236.595 10.3177C236.595 9.34169 236.259 8.57369 235.587 8.01369C234.931 7.45369 233.955 7.17369 232.659 7.17369C231.667 7.17369 230.787 7.32569 230.019 7.62969C229.267 7.93369 228.619 8.40569 228.075 9.04569L226.851 7.98969C227.507 7.22169 228.347 6.62969 229.371 6.21369C230.395 5.79769 231.539 5.58969 232.803 5.58969C233.939 5.58969 234.923 5.77369 235.755 6.14169C236.587 6.49369 237.227 7.01369 237.675 7.70169C238.139 8.38969 238.371 9.19769 238.371 10.1257C238.371 10.6697 238.291 11.2057 238.131 11.7337C237.987 12.2617 237.715 12.8217 237.315 13.4137C236.931 13.9897 236.363 14.6457 235.611 15.3817L229.203 21.6697L228.723 20.9977H239.139V22.5337H227.355ZM243.798 22.5337L255.27 5.73369H256.686L245.214 22.5337H243.798ZM245.094 14.7337C244.342 14.7337 243.678 14.5497 243.102 14.1817C242.526 13.7977 242.078 13.2617 241.758 12.5737C241.454 11.8857 241.302 11.0857 241.302 10.1737C241.302 9.26169 241.454 8.46169 241.758 7.77369C242.078 7.08569 242.526 6.55769 243.102 6.18969C243.678 5.80569 244.342 5.61369 245.094 5.61369C245.846 5.61369 246.502 5.80569 247.062 6.18969C247.638 6.55769 248.086 7.08569 248.406 7.77369C248.726 8.46169 248.886 9.26169 248.886 10.1737C248.886 11.0857 248.726 11.8857 248.406 12.5737C248.086 13.2617 247.638 13.7977 247.062 14.1817C246.502 14.5497 245.846 14.7337 245.094 14.7337ZM245.094 13.6537C245.878 13.6537 246.502 13.3497 246.966 12.7417C247.446 12.1177 247.686 11.2617 247.686 10.1737C247.686 9.08569 247.446 8.23769 246.966 7.62969C246.502 7.00569 245.878 6.69369 245.094 6.69369C244.294 6.69369 243.662 7.00569 243.198 7.62969C242.734 8.23769 242.502 9.08569 242.502 10.1737C242.502 11.2617 242.734 12.1177 243.198 12.7417C243.662 13.3497 244.294 13.6537 245.094 13.6537ZM255.39 22.6537C254.654 22.6537 253.998 22.4697 253.422 22.1017C252.846 21.7177 252.398 21.1817 252.078 20.4937C251.758 19.8057 251.598 19.0057 251.598 18.0937C251.598 17.1817 251.758 16.3817 252.078 15.6937C252.398 15.0057 252.846 14.4777 253.422 14.1097C253.998 13.7257 254.654 13.5337 255.39 13.5337C256.158 13.5337 256.822 13.7257 257.382 14.1097C257.958 14.4777 258.398 15.0057 258.702 15.6937C259.022 16.3817 259.182 17.1817 259.182 18.0937C259.182 19.0057 259.022 19.8057 258.702 20.4937C258.398 21.1817 257.958 21.7177 257.382 22.1017C256.822 22.4697 256.158 22.6537 255.39 22.6537ZM255.39 21.5737C256.174 21.5737 256.798 21.2697 257.262 20.6617C257.742 20.0377 257.982 19.1817 257.982 18.0937C257.982 17.0057 257.742 16.1577 257.262 15.5497C256.798 14.9257 256.174 14.6137 255.39 14.6137C254.606 14.6137 253.974 14.9257 253.494 15.5497C253.03 16.1577 252.798 17.0057 252.798 18.0937C252.798 19.1817 253.03 20.0377 253.494 20.6617C253.974 21.2697 254.606 21.5737 255.39 21.5737Z" fill="#1D1D1B"/>
<path d="M266.775 71.1773V69.9293L275.679 58.7933H277.599L268.767 69.9293L267.831 69.6413H281.343V71.1773H266.775ZM276.255 75.5933V71.1773L276.303 69.6413V65.7533H277.983V75.5933H276.255ZM284.46 75.5933L295.932 58.7933H297.348L285.876 75.5933H284.46ZM285.756 67.7933C285.004 67.7933 284.34 67.6093 283.764 67.2413C283.188 66.8573 282.74 66.3213 282.42 65.6333C282.116 64.9453 281.964 64.1453 281.964 63.2333C281.964 62.3213 282.116 61.5213 282.42 60.8333C282.74 60.1453 283.188 59.6173 283.764 59.2493C284.34 58.8653 285.004 58.6733 285.756 58.6733C286.508 58.6733 287.164 58.8653 287.724 59.2493C288.3 59.6173 288.748 60.1453 289.068 60.8333C289.388 61.5213 289.548 62.3213 289.548 63.2333C289.548 64.1453 289.388 64.9453 289.068 65.6333C288.748 66.3213 288.3 66.8573 287.724 67.2413C287.164 67.6093 286.508 67.7933 285.756 67.7933ZM285.756 66.7133C286.54 66.7133 287.164 66.4093 287.628 65.8013C288.108 65.1773 288.348 64.3213 288.348 63.2333C288.348 62.1453 288.108 61.2973 287.628 60.6893C287.164 60.0653 286.54 59.7533 285.756 59.7533C284.956 59.7533 284.324 60.0653 283.86 60.6893C283.396 61.2973 283.164 62.1453 283.164 63.2333C283.164 64.3213 283.396 65.1773 283.86 65.8013C284.324 66.4093 284.956 66.7133 285.756 66.7133ZM296.052 75.7133C295.316 75.7133 294.66 75.5293 294.084 75.1613C293.508 74.7773 293.06 74.2413 292.74 73.5533C292.42 72.8653 292.26 72.0653 292.26 71.1533C292.26 70.2413 292.42 69.4413 292.74 68.7533C293.06 68.0653 293.508 67.5373 294.084 67.1693C294.66 66.7853 295.316 66.5933 296.052 66.5933C296.82 66.5933 297.484 66.7853 298.044 67.1693C298.62 67.5373 299.06 68.0653 299.364 68.7533C299.684 69.4413 299.844 70.2413 299.844 71.1533C299.844 72.0653 299.684 72.8653 299.364 73.5533C299.06 74.2413 298.62 74.7773 298.044 75.1613C297.484 75.5293 296.82 75.7133 296.052 75.7133ZM296.052 74.6333C296.836 74.6333 297.46 74.3293 297.924 73.7213C298.404 73.0973 298.644 72.2413 298.644 71.1533C298.644 70.0653 298.404 69.2173 297.924 68.6093C297.46 67.9853 296.836 67.6733 296.052 67.6733C295.268 67.6733 294.636 67.9853 294.156 68.6093C293.692 69.2173 293.46 70.0653 293.46 71.1533C293.46 72.2413 293.692 73.0973 294.156 73.7213C294.636 74.3293 295.268 74.6333 296.052 74.6333Z" fill="#1D1D1B"/>
<path d="M313.719 75.5933V65.7853H309.879V64.3933H319.143V65.7853H315.303V75.5933H313.719ZM321.302 75.5933V67.1133H322.838V75.5933H321.302ZM322.07 65.4813C321.771 65.4813 321.521 65.3853 321.318 65.1933C321.126 65.0013 321.03 64.7666 321.03 64.4893C321.03 64.2013 321.126 63.9613 321.318 63.7693C321.521 63.5773 321.771 63.4813 322.07 63.4813C322.369 63.4813 322.614 63.5773 322.806 63.7693C323.009 63.9506 323.11 64.1799 323.11 64.4573C323.11 64.7453 323.014 64.9906 322.822 65.1933C322.63 65.3853 322.379 65.4813 322.07 65.4813ZM330.907 75.6893C330.203 75.6893 329.557 75.5293 328.971 75.2093C328.395 74.8786 327.931 74.3933 327.579 73.7533C327.237 73.1133 327.067 72.3133 327.067 71.3533C327.067 70.3933 327.232 69.5933 327.563 68.9533C327.904 68.3133 328.363 67.8333 328.939 67.5133C329.525 67.1933 330.181 67.0333 330.907 67.0333C331.739 67.0333 332.475 67.2146 333.115 67.5773C333.755 67.9399 334.261 68.4466 334.635 69.0973C335.008 69.7373 335.195 70.4893 335.195 71.3533C335.195 72.2173 335.008 72.9746 334.635 73.6253C334.261 74.2759 333.755 74.7826 333.115 75.1453C332.475 75.5079 331.739 75.6893 330.907 75.6893ZM326.411 78.6973V67.1133H327.883V69.4013L327.787 71.3693L327.947 73.3373V78.6973H326.411ZM330.779 74.3453C331.323 74.3453 331.808 74.2226 332.235 73.9773C332.672 73.7319 333.013 73.3853 333.259 72.9373C333.515 72.4786 333.643 71.9506 333.643 71.3533C333.643 70.7453 333.515 70.2226 333.259 69.7853C333.013 69.3373 332.672 68.9906 332.235 68.7453C331.808 68.4999 331.323 68.3773 330.779 68.3773C330.245 68.3773 329.76 68.4999 329.323 68.7453C328.896 68.9906 328.555 69.3373 328.299 69.7853C328.053 70.2226 327.931 70.7453 327.931 71.3533C327.931 71.9506 328.053 72.4786 328.299 72.9373C328.555 73.3853 328.896 73.7319 329.323 73.9773C329.76 74.2226 330.245 74.3453 330.779 74.3453ZM341.653 75.6893C340.789 75.6893 340.016 75.5026 339.333 75.1293C338.661 74.7559 338.133 74.2439 337.749 73.5933C337.365 72.9426 337.173 72.1959 337.173 71.3533C337.173 70.5106 337.365 69.7639 337.749 69.1133C338.133 68.4626 338.661 67.9559 339.333 67.5933C340.016 67.2199 340.789 67.0333 341.653 67.0333C342.421 67.0333 343.104 67.1879 343.701 67.4973C344.309 67.7959 344.778 68.2439 345.109 68.8413L343.941 69.5933C343.664 69.1773 343.322 68.8733 342.917 68.6813C342.522 68.4786 342.096 68.3773 341.637 68.3773C341.082 68.3773 340.586 68.4999 340.149 68.7453C339.712 68.9906 339.365 69.3373 339.109 69.7853C338.853 70.2226 338.725 70.7453 338.725 71.3533C338.725 71.9613 338.853 72.4893 339.109 72.9373C339.365 73.3853 339.712 73.7319 340.149 73.9773C340.586 74.2226 341.082 74.3453 341.637 74.3453C342.096 74.3453 342.522 74.2493 342.917 74.0573C343.322 73.8546 343.664 73.5453 343.941 73.1293L345.109 73.8653C344.778 74.4519 344.309 74.9053 343.701 75.2253C343.104 75.5346 342.421 75.6893 341.653 75.6893ZM353.002 75.5933V73.8013L352.922 73.4653V70.4093C352.922 69.7586 352.73 69.2573 352.346 68.9053C351.972 68.5426 351.407 68.3613 350.65 68.3613C350.148 68.3613 349.658 68.4466 349.178 68.6173C348.698 68.7773 348.292 68.9959 347.962 69.2733L347.322 68.1213C347.759 67.7693 348.282 67.5026 348.89 67.3213C349.508 67.1293 350.154 67.0333 350.826 67.0333C351.988 67.0333 352.884 67.3159 353.514 67.8813C354.143 68.4466 354.458 69.3106 354.458 70.4733V75.5933H353.002ZM350.218 75.6893C349.588 75.6893 349.034 75.5826 348.554 75.3693C348.084 75.1559 347.722 74.8626 347.466 74.4893C347.21 74.1053 347.082 73.6733 347.082 73.1933C347.082 72.7346 347.188 72.3186 347.402 71.9453C347.626 71.5719 347.983 71.2733 348.474 71.0493C348.975 70.8253 349.647 70.7133 350.49 70.7133H353.178V71.8173H350.554C349.786 71.8173 349.268 71.9453 349.002 72.2013C348.735 72.4573 348.602 72.7666 348.602 73.1293C348.602 73.5453 348.767 73.8813 349.098 74.1373C349.428 74.3826 349.887 74.5053 350.474 74.5053C351.05 74.5053 351.551 74.3773 351.978 74.1213C352.415 73.8653 352.73 73.4919 352.922 73.0013L353.226 74.0573C353.023 74.5586 352.666 74.9586 352.154 75.2573C351.642 75.5453 350.996 75.6893 350.218 75.6893ZM357.94 75.5933V63.7213H359.476V75.5933H357.94ZM363.049 75.5933V63.7213H364.585V75.5933H363.049Z" fill="#1D1D1B"/>
<path d="M402.48 125.491C403.968 125.491 405.224 125.827 406.248 126.499C407.272 127.155 408.048 128.107 408.576 129.355C409.104 130.603 409.368 132.115 409.368 133.891C409.368 135.779 409.04 137.371 408.384 138.667C407.744 139.963 406.848 140.939 405.696 141.595C404.544 142.251 403.208 142.579 401.688 142.579C400.936 142.579 400.216 142.507 399.528 142.363C398.856 142.219 398.248 141.987 397.704 141.667L398.4 140.275C398.832 140.563 399.328 140.771 399.888 140.899C400.464 141.011 401.056 141.067 401.664 141.067C403.472 141.067 404.912 140.491 405.984 139.339C407.072 138.187 407.616 136.467 407.616 134.179C407.616 133.811 407.592 133.371 407.544 132.859C407.512 132.347 407.424 131.835 407.28 131.323L407.88 131.779C407.72 132.611 407.376 133.323 406.848 133.915C406.336 134.491 405.696 134.931 404.928 135.235C404.176 135.539 403.336 135.691 402.408 135.691C401.304 135.691 400.32 135.483 399.456 135.067C398.608 134.651 397.944 134.067 397.464 133.315C396.984 132.563 396.744 131.675 396.744 130.651C396.744 129.595 396.992 128.683 397.488 127.915C397.984 127.147 398.664 126.555 399.528 126.139C400.408 125.707 401.392 125.491 402.48 125.491ZM402.552 126.955C401.752 126.955 401.04 127.107 400.416 127.411C399.808 127.699 399.328 128.115 398.976 128.659C398.624 129.203 398.448 129.851 398.448 130.603C398.448 131.707 398.824 132.587 399.576 133.243C400.344 133.899 401.376 134.227 402.672 134.227C403.536 134.227 404.288 134.067 404.928 133.747C405.584 133.427 406.088 132.987 406.44 132.427C406.808 131.867 406.992 131.243 406.992 130.555C406.992 129.931 406.824 129.347 406.488 128.803C406.152 128.259 405.656 127.819 405 127.483C404.344 127.131 403.528 126.955 402.552 126.955ZM411.585 138.019V136.771L420.489 125.635H422.409L413.577 136.771L412.641 136.483H426.153V138.019H411.585ZM421.065 142.435V138.019L421.113 136.483V132.595H422.793V142.435H421.065ZM429.27 142.435L440.742 125.635H442.158L430.686 142.435H429.27ZM430.566 134.635C429.814 134.635 429.15 134.451 428.574 134.083C427.998 133.699 427.55 133.163 427.23 132.475C426.926 131.787 426.774 130.987 426.774 130.075C426.774 129.163 426.926 128.363 427.23 127.675C427.55 126.987 427.998 126.459 428.574 126.091C429.15 125.707 429.814 125.515 430.566 125.515C431.318 125.515 431.974 125.707 432.534 126.091C433.11 126.459 433.558 126.987 433.878 127.675C434.198 128.363 434.358 129.163 434.358 130.075C434.358 130.987 434.198 131.787 433.878 132.475C433.558 133.163 433.11 133.699 432.534 134.083C431.974 134.451 431.318 134.635 430.566 134.635ZM430.566 133.555C431.35 133.555 431.974 133.251 432.438 132.643C432.918 132.019 433.158 131.163 433.158 130.075C433.158 128.987 432.918 128.139 432.438 127.531C431.974 126.907 431.35 126.595 430.566 126.595C429.766 126.595 429.134 126.907 428.67 127.531C428.206 128.139 427.974 128.987 427.974 130.075C427.974 131.163 428.206 132.019 428.67 132.643C429.134 133.251 429.766 133.555 430.566 133.555ZM440.862 142.555C440.126 142.555 439.47 142.371 438.894 142.003C438.318 141.619 437.87 141.083 437.55 140.395C437.23 139.707 437.07 138.907 437.07 137.995C437.07 137.083 437.23 136.283 437.55 135.595C437.87 134.907 438.318 134.379 438.894 134.011C439.47 133.627 440.126 133.435 440.862 133.435C441.63 133.435 442.294 133.627 442.854 134.011C443.43 134.379 443.87 134.907 444.174 135.595C444.494 136.283 444.654 137.083 444.654 137.995C444.654 138.907 444.494 139.707 444.174 140.395C443.87 141.083 443.43 141.619 442.854 142.003C442.294 142.371 441.63 142.555 440.862 142.555ZM440.862 141.475C441.646 141.475 442.27 141.171 442.734 140.563C443.214 139.939 443.454 139.083 443.454 137.995C443.454 136.907 443.214 136.059 442.734 135.451C442.27 134.827 441.646 134.515 440.862 134.515C440.078 134.515 439.446 134.827 438.966 135.451C438.502 136.059 438.27 136.907 438.27 137.995C438.27 139.083 438.502 139.939 438.966 140.563C439.446 141.171 440.078 141.475 440.862 141.475Z" fill="#1D1D1B"/>
<path d="M458.944 142.601C458.091 142.601 457.275 142.473 456.496 142.217C455.717 141.95 455.104 141.609 454.656 141.193L455.248 139.945C455.675 140.318 456.219 140.627 456.88 140.873C457.541 141.118 458.229 141.241 458.944 141.241C459.595 141.241 460.123 141.166 460.528 141.017C460.933 140.867 461.232 140.665 461.424 140.409C461.616 140.142 461.712 139.843 461.712 139.513C461.712 139.129 461.584 138.819 461.328 138.585C461.083 138.35 460.757 138.163 460.352 138.025C459.957 137.875 459.52 137.747 459.04 137.641C458.56 137.534 458.075 137.411 457.584 137.273C457.104 137.123 456.661 136.937 456.256 136.713C455.861 136.489 455.541 136.19 455.296 135.817C455.051 135.433 454.928 134.942 454.928 134.345C454.928 133.769 455.077 133.241 455.376 132.761C455.685 132.27 456.155 131.881 456.784 131.593C457.424 131.294 458.235 131.145 459.216 131.145C459.867 131.145 460.512 131.23 461.152 131.401C461.792 131.571 462.347 131.817 462.816 132.137L462.288 133.417C461.808 133.097 461.301 132.867 460.768 132.729C460.235 132.579 459.717 132.505 459.216 132.505C458.587 132.505 458.069 132.585 457.664 132.745C457.259 132.905 456.96 133.118 456.768 133.385C456.587 133.651 456.496 133.95 456.496 134.281C456.496 134.675 456.619 134.99 456.864 135.225C457.12 135.459 457.445 135.646 457.84 135.785C458.245 135.923 458.688 136.051 459.168 136.169C459.648 136.275 460.128 136.398 460.608 136.537C461.099 136.675 461.541 136.857 461.936 137.081C462.341 137.305 462.667 137.603 462.912 137.977C463.157 138.35 463.28 138.83 463.28 139.417C463.28 139.982 463.125 140.51 462.816 141.001C462.507 141.481 462.027 141.87 461.376 142.169C460.736 142.457 459.925 142.601 458.944 142.601ZM469.81 142.569C468.903 142.569 468.103 142.382 467.41 142.009C466.727 141.635 466.194 141.123 465.81 140.473C465.436 139.822 465.25 139.075 465.25 138.233C465.25 137.39 465.431 136.643 465.794 135.993C466.167 135.342 466.674 134.835 467.314 134.473C467.964 134.099 468.695 133.913 469.506 133.913C470.327 133.913 471.052 134.094 471.682 134.457C472.311 134.819 472.802 135.331 473.154 135.993C473.516 136.643 473.698 137.406 473.698 138.281C473.698 138.345 473.692 138.419 473.682 138.505C473.682 138.59 473.676 138.67 473.666 138.745H466.45V137.641H472.866L472.242 138.025C472.252 137.481 472.14 136.995 471.906 136.569C471.671 136.142 471.346 135.811 470.93 135.577C470.524 135.331 470.05 135.209 469.506 135.209C468.972 135.209 468.498 135.331 468.082 135.577C467.666 135.811 467.34 136.147 467.106 136.585C466.871 137.011 466.754 137.502 466.754 138.057V138.313C466.754 138.878 466.882 139.385 467.138 139.833C467.404 140.27 467.772 140.611 468.242 140.857C468.711 141.102 469.25 141.225 469.858 141.225C470.359 141.225 470.812 141.139 471.218 140.969C471.634 140.798 471.996 140.542 472.306 140.201L473.154 141.193C472.77 141.641 472.29 141.982 471.714 142.217C471.148 142.451 470.514 142.569 469.81 142.569ZM476.47 142.473V130.601H478.006V142.473H476.47ZM481.579 142.473V130.601H483.115V142.473H481.579ZM490.464 142.569C489.557 142.569 488.757 142.382 488.064 142.009C487.381 141.635 486.848 141.123 486.464 140.473C486.091 139.822 485.904 139.075 485.904 138.233C485.904 137.39 486.085 136.643 486.448 135.993C486.821 135.342 487.328 134.835 487.968 134.473C488.619 134.099 489.349 133.913 490.16 133.913C490.981 133.913 491.707 134.094 492.336 134.457C492.965 134.819 493.456 135.331 493.808 135.993C494.171 136.643 494.352 137.406 494.352 138.281C494.352 138.345 494.347 138.419 494.336 138.505C494.336 138.59 494.331 138.67 494.32 138.745H487.104V137.641H493.52L492.896 138.025C492.907 137.481 492.795 136.995 492.56 136.569C492.325 136.142 492 135.811 491.584 135.577C491.179 135.331 490.704 135.209 490.16 135.209C489.627 135.209 489.152 135.331 488.736 135.577C488.32 135.811 487.995 136.147 487.76 136.585C487.525 137.011 487.408 137.502 487.408 138.057V138.313C487.408 138.878 487.536 139.385 487.792 139.833C488.059 140.27 488.427 140.611 488.896 140.857C489.365 141.102 489.904 141.225 490.512 141.225C491.013 141.225 491.467 141.139 491.872 140.969C492.288 140.798 492.651 140.542 492.96 140.201L493.808 141.193C493.424 141.641 492.944 141.982 492.368 142.217C491.803 142.451 491.168 142.569 490.464 142.569ZM497.125 142.473V133.993H498.597V136.297L498.453 135.721C498.687 135.134 499.082 134.686 499.637 134.377C500.191 134.067 500.874 133.913 501.685 133.913V135.401C501.621 135.39 501.557 135.385 501.493 135.385C501.439 135.385 501.386 135.385 501.333 135.385C500.511 135.385 499.861 135.63 499.381 136.121C498.901 136.611 498.661 137.321 498.661 138.249V142.473H497.125Z" fill="#1D1D1B"/>
</svg>
