<svg width="414" height="312" viewBox="0 0 414 312" fill="none" xmlns="http://www.w3.org/2000/svg">
<path d="M206.869 259.123C308.054 259.123 390.08 249.146 390.08 236.84C390.08 224.533 308.054 214.557 206.869 214.557C105.684 214.557 23.6572 224.533 23.6572 236.84C23.6572 249.146 105.684 259.123 206.869 259.123Z" fill="#EBEBEB"/>
<path d="M37.3057 180.387L79.7075 180.188L122.109 180.114L206.905 179.973L291.709 180.114L334.102 180.188L376.504 180.387L334.102 180.594L291.709 180.66L206.905 180.801L122.109 180.66L79.7075 180.586L37.3057 180.387Z" fill="#263238"/>
<path d="M76.1895 109.606C82.1345 97.3963 92.5342 91.1219 104.25 94.5902C115.967 98.0585 117.788 114.39 109.036 118.521C100.284 122.651 91.5406 110.599 86.9203 108.124C82.3001 105.649 76.1895 109.606 76.1895 109.606Z" fill="#E5005B"/>
<path d="M70.4348 142.112C70.4348 140.638 70.5259 139.165 70.5756 137.7C70.6833 134.761 70.7826 131.814 70.8903 128.876C71.089 123.504 71.6686 118.223 73.8959 113.273C75.8627 108.781 79.1489 104.994 83.3185 102.412C84.8685 101.476 86.5402 100.757 88.2865 100.277C89.869 98.6773 91.8829 97.5729 94.0825 97.0983C96.8087 96.5415 99.6119 96.4714 102.363 96.8913C102.462 96.8913 102.462 97.0569 102.363 97.0486C99.7517 96.7099 97.0994 96.8984 94.5628 97.6032C93.4751 97.9002 92.4208 98.3079 91.4164 98.82C90.7863 99.1615 90.1804 99.546 89.603 99.9706C91.9686 99.4863 94.4103 99.5117 96.7653 100.045C97.6139 100.255 98.4446 100.531 99.2493 100.873C99.8898 100.727 100.547 100.672 101.203 100.707C102.059 100.733 102.909 100.855 103.737 101.071C105.435 101.548 107.059 102.255 108.564 103.174C108.647 103.224 108.564 103.356 108.481 103.306C107.001 102.499 105.415 101.903 103.77 101.535C102.975 101.354 102.166 101.235 101.352 101.179C100.906 101.154 100.458 101.154 100.011 101.179C103.35 102.721 106.034 105.395 107.587 108.728C107.587 108.819 107.488 108.894 107.455 108.803C106.53 106.869 105.181 105.17 103.508 103.83C101.835 102.49 99.881 101.544 97.792 101.063C97.5353 100.997 97.2703 100.964 97.0136 100.914C97.0751 101.306 97.1165 101.701 97.1378 102.098C97.2124 102.686 97.3117 103.282 97.4359 103.869C97.6744 105.081 97.9925 106.275 98.3881 107.445C98.7841 108.628 99.2571 109.784 99.804 110.905C100.332 112.084 100.999 113.196 101.791 114.216C101.857 114.307 101.725 114.407 101.667 114.307C100.963 113.206 100.143 112.188 99.4976 111.046C98.8812 109.951 98.3497 108.811 97.9079 107.636C97.4574 106.448 97.1084 105.224 96.8646 103.977C96.7321 103.315 96.6328 102.652 96.5583 101.99C96.4756 101.59 96.4505 101.181 96.4837 100.773C95.1129 100.57 93.7216 100.542 92.3437 100.691C92.8654 103.604 93.4201 106.642 95.0596 109.175C95.1093 109.258 94.9685 109.332 94.9188 109.25C94.1552 107.917 93.483 106.534 92.9068 105.111C92.368 103.72 92.0307 102.26 91.9049 100.773C89.4849 101.097 87.1492 101.881 85.0242 103.083C81.02 105.411 77.8222 108.905 75.8583 113.099C73.7956 117.617 72.6421 122.497 72.4635 127.46C72.0743 133.702 71.9915 139.984 71.3705 146.201C71.3705 146.615 70.6832 146.747 70.6087 146.292C70.4183 144.907 70.3601 143.507 70.4348 142.112Z" fill="#263238"/>
<path d="M84.1713 101.427C84.5659 100.957 85.0195 100.54 85.5209 100.186C86.0095 99.7802 86.5063 99.358 87.0279 99.0352C88.0598 98.3307 89.2013 97.8021 90.4061 97.4707C90.5055 97.4707 90.5386 97.6032 90.4061 97.6197C89.1998 97.9375 88.0722 98.5011 87.0941 99.2752C86.5973 99.6394 86.1254 100.028 85.6617 100.434C85.248 100.867 84.7901 101.255 84.2955 101.593C84.2737 101.601 84.2497 101.602 84.2272 101.596C84.2047 101.589 84.185 101.576 84.1709 101.557C84.1569 101.538 84.1493 101.516 84.1494 101.492C84.1495 101.469 84.1572 101.446 84.1713 101.427Z" fill="#263238"/>
<path d="M103.141 105.889C104.123 107.034 105.033 108.239 105.865 109.498C106.677 110.763 107.356 112.109 107.894 113.513C107.894 113.554 107.844 113.579 107.819 113.513C106.459 110.856 104.854 108.331 103.025 105.972C102.942 105.889 103.075 105.781 103.141 105.889Z" fill="#263238"/>
<path d="M90.3564 104.647C90.4799 105.411 90.7055 106.154 91.0271 106.857C91.3506 107.54 91.7272 108.196 92.1531 108.819C92.1531 108.819 92.1531 108.902 92.0869 108.869C91.0701 107.701 90.4143 106.263 90.1991 104.73C90.1908 104.589 90.3398 104.548 90.3564 104.647Z" fill="#263238"/>
<path d="M71.2627 109.904C71.2627 109.904 62.8502 99.3332 46.638 103.083C31.1958 106.642 24.075 134.943 39.6745 138.329C55.274 141.714 52.5251 115.524 58.2052 111.079C62.37 107.818 68.3482 108.521 71.2627 109.904Z" fill="#E5005B"/>
<path d="M34.0687 118.537C35.1145 117.609 36.2209 116.752 37.3807 115.971C38.4908 115.204 39.7032 114.596 40.9825 114.167C42.7659 111.435 45.1723 109.165 48.004 107.545H47.5237C46.6957 107.545 45.8015 107.545 44.9404 107.545C43.2093 107.659 41.5128 108.082 39.931 108.794C39.9123 108.803 39.8909 108.804 39.8715 108.797C39.8521 108.79 39.8363 108.776 39.8275 108.757C39.8187 108.739 39.8177 108.717 39.8247 108.698C39.8317 108.678 39.8461 108.662 39.8647 108.654C41.4583 107.965 43.125 107.46 44.8327 107.147C45.6688 106.997 46.517 106.925 47.3664 106.932C47.8218 106.932 48.2855 106.932 48.7326 107.006H48.9976C50.4857 106.255 52.0554 105.677 53.6758 105.285C53.5267 105.243 53.3777 105.194 53.2204 105.161C52.4274 104.987 51.6259 104.854 50.8192 104.763C49.2025 104.581 47.5692 104.606 45.9588 104.838C45.8595 104.838 45.8346 104.697 45.9588 104.689C47.5902 104.49 49.235 104.424 50.8771 104.49C52.2523 104.527 53.6201 104.705 54.9592 105.02C55.9379 104.836 56.9285 104.723 57.9234 104.68C63.5869 104.44 69.7555 106.559 73.2414 111.211C76.7273 115.863 77.3814 122.08 78.0273 127.7C78.9786 135.53 79.1865 143.431 78.6483 151.3C78.6483 151.763 77.961 151.68 77.9445 151.233C77.7375 144.562 77.4973 137.89 76.8598 131.243C76.5617 128.164 76.2388 125.068 75.7254 122.022C75.3557 119.395 74.5995 116.837 73.4815 114.431C72.2783 111.968 70.3706 109.917 68.0002 108.538C65.6225 107.177 62.9729 106.36 60.2418 106.146C57.7915 105.945 55.325 106.178 52.9554 106.833C53.0259 107.307 53.0259 107.79 52.9554 108.265C52.9032 108.869 52.7837 109.466 52.5994 110.044C52.4179 110.587 52.1907 111.113 51.9204 111.617C51.6141 112.172 51.2415 112.668 50.902 113.206C50.8523 113.289 50.7115 113.206 50.7778 113.115C51.4467 112.163 51.8782 111.065 52.0363 109.912C52.1357 109.365 52.202 108.812 52.2351 108.256C52.2351 107.843 52.2351 107.429 52.2351 107.006C49.6584 107.797 47.2539 109.067 45.1474 110.748C44.7499 111.062 44.3691 111.394 43.9965 111.741C44.5272 112.229 44.9896 112.785 45.3709 113.397C45.9273 114.211 46.4122 115.073 46.8199 115.971C47.5706 117.777 48.0747 119.676 48.3186 121.616C48.3186 121.716 48.1779 121.749 48.1696 121.616C47.8704 119.736 47.2426 117.923 46.3149 116.261C45.8921 115.437 45.4135 114.643 44.8824 113.885C44.6092 113.496 44.3194 113.107 44.0544 112.735C43.8888 112.528 43.7149 112.329 43.5659 112.105C41.6591 113.979 40.1003 116.176 38.9622 118.595C39.7269 119.409 40.3659 120.333 40.8583 121.335C41.4427 122.379 41.9519 123.463 42.3819 124.58C43.1668 126.744 43.8139 128.956 44.3194 131.202C44.3194 131.301 44.1869 131.326 44.1703 131.202C43.6761 128.94 42.9 126.748 41.8602 124.679C41.38 123.661 40.8666 122.659 40.3284 121.666C39.7591 120.754 39.2502 119.805 38.8049 118.827C37.7182 121.196 37.089 123.749 36.9502 126.351C36.9502 126.45 36.7846 126.434 36.7929 126.351C37.0918 122.274 38.3393 118.322 40.4361 114.812C39.4425 115.234 38.4489 115.64 37.4967 116.161C36.2763 116.807 35.1414 117.602 34.1184 118.529C34.0936 118.719 33.9942 118.603 34.0687 118.537Z" fill="#263238"/>
<path d="M45.9754 119.133C46.4639 120.739 47.0766 122.295 47.5155 123.918C47.9653 125.468 48.2075 127.071 48.2358 128.685C48.2358 128.735 48.1613 128.735 48.1613 128.685C47.7118 125.444 46.9237 122.259 45.8098 119.183C45.8065 119.172 45.8054 119.16 45.8066 119.149C45.8077 119.138 45.8111 119.127 45.8165 119.117C45.8219 119.107 45.8292 119.098 45.838 119.091C45.8468 119.084 45.8569 119.078 45.8678 119.075C45.8786 119.072 45.89 119.071 45.9013 119.072C45.9126 119.073 45.9236 119.076 45.9336 119.082C45.9436 119.087 45.9524 119.095 45.9596 119.103C45.9668 119.112 45.9721 119.122 45.9754 119.133Z" fill="#263238"/>
<path d="M35.6916 115.16C36.3262 114.543 37.0489 114.024 37.8361 113.62C38.6379 113.258 39.4689 112.965 40.3201 112.743C40.4195 112.743 40.4443 112.875 40.3201 112.892C39.4801 113.114 38.6728 113.445 37.9189 113.877C37.1543 114.278 36.4184 114.732 35.7165 115.234C35.7113 115.242 35.704 115.248 35.6956 115.252C35.6871 115.256 35.6777 115.257 35.6685 115.256C35.6593 115.255 35.6506 115.251 35.6435 115.245C35.6363 115.239 35.631 115.231 35.628 115.222C35.6251 115.214 35.6247 115.204 35.6269 115.195C35.629 115.186 35.6337 115.178 35.6403 115.171C35.6469 115.165 35.6553 115.16 35.6643 115.158C35.6734 115.156 35.6828 115.157 35.6916 115.16Z" fill="#263238"/>
<path d="M63.2727 95.7904C63.2727 95.7904 61.7161 76.752 47.5904 70.6349C35.7997 65.4946 29.0432 78.7469 37.3812 86.8589C44.1542 93.4147 54.9182 90.4596 63.2727 95.7904Z" fill="#E5005B"/>
<path d="M40.0141 74.3184C42.163 75.1843 44.2588 76.1766 46.2904 77.2901C47.9836 78.2636 49.6125 79.3446 51.1673 80.5266C50.9355 80.0465 50.7285 79.5416 50.4966 79.0698C50.124 78.3413 49.7349 77.6212 49.296 76.9259C48.4241 75.4897 47.3784 74.1663 46.1827 72.9858C46.1082 72.9195 46.1827 72.8119 46.2987 72.8781C47.504 74.0585 48.6117 75.3347 49.6107 76.6941C50.1013 77.3806 50.5492 78.0966 50.952 78.838C51.352 79.5322 51.653 80.2789 51.8463 81.0564L52.0036 81.164C54.4713 83.1374 56.7323 85.3561 58.7518 87.786C58.7518 87.5956 58.669 87.4135 58.6193 87.2397C58.3543 86.3126 58.0728 85.3938 57.7913 84.475C57.1819 82.5276 56.3248 80.6665 55.2411 78.9373C55.1831 78.8545 55.3239 78.7801 55.3735 78.8628C56.4812 80.595 57.4688 82.4009 58.3295 84.2681C58.7203 85.1795 59.0468 86.1171 59.3065 87.0742C59.5096 87.6954 59.6619 88.3321 59.7619 88.978C60.3829 89.7644 60.9874 90.5507 61.5587 91.3619C67.6197 99.9871 70.6667 110.4 71.3953 120.871C71.6051 123.985 71.6576 127.106 71.5527 130.225C71.5261 133.374 71.2492 136.515 70.7247 139.62C70.7247 139.81 70.3769 139.752 70.3852 139.562C70.4514 136.822 70.7329 134.082 70.7909 131.342C70.8489 128.603 70.7909 125.838 70.5259 123.065C70.0773 117.585 69.0447 112.168 67.4458 106.907C65.8018 101.519 63.3807 96.3992 60.2587 91.7096C59.6626 91.5937 59.0747 91.4364 58.4951 91.2874C57.783 91.1053 57.0792 90.9232 56.3754 90.7245C55.0173 90.3686 53.6972 89.8806 52.4341 89.2677C52.3431 89.218 52.4341 89.0856 52.5169 89.1353C53.7601 89.8152 55.1095 90.2798 56.5079 90.5093C57.6091 90.7328 58.7601 90.8735 59.8696 91.1301C58.8429 89.6402 57.7499 88.1916 56.5576 86.8093C53.8658 87.0549 51.152 86.8535 48.526 86.2133C47.1189 85.8784 45.7358 85.4497 44.386 84.9303C42.9701 84.3839 41.6287 83.6886 40.246 83.1009C40.1383 83.0595 40.246 82.9023 40.3039 82.9602C42.8336 84.3399 45.5953 85.2433 48.4515 85.6256C50.9739 86.0282 53.523 86.2412 56.0773 86.2629C55.0672 85.1124 54.0322 83.9866 52.9309 82.9519C49.2381 79.4009 44.8331 76.1561 39.9479 74.4343C39.8568 74.4343 39.9065 74.2771 40.0141 74.3184Z" fill="#263238"/>
<path d="M51.4901 74.3764C52.1415 75.1795 52.7337 76.0288 53.262 76.9176C53.7893 77.8453 54.2061 78.8315 54.504 79.8561C54.504 79.8561 54.4626 79.9141 54.4543 79.8561C53.9824 78.929 53.6263 77.9606 53.1047 77.0335C52.6488 76.1199 52.0934 75.2593 51.4487 74.4674C51.3162 74.4343 51.4238 74.2936 51.4901 74.3764Z" fill="#263238"/>
<path d="M38.3581 80.7004C39.2775 81.1943 40.246 81.591 41.2478 81.8841C42.2179 82.2004 43.2047 82.4629 44.2038 82.6705C44.2038 82.6705 44.2038 82.7615 44.2038 82.7532C43.1638 82.6423 42.1392 82.4174 41.1484 82.0828C40.1708 81.7174 39.2167 81.2916 38.2918 80.808C38.2785 80.8081 38.2654 80.8046 38.2539 80.798C38.2424 80.7913 38.2329 80.7817 38.2264 80.7701C38.2199 80.7585 38.2166 80.7454 38.2168 80.7321C38.2171 80.7188 38.2209 80.7058 38.2278 80.6945C38.2348 80.6832 38.2447 80.6739 38.2565 80.6677C38.2682 80.6615 38.2814 80.6585 38.2947 80.6591C38.308 80.6597 38.3209 80.6639 38.332 80.6711C38.3432 80.6784 38.3522 80.6885 38.3581 80.7004Z" fill="#263238"/>
<path d="M74.2519 92.3718C74.3347 93.1995 76.3882 85.4766 88.3279 78.6228C99.1747 72.398 112.116 56.2237 101.485 46.0009C92.8985 37.7482 70.2858 55.7353 74.2519 92.3718Z" fill="#E5005B"/>
<path d="M66.0299 136.607C66.2018 128.576 66.8348 120.561 67.926 112.602C68.8669 105.275 70.5566 98.0633 72.9685 91.0805C73.8545 88.5972 74.8729 86.1139 75.9741 83.6307C75.9117 82.6845 75.9284 81.7348 76.0238 80.7915C76.0818 79.5747 76.1894 78.3662 76.3053 77.1494C76.4213 75.9326 76.5372 74.724 76.6862 73.5155C76.8353 72.307 77.0837 71.1067 77.1333 69.8982C77.1333 69.7906 77.3155 69.8072 77.2824 69.8982C77.0464 71.1662 76.9052 72.45 76.8601 73.739C76.769 74.9144 76.7028 76.0816 76.6614 77.257C76.62 78.4324 76.6614 79.6078 76.6614 80.7832C76.6614 81.2054 76.6614 81.6606 76.6614 82.1076C77.7875 79.7402 78.9881 77.3977 80.288 75.1296C79.46 70.1631 80.5364 64.9979 81.5466 60.1638C81.5466 60.0645 81.7122 60.1059 81.6956 60.1638C81.1979 62.692 80.9346 65.2606 80.909 67.8371C80.8593 69.8734 80.9587 71.9014 80.967 73.9377C81.2485 73.4493 81.5383 72.9609 81.795 72.4808C83.3406 69.9479 84.9966 67.4646 86.763 65.031C86.6233 63.8565 86.6624 62.6676 86.8789 61.5048C87.0597 60.2004 87.3364 58.9111 87.7069 57.6474C88.0878 56.3782 88.5266 55.1338 89.0234 53.9143C89.5451 52.6644 90.2323 51.4724 90.7291 50.2142C90.7379 50.1956 90.7537 50.1811 90.7731 50.1741C90.7925 50.1672 90.8139 50.1682 90.8326 50.177C90.8513 50.1857 90.8657 50.2016 90.8727 50.221C90.8796 50.2404 90.8786 50.2618 90.8699 50.2804C90.2367 51.4689 89.7369 52.7236 89.3795 54.0219C88.9841 55.2414 88.6579 56.4822 88.4024 57.7385C88.1457 58.9967 87.9387 60.2218 87.7649 61.5213C87.6489 62.3491 87.5744 63.2348 87.4254 64.0874C90.0149 60.7236 92.834 57.5429 95.8627 54.5682C95.9372 54.502 96.0366 54.6096 95.9703 54.6841C91.4217 59.7746 87.3579 65.2782 83.8319 71.1233C83.6994 71.3385 83.5752 71.562 83.451 71.7855C84.1051 71.3716 84.8586 71.0488 85.4796 70.7011C86.6388 70.0555 87.8007 69.4181 88.9655 68.789L92.3437 66.9845C92.9233 66.6617 93.4946 66.3223 94.0825 66.0243C94.788 65.7077 95.4665 65.334 96.1111 64.9069C96.2022 64.8324 96.2933 64.9731 96.2022 65.0227C95.0513 65.6601 94.0328 66.5955 92.8902 67.3073C91.7475 68.0192 90.638 68.7063 89.4788 69.3519C87.3591 70.5356 85.049 71.3882 82.9625 72.6133C81.5135 75.1462 80.1804 77.7536 78.9466 80.4024C80.2162 79.5912 81.5079 78.8159 82.8217 78.0764C83.6663 77.6074 84.5191 77.1438 85.3802 76.6858C86.2328 76.2951 87.0383 75.8092 87.7814 75.2372C87.8559 75.171 87.9636 75.2372 87.8891 75.3449C86.51 76.6046 84.9804 77.6889 83.3351 78.5731C81.795 79.4671 80.2466 80.3362 78.6569 81.1143C77.3707 83.9121 76.217 86.7596 75.1958 89.6567C70.1699 103.886 68.3234 118.992 67.4375 134C67.1808 138.469 67.04 142.939 66.9821 147.417C66.9241 151.896 67.1642 156.357 67.1559 160.827C67.1559 160.96 66.9407 160.993 66.9241 160.827C66.3859 156.854 66.2865 152.823 66.0961 148.833C65.9057 144.843 65.9388 140.655 66.0299 136.607Z" fill="#263238"/>
<path d="M87.7235 72.1911C89.907 71.2202 92.0281 70.1144 94.0742 68.8801C96.1498 67.7129 98.1619 66.4364 100.102 65.0558C100.102 65.0558 100.168 65.0559 100.102 65.1138C98.2682 66.5983 96.3314 67.951 94.3061 69.1615C92.1861 70.3398 89.9961 71.3875 87.7483 72.2987C87.7069 72.3649 87.6324 72.2242 87.7235 72.1911Z" fill="#263238"/>
<path d="M84.2624 56.0995C84.4446 55.4125 84.6598 54.7255 84.9 54.0467C84.9 54.0467 84.8503 54.0053 84.9 53.9722C85.049 53.5832 85.2063 53.2024 85.3636 52.8216C85.3636 52.772 85.3636 52.7223 85.4216 52.6809C85.4796 52.6395 85.4796 52.5402 85.5127 52.4657C85.5458 52.3912 85.5127 52.4657 85.5127 52.4657C85.5127 52.4657 85.4382 52.7306 85.3968 52.863C85.3813 52.9385 85.362 53.0131 85.3388 53.0865C84.5459 55.7396 83.9536 58.4484 83.5669 61.1902C83.5669 61.273 83.4178 61.2813 83.4261 61.1902C83.5429 59.4707 83.8229 57.7661 84.2624 56.0995Z" fill="#263238"/>
<path d="M53.4111 139.496L54.264 149.594L56.8722 180.387H84.8172L87.4254 149.594L88.2782 139.496H53.4111Z" fill="#455A64"/>
<path d="M53.4111 139.496L54.264 149.594H87.4254L88.2782 139.496H53.4111Z" fill="#263238"/>
<path d="M50.6706 145.125H91.019V135.44H50.6706V145.125Z" fill="#455A64"/>
<path d="M167.793 135.291C167.122 135.332 163.992 135.514 159.43 135.804C157.716 132.948 155.646 127.866 156.184 120.532C156.275 119.323 153.7 126.368 155.182 136.069C146.348 136.607 134.342 137.335 123.843 137.873C123.487 133.784 122.973 130.01 122.973 130.01C122.738 132.709 122.264 135.382 121.557 137.998C120.125 138.089 118.717 138.138 117.368 138.205C117.434 131.831 115.952 120.789 115.952 120.789C115.418 126.896 113.885 132.875 111.414 138.486C104.79 138.759 100.352 138.817 100.65 138.486C110.305 126.541 102.671 120.159 105.163 109.87C108.152 97.5369 118.601 95.2109 117.947 86.0559C117.434 78.6061 116.002 65.1137 125.316 61.8689C127.773 59.2807 130.939 57.4733 134.417 56.6725C137.895 55.8716 141.532 56.1128 144.874 57.366C159.977 62.5146 154.942 85.7331 156.135 90.3685C157.791 96.9906 161.103 99.2338 163.752 106.766C166.402 114.299 163.148 119.638 162.924 124.878C162.701 130.117 169.465 135.216 167.793 135.291Z" fill="#263238"/>
<path d="M100.22 136.847C101.521 134.79 102.527 132.561 103.209 130.225C103.888 127.924 103.474 125.614 102.919 123.222C102.293 120.811 101.793 118.368 101.42 115.905C101.052 113.332 101.204 110.711 101.867 108.198C102.59 105.684 103.882 103.37 105.643 101.436C107.346 99.5942 109.199 97.897 111.182 96.3615C113.104 94.8901 114.825 93.173 116.299 91.2543C117.709 89.263 118.548 86.9246 118.726 84.4915C118.918 87.0202 118.341 89.548 117.07 91.7426C115.73 93.8829 114.075 95.8085 112.159 97.4541C110.339 99.0611 108.622 100.781 107.018 102.603C105.508 104.386 104.398 106.472 103.764 108.72C103.185 110.996 103.037 113.359 103.325 115.69C103.548 118.074 104.086 120.457 104.492 122.916C104.719 124.168 104.849 125.435 104.881 126.707C104.875 128.013 104.637 129.308 104.178 130.531C103.237 132.851 101.898 134.989 100.22 136.847Z" fill="#263238"/>
<path d="M153.576 65.6021C154.715 68.4401 155.505 71.4059 155.928 74.4343C156.424 77.4473 156.756 80.4769 157.079 83.4899L157.567 87.9929C157.702 89.4457 157.98 90.8818 158.395 92.2807C159.223 95.0454 160.879 97.421 162.75 99.8381C163.698 101.076 164.561 102.375 165.334 103.729C166.102 105.119 166.713 106.59 167.155 108.116C167.544 109.636 167.821 111.182 167.983 112.743C168.15 114.316 168.123 115.903 167.901 117.469C167.685 119.034 167.304 120.515 166.99 121.972C166.671 123.42 166.49 124.894 166.452 126.376C166.463 127.858 166.827 129.317 167.514 130.631C168.201 131.945 169.19 133.077 170.401 133.933C169.026 133.18 167.86 132.097 167.006 130.783C166.152 129.468 165.637 127.963 165.508 126.401C165.424 124.846 165.499 123.288 165.731 121.749C165.938 120.217 166.261 118.752 166.377 117.295C166.564 114.374 166.219 111.443 165.359 108.645C164.927 107.265 164.352 105.934 163.645 104.672C162.899 103.399 162.069 102.176 161.161 101.013C160.218 99.7848 159.339 98.5084 158.528 97.1893C157.707 95.8201 157.059 94.3549 156.598 92.827C156.195 91.3041 155.937 89.7465 155.828 88.175C155.688 86.6437 155.605 85.1289 155.522 83.6141C155.348 80.5845 155.207 77.5632 154.951 74.5584C154.801 71.5338 154.34 68.5325 153.576 65.6021Z" fill="#263238"/>
<path d="M386.625 229.589C384.042 230.574 309.099 233.918 306.168 232.246C305.845 232.055 305.937 228.744 304.835 220.194C304.777 219.788 303.063 218.199 300.397 215.964C290.378 207.562 266.822 189.856 266.822 189.856L304.223 157.375L340.472 192.969L349.895 202.231C349.895 202.231 380.531 216.783 383.545 218.969C386.559 221.154 389.192 228.595 386.625 229.589Z" fill="#EB9481"/>
<path d="M386.625 229.589C384.042 230.574 309.1 233.918 306.16 232.246C305.846 232.055 305.928 228.744 304.827 220.194C315.55 221.849 372.723 224.788 374.677 218.058C375.456 215.409 366.96 210.608 365.428 209.731C373.51 213.654 381.988 217.884 383.553 218.977C386.559 221.17 389.192 228.595 386.625 229.589Z" fill="#263238"/>
<path d="M327.249 176.364L321.453 182.945L292.68 215.79C292.68 215.79 253.077 187.009 241.444 177.506C241.071 177.192 195.324 209.549 161.873 215.79C136.205 220.583 118.817 210.906 108.74 187.001L151.126 168.252C186.647 150.745 226.672 122.883 250.875 125.813C277.164 129 327.249 176.364 327.249 176.364Z" fill="#37474F"/>
<path d="M318.199 173.964C312.288 180.354 313.902 178.442 308.065 184.898C305.2 188.06 290.801 203.937 288.632 207.289C288.582 207.363 288.681 207.455 288.756 207.405C291.861 204.839 305.92 188.689 308.719 185.478C314.44 178.922 312.726 180.743 318.382 174.129C318.399 174.104 318.406 174.074 318.403 174.044C318.399 174.015 318.385 173.987 318.363 173.967C318.341 173.946 318.312 173.935 318.282 173.934C318.252 173.934 318.222 173.944 318.199 173.964Z" fill="#263238"/>
<path d="M316.899 188.168L292.705 215.798C292.705 215.798 253.077 187.009 241.444 177.506C241.071 177.192 195.324 209.549 161.881 215.798C136.213 220.583 118.784 210.906 108.74 187.001L151.126 168.244C155.829 165.926 160.606 163.434 165.425 160.852C202.644 167.631 284.21 182.299 316.899 188.168Z" fill="#263238"/>
<path d="M380.457 243.503C377.882 244.497 302.931 247.832 300 246.16C299.677 245.97 299.768 242.667 298.667 234.108C298.609 233.703 296.903 232.113 294.229 229.878C284.21 221.477 260.653 203.779 260.653 203.779L298.054 171.282L334.304 206.875L343.727 216.129C343.727 216.129 374.363 230.681 377.385 232.867C380.407 235.052 383.04 242.51 380.457 243.503Z" fill="#EB9481"/>
<path d="M380.465 243.503C377.881 244.488 302.931 247.841 300 246.16C299.677 245.97 299.768 242.667 298.658 234.116C309.381 235.731 366.554 238.711 368.517 231.973C369.295 229.332 360.791 224.523 359.26 223.645C367.341 227.569 375.82 231.799 377.384 232.9C380.39 235.093 383.04 242.51 380.465 243.503Z" fill="#263238"/>
<path d="M357.289 222.876C354.242 221.22 351.212 219.565 348.115 218.075C346.645 217.43 345.275 216.577 344.049 215.542C342.782 214.391 341.565 213.158 340.348 211.974C335.322 207.181 330.313 202.364 325.245 197.604C322.505 195.03 319.797 192.431 317.081 189.832C317.015 189.765 316.899 189.832 316.957 189.931C317.123 190.188 321.693 195.071 323.888 197.281C326.372 199.765 328.856 202.207 331.34 204.648L338.792 211.933C340.042 213.158 341.275 214.366 342.559 215.575C343.671 216.688 344.961 217.609 346.376 218.298C349.928 219.954 353.538 221.518 357.14 223.066C357.314 223.116 357.413 222.942 357.289 222.876Z" fill="#263238"/>
<path d="M101.876 179.559C101.876 179.559 96.3779 209.648 112.11 222.503C123.404 231.782 138.308 232.693 151.167 230.88C186.771 225.822 216.926 182.87 228.767 180.544C234.836 179.369 282.587 226.584 282.587 226.584L319.69 190.684C310.25 182.489 253.979 125.614 225.579 125.614C206.138 125.614 156.855 165.992 155.654 165.52C153.717 164.742 145.089 160.604 145.089 160.604L101.876 179.559Z" fill="#37474F"/>
<path d="M312.188 186.86C307.543 190.767 303.204 195.03 298.816 199.185C294.427 203.341 290.105 207.504 285.824 211.734C283.39 214.134 280.972 216.543 278.637 219.018C278.571 219.076 278.637 219.167 278.728 219.109C283.315 215.136 287.712 210.964 292.109 206.792C296.505 202.62 300.819 198.515 305.117 194.26C307.551 191.876 310.01 189.484 312.312 186.984C312.386 186.901 312.271 186.794 312.188 186.86Z" fill="#263238"/>
<path d="M131.336 174.924C131.27 174.758 131.022 174.874 131.063 175.031C132.128 179.545 131.571 184.289 129.49 188.433C127.08 193.027 122.709 196.321 118.825 199.591C118.453 199.914 118.925 200.501 119.339 200.261C121.856 198.788 124.204 197.045 126.343 195.063C128.324 193.316 129.927 191.184 131.055 188.797C132.063 186.631 132.609 184.279 132.658 181.89C132.706 179.501 132.256 177.129 131.336 174.924Z" fill="#263238"/>
<path d="M156.35 168.525C155.257 167.697 154.098 166.977 152.98 166.199C150.331 164.37 147.665 162.541 144.94 160.819C144.684 160.662 144.377 161.067 144.626 161.258C146.547 162.714 148.526 164.088 150.488 165.479C151.498 166.199 152.5 166.911 153.518 167.615C154.535 168.219 155.49 168.924 156.367 169.717C157.195 170.586 156.723 171.662 155.688 172.06C154.757 172.345 153.752 172.262 152.881 171.828C150.885 171 149.08 169.56 147.284 168.393C146.18 167.67 145.076 166.958 143.972 166.257C142.788 165.512 141.562 164.842 140.386 164.097C140.312 164.047 140.221 164.171 140.295 164.229C141.38 165.057 142.423 166.025 143.516 166.895C144.609 167.764 145.71 168.616 146.828 169.461C147.946 170.305 148.956 171.025 150.041 171.77C150.964 172.437 151.991 172.949 153.08 173.285C154.843 173.757 157.526 173.227 157.799 171.042C157.804 170.531 157.672 170.029 157.417 169.586C157.163 169.144 156.794 168.777 156.35 168.525Z" fill="#263238"/>
<path d="M317.239 187.837C314.895 185.428 312.428 183.135 309.985 180.834C307.543 178.533 305.117 176.273 302.649 174.03C297.681 169.519 292.672 165.057 287.547 160.736C282.421 156.415 277.139 152.252 271.732 148.278C266.325 144.305 260.893 140.613 255.172 137.228C252.315 135.531 249.376 133.917 246.42 132.394C243.52 130.862 240.544 129.48 237.502 128.255C236.674 127.949 235.846 127.642 235.018 127.303C234.894 127.253 234.786 127.435 234.911 127.485C236.434 128.172 237.9 128.983 239.39 129.728C240.88 130.473 242.313 131.227 243.762 131.988C246.676 133.536 249.558 135.15 252.406 136.839C258.114 140.233 263.675 143.864 269.09 147.732C274.514 151.606 279.772 155.695 284.897 159.941C290.022 164.188 295.156 168.583 300.157 173.053C305.158 177.523 310.052 182.009 315.061 186.454C315.69 187.009 316.32 187.564 316.965 188.11C317.004 188.127 317.046 188.132 317.087 188.124C317.128 188.117 317.166 188.097 317.196 188.067C317.225 188.038 317.245 188 317.253 187.959C317.261 187.917 317.256 187.875 317.239 187.837Z" fill="#263238"/>
<path d="M280.674 214.234C269.24 203.357 238.272 175.652 231.259 171.017C230.553 170.556 229.759 170.245 228.927 170.102C228.096 169.96 227.244 169.989 226.424 170.189C224.619 170.636 223.17 171.977 221.746 173.103L216.653 177.134L206.196 185.411C199.663 190.601 193.171 195.841 186.572 200.94C180.745 205.584 174.576 209.782 168.116 213.497C155.696 220.401 139.964 224.813 126.294 218.853C120.067 216.078 115.063 211.132 112.218 204.938C109.262 198.771 108.012 191.918 107.25 185.171C107.068 183.516 106.919 181.902 106.786 180.263C106.79 180.253 106.791 180.242 106.79 180.231C106.788 180.221 106.784 180.211 106.778 180.202C106.772 180.193 106.764 180.186 106.755 180.181C106.745 180.176 106.735 180.173 106.724 180.173C106.713 180.173 106.703 180.176 106.693 180.181C106.684 180.186 106.676 180.193 106.67 180.202C106.663 180.211 106.66 180.221 106.658 180.231C106.657 180.242 106.658 180.253 106.662 180.263C107.299 192.985 109.311 207.744 120.084 216.113C131.535 225.003 147.64 223.455 160.291 218.265C174.475 212.471 186.365 202.273 198.239 192.836L218.997 176.347C220.653 175.015 222.309 173.624 224.039 172.349C225.77 171.075 227.798 170.123 229.777 171.273C236.335 175.089 278.853 213.141 280.36 214.466C280.592 214.664 280.857 214.399 280.674 214.234Z" fill="#263238"/>
<path d="M140.427 114.911C148.053 119.539 186.572 140.779 199.149 134.422C214.393 126.707 230.489 111.816 235.921 102.851C238.959 97.8266 213.813 83.4154 210.509 87.579C205.31 94.2011 191.805 106.402 189.354 108.273C186.903 110.144 160.308 104.432 145.429 103.422C132.023 102.487 135.054 111.683 140.427 114.911Z" fill="#EB9481"/>
<path d="M244.673 90.9894C242.388 96.734 233.081 106.651 229.943 108.182C226.805 109.713 209.392 94.4991 209.615 90.9066C209.839 87.3141 219.038 68.5572 224.519 65.4449C230.001 62.3325 247.049 85.0047 244.673 90.9894Z" fill="#EB9481"/>
<path d="M210.617 87.4052C210.617 87.4052 210.708 79.3594 208.415 72.6546C206.494 67.0093 202.991 58.8559 205.989 57.7053C212.132 55.3462 220.851 75.6924 220.851 75.6924C220.851 75.6924 223.252 85.2861 217.374 88.1584C216.287 88.6677 215.082 88.8668 213.889 88.7339C212.697 88.6009 211.565 88.1411 210.617 87.4052Z" fill="#EB9481"/>
<path d="M217.051 71.9013C217.589 75.1379 221.091 72.6546 221.091 72.6546C221.091 72.6546 216.91 77.439 218.748 80.5597C220.536 83.5561 224.66 80.4107 224.958 80.1872C224.743 80.4438 221.017 84.9468 223.186 87.8853C225.355 90.8238 229.048 87.0575 229.28 86.8258C229.148 87.132 227.483 91.2046 229.644 93.067C233.362 96.2539 237.924 85.9566 241.659 84.6819C241.659 84.6819 244.557 90.7907 244.673 90.9563C244.673 90.9563 249.194 81.2467 247.157 76.2719C246.875 75.5455 246.354 74.937 245.679 74.5471C245.005 74.1573 244.217 74.0094 243.447 74.128C243.447 74.128 245.252 71.1564 243.613 68.7807C242.785 67.5722 240.069 67.8371 240.069 67.8371C240.069 67.8371 241.419 65.4035 239.829 63.3837C238.562 61.7282 236.061 62.2911 236.061 62.2911C236.061 62.2911 236.26 59.3526 234.405 58.1523C230.787 55.6277 215.9 64.9813 217.051 71.9013Z" fill="#EB9481"/>
<path d="M235.681 62.3077C235.692 62.3077 235.702 62.3033 235.71 62.2955C235.718 62.2878 235.722 62.2773 235.722 62.2663C235.722 62.2553 235.718 62.2448 235.71 62.237C235.702 62.2292 235.692 62.2249 235.681 62.2249C229.791 64.1589 224.63 67.8401 220.884 72.7788C220.768 72.9443 220.975 73.2009 221.141 73.0436C225.443 68.7812 230.34 65.1649 235.681 62.3077Z" fill="#263238"/>
<path d="M240.152 67.7626C240.21 67.7626 240.152 67.6301 240.094 67.655C234.298 69.625 228.063 74.0701 224.701 80.1541C224.585 80.361 224.701 80.6673 224.842 80.4355C227.392 76.5616 235.109 70.3617 240.152 67.7626Z" fill="#263238"/>
<path d="M229.189 87.3307C232.642 81.6192 237.577 77.5963 243.265 74.1942C243.34 74.1446 243.265 74.0452 243.199 74.0701C239.978 74.9806 236.575 77.5301 234.132 79.7319C231.809 81.7275 230.048 84.2957 229.024 87.1817C228.949 87.3224 229.123 87.4466 229.189 87.3307Z" fill="#263238"/>
<path d="M220.976 72.6546C220.843 72.845 221.274 72.8367 221.141 73.0271C220.587 73.8548 217.697 79.0945 219.179 80.6342C220.363 81.8675 222.847 81.1225 223.683 80.4686L225.803 78.8131L224.395 81.106C223.755 82.1259 223.288 83.2447 223.013 84.417C222.854 84.948 222.81 85.5063 222.883 86.0555C222.956 86.6047 223.144 87.1324 223.435 87.6039C223.707 88.0315 224.117 88.3537 224.597 88.5177C225.077 88.6817 225.599 88.6776 226.076 88.5061C227.151 88.0882 228.1 87.4013 228.833 86.5112L230.945 84.1273L229.736 87.0575C229.399 87.8718 229.168 88.7258 229.049 89.5987C228.894 90.4361 228.992 91.3006 229.33 92.082C229.495 92.4214 229.751 92.7081 230.07 92.9099C230.389 93.1117 230.758 93.2206 231.135 93.2243C231.975 93.1014 232.764 92.7459 233.412 92.1979C234.83 91.0207 236.156 89.7367 237.378 88.3571C238.024 87.6784 238.662 86.9996 239.341 86.3457C239.98 85.6571 240.759 85.1125 241.626 84.7481C240.816 85.1986 240.101 85.8032 239.523 86.5278C238.91 87.2231 238.322 87.9432 237.734 88.6634C236.584 90.1583 235.298 91.5438 233.892 92.8022C233.139 93.4927 232.201 93.9499 231.193 94.1183C230.633 94.1481 230.077 94.0145 229.592 93.7338C229.107 93.4531 228.714 93.0373 228.461 92.5373C228.021 91.5981 227.871 90.549 228.03 89.5242C228.148 88.5475 228.393 87.5903 228.759 86.6768L229.661 87.2231C228.811 88.2908 227.694 89.1159 226.424 89.6153C225.713 89.8762 224.932 89.8762 224.221 89.6153C223.53 89.3438 222.935 88.8709 222.516 88.2578C222.148 87.6612 221.911 86.9937 221.819 86.2989C221.728 85.6041 221.785 84.8979 221.986 84.2266C222.311 82.9516 222.843 81.7382 223.559 80.6342L224.263 81.2715C223.17 82.0993 220.487 83.2085 218.401 81.5281C216.041 78.871 220.156 73.6065 220.976 72.6546Z" fill="#263238"/>
<path d="M221.108 72.6546C220.49 72.9281 219.834 73.1067 219.162 73.1844C218.894 73.2245 218.621 73.1918 218.37 73.0899C218.12 72.9879 217.901 72.8204 217.738 72.6049C217.45 72.0785 217.315 71.4821 217.349 70.8832C217.349 70.221 217.407 69.534 217.481 68.8138C217.069 69.4168 216.787 70.099 216.653 70.817C216.557 71.2077 216.539 71.6136 216.6 72.0113C216.661 72.4091 216.8 72.7908 217.009 73.1347C217.278 73.489 217.647 73.7543 218.069 73.8962C218.473 74.008 218.899 74.008 219.303 73.8962C220.02 73.6823 220.652 73.2479 221.108 72.6546Z" fill="#263238"/>
<path d="M186.456 107.793L176.52 133.288C176.52 133.288 153.212 124.497 142.001 117.428C130.79 110.359 129.97 103.017 146.555 103.017C157.054 103.017 186.456 107.793 186.456 107.793Z" fill="#E5005B"/>
<path d="M135.344 108.025L134.739 108.77L134.789 109.73L134.052 109.448C133.78 108.7 133.756 107.885 133.986 107.122L134.416 107.785L135.344 108.025Z" fill="#E5005B"/>
<path d="M151.39 108.025L150.786 108.77L150.835 109.73L149.933 109.39L149.039 109.73L149.088 108.77L148.484 108.025L149.411 107.785L149.933 106.973L150.463 107.785L151.39 108.025Z" fill="#E5005B"/>
<path d="M159.405 119.621L158.801 120.366L158.851 121.327L157.956 120.987L157.062 121.327L157.112 120.366L156.507 119.621L157.435 119.381L157.956 118.57L158.478 119.381L159.405 119.621Z" fill="#E5005B"/>
<path d="M167.429 108.025L166.824 108.77L166.874 109.73L165.98 109.39L165.086 109.73L165.135 108.77L164.531 108.025L165.458 107.785L165.98 106.973L166.501 107.785L167.429 108.025Z" fill="#E5005B"/>
<path d="M175.452 119.621L174.848 120.366L174.897 121.327L174.003 120.987L173.101 121.327L173.159 120.366L172.554 119.621L173.482 119.381L174.003 118.57L174.525 119.381L175.452 119.621Z" fill="#E5005B"/>
<path d="M182.862 108.77L182.92 109.73L182.018 109.39L181.124 109.73L181.173 108.77L180.569 108.025L181.496 107.785L181.935 107.106H182.125L182.548 107.76L183.475 108L182.862 108.77Z" fill="#E5005B"/>
<g opacity="0.2">
<path opacity="0.2" d="M134.739 108.77L134.789 109.73L134.052 109.448C133.783 108.697 133.76 107.88 133.986 107.114L134.416 107.776L135.343 108.016L134.739 108.77Z" fill="black"/>
<path opacity="0.2" d="M150.786 108.77L150.835 109.73L149.933 109.39L149.039 109.73L149.088 108.77L148.484 108.025L149.411 107.785L149.933 106.973L150.463 107.785L151.39 108.025L150.786 108.77Z" fill="black"/>
<path opacity="0.2" d="M166.824 108.77L166.874 109.73L165.979 109.39L165.085 109.73L165.135 108.77L164.53 108.025L165.458 107.785L165.979 106.973L166.501 107.785L167.428 108.025L166.824 108.77Z" fill="black"/>
<path opacity="0.2" d="M182.862 108.77L182.92 109.73L182.018 109.39L181.124 109.73L181.173 108.77L180.569 108.025L181.496 107.785L181.935 107.106H182.101L182.523 107.76L183.45 108L182.862 108.77Z" fill="black"/>
<path opacity="0.2" d="M158.801 120.366L158.851 121.327L157.956 120.987L157.062 121.327L157.112 120.366L156.507 119.621L157.435 119.381L157.956 118.57L158.478 119.381L159.405 119.621L158.801 120.366Z" fill="black"/>
<path opacity="0.2" d="M174.847 120.366L174.897 121.327L174.003 120.987L173.1 121.327L173.158 120.366L172.554 119.621L173.481 119.381L174.003 118.57L174.524 119.381L175.452 119.621L174.847 120.366Z" fill="black"/>
</g>
<path d="M172.388 129.745C174.044 126.31 175.435 122.701 176.793 119.125C178.151 115.549 179.393 111.998 180.461 108.364C180.461 108.298 180.37 108.248 180.345 108.323C178.838 111.841 177.456 115.416 176.114 119.001C174.773 122.585 173.39 126.086 172.256 129.703C172.256 129.778 172.355 129.819 172.388 129.745Z" fill="#263238"/>
<path opacity="0.1" d="M179.319 126.053L176.487 133.288C176.487 133.288 153.212 124.497 142.001 117.428C134.797 112.867 131.883 108.198 135.17 105.459L179.319 126.053Z" fill="black"/>
<path d="M160.068 153.775L162.436 162.441C162.436 162.441 99.508 210.492 96.6514 208.953C96.6514 208.953 105.975 125.01 122.096 108.347C130.161 100.012 139.368 100.898 145.098 106.973C146.588 108.521 162.32 128.238 163.976 137.253C165.4 145.199 160.068 153.775 160.068 153.775Z" fill="#E5005B"/>
<path d="M158.9 125.929C157.94 124.158 156.921 122.444 155.828 120.747C155.575 120.111 155.282 119.492 154.951 118.893C154.504 118.007 154.065 117.13 153.676 116.219C153.675 116.209 153.671 116.199 153.666 116.19C153.66 116.181 153.652 116.174 153.644 116.169C153.635 116.163 153.624 116.16 153.614 116.159C153.604 116.159 153.593 116.161 153.584 116.165C153.574 116.169 153.566 116.175 153.559 116.183C153.552 116.191 153.547 116.201 153.545 116.211C153.543 116.221 153.543 116.232 153.545 116.242C153.548 116.252 153.553 116.261 153.56 116.269C153.974 117.171 154.388 118.082 154.702 119.001C154.725 119.049 154.745 119.099 154.76 119.15C154.355 118.578 153.932 118.007 153.527 117.444C152.898 116.539 152.223 115.666 151.506 114.829C151.465 114.787 151.407 114.829 151.432 114.887C151.962 115.839 152.624 116.724 153.212 117.635C153.8 118.545 154.429 119.539 155.05 120.474C156.284 122.328 157.534 124.158 158.793 125.995C158.795 126.005 158.8 126.015 158.807 126.022C158.814 126.03 158.822 126.036 158.832 126.04C158.842 126.044 158.852 126.046 158.862 126.045C158.873 126.044 158.883 126.041 158.892 126.035C158.9 126.03 158.908 126.022 158.913 126.014C158.919 126.005 158.922 125.995 158.923 125.984C158.924 125.974 158.922 125.964 158.918 125.954C158.914 125.944 158.908 125.936 158.9 125.929Z" fill="#263238"/>
<g opacity="0.2">
<path opacity="0.2" d="M133.895 106.973L134.416 107.776L135.344 108.025L134.739 108.778L134.789 109.73L133.895 109.39L133.001 109.73L133.05 108.778L132.446 108.025L133.373 107.776L133.895 106.973Z" fill="black"/>
<path opacity="0.2" d="M117.848 129.828L118.378 130.639L119.306 130.887L118.693 131.632L118.751 132.584L117.848 132.245L116.954 132.584L117.004 131.632L116.399 130.887L117.327 130.639L117.848 129.828Z" fill="black"/>
<path opacity="0.2" d="M133.895 129.828L134.416 130.639L135.344 130.887L134.739 131.632L134.789 132.584L133.895 132.245L133.001 132.584L133.05 131.632L132.446 130.887L133.373 130.639L133.895 129.828Z" fill="black"/>
<path opacity="0.2" d="M149.933 129.828L150.463 130.639L151.391 130.887L150.778 131.632L150.836 132.584L149.933 132.245L149.039 132.584L149.089 131.632L148.484 130.887L149.412 130.639L149.933 129.828Z" fill="black"/>
<path opacity="0.2" d="M125.871 118.57L126.393 119.381L127.32 119.621L126.716 120.375L126.766 121.327L125.871 120.987L124.977 121.327L125.027 120.375L124.422 119.621L125.35 119.381L125.871 118.57Z" fill="black"/>
<path opacity="0.2" d="M141.918 118.57L142.44 119.381L143.367 119.621L142.763 120.375L142.812 121.327L141.918 120.987L141.016 121.327L141.074 120.375L140.461 119.621L141.397 119.381L141.918 118.57Z" fill="black"/>
<path opacity="0.2" d="M117.848 152.69L118.378 153.493L119.306 153.741L118.693 154.486L118.751 155.447L117.848 155.099L116.954 155.447L117.004 154.486L116.399 153.741L117.327 153.493L117.848 152.69Z" fill="black"/>
<path opacity="0.2" d="M133.895 152.69L134.416 153.493L135.344 153.741L134.739 154.486L134.789 155.447L133.895 155.099L133.001 155.447L133.05 154.486L132.446 153.741L133.373 153.493L133.895 152.69Z" fill="black"/>
<path opacity="0.2" d="M149.933 152.69L150.463 153.493L151.391 153.741L150.778 154.486L150.836 155.447L149.933 155.099L149.039 155.447L149.089 154.486L148.484 153.741L149.412 153.493L149.933 152.69Z" fill="black"/>
<path opacity="0.2" d="M109.833 141.424L110.355 142.236L111.282 142.484L110.678 143.229L110.728 144.181L109.833 143.842L108.939 144.181L108.989 143.229L108.384 142.484L109.312 142.236L109.833 141.424Z" fill="black"/>
<path opacity="0.2" d="M125.871 141.424L126.393 142.236L127.32 142.484L126.716 143.229L126.766 144.181L125.871 143.842L124.977 144.181L125.027 143.229L124.422 142.484L125.35 142.236L125.871 141.424Z" fill="black"/>
<path opacity="0.2" d="M141.918 141.424L142.44 142.236L143.367 142.484L142.763 143.229L142.812 144.181L141.918 143.842L141.016 144.181L141.074 143.229L140.461 142.484L141.397 142.236L141.918 141.424Z" fill="black"/>
<path opacity="0.2" d="M157.956 141.424L158.478 142.236L159.405 142.484L158.801 143.229L158.851 144.181L157.956 143.842L157.062 144.181L157.112 143.229L156.507 142.484L157.435 142.236L157.956 141.424Z" fill="black"/>
<path opacity="0.2" d="M102.654 177.341L102.704 178.301L101.81 177.953L100.982 178.276C101.081 177.639 101.189 176.993 101.297 176.347L101.81 175.52L102.332 176.347L103.259 176.596L102.654 177.341Z" fill="black"/>
<path opacity="0.2" d="M117.848 175.545L118.378 176.347L119.306 176.596L118.693 177.341L118.751 178.301L117.848 177.953L116.954 178.301L117.004 177.341L116.399 176.596L117.327 176.347L117.848 175.545Z" fill="black"/>
<path opacity="0.2" d="M133.895 175.545L134.416 176.347L135.344 176.596L134.739 177.341L134.789 178.301L133.895 177.953L133.001 178.301L133.05 177.341L132.446 176.596L133.373 176.347L133.895 175.545Z" fill="black"/>
<path opacity="0.2" d="M109.833 164.287L110.355 165.09L111.282 165.338L110.678 166.083L110.728 167.044L109.833 166.696L108.939 167.044L108.989 166.083L108.384 165.338L109.312 165.09L109.833 164.287Z" fill="black"/>
<path opacity="0.2" d="M125.871 164.287L126.393 165.09L127.32 165.338L126.716 166.083L126.766 167.044L125.871 166.696L124.977 167.044L125.027 166.083L124.422 165.338L125.35 165.09L125.871 164.287Z" fill="black"/>
<path opacity="0.2" d="M141.918 164.287L142.44 165.09L143.367 165.338L142.763 166.083L142.812 167.044L141.918 166.696L141.016 167.044L141.074 166.083L140.461 165.338L141.397 165.09L141.918 164.287Z" fill="black"/>
<path opacity="0.2" d="M157.087 166.497V166.083L156.483 165.338L157.41 165.09L157.932 164.262L158.454 165.09L158.81 165.181L157.087 166.497Z" fill="black"/>
<path opacity="0.2" d="M101.81 198.399L102.331 199.202L103.259 199.45L102.654 200.195L102.704 201.155L101.81 200.808L100.916 201.155L100.965 200.195L100.361 199.45L101.288 199.202L101.81 198.399Z" fill="black"/>
<path opacity="0.2" d="M109.833 187.141L110.355 187.944L111.282 188.193L110.678 188.938L110.728 189.898L109.833 189.55L108.939 189.898L108.989 188.938L108.384 188.193L109.312 187.944L109.833 187.141Z" fill="black"/>
<path opacity="0.2" d="M126.716 188.938V189.12L126.037 189.616L125.863 189.55L124.969 189.898L125.018 188.938L124.414 188.193L125.341 187.944L125.863 187.117L126.385 187.944L127.312 188.193L126.716 188.938Z" fill="black"/>
</g>
<path d="M120.92 109.953C98.7214 133.056 66.3549 191.553 62.3557 199.938C59.6398 205.633 89.4147 220.632 90.6815 216.494C92.3375 211.196 118.237 145.729 125.126 121.029C128.943 107.412 125.516 105.185 120.92 109.953Z" fill="#EB9481"/>
<path d="M92.0972 212.595C91.0622 215.426 87.5267 227.494 85.051 228.976C82.5752 230.458 69.5839 230.152 63.0593 230.152C56.5346 230.152 55.2347 228.331 55.3423 226.079C55.45 223.828 69.1699 223.43 69.1699 223.43C69.1699 223.43 50.8463 228.686 46.2343 229.539C41.6224 230.392 30.9991 233.082 29.4673 229.258C28.7718 227.536 31.6781 225.789 31.6781 225.789C31.6781 225.789 27.2234 227.089 26.5114 224.879C25.6834 222.396 29.252 220.963 29.252 220.963C29.252 220.963 26.4617 221.526 26.4037 219.474C26.2547 214.879 43.6924 212.628 43.6924 212.628C43.6924 212.628 30.345 219.118 29.9144 215.376C29.3183 210.186 56.6754 204.499 59.5237 202.24C61.3844 200.663 62.9321 198.751 64.086 196.603L92.0972 212.595Z" fill="#EB9481"/>
<path d="M55.4419 227.221C55.3963 226.9 55.429 226.573 55.5371 226.268C55.6452 225.962 55.8256 225.687 56.0629 225.466C56.5302 225.034 57.0678 224.684 57.6526 224.432C58.8639 223.917 60.1193 223.512 61.4035 223.223C63.9786 222.561 66.6199 222.106 69.2529 221.419C66.5344 221.382 63.822 221.688 61.1799 222.329C59.8318 222.64 58.5333 223.136 57.3215 223.803C56.6991 224.152 56.153 224.622 55.7151 225.185C55.4984 225.472 55.3594 225.811 55.3116 226.167C55.2637 226.524 55.3086 226.887 55.4419 227.221Z" fill="#263238"/>
<path d="M31.6782 225.756C33.5661 225.293 35.4208 224.763 37.2838 224.225C39.1468 223.687 40.9767 223.124 42.8314 222.569L48.3459 220.839C50.1923 220.26 52.0305 219.689 53.8852 219.134C51.9587 219.338 50.0475 219.667 48.1637 220.119C46.2676 220.55 44.4129 221.096 42.5581 221.659C40.7034 222.222 38.8735 222.842 37.0602 223.53C35.2469 224.217 33.4419 224.937 31.6782 225.756Z" fill="#263238"/>
<path d="M49.4634 214.557C47.6844 214.671 45.9161 214.914 44.1725 215.285C42.4254 215.639 40.698 216.083 38.9975 216.618C37.2909 217.136 35.6156 217.753 33.9798 218.464C32.3407 219.176 30.7551 220.006 29.2354 220.947C30.8914 220.367 32.5474 219.722 34.2034 219.159C35.8594 218.596 37.5154 218.025 39.2293 217.503C40.9433 216.982 42.5993 216.477 44.2884 215.98C45.9775 215.484 47.7412 215.02 49.4634 214.557Z" fill="#263238"/>
<path d="M46.7641 210.186C43.894 210.402 41.0652 210.998 38.3516 211.958C35.6142 212.86 33.0083 214.121 30.6016 215.707C33.3174 214.739 35.9504 213.721 38.6414 212.827C41.3324 211.933 44.0317 211.064 46.7641 210.186Z" fill="#263238"/>
<path d="M90.2837 146.995L114.958 155.62C114.958 155.62 124.621 131.268 126.749 118.222C128.877 105.177 126.409 102.363 115.157 114.522C103.904 126.682 90.2837 146.995 90.2837 146.995Z" fill="#E5005B"/>
<g opacity="0.2">
<path opacity="0.2" d="M102.654 131.632L102.704 132.584L101.81 132.245L100.916 132.584V132.029C101.313 131.491 101.744 130.945 102.133 130.374L102.298 130.639L103.226 130.887L102.654 131.632Z" fill="black"/>
<path opacity="0.2" d="M117.848 129.828L118.378 130.639L119.305 130.887L118.692 131.632L118.75 132.584L117.848 132.245L116.954 132.584L117.003 131.632L116.399 130.887L117.326 130.639L117.848 129.828Z" fill="black"/>
<path opacity="0.2" d="M110.677 120.366L110.727 121.327L109.833 120.987L109.411 121.144L110.785 119.489L111.282 119.621L110.677 120.366Z" fill="black"/>
<path opacity="0.2" d="M126.559 119.423C126.459 119.969 126.343 120.54 126.219 121.078L125.871 120.946L124.977 121.285L125.027 120.325L124.422 119.58L125.35 119.34L125.871 118.512L126.393 119.34L126.559 119.423Z" fill="black"/>
<path opacity="0.2" d="M94.6309 143.229L94.6806 144.181L93.7863 143.842L92.8921 144.181L92.9418 143.229V143.188C93.273 142.724 93.6207 142.219 93.9933 141.689L94.3411 142.236L95.2684 142.484L94.6309 143.229Z" fill="black"/>
<path opacity="0.2" d="M109.833 141.424L110.354 142.236L111.282 142.484L110.677 143.229L110.727 144.181L109.833 143.842L108.939 144.181L108.988 143.229L108.384 142.484L109.311 142.236L109.833 141.424Z" fill="black"/>
</g>
<path d="M124.869 131.756C123.833 133.46 122.888 135.217 122.038 137.021C122.294 136.193 122.551 135.316 122.799 134.471C123.412 132.377 124.041 130.266 124.53 128.139C124.526 128.13 124.52 128.123 124.512 128.117C124.503 128.112 124.494 128.109 124.484 128.109C124.475 128.109 124.465 128.112 124.457 128.117C124.449 128.123 124.443 128.13 124.439 128.139C123.097 131.707 121.955 135.349 120.663 138.95C119.371 142.55 118.121 146.126 116.871 149.71C116.184 151.672 115.546 153.642 114.942 155.629L113.7 155.19C113.617 155.14 113.592 155.281 113.7 155.298L115.19 155.943C115.24 155.943 119.736 144.529 121.533 138.693C122.783 136.458 123.925 134.157 124.985 131.831C124.99 131.823 124.994 131.815 124.995 131.806C124.997 131.797 124.997 131.788 124.995 131.779C124.993 131.77 124.989 131.762 124.984 131.754C124.979 131.747 124.972 131.741 124.965 131.736C124.957 131.731 124.948 131.727 124.94 131.726C124.931 131.724 124.922 131.724 124.913 131.726C124.904 131.728 124.895 131.732 124.888 131.737C124.881 131.742 124.874 131.749 124.869 131.756Z" fill="#263238"/>
<path d="M115.952 151.275C112.491 149.619 108.864 148.336 105.271 147.028C101.677 145.721 98.1002 144.545 94.4487 143.51C94.3742 143.51 94.3411 143.61 94.4487 143.635C97.9926 145.091 101.586 146.416 105.213 147.707C108.839 148.998 112.334 150.331 115.977 151.407C115.988 151.399 115.997 151.388 116.002 151.374C116.008 151.361 116.009 151.347 116.006 151.333C116.004 151.319 115.997 151.306 115.988 151.296C115.978 151.286 115.966 151.278 115.952 151.275Z" fill="#263238"/>
<path d="M133.191 102.578C125.416 103.356 127.494 111.187 130.922 114.771C133.207 117.171 137.836 119.588 140.494 118.636C143.152 117.684 141.057 111.741 141.057 111.741C141.057 111.741 145.437 115.996 147.06 114.158C148.683 112.321 141.239 101.75 133.191 102.578Z" fill="#263238"/>
<path d="M129.15 106.642C129.589 107.751 135.517 112.221 140.742 111.22C142.398 110.889 141.653 103.729 141.653 103.729L141.711 103.017L142.464 93.0836L130.044 87.4631L128.264 86.743C128.264 86.743 128.264 89.4828 128.264 92.8849V93.3733C128.264 93.5637 128.264 93.7458 128.264 93.9279C128.264 94.4328 128.264 94.9543 128.264 95.4758C128.264 95.8648 128.264 96.2539 128.264 96.6678C128.264 97.0816 128.264 97.4955 128.264 97.9011C128.365 100.831 128.661 103.751 129.15 106.642Z" fill="#EB9481"/>
<path d="M128.248 92.8684C129.614 95.4353 131.525 97.6731 133.846 99.4259C136.167 101.179 138.842 102.404 141.686 103.017L142.439 93.0836L130.019 87.4631L128.239 86.743C128.239 86.743 128.248 89.4663 128.248 92.8684Z" fill="#263238"/>
<path d="M154.727 76.694C157.89 93.9279 147.921 97.7604 144.203 98.4391C140.825 99.0517 129.258 100.724 124.331 83.9038C119.405 67.0838 126.418 60.1803 134.06 58.3675C141.703 56.5547 151.556 59.4602 154.727 76.694Z" fill="#EB9481"/>
<path d="M149.146 72.6049C148.732 72.6049 148.318 72.5387 147.938 72.5056C147.509 72.526 147.084 72.407 146.729 72.1662C146.634 72.0677 146.573 71.9408 146.557 71.8049C146.54 71.6689 146.569 71.5313 146.638 71.413C146.809 71.1973 147.036 71.0324 147.294 70.9361C147.553 70.8399 147.832 70.8158 148.103 70.8666C148.667 70.8739 149.208 71.0925 149.618 71.4792C149.706 71.5736 149.764 71.6912 149.787 71.818C149.809 71.9447 149.795 72.0752 149.745 72.1939C149.695 72.3126 149.612 72.4145 149.506 72.4874C149.4 72.5602 149.275 72.6011 149.146 72.6049Z" fill="#263238"/>
<path d="M137.298 74.6743C137.688 74.563 138.072 74.4304 138.448 74.277C138.869 74.1967 139.251 73.9782 139.533 73.6562C139.605 73.5386 139.635 73.4004 139.618 73.2638C139.602 73.1271 139.54 73 139.442 72.9029C139.222 72.7374 138.961 72.634 138.687 72.6034C138.414 72.5728 138.137 72.6162 137.885 72.7291C137.34 72.88 136.871 73.2281 136.569 73.7058C136.506 73.8179 136.477 73.9458 136.486 74.0739C136.494 74.202 136.54 74.3249 136.617 74.4275C136.695 74.5302 136.8 74.6081 136.921 74.6519C137.042 74.6958 137.172 74.7035 137.298 74.6743Z" fill="#263238"/>
<path d="M140.543 78.8379C140.543 78.8379 140.461 78.9041 140.469 78.9538C140.684 80.1292 140.725 81.5116 139.715 82.0579C139.715 82.0579 139.715 82.1324 139.715 82.1241C141.015 81.7433 140.932 79.914 140.543 78.8379Z" fill="#263238"/>
<path d="M139.31 77.7453C137.389 77.886 137.803 81.7102 139.583 81.5861C141.363 81.4619 140.916 77.646 139.31 77.7453Z" fill="#263238"/>
<path d="M138.573 78.0433C138.267 78.2999 137.977 78.7138 137.579 78.7966C137.182 78.8793 136.751 78.5317 136.379 78.184C136.379 78.1426 136.312 78.184 136.312 78.2337C136.387 78.9704 136.751 79.6905 137.546 79.7154C138.341 79.7402 138.722 79.0283 138.821 78.2751C138.846 78.1343 138.705 77.944 138.573 78.0433Z" fill="#263238"/>
<path d="M147.416 77.4721C147.416 77.4225 147.515 77.5135 147.523 77.5632C147.606 78.7552 147.896 80.1044 149.014 80.3858V80.4603C147.656 80.4024 147.283 78.5731 147.416 77.4721Z" fill="#263238"/>
<path d="M148.327 76.0898C150.223 75.7504 150.761 79.5663 149.006 79.8809C147.25 80.1954 146.737 76.4043 148.327 76.0898Z" fill="#263238"/>
<path d="M149.155 76.2636C149.486 76.4209 149.842 76.7437 150.198 76.7189C150.554 76.694 150.877 76.2305 151.084 75.8001C151.084 75.7504 151.142 75.8001 151.15 75.8001C151.274 76.5202 151.15 77.3149 150.455 77.5549C149.759 77.795 149.279 77.2155 149.006 76.5119C148.948 76.4126 149.022 76.1974 149.155 76.2636Z" fill="#263238"/>
<path d="M146.373 83.0181C146.373 83.0181 146.828 84.7563 146.927 85.5924C146.927 85.6669 146.737 85.7331 146.456 85.7828C145.756 86.002 145.009 86.0237 144.297 85.8455C143.586 85.6673 142.937 85.2961 142.423 84.7729C142.349 84.6984 142.423 84.5991 142.531 84.6405C143.684 85.2386 145 85.4476 146.282 85.2365C146.282 85.0047 145.396 82.2896 145.52 82.2648C146.177 82.2376 146.835 82.3045 147.474 82.4635C146.646 78.8131 145.189 75.3282 144.402 71.7027C144.402 71.5702 144.559 71.5123 144.609 71.6199C146.364 75.171 147.441 79.3511 148.41 83.0926C148.517 83.5396 146.72 83.1174 146.373 83.0181Z" fill="#263238"/>
<path d="M146.373 85.1951C146.028 85.9562 145.491 86.615 144.816 87.1072C144.439 87.3587 143.994 87.4913 143.541 87.488C142.547 87.488 142.324 86.6023 142.324 85.8324C142.329 85.4194 142.382 85.0083 142.481 84.6074C143.682 85.2136 145.046 85.4196 146.373 85.1951Z" fill="#263238"/>
<path d="M144.816 87.132C144.439 87.3835 143.994 87.5162 143.541 87.5128C142.547 87.5128 142.324 86.6271 142.324 85.8573C142.822 85.759 143.339 85.8313 143.791 86.0625C144.243 86.2938 144.604 86.6705 144.816 87.132Z" fill="#FF9ABB"/>
<path d="M125.565 82.9933C129.755 82.5214 130.003 69.5091 130.011 67.9116C130.053 68.9214 130.309 74.2522 130.732 74.4343C131.182 74.3903 131.622 74.27 132.032 74.0783C131.978 73.4421 131.978 72.8025 132.032 72.1662C132.032 71.8682 132.189 72.7953 132.437 73.9376L133.199 73.6562C133.046 72.3007 133.077 70.9309 133.29 69.5836C133.373 69.0704 133.679 71.3219 134.317 73.2589C137.823 71.9398 141.463 71.0099 145.172 70.4859C146.215 70.37 147.126 70.312 147.929 70.2955C147.813 68.7228 147.507 67.059 147.648 67.4149C148.036 68.3375 148.33 69.2971 148.525 70.2789H149.726C149.668 68.0523 148.343 64.5923 148.741 65.1138C149.923 66.7007 150.791 68.4988 151.299 70.4114C152.831 70.5852 153.278 70.8501 153.286 70.4528C153.286 69.7409 151.97 63.599 146.787 59.4188C141.156 54.8661 130.583 54.4523 125.259 62.4898C125.259 62.4898 120.63 66.0326 120.291 71.206C119.951 76.3795 123.139 83.2581 125.565 82.9933Z" fill="#263238"/>
<path d="M127.32 84.7315C127.32 84.7315 122.99 79.6491 120.696 81.2384C118.403 82.8277 121.963 90.4513 124.969 91.2543C125.347 91.3834 125.747 91.4348 126.146 91.4054C126.544 91.376 126.933 91.2664 127.287 91.0832C127.642 90.8999 127.957 90.6469 128.211 90.3391C128.466 90.0314 128.656 89.6754 128.769 89.2925L127.32 84.7315Z" fill="#EB9481"/>
<path d="M121.748 83.3988V83.4733C123.859 84.1107 125.11 85.8904 126.045 87.7777C125.906 87.5872 125.727 87.4288 125.521 87.313C125.316 87.1972 125.087 87.1268 124.852 87.1064C124.617 87.086 124.38 87.1161 124.157 87.1948C123.935 87.2735 123.732 87.3988 123.561 87.5625C123.512 87.5625 123.561 87.6783 123.628 87.6618C123.974 87.5151 124.358 87.4794 124.725 87.5594C125.093 87.6394 125.427 87.8314 125.681 88.1088C126.109 88.5714 126.482 89.0825 126.791 89.6318C126.906 89.8057 127.221 89.6318 127.138 89.4746V89.4249C126.915 86.8506 124.547 83.3906 121.748 83.3988Z" fill="#263238"/>
<path d="M236.581 30.4392C236.069 35.3862 234.19 40.0933 231.156 44.0345C228.121 47.9758 224.05 50.9958 219.398 52.7571C214.745 54.5185 209.694 54.9518 204.81 54.0087C199.925 53.0656 195.399 50.7831 191.737 47.4164L178.298 49.3865L185.013 37.7979C183.335 33.7108 182.703 29.2695 183.175 24.8766C183.915 17.7978 187.438 11.3027 192.968 6.82031C198.499 2.33792 205.584 0.235373 212.664 0.975204C219.745 1.71503 226.242 5.23664 230.726 10.7653C235.21 16.294 237.313 23.3768 236.573 30.4557L236.581 30.4392Z" fill="white"/>
<path d="M236.581 30.4392C236.06 35.3863 234.187 40.0946 231.166 44.0474C229.684 46.0368 227.908 47.7895 225.9 49.2458C220.907 53.047 214.73 54.9589 208.462 54.6427C207.218 54.6082 205.977 54.4781 204.753 54.2537C199.814 53.34 195.226 51.07 191.505 47.6978L191.819 47.7972L178.406 49.8583L177.429 50.0073L177.926 49.1795L184.607 37.591V38.0545C183.03 34.207 182.36 30.0485 182.647 25.9005C182.934 21.7525 184.171 17.726 186.263 14.1324C188.354 10.5544 191.227 7.49546 194.668 5.18434C198.105 2.90996 202.013 1.44259 206.098 0.892133C210.183 0.341672 214.34 0.722384 218.257 2.00576C222.141 3.3232 225.68 5.49247 228.616 8.35464C231.522 11.1982 233.747 14.6614 235.127 18.4856C236.506 22.3097 237.003 26.396 236.581 30.4392ZM236.581 30.4392C237.01 26.3984 236.505 22.3131 235.105 18.4982C233.705 14.6833 231.448 11.2406 228.508 8.43525C225.567 5.62992 222.021 3.53689 218.144 2.31742C214.267 1.09795 210.161 0.784594 206.144 1.4015C202.162 1.9943 198.369 3.49232 195.057 5.78032C191.776 8.08276 189.035 11.0711 187.025 14.538C185.044 18.0172 183.878 21.9001 183.614 25.8948C183.366 29.8826 184.011 33.8756 185.502 37.5827L185.601 37.8227L185.477 38.0379L178.712 49.6265L178.232 48.9146L191.679 47.0356H191.861L191.993 47.1598C195.578 50.5179 200.028 52.811 204.844 53.7818C206.045 54.0259 207.263 54.1753 208.487 54.2288C209.711 54.3116 210.939 54.3116 212.163 54.2288C214.616 54.0389 217.029 53.5067 219.334 52.6478C221.652 51.8104 223.833 50.6362 225.809 49.163C226.799 48.4311 227.745 47.6405 228.641 46.7956C229.515 45.9266 230.331 45.0002 231.083 44.0226C234.135 40.0888 236.038 35.3875 236.581 30.4392Z" fill="#263238"/>
<path d="M207.228 21.996C208.675 23.515 209.481 25.5318 209.481 27.6289C209.481 29.726 208.675 31.7428 207.228 33.2618C206.553 34.0048 205.732 34.6001 204.816 35.0104C203.899 35.4206 202.908 35.637 201.904 35.6457C200.881 35.6411 199.87 35.4272 198.933 35.0173C197.996 34.6073 197.153 34.0098 196.456 33.2618C195.034 31.7307 194.243 29.7185 194.243 27.6289C194.243 25.5394 195.034 23.5272 196.456 21.996C197.152 21.246 197.995 20.6473 198.932 20.2372C199.869 19.8271 200.881 19.6143 201.904 19.6121C202.909 19.6169 203.901 19.8314 204.818 20.2419C205.735 20.6524 206.556 21.2499 207.228 21.996ZM206.938 27.6331C206.942 26.1892 206.401 24.797 205.423 23.7343C204.974 23.236 204.425 22.8375 203.811 22.5648C203.198 22.2921 202.534 22.1512 201.863 22.1512C201.192 22.1512 200.528 22.2921 199.915 22.5648C199.301 22.8375 198.752 23.236 198.302 23.7343C197.318 24.7929 196.776 26.1878 196.787 27.6331C196.773 29.0715 197.316 30.4597 198.302 31.507C198.749 32.01 199.297 32.4126 199.911 32.6884C200.525 32.9641 201.19 33.1067 201.863 33.1067C202.536 33.1067 203.201 32.9641 203.815 32.6884C204.428 32.4126 204.977 32.01 205.423 31.507C206.403 30.4555 206.945 29.0701 206.938 27.6331Z" fill="#E5005B"/>
<path d="M213.207 34.4206V21.4C213.207 21.0707 213.337 20.7549 213.57 20.5221C213.803 20.2892 214.119 20.1584 214.449 20.1584C214.778 20.1584 215.094 20.2892 215.327 20.5221C215.56 20.7549 215.691 21.0707 215.691 21.4V27.782L222.902 20.5475C223.016 20.4318 223.151 20.34 223.3 20.2773C223.45 20.2146 223.61 20.1823 223.772 20.1823C223.934 20.1823 224.094 20.2146 224.243 20.2773C224.393 20.34 224.528 20.4318 224.641 20.5475C224.865 20.7816 224.99 21.0929 224.99 21.4166C224.99 21.7404 224.865 22.0517 224.641 22.2858L219.698 27.1612L224.666 33.6426C224.77 33.765 224.849 33.9073 224.897 34.0609C224.945 34.2145 224.961 34.3763 224.945 34.5364C224.929 34.6965 224.88 34.8517 224.803 34.9925C224.725 35.1334 224.619 35.257 224.492 35.356C224.279 35.5475 224.001 35.651 223.714 35.6457C223.537 35.6423 223.364 35.6005 223.205 35.5233C223.046 35.4462 222.906 35.3354 222.795 35.1987L217.992 28.8995L215.674 31.2586V34.4206C215.674 34.7499 215.543 35.0658 215.31 35.2986C215.077 35.5315 214.761 35.6623 214.432 35.6623C214.103 35.6623 213.787 35.5315 213.554 35.2986C213.321 35.0658 213.19 34.7499 213.19 34.4206H213.207Z" fill="#E5005B"/>
</svg>
