<svg width="18" height="18" viewBox="0 0 18 18" fill="none" xmlns="http://www.w3.org/2000/svg">
<path d="M16.1164 13.3832C15.8048 13.1514 15.3644 13.2161 15.1326 13.5276C15.0051 13.699 14.8687 13.867 14.7271 14.0272C14.4699 14.3181 14.4973 14.7625 14.7882 15.0197C14.922 15.1379 15.0881 15.196 15.2536 15.196C15.4481 15.196 15.6417 15.1158 15.7807 14.9586C15.9483 14.7689 16.1099 14.5699 16.2608 14.3669C16.4926 14.0554 16.428 13.6149 16.1164 13.3832Z" fill="#4A2545"/>
<path d="M17.2912 10.0861C16.912 10.0035 16.5372 10.2441 16.4546 10.6235C16.4092 10.8322 16.3543 11.0414 16.2913 11.2451C16.1766 11.6162 16.3845 12.0098 16.7555 12.1245C16.8246 12.1458 16.8945 12.156 16.9633 12.156C17.2635 12.156 17.5416 11.9621 17.6349 11.6602C17.7096 11.4184 17.7748 11.1702 17.8287 10.9226C17.9113 10.5432 17.6706 10.1687 17.2912 10.0861Z" fill="#4A2545"/>
<path d="M12.7305 15.6352C12.5439 15.7394 12.3506 15.8368 12.1561 15.9247C11.8022 16.0845 11.6449 16.5009 11.8047 16.8549C11.9221 17.1149 12.178 17.2688 12.4459 17.2688C12.5426 17.2688 12.641 17.2487 12.7349 17.2063C12.9656 17.1021 13.1948 16.9866 13.4161 16.863C13.7552 16.6737 13.8766 16.2454 13.6872 15.9063C13.498 15.5673 13.0696 15.4459 12.7305 15.6352Z" fill="#4A2545"/>
<path d="M8.29597 3.375V8.70877L5.71765 11.2871C5.44308 11.5617 5.44308 12.0068 5.71765 12.2814C5.85497 12.4187 6.03486 12.4874 6.21486 12.4874C6.39479 12.4874 6.57476 12.4187 6.71208 12.2814L9.49631 9.49718C9.62815 9.36534 9.70222 9.18647 9.70222 9V3.375C9.70222 2.98666 9.38743 2.67188 8.9991 2.67188C8.61076 2.67188 8.29597 2.98666 8.29597 3.375Z" fill="#4A2545"/>
<path d="M17.2969 1.51172C16.9085 1.51172 16.5938 1.82651 16.5938 2.21484V4.16728C14.9572 1.60059 12.0991 0 9 0C6.59602 0 4.33593 0.936176 2.63602 2.63602C0.936176 4.33593 0 6.59602 0 9C0 11.404 0.936176 13.6641 2.63602 15.364C4.33593 17.0638 6.59602 18 9 18C9.00594 18 9.01167 17.9993 9.01758 17.9991C9.02348 17.9993 9.02921 18 9.03516 18C9.28856 18 9.54447 17.9893 9.79583 17.9683C10.1828 17.9359 10.4702 17.5959 10.4379 17.2089C10.4054 16.822 10.0659 16.5344 9.67848 16.567C9.466 16.5847 9.24957 16.5938 9.03516 16.5938C9.02921 16.5938 9.02348 16.5945 9.01758 16.5946C9.01167 16.5945 9.00594 16.5938 9 16.5938C4.81279 16.5938 1.40625 13.1872 1.40625 9C1.40625 4.81279 4.81279 1.40625 9 1.40625C11.6985 1.40625 14.1805 2.8446 15.5368 5.13281H13.6035C13.2151 5.13281 12.9003 5.4476 12.9003 5.83594C12.9003 6.22427 13.2151 6.53906 13.6035 6.53906H15.75C16.1782 6.53906 16.5788 6.41872 16.9199 6.21025C16.9418 6.19773 16.9629 6.18427 16.983 6.16975C17.595 5.76717 18 5.0747 18 4.28906V2.21484C18 1.82651 17.6852 1.51172 17.2969 1.51172Z" fill="#4A2545"/>
</svg>
